<svg fill="none" height="100%" width="100%" viewBox="0 0 800 800" xmlns:xlink="http://www.w3.org/1999/xlink" xmlns="http://www.w3.org/2000/svg"><defs><clipPath id="i0"><rect height="300" width="300" y="0" x="0" /></clipPath><g id="i1"><g visibility="visible" id="i2"><animate repeatCount="indefinite" begin="0s" calcMode="discrete" dur="4s" values="visible; hidden; hidden" keyTimes="0; 0.917; 1" attributeName="visibility" /><g transform="translate(106,126)"><animateTransform repeatCount="indefinite" type="translate" attributeName="transform" dur="4s" begin="0s" calcMode="spline" values="106 126; 106 126; 116.25 126; 116.25 126; 106 126; 106 126" keyTimes="0; 0.166667; 0.275; 0.416666; 0.75; 1" keySplines="0 0 1 1; 0.333 0 0.667 1; 0 0 1 1; 0.333 0 0.667 1; 0 0 1 1" fill="freeze" /><g transform="scale(1,1.083)"><animateTransform repeatCount="indefinite" type="scale" attributeName="transform" dur="4s" begin="0s" calcMode="spline" values="1 1.083; 0.88 1.083; 0.88 1.083; 1 1.083; 1 1.083; 1 1.083" keyTimes="0; 0.108333; 0.166667; 0.275; 0.416667; 1" keySplines="0 0 1 1; 0 0 1 1; 0 0 1 1; 0 0 1 1; 0 0 1 1" fill="freeze" /><g transform="translate(43,-52)"><g id="i3" transform="matrix(1,0,0,1,-43,52)"><ellipse ry="12" rx="12" cy="0" cx="0" fill="#500c01" /></g></g></g></g></g><g visibility="visible" id="i4"><animate repeatCount="indefinite" begin="0s" calcMode="discrete" dur="4s" values="visible; hidden; hidden" keyTimes="0; 0.917; 1" attributeName="visibility" /><g transform="translate(194,126)"><animateTransform repeatCount="indefinite" type="translate" attributeName="transform" dur="4s" begin="0s" calcMode="spline" values="194 126; 188 126; 188 126; 194.25 126; 194.25 126; 194 126; 194 126" keyTimes="0; 0.108333; 0.166666; 0.275; 0.416667; 0.75; 1" keySplines="0.333 0 0.667 1; 0 0 1 1; 0.333 0 0.667 1; 0 0 1 1; 0.167 0 0.667 1; 0 0 1 1" fill="freeze" /><g transform="scale(1,1.083)"><animateTransform repeatCount="indefinite" type="scale" attributeName="transform" dur="4s" begin="0s" calcMode="spline" values="1 1.083; 1 1.083; 0.88 1.083; 0.88 1.083; 1 1.083; 1 1.083" keyTimes="0; 0.166667; 0.275; 0.416666; 0.75; 1" keySplines="0 0 1 1; 0 0 1 1; 0 0 1 1; 0 0 1 1; 0 0 1 1" fill="freeze" /><g transform="translate(43,-52)"><g id="i3" transform="matrix(1,0,0,1,-43,52)"><ellipse ry="12" rx="12" cy="0" cx="0" fill="#500c01" /></g></g></g></g></g><g transform="matrix(1,0,0,1.083,149,69.667)" visibility="hidden" id="i5"><animate repeatCount="indefinite" begin="0s" calcMode="discrete" dur="4s" values="hidden; visible; visible" keyTimes="0; 0.917; 1" attributeName="visibility" /><g id="i3" transform="matrix(1,0,0,1,-43,52)"><path d="M0,-12C6.627,-12,12,-6.627,12,0C12,6.627,6.627,12,0,12C-6.627,12,-12,6.627,-12,0C-12,-6.627,-6.627,-12,0,-12Z" fill="#500c01"><animate repeatCount="indefinite" attributeName="d" dur="4s" begin="0s" calcMode="spline" values="M0,-12C6.627,-12,12,-6.627,12,0C12,6.627,6.627,12,0,12C-6.627,12,-12,6.627,-12,0C-12,-6.627,-6.627,-12,0,-12Z; M0,-12C6.627,-12,12,-6.627,12,0C12,6.627,6.627,12,0,12C-6.627,12,-12,6.627,-12,0C-12,-6.627,-6.627,-12,0,-12Z; M-0.25,-1.385C6.377,-1.385,12.5,-1.846,12,0C11.216,2.896,7.127,1.154,0.5,1.154C-6.127,1.154,-12,2.321,-12,0C-12,-2.077,-6.877,-1.385,-0.25,-1.385Z; M0,-12C6.627,-12,12,-6.627,12,0C12,6.627,6.627,12,0,12C-6.627,12,-12,6.627,-12,0C-12,-6.627,-6.627,-12,0,-12Z; M0,-12C6.627,-12,12,-6.627,12,0C12,6.627,6.627,12,0,12C-6.627,12,-12,6.627,-12,0C-12,-6.627,-6.627,-12,0,-12Z" keyTimes="0; 0.916667; 0.941667; 0.966667; 1" keySplines="0 0 1 1; 0.333 0 0.667 1; 0.333 0 0.667 1; 0 0 1 1" fill="freeze" /></path></g></g><g transform="matrix(1,0,0,1.083,237,69.667)" visibility="hidden" id="i6"><animate repeatCount="indefinite" begin="0s" calcMode="discrete" dur="4s" values="hidden; visible; visible" keyTimes="0; 0.917; 1" attributeName="visibility" /><g id="i3" transform="matrix(1,0,0,1,-43,52)"><path d="M0,-12C6.627,-12,12,-6.627,12,0C12,6.627,6.627,12,0,12C-6.627,12,-12,6.627,-12,0C-12,-6.627,-6.627,-12,0,-12Z" fill="#500c01"><animate repeatCount="indefinite" attributeName="d" dur="4s" begin="0s" calcMode="spline" values="M0,-12C6.627,-12,12,-6.627,12,0C12,6.627,6.627,12,0,12C-6.627,12,-12,6.627,-12,0C-12,-6.627,-6.627,-12,0,-12Z; M0,-12C6.627,-12,12,-6.627,12,0C12,6.627,6.627,12,0,12C-6.627,12,-12,6.627,-12,0C-12,-6.627,-6.627,-12,0,-12Z; M0.5,-1.846C4.382,-1.846,11.938,-2.712,12,0C12.066,2.885,4.43,1.788,0.75,1.788C-3.594,1.788,-12,2.885,-12,0C-12,-2.769,-3.712,-1.846,0.5,-1.846Z; M0,-12C6.627,-12,12,-6.627,12,0C12,6.627,6.627,12,0,12C-6.627,12,-12,6.627,-12,0C-12,-6.627,-6.627,-12,0,-12Z; M0,-12C6.627,-12,12,-6.627,12,0C12,6.627,6.627,12,0,12C-6.627,12,-12,6.627,-12,0C-12,-6.627,-6.627,-12,0,-12Z" keyTimes="0; 0.916667; 0.941667; 0.966667; 1" keySplines="0 0 1 1; 0.333 0 0.667 1; 0.333 0 0.667 1; 0 0 1 1" fill="freeze" /></path></g></g><g id="i7"><g transform="translate(82,146)"><animateTransform repeatCount="indefinite" type="translate" attributeName="transform" dur="4s" begin="0s" calcMode="spline" values="82 146; 88 146; 88 146; 93.25 146; 93.25 146; 82 146; 82 146" keyTimes="0; 0.108333; 0.166666; 0.275; 0.416667; 0.75; 1" keySplines="0.333 0 0.667 1; 0 0 1 1; 0.333 0 0.667 1; 0 0 1 1; 0.333 0 0.667 1; 0 0 1 1" fill="freeze" /><g transform="scale(0.8,0.8)"><animateTransform repeatCount="indefinite" type="scale" attributeName="transform" dur="4s" begin="0s" calcMode="spline" values="0.8 0.8; 0.7 0.8; 0.7 0.8; 0.8 0.8; 0.8 0.8" keyTimes="0; 0.108333; 0.166667; 0.275; 1" keySplines="0 0 1 1; 0 0 1 1; 0 0 1 1; 0 0 1 1" fill="freeze" /><g transform="translate(67.5,-73.5)"><g id="i3" transform="matrix(1,0,0,1,-67.5,73.5)"><ellipse ry="12.5" rx="12.5" cy="0" cx="0" fill="#ffbdc4" /></g></g></g></g></g><g id="i8"><g transform="translate(218,146)"><animateTransform repeatCount="indefinite" type="translate" attributeName="transform" dur="4s" begin="0s" calcMode="spline" values="218 146; 211 146; 211 146; 217.75 146; 217.75 146; 218 146; 218 146" keyTimes="0; 0.108333; 0.166666; 0.275; 0.416667; 0.75; 1" keySplines="0.333 0 0.667 1; 0 0 1 1; 0.333 0 0.667 1; 0 0 1 1; 0.333 0 0.667 1; 0 0 1 1" fill="freeze" /><g transform="scale(0.8,0.8)"><animateTransform repeatCount="indefinite" type="scale" attributeName="transform" dur="4s" begin="0s" calcMode="spline" values="0.8 0.8; 0.8 0.8; 0.7 0.8; 0.7 0.8; 0.8 0.8; 0.8 0.8" keyTimes="0; 0.166667; 0.275; 0.416666; 0.75; 1" keySplines="0 0 1 1; 0 0 1 1; 0 0 1 1; 0 0 1 1; 0 0 1 1" fill="freeze" /><g transform="translate(67.5,-73.5)"><g id="i3" transform="matrix(1,0,0,1,-67.5,73.5)"><ellipse ry="12.5" rx="12.5" cy="0" cx="0" fill="#ffbdc4" /></g></g></g></g></g><g id="i9"><g transform="translate(150,134)"><animateTransform repeatCount="indefinite" type="translate" attributeName="transform" dur="4s" begin="0s" calcMode="spline" values="150 134; 143 134; 143 134; 159 134; 159 134; 150 134; 150 134" keyTimes="0; 0.108333; 0.166666; 0.275; 0.416667; 0.75; 1" keySplines="0.333 0 0.667 1; 0 0 1 1; 0.333 0 0.667 1; 0 0 1 1; 0.333 0 0.667 1; 0 0 1 1" fill="freeze" /><g transform="scale(1,1) translate(-0.875,-120.298)"><g id="i10"><path d="M-16.375,119.875C-16.375,119.875,-8.125,135,1.25,119C10.875,134.5,18.125,119.125,18.125,119.125" stroke-linejoin="round" stroke-linecap="round" stroke-width="4" stroke="#500409"><animate repeatCount="indefinite" attributeName="d" dur="4s" begin="0s" calcMode="spline" values="M-16.375,119.875C-16.375,119.875,-8.125,135,1.25,119C10.875,134.5,18.125,119.125,18.125,119.125; M-13.125,119.625C-13.125,119.625,-8.125,135,1.25,119C10.875,134.5,20.875,119.375,20.875,119.375; M-13.125,119.625C-13.125,119.625,-8.125,135,1.25,119C10.875,134.5,20.875,119.375,20.875,119.375; M-19.125,119.625C-19.125,119.625,-8.125,135,1.25,119C10.875,134.5,15.875,119.125,15.875,119.125; M-19.125,119.625C-19.125,119.625,-8.125,135,1.25,119C10.875,134.5,15.875,119.125,15.875,119.125; M-16.375,119.875C-16.375,119.875,-8.125,135,1.25,119C10.875,134.5,18.125,119.125,18.125,119.125; M-16.375,119.875C-16.375,119.875,-8.125,135,1.25,119C10.875,134.5,18.125,119.125,18.125,119.125" keyTimes="0; 0.108333; 0.166666; 0.275; 0.416667; 0.75; 1" keySplines="0 0 1 1; 0 0 1 1; 0 0 1 1; 0 0 1 1; 0 0 1 1; 0 0 1 1" fill="freeze" /></path></g><g id="i3" transform="matrix(1,0,0,1,1.125,119)"><ellipse ry="4.75" rx="4.875" cy="0" cx="0" fill="#500c01" /></g></g></g></g></g></defs><g id="i11"><g transform="translate(638.329,289.969)"><animateTransform repeatCount="indefinite" type="translate" attributeName="transform" dur="4s" begin="0s" calcMode="spline" values="638.329 289.969; 524.329 245.969; 638.329 289.969" keyTimes="0; 0.491667; 1" keySplines="0.333 0 0.667 1; 0.333 0 0.667 1" fill="freeze" /><g transform="scale(1,1) translate(-614.329,520.031)"><g id="i10"><path stroke-width="3" stroke="#500c01" fill="#eefffd" d="M612,-584.5C596.5,-576.5,588,-569,588,-569C588,-569,576.5,-584.5,557,-573C537.5,-561.5,525.5,-555,525.5,-555C525.5,-555,533,-507.5,533,-507.5C533,-507.5,660,-452,660,-452C660,-452,681.961,-461.212,693.5,-468.5C703,-474.5,710,-479.5,712,-491C714.168,-503.467,710.939,-515.645,703,-525.5C694.864,-535.6,682,-544,668,-542.5C666.5,-556,665,-576,648.5,-583.5C641,-586.5,627.5,-592.5,612,-584.5Z" /></g><g id="i12"><path stroke-width="3" stroke="#500c01" fill="#ffffff" d="M615.5,-566C597.5,-574.5,574,-574,566,-546.5C562,-553,554,-559,542.5,-560C528.968,-561.177,516,-549,516,-537C516,-525.489,516.723,-516.163,524,-507.5C534.5,-495,561.5,-486,582,-478C602.5,-470,640,-454.5,640,-454.5C640,-454.5,656.5,-447,668.5,-456C680.5,-465,680.929,-486.097,676.5,-497C670,-513,655.5,-522.5,640.5,-519.5C641,-535.5,633.904,-557.309,615.5,-566Z" /></g></g></g></g><g id="i13"><g transform="translate(509.329,124.969)"><animateTransform repeatCount="indefinite" type="translate" attributeName="transform" dur="4s" begin="0s" calcMode="spline" values="509.329 124.969; 551.329 136.969; 509.329 124.969" keyTimes="0; 0.491667; 1" keySplines="0.333 0 0.667 1; 0.333 0 0.667 1" fill="freeze" /><g transform="scale(0.6,0.6) translate(-614.329,520.031)"><g id="i10"><path stroke-width="4" stroke="#500c01" fill="#eefffd" d="M612,-584.5C596.5,-576.5,588,-569,588,-569C588,-569,576.5,-584.5,557,-573C537.5,-561.5,525.5,-555,525.5,-555C525.5,-555,533,-507.5,533,-507.5C533,-507.5,660,-452,660,-452C660,-452,681.961,-461.212,693.5,-468.5C703,-474.5,710,-479.5,712,-491C714.168,-503.467,710.939,-515.645,703,-525.5C694.864,-535.6,682,-544,668,-542.5C666.5,-556,665,-576,648.5,-583.5C641,-586.5,627.5,-592.5,612,-584.5Z" /></g><g id="i12"><path stroke-width="4" stroke="#500c01" fill="#ffffff" d="M615.5,-566C597.5,-574.5,574,-574,566,-546.5C562,-553,554,-559,542.5,-560C528.968,-561.177,516,-549,516,-537C516,-525.489,516.723,-516.163,524,-507.5C534.5,-495,561.5,-486,582,-478C602.5,-470,640,-454.5,640,-454.5C640,-454.5,656.5,-447,668.5,-456C680.5,-465,680.929,-486.097,676.5,-497C670,-513,655.5,-522.5,640.5,-519.5C641,-535.5,633.904,-557.309,615.5,-566Z" /></g></g></g></g><g id="i14"><g transform="translate(161.627,242.259)"><animateTransform repeatCount="indefinite" type="translate" attributeName="transform" dur="4s" begin="0s" calcMode="spline" values="161.627 242.259; 215.627 212.259; 161.627 242.259" keyTimes="0; 0.491667; 1" keySplines="0.333 0 0.667 1; 0.333 0 0.667 1" fill="freeze" /><g transform="scale(1,1) translate(322.373,217.741)"><g id="i10" transform="matrix(1,0,0,1,-25,-5)"><path stroke-width="3" stroke="#500c01" fill="#eefffd" d="M-311,-270C-347,-267,-346,-224,-346,-224C-346,-224,-369.533,-214.994,-369,-191C-368.5,-168.5,-350.25,-164.25,-345.5,-162.75C-338.859,-160.653,-322.514,-155.944,-322.039,-155.856C-318.75,-155.25,-261.044,-191.081,-258.75,-193.375C-255.75,-196.375,-249,-203,-251,-222C-255,-251,-282,-246,-282,-246C-282,-246,-259.579,-258.128,-277.78,-265.449C-283.5,-267.75,-303.793,-270.601,-311,-270Z" /></g><g id="i12"><path stroke-width="3" stroke="#500c01" fill="#ffffff" d="M-311,-270C-312.973,-269.836,-314.834,-269.551,-316.591,-269.16C-346.894,-262.417,-346,-224,-346,-224C-346,-224,-369,-215,-369,-191C-369,-166,-347,-158,-339,-161C-331,-164,-265,-191,-262,-194C-259,-197,-249,-203,-251,-222C-255,-251,-282,-246,-282,-246C-282,-246,-284.167,-272.236,-311,-270Z" /></g></g></g></g><g transform="matrix(1,0,0,1,399,328)" id="i15"><g id="i3" transform="matrix(0.975,0,0,0.823,1,179)"><path stroke-width="4" stroke="#500409" fill="#8bdbd1" d="M-2.052,-40.158C-2.052,-40.158,199.676,-40.212,199.676,-40.212C199.676,-40.212,200,-9.348,200,0C200,49.706,110.457,90,0,90C-110.457,90,-200,49.706,-200,0C-200,-10.857,-200.21,-38.196,-200.21,-38.196C-200.21,-38.196,-2.052,-40.158,-2.052,-40.158Z" /></g><g id="i16" transform="matrix(0.975,0,0,0.823,1,148)"><ellipse ry="90" rx="200" cy="0" cx="0" stroke-width="4" stroke="#500409" fill="#a8f2e7" /></g></g><g visibility="hidden" id="i17"><animate repeatCount="indefinite" begin="0s" calcMode="discrete" dur="4s" values="hidden; visible; hidden; hidden" keyTimes="0; 0.3; 0.508; 1" attributeName="visibility" /><g transform="translate(349,477)"><animateTransform repeatCount="indefinite" type="translate" attributeName="transform" dur="4s" begin="0s" calcMode="spline" values="349 477; 349 477; 229 375; 229 375" keyTimes="0; 0.3; 0.466667; 1" keySplines="0 0 1 1; 0.333 0 0.667 1; 0 0 1 1" fill="freeze" /><g transform="scale(1,1)"><animateTransform repeatCount="indefinite" type="scale" attributeName="transform" dur="4s" begin="0s" calcMode="spline" values="1 1; 1 1; 0 0; 0 0" keyTimes="0; 0.358333; 0.466666; 1" keySplines="0 0 1 1; 0.333 0 0.667 1; 0 0 1 1" fill="freeze" /><g transform="translate(91,-65)"><g id="i3" transform="matrix(1,0,0,1,-91,65)"><ellipse ry="23" rx="23" cy="0" cx="0" fill="#4ec2b3" /></g></g></g></g></g><g visibility="hidden" id="i18"><animate repeatCount="indefinite" begin="0s" calcMode="discrete" dur="4s" values="hidden; visible; hidden; hidden" keyTimes="0; 0.3; 0.508; 1" attributeName="visibility" /><g transform="translate(321,457)"><animateTransform repeatCount="indefinite" type="translate" attributeName="transform" dur="4s" begin="0s" calcMode="spline" values="321 457; 321 457; 193 369; 193 369" keyTimes="0; 0.3; 0.5; 1" keySplines="0 0 1 1; 0.333 0 0.667 1; 0 0 1 1" fill="freeze" /><g transform="scale(1,1)"><animateTransform repeatCount="indefinite" type="scale" attributeName="transform" dur="4s" begin="0s" calcMode="spline" values="1 1; 1 1; 0 0; 0 0" keyTimes="0; 0.358333; 0.5; 1" keySplines="0 0 1 1; 0.333 0 0.667 1; 0 0 1 1" fill="freeze" /><g transform="translate(91,-65)"><g id="i3" transform="matrix(1,0,0,1,-91,65)"><ellipse ry="23" rx="23" cy="0" cx="0" fill="#4ec2b3" /></g></g></g></g></g><g visibility="hidden" id="i19"><animate repeatCount="indefinite" begin="0s" calcMode="discrete" dur="4s" values="hidden; visible; hidden; hidden" keyTimes="0; 0.3; 0.508; 1" attributeName="visibility" /><g transform="translate(325,473)"><animateTransform repeatCount="indefinite" type="translate" attributeName="transform" dur="4s" begin="0s" calcMode="spline" values="325 473; 325 473; 229 417; 229 417" keyTimes="0; 0.3; 0.483333; 1" keySplines="0 0 1 1; 0.333 0 0.667 1; 0 0 1 1" fill="freeze" /><g transform="scale(1,1)"><animateTransform repeatCount="indefinite" type="scale" attributeName="transform" dur="4s" begin="0s" calcMode="spline" values="1 1; 1 1; 0 0; 0 0" keyTimes="0; 0.358333; 0.483333; 1" keySplines="0 0 1 1; 0.333 0 0.667 1; 0 0 1 1" fill="freeze" /><g transform="translate(91,-65)"><g id="i3" transform="matrix(1,0,0,1,-91,65)"><ellipse ry="23" rx="23" cy="0" cx="0" fill="#4ec2b3" /></g></g></g></g></g><g id="i20"><g transform="translate(400,515)"><g transform="scale(1,1.04)"><animateTransform repeatCount="indefinite" type="scale" attributeName="transform" dur="4s" begin="0s" calcMode="spline" values="1 1.04; 1 1.02; 1 1.04; 1 1.04; 1 1.02; 1 1.04; 1 1.04; 1 1.04; 1 1.04" keyTimes="0; 0.055559; 0.108333; 0.166666; 0.222225; 0.275; 0.416667; 0.75; 1" keySplines="0 0 1 1; 0 0 1 1; 0 0 1 1; 0 0 1 1; 0 0 1 1; 0 0 1 1; 0 0 1 1; 0 0 1 1" fill="freeze" /><g transform="translate(1.5,-185.917)"><g id="i21"><g transform="translate(-71.5,-10.542)"><animateTransform repeatCount="indefinite" type="translate" attributeName="transform" dur="4s" begin="0s" calcMode="spline" values="-71.5 -10.542; -63.5 -8.625; -63.5 -8.625; -84.5 -6.699; -84.5 -6.699; -71.5 -10.542; -71.5 -10.542" keyTimes="0; 0.108333; 0.166666; 0.275; 0.416667; 0.75; 1" keySplines="0 0 1 1; 0 0 1 1; 0 0 1 1; 0 0 1 1; 0 0 1 1; 0 0 1 1" fill="freeze" /><g transform="scale(1,0.958) translate(570.647,16.007)"><g id="i10"><path stroke-width="4" stroke="#500409" fill="#ffffff" d="M-598,-57C-608.116,-52.239,-603,26,-603,26C-603,26,-537,-23,-537,-23C-537,-23,-581,-65,-598,-57Z" /></g><g id="i12"><path stroke-width="4" stroke="#500409" fill="#f6abb1" d="M-590.5,-43.5C-597.058,-37.713,-593.5,19,-593.5,19C-593.5,19,-547,-16,-547,-16C-547,-16,-582,-51,-590.5,-43.5Z" /></g></g></g></g></g></g></g></g><g id="i20"><g transform="translate(400,515)"><g transform="scale(1,1.04)"><animateTransform repeatCount="indefinite" type="scale" attributeName="transform" dur="4s" begin="0s" calcMode="spline" values="1 1.04; 1 1.02; 1 1.04; 1 1.04; 1 1.02; 1 1.04; 1 1.04; 1 1.04; 1 1.04" keyTimes="0; 0.055559; 0.108333; 0.166666; 0.222225; 0.275; 0.416667; 0.75; 1" keySplines="0 0 1 1; 0 0 1 1; 0 0 1 1; 0 0 1 1; 0 0 1 1; 0 0 1 1; 0 0 1 1; 0 0 1 1" fill="freeze" /><g transform="translate(1.5,-185.917)"><g id="i22"><g transform="translate(68.5,-10.542)"><animateTransform repeatCount="indefinite" type="translate" attributeName="transform" dur="4s" begin="0s" calcMode="spline" values="68.5 -10.542; 72.5 -10.532; 72.5 -10.532; 57.5 -8.625; 57.5 -8.625; 68.5 -10.542; 68.5 -10.542" keyTimes="0; 0.108333; 0.166666; 0.275; 0.416667; 0.75; 1" keySplines="0 0 1 1; 0 0 1 1; 0 0 1 1; 0 0 1 1; 0 0 1 1; 0 0 1 1" fill="freeze" /><g transform="scale(-1,0.958) translate(570.647,16.007)"><g id="i10"><path stroke-width="4" stroke="#500409" fill="#ffffff" d="M-598,-57C-608.116,-52.239,-603,26,-603,26C-603,26,-537,-23,-537,-23C-537,-23,-581,-65,-598,-57Z" /></g><g id="i12"><path stroke-width="4" stroke="#500409" fill="#f6abb1" d="M-590.5,-43.5C-597.058,-37.713,-593.5,19,-593.5,19C-593.5,19,-547,-16,-547,-16C-547,-16,-582,-51,-590.5,-43.5Z" /></g></g></g></g></g></g></g></g><g id="i23"><g transform="translate(330,490)"><animateTransform repeatCount="indefinite" type="translate" attributeName="transform" dur="4s" begin="0s" calcMode="spline" values="330 490; 331.5 490; 331.5 490; 327 490; 327 490; 330 490; 330 490" keyTimes="0; 0.108333; 0.166666; 0.275; 0.416667; 0.75; 1" keySplines="0 0 1 1; 0 0 1 1; 0 0 1 1; 0 0 1 1; 0 0 1 1; 0 0 1 1" fill="freeze" /><g transform="scale(1,1) translate(575.5,-161)"><g id="i24" transform="matrix(1,0,0,1,-575.5,161)"><rect ry="38" rx="38" height="46" width="61" y="-23" x="-30.5" stroke-width="4" stroke="#500409" fill="#ffffff" /></g></g></g></g><g id="i25"><g transform="translate(470,490)"><animateTransform repeatCount="indefinite" type="translate" attributeName="transform" dur="4s" begin="0s" calcMode="spline" values="470 490; 471.5 490; 471.5 490; 467 490; 467 490; 470 490; 470 490" keyTimes="0; 0.108333; 0.166666; 0.275; 0.416667; 0.75; 1" keySplines="0 0 1 1; 0 0 1 1; 0 0 1 1; 0 0 1 1; 0 0 1 1; 0 0 1 1" fill="freeze" /><g transform="scale(1,1) translate(575.5,-161)"><g id="i24" transform="matrix(1,0,0,1,-575.5,161)"><rect ry="38" rx="38" height="46" width="61" y="-23" x="-30.5" stroke-width="4" stroke="#500409" fill="#ffffff" /></g></g></g></g><g id="i20"><g transform="translate(400,515)"><g transform="scale(1,1.04)"><animateTransform repeatCount="indefinite" type="scale" attributeName="transform" dur="4s" begin="0s" calcMode="spline" values="1 1.04; 1 1.02; 1 1.04; 1 1.04; 1 1.02; 1 1.04; 1 1.04; 1 1.04; 1 1.04" keyTimes="0; 0.055559; 0.108333; 0.166666; 0.222225; 0.275; 0.416667; 0.75; 1" keySplines="0 0 1 1; 0 0 1 1; 0 0 1 1; 0 0 1 1; 0 0 1 1; 0 0 1 1; 0 0 1 1; 0 0 1 1" fill="freeze" /><g transform="translate(1.5,-185.917)"><g id="i16" transform="matrix(1,0,0,1,-1.5,75.708)"><ellipse ry="110.209" rx="127.5" cy="0" cx="0" stroke-width="4" stroke="#500409" fill="#ffffff" /></g></g></g></g></g><g id="i20"><g transform="translate(400,515)"><g transform="scale(1,1.04)"><animateTransform repeatCount="indefinite" type="scale" attributeName="transform" dur="4s" begin="0s" calcMode="spline" values="1 1.04; 1 1.02; 1 1.04; 1 1.04; 1 1.02; 1 1.04; 1 1.04; 1 1.04; 1 1.04" keyTimes="0; 0.055559; 0.108333; 0.166666; 0.222225; 0.275; 0.416667; 0.75; 1" keySplines="0 0 1 1; 0 0 1 1; 0 0 1 1; 0 0 1 1; 0 0 1 1; 0 0 1 1; 0 0 1 1; 0 0 1 1" fill="freeze" /><g transform="translate(1.5,-185.917)"><g id="i26"><g transform="translate(-42.5,198.375)"><g transform="rotate(0)"><animateTransform repeatCount="indefinite" type="rotate" attributeName="transform" dur="4s" begin="0s" calcMode="spline" values="0; -7; -7; 9; 9; 0; 0" keyTimes="0; 0.108333; 0.166666; 0.275; 0.416667; 0.75; 1" keySplines="0 0 1 1; 0 0 1 1; 0 0 1 1; 0 0 1 1; 0 0 1 1; 0 0 1 1" fill="freeze" /><g transform="scale(0.852,0.911) translate(544.174,-202.526)"><g id="i24" transform="matrix(1,0,0,1,-543,161.5)"><rect ry="30" rx="30" height="81" width="54" y="-40.5" x="-27" fill="#ffffff" /></g><g id="i27" transform="matrix(1,0,0,1,-543,161.5)"><path stroke-dashoffset="-1.111" stroke-dasharray="60 40" pathLength="100" d="M27,-13.5C27,-13.5,27,2.5,27,2.5C27,2.5,27,13.5,27,13.5C27,28.412,14.912,40.5,0,40.5C-14.912,40.5,-27,28.412,-27,13.5C-27,13.5,-27,-13.5,-27,-13.5C-27,-28.412,-14.912,-40.5,0,-40.5C14.912,-40.5,27,-28.412,27,-13.5Z" stroke-linejoin="round" stroke-linecap="round" stroke-width="4" stroke="#500409" fill="#ffffff" /></g></g></g></g></g></g></g></g></g><g id="i20"><g transform="translate(400,515)"><g transform="scale(1,1.04)"><animateTransform repeatCount="indefinite" type="scale" attributeName="transform" dur="4s" begin="0s" calcMode="spline" values="1 1.04; 1 1.02; 1 1.04; 1 1.04; 1 1.02; 1 1.04; 1 1.04; 1 1.04; 1 1.04" keyTimes="0; 0.055559; 0.108333; 0.166666; 0.222225; 0.275; 0.416667; 0.75; 1" keySplines="0 0 1 1; 0 0 1 1; 0 0 1 1; 0 0 1 1; 0 0 1 1; 0 0 1 1; 0 0 1 1; 0 0 1 1" fill="freeze" /><g transform="translate(1.5,-185.917)"><g id="i28"><g transform="translate(38.5,195.5)"><g transform="rotate(0)"><animateTransform repeatCount="indefinite" type="rotate" attributeName="transform" dur="4s" begin="0s" calcMode="spline" values="0; -10; -10; 9; 9; 0; 0" keyTimes="0; 0.108333; 0.166666; 0.275; 0.416667; 0.75; 1" keySplines="0 0 1 1; 0 0 1 1; 0 0 1 1; 0 0 1 1; 0 0 1 1; 0 0 1 1" fill="freeze" /><g transform="scale(0.852,0.911) translate(543,-199.37)"><g id="i24" transform="matrix(1,0,0,1,-543,161.5)"><rect ry="30" rx="30" height="81" width="54" y="-40.5" x="-27" fill="#ffffff" /></g><g id="i27" transform="matrix(1,0,0,1,-543,161.5)"><path stroke-dashoffset="-1.111" stroke-dasharray="60 40" pathLength="100" d="M27,-13.5C27,-13.5,27,2.5,27,2.5C27,2.5,27,13.5,27,13.5C27,28.412,14.912,40.5,0,40.5C-14.912,40.5,-27,28.412,-27,13.5C-27,13.5,-27,-13.5,-27,-13.5C-27,-28.412,-14.912,-40.5,0,-40.5C14.912,-40.5,27,-28.412,27,-13.5Z" stroke-linejoin="round" stroke-linecap="round" stroke-width="4" stroke="#500409" fill="#ffffff" /></g></g></g></g></g></g></g></g></g><g id="i29"><g transform="translate(400,389)"><animateTransform repeatCount="indefinite" type="translate" attributeName="transform" dur="4s" begin="0s" calcMode="spline" values="400 389; 360 389; 360 389; 430 389; 430 389; 400 389; 400 389" keyTimes="0; 0.108333; 0.166666; 0.275; 0.416667; 0.75; 1" keySplines="0.333 0 0.833 0.833; 0 0 1 1; 0.333 0 0.833 0.833; 0 0 1 1; 0 0 1 1; 0 0 1 1" fill="freeze" /><g transform="scale(1,1) translate(-150,-146.812)"><g clip-path="url(#i0)"><g visibility="visible"><animate repeatCount="indefinite" begin="0s" calcMode="discrete" dur="4s" values="visible; hidden; hidden" keyTimes="0; 0.917; 1" attributeName="visibility" /><g transform="translate(106,126)"><animateTransform repeatCount="indefinite" type="translate" attributeName="transform" dur="4s" begin="0s" calcMode="spline" values="106 126; 106 126; 116.25 126; 116.25 126; 106 126; 106 126" keyTimes="0; 0.166667; 0.275; 0.416666; 0.75; 1" keySplines="0 0 1 1; 0.333 0 0.667 1; 0 0 1 1; 0.333 0 0.667 1; 0 0 1 1" fill="freeze" /><g transform="scale(1,1.083)"><animateTransform repeatCount="indefinite" type="scale" attributeName="transform" dur="4s" begin="0s" calcMode="spline" values="1 1.083; 0.88 1.083; 0.88 1.083; 1 1.083; 1 1.083; 1 1.083" keyTimes="0; 0.108333; 0.166667; 0.275; 0.416667; 1" keySplines="0 0 1 1; 0 0 1 1; 0 0 1 1; 0 0 1 1; 0 0 1 1" fill="freeze" /><g transform="translate(43,-52)"><g transform="matrix(1,0,0,1,-43,52)"><ellipse ry="12" rx="12" cy="0" cx="0" fill="#500c01" /></g></g></g></g></g><g visibility="visible"><animate repeatCount="indefinite" begin="0s" calcMode="discrete" dur="4s" values="visible; hidden; hidden" keyTimes="0; 0.917; 1" attributeName="visibility" /><g transform="translate(194,126)"><animateTransform repeatCount="indefinite" type="translate" attributeName="transform" dur="4s" begin="0s" calcMode="spline" values="194 126; 188 126; 188 126; 194.25 126; 194.25 126; 194 126; 194 126" keyTimes="0; 0.108333; 0.166666; 0.275; 0.416667; 0.75; 1" keySplines="0.333 0 0.667 1; 0 0 1 1; 0.333 0 0.667 1; 0 0 1 1; 0.167 0 0.667 1; 0 0 1 1" fill="freeze" /><g transform="scale(1,1.083)"><animateTransform repeatCount="indefinite" type="scale" attributeName="transform" dur="4s" begin="0s" calcMode="spline" values="1 1.083; 1 1.083; 0.88 1.083; 0.88 1.083; 1 1.083; 1 1.083" keyTimes="0; 0.166667; 0.275; 0.416666; 0.75; 1" keySplines="0 0 1 1; 0 0 1 1; 0 0 1 1; 0 0 1 1; 0 0 1 1" fill="freeze" /><g transform="translate(43,-52)"><g transform="matrix(1,0,0,1,-43,52)"><ellipse ry="12" rx="12" cy="0" cx="0" fill="#500c01" /></g></g></g></g></g><g transform="matrix(1,0,0,1.083,149,69.667)" visibility="hidden"><animate repeatCount="indefinite" begin="0s" calcMode="discrete" dur="4s" values="hidden; visible; visible" keyTimes="0; 0.917; 1" attributeName="visibility" /><g transform="matrix(1,0,0,1,-43,52)"><path d="M0,-12C6.627,-12,12,-6.627,12,0C12,6.627,6.627,12,0,12C-6.627,12,-12,6.627,-12,0C-12,-6.627,-6.627,-12,0,-12Z" fill="#500c01"><animate repeatCount="indefinite" attributeName="d" dur="4s" begin="0s" calcMode="spline" values="M0,-12C6.627,-12,12,-6.627,12,0C12,6.627,6.627,12,0,12C-6.627,12,-12,6.627,-12,0C-12,-6.627,-6.627,-12,0,-12Z; M0,-12C6.627,-12,12,-6.627,12,0C12,6.627,6.627,12,0,12C-6.627,12,-12,6.627,-12,0C-12,-6.627,-6.627,-12,0,-12Z; M-0.25,-1.385C6.377,-1.385,12.5,-1.846,12,0C11.216,2.896,7.127,1.154,0.5,1.154C-6.127,1.154,-12,2.321,-12,0C-12,-2.077,-6.877,-1.385,-0.25,-1.385Z; M0,-12C6.627,-12,12,-6.627,12,0C12,6.627,6.627,12,0,12C-6.627,12,-12,6.627,-12,0C-12,-6.627,-6.627,-12,0,-12Z; M0,-12C6.627,-12,12,-6.627,12,0C12,6.627,6.627,12,0,12C-6.627,12,-12,6.627,-12,0C-12,-6.627,-6.627,-12,0,-12Z" keyTimes="0; 0.916667; 0.941667; 0.966667; 1" keySplines="0 0 1 1; 0.333 0 0.667 1; 0.333 0 0.667 1; 0 0 1 1" fill="freeze" /></path></g></g><g transform="matrix(1,0,0,1.083,237,69.667)" visibility="hidden"><animate repeatCount="indefinite" begin="0s" calcMode="discrete" dur="4s" values="hidden; visible; visible" keyTimes="0; 0.917; 1" attributeName="visibility" /><g transform="matrix(1,0,0,1,-43,52)"><path d="M0,-12C6.627,-12,12,-6.627,12,0C12,6.627,6.627,12,0,12C-6.627,12,-12,6.627,-12,0C-12,-6.627,-6.627,-12,0,-12Z" fill="#500c01"><animate repeatCount="indefinite" attributeName="d" dur="4s" begin="0s" calcMode="spline" values="M0,-12C6.627,-12,12,-6.627,12,0C12,6.627,6.627,12,0,12C-6.627,12,-12,6.627,-12,0C-12,-6.627,-6.627,-12,0,-12Z; M0,-12C6.627,-12,12,-6.627,12,0C12,6.627,6.627,12,0,12C-6.627,12,-12,6.627,-12,0C-12,-6.627,-6.627,-12,0,-12Z; M0.5,-1.846C4.382,-1.846,11.938,-2.712,12,0C12.066,2.885,4.43,1.788,0.75,1.788C-3.594,1.788,-12,2.885,-12,0C-12,-2.769,-3.712,-1.846,0.5,-1.846Z; M0,-12C6.627,-12,12,-6.627,12,0C12,6.627,6.627,12,0,12C-6.627,12,-12,6.627,-12,0C-12,-6.627,-6.627,-12,0,-12Z; M0,-12C6.627,-12,12,-6.627,12,0C12,6.627,6.627,12,0,12C-6.627,12,-12,6.627,-12,0C-12,-6.627,-6.627,-12,0,-12Z" keyTimes="0; 0.916667; 0.941667; 0.966667; 1" keySplines="0 0 1 1; 0.333 0 0.667 1; 0.333 0 0.667 1; 0 0 1 1" fill="freeze" /></path></g></g><g><g transform="translate(82,146)"><animateTransform repeatCount="indefinite" type="translate" attributeName="transform" dur="4s" begin="0s" calcMode="spline" values="82 146; 88 146; 88 146; 93.25 146; 93.25 146; 82 146; 82 146" keyTimes="0; 0.108333; 0.166666; 0.275; 0.416667; 0.75; 1" keySplines="0.333 0 0.667 1; 0 0 1 1; 0.333 0 0.667 1; 0 0 1 1; 0.333 0 0.667 1; 0 0 1 1" fill="freeze" /><g transform="scale(0.8,0.8)"><animateTransform repeatCount="indefinite" type="scale" attributeName="transform" dur="4s" begin="0s" calcMode="spline" values="0.8 0.8; 0.7 0.8; 0.7 0.8; 0.8 0.8; 0.8 0.8" keyTimes="0; 0.108333; 0.166667; 0.275; 1" keySplines="0 0 1 1; 0 0 1 1; 0 0 1 1; 0 0 1 1" fill="freeze" /><g transform="translate(67.5,-73.5)"><g transform="matrix(1,0,0,1,-67.5,73.5)"><ellipse ry="12.5" rx="12.5" cy="0" cx="0" fill="#ffbdc4" /></g></g></g></g></g><g><g transform="translate(218,146)"><animateTransform repeatCount="indefinite" type="translate" attributeName="transform" dur="4s" begin="0s" calcMode="spline" values="218 146; 211 146; 211 146; 217.75 146; 217.75 146; 218 146; 218 146" keyTimes="0; 0.108333; 0.166666; 0.275; 0.416667; 0.75; 1" keySplines="0.333 0 0.667 1; 0 0 1 1; 0.333 0 0.667 1; 0 0 1 1; 0.333 0 0.667 1; 0 0 1 1" fill="freeze" /><g transform="scale(0.8,0.8)"><animateTransform repeatCount="indefinite" type="scale" attributeName="transform" dur="4s" begin="0s" calcMode="spline" values="0.8 0.8; 0.8 0.8; 0.7 0.8; 0.7 0.8; 0.8 0.8; 0.8 0.8" keyTimes="0; 0.166667; 0.275; 0.416666; 0.75; 1" keySplines="0 0 1 1; 0 0 1 1; 0 0 1 1; 0 0 1 1; 0 0 1 1" fill="freeze" /><g transform="translate(67.5,-73.5)"><g transform="matrix(1,0,0,1,-67.5,73.5)"><ellipse ry="12.5" rx="12.5" cy="0" cx="0" fill="#ffbdc4" /></g></g></g></g></g><g><g transform="translate(150,134)"><animateTransform repeatCount="indefinite" type="translate" attributeName="transform" dur="4s" begin="0s" calcMode="spline" values="150 134; 143 134; 143 134; 159 134; 159 134; 150 134; 150 134" keyTimes="0; 0.108333; 0.166666; 0.275; 0.416667; 0.75; 1" keySplines="0.333 0 0.667 1; 0 0 1 1; 0.333 0 0.667 1; 0 0 1 1; 0.333 0 0.667 1; 0 0 1 1" fill="freeze" /><g transform="scale(1,1) translate(-0.875,-120.298)"><g><path d="M-16.375,119.875C-16.375,119.875,-8.125,135,1.25,119C10.875,134.5,18.125,119.125,18.125,119.125" stroke-linejoin="round" stroke-linecap="round" stroke-width="4" stroke="#500409"><animate repeatCount="indefinite" attributeName="d" dur="4s" begin="0s" calcMode="spline" values="M-16.375,119.875C-16.375,119.875,-8.125,135,1.25,119C10.875,134.5,18.125,119.125,18.125,119.125; M-13.125,119.625C-13.125,119.625,-8.125,135,1.25,119C10.875,134.5,20.875,119.375,20.875,119.375; M-13.125,119.625C-13.125,119.625,-8.125,135,1.25,119C10.875,134.5,20.875,119.375,20.875,119.375; M-19.125,119.625C-19.125,119.625,-8.125,135,1.25,119C10.875,134.5,15.875,119.125,15.875,119.125; M-19.125,119.625C-19.125,119.625,-8.125,135,1.25,119C10.875,134.5,15.875,119.125,15.875,119.125; M-16.375,119.875C-16.375,119.875,-8.125,135,1.25,119C10.875,134.5,18.125,119.125,18.125,119.125; M-16.375,119.875C-16.375,119.875,-8.125,135,1.25,119C10.875,134.5,18.125,119.125,18.125,119.125" keyTimes="0; 0.108333; 0.166666; 0.275; 0.416667; 0.75; 1" keySplines="0 0 1 1; 0 0 1 1; 0 0 1 1; 0 0 1 1; 0 0 1 1; 0 0 1 1" fill="freeze" /></path></g><g transform="matrix(1,0,0,1,1.125,119)"><ellipse ry="4.75" rx="4.875" cy="0" cx="0" fill="#500c01" /></g></g></g></g></g></g></g></g><g id="i29"><g transform="translate(400,389)"><animateTransform repeatCount="indefinite" type="translate" attributeName="transform" dur="4s" begin="0s" calcMode="spline" values="400 389; 360 389; 360 389; 430 389; 430 389; 400 389; 400 389" keyTimes="0; 0.108333; 0.166666; 0.275; 0.416667; 0.75; 1" keySplines="0.333 0 0.833 0.833; 0 0 1 1; 0.333 0 0.833 0.833; 0 0 1 1; 0 0 1 1; 0 0 1 1" fill="freeze" /><g transform="scale(1,1) translate(-150,-146.812)"><g visibility="hidden" id="i30"><animate repeatCount="indefinite" begin="0s" calcMode="discrete" dur="4s" values="hidden; visible; hidden; hidden" keyTimes="0; 0.417; 0.992; 1" attributeName="visibility" /><g transform="translate(63.578,85.662)"><animateTransform repeatCount="indefinite" type="translate" attributeName="transform" dur="4s" begin="0s" calcMode="spline" values="63.578 85.662; 63.578 85.662; 63.578 103.662; 63.578 103.662" keyTimes="0; 0.5; 0.966667; 1" keySplines="0 0 1 1; 0.333 0 0.667 1; 0 0 1 1" fill="freeze" /><g transform="scale(0,0)"><animateTransform repeatCount="indefinite" type="scale" attributeName="transform" dur="4s" begin="0s" calcMode="spline" values="0 0; 0 0; 1 1; 1 1" keyTimes="0; 0.416667; 0.583333; 1" keySplines="0 0 1 1; 0.333 0 0.667 1; 0 0 1 1" fill="freeze" /><g transform="translate(227.672,60.742)"><g id="i10"><path stroke-width="4" stroke="#500c01" fill="#ffffff" d="M-227,-60.5C-233.5,-60,-245.5,-28,-226.5,-27C-207.5,-26,-220.5,-61,-227,-60.5Z" /></g></g></g></g></g></g></g></g></svg>