<svg fill="none" height="100%" width="100%" viewBox="0 0 1000 1000" xmlns:xlink="http://www.w3.org/1999/xlink" xmlns="http://www.w3.org/2000/svg"><g transform="matrix(0.84,0,0,0.84,461.296,394.328)" id="i0"><g transform="matrix(12.5,0,0,12.5,-575,-550)" id="i1"><g transform="matrix(1,0,0,1,-290.796,-376.828)" id="i2"><g id="i3" transform="matrix(1,0,0,0.901,339.515,448.492)"><path fill="#d6d6d6" d="M31.053,-6.383C29.463,-8.968,26.914,-11.401,23.329,-13.469C10.445,-20.909,-10.445,-20.909,-23.329,-13.469C-26.912,-11.401,-29.463,-8.968,-31.053,-6.383C-31.053,-6.383,-32.993,-6.383,-32.993,-6.383C-32.993,-6.383,-32.993,0.415,-32.993,0.415C-32.993,0.415,-32.959,0.415,-32.959,0.415C-32.781,5.151,-29.589,9.856,-23.329,13.47C-10.445,20.908,10.445,20.908,23.329,13.47C29.589,9.856,32.782,5.151,32.959,0.415C32.959,0.415,32.993,0.415,32.993,0.415C32.993,0.415,32.993,-6.383,32.993,-6.383C32.993,-6.383,31.053,-6.383,31.053,-6.383Z" /></g><g id="i4" transform="matrix(1,0,0,1,339.516,443.237)"><path stroke-width="0.5" stroke="#d6d6d6" fill="#f4f4f4" d="M-23.329,-13.469C-36.214,-6.031,-36.214,6.029,-23.329,13.469C-10.445,20.908,10.445,20.908,23.33,13.469C36.214,6.029,36.214,-6.031,23.33,-13.469C10.445,-20.908,-10.445,-20.908,-23.329,-13.469Z" /></g><g id="i5" transform="matrix(1,0,0,1,339.516,442.377)"><path fill="#bac1e8" d="M-19.563,-11.295C-30.367,-5.057,-30.367,5.057,-19.563,11.295C-8.759,17.533,8.758,17.533,19.563,11.295C30.367,5.057,30.367,-5.057,19.563,-11.295C8.758,-17.533,-8.759,-17.533,-19.563,-11.295Z" /></g></g></g></g><g transform="matrix(0.84,0,0,0.84,461.296,394.328)" id="i0"><g transform="matrix(12.5,0,0,12.5,-575,-550)" id="i1"><g transform="matrix(0.61,0,0,0.61,-213.373,-267.517)" id="i6"><g id="i7" transform="matrix(1,0,0,1,467.583,535.57)"><path d="M6.492,-29.994C6.492,-29.994,6.509,11.284,6.509,11.284C6.528,18.052,2.184,24.83,-6.423,29.994C-6.423,29.994,-6.509,-13.807,-6.509,-13.807C-6.509,-13.807,6.512,-23.225,6.492,-29.994Z" fill="#383c40"><animate repeatCount="indefinite" attributeName="d" dur="7s" begin="0s" calcMode="spline" values="M6.492,-29.994C6.492,-29.994,6.509,11.284,6.509,11.284C6.528,18.052,2.184,24.83,-6.423,29.994C-6.423,29.994,-6.509,-13.807,-6.509,-13.807C-6.509,-13.807,6.512,-23.225,6.492,-29.994Z; M6.387,-2.994C6.387,-2.994,6.509,11.284,6.509,11.284C6.528,18.052,2.184,24.83,-6.423,29.994C-6.423,29.994,-6.614,13.193,-6.614,13.193C-6.614,13.193,6.407,3.775,6.387,-2.994Z; M6.492,-29.994C6.492,-29.994,6.509,11.284,6.509,11.284C6.528,18.052,2.184,24.83,-6.423,29.994C-6.423,29.994,-6.509,-13.807,-6.509,-13.807C-6.509,-13.807,6.512,-23.225,6.492,-29.994Z; M6.387,-2.994C6.387,-2.994,6.509,11.284,6.509,11.284C6.528,18.052,2.184,24.83,-6.423,29.994C-6.423,29.994,-6.614,13.193,-6.614,13.193C-6.614,13.193,6.407,3.775,6.387,-2.994Z; M6.492,-29.994C6.492,-29.994,6.509,11.284,6.509,11.284C6.528,18.052,2.184,24.83,-6.423,29.994C-6.423,29.994,-6.509,-13.807,-6.509,-13.807C-6.509,-13.807,6.512,-23.225,6.492,-29.994Z" keyTimes="0; 0.257143; 0.5; 0.757143; 1" keySplines="0.658 0 0.808 1; 0.218 0 0.347 1; 0.663 0 0.775 1; 0.184 0 0.333 1" fill="freeze" /></path></g><g id="i8" transform="matrix(1,0,0,1,432.202,518.606)"><path d="M17.341,-15.59C17.338,-15.594,17.334,-15.599,17.334,-15.603C17.323,-15.992,17.277,-16.382,17.2,-16.771C17.123,-17.155,17.014,-17.536,16.871,-17.916C14.874,-23.247,8.23,-25.694,3.118,-26.616C-2.664,-27.659,-8.923,-27.267,-14.412,-25.103C-15.443,-24.696,-16.425,-24.228,-17.341,-23.698C-17.341,-23.698,-17.277,20.835,-17.277,20.835C-16.358,20.306,-15.378,19.838,-14.346,19.431C-8.953,17.3,-2.823,16.897,2.866,17.863C7.767,18.695,13.873,20.835,16.471,25.463C16.687,25.844,16.941,26.228,17.087,26.618C17.155,26.801,17.252,26.985,17.341,27.17C17.341,27.17,17.341,-15.59,17.341,-15.59Z" fill="#383c40"><animate repeatCount="indefinite" attributeName="d" dur="7s" begin="0s" calcMode="spline" values="M17.341,-15.59C17.338,-15.594,17.334,-15.599,17.334,-15.603C17.323,-15.992,17.277,-16.382,17.2,-16.771C17.123,-17.155,17.014,-17.536,16.871,-17.916C14.874,-23.247,8.23,-25.694,3.118,-26.616C-2.664,-27.659,-8.923,-27.267,-14.412,-25.103C-15.443,-24.696,-16.425,-24.228,-17.341,-23.698C-17.341,-23.698,-17.277,20.835,-17.277,20.835C-16.358,20.306,-15.378,19.838,-14.346,19.431C-8.953,17.3,-2.823,16.897,2.866,17.863C7.767,18.695,13.873,20.835,16.471,25.463C16.687,25.844,16.941,26.228,17.087,26.618C17.155,26.801,17.252,26.985,17.341,27.17C17.341,27.17,17.341,-15.59,17.341,-15.59Z; M17.236,11.41C17.233,11.406,17.229,11.401,17.229,11.397C17.218,11.008,17.172,10.618,17.095,10.229C17.018,9.845,16.909,9.464,16.766,9.084C14.769,3.753,8.126,1.306,3.014,0.384C-2.768,-0.659,-9.028,-0.267,-14.517,1.897C-15.548,2.304,-16.53,2.772,-17.446,3.302C-17.446,3.302,-17.277,20.835,-17.277,20.835C-16.358,20.306,-15.378,19.838,-14.346,19.431C-8.953,17.3,-2.823,16.897,2.866,17.863C7.767,18.695,13.873,20.835,16.471,25.463C16.687,25.844,16.941,26.228,17.087,26.618C17.155,26.801,17.252,26.985,17.341,27.17C17.341,27.17,17.236,11.41,17.236,11.41Z; M17.341,-15.59C17.338,-15.594,17.334,-15.599,17.334,-15.603C17.323,-15.992,17.277,-16.382,17.2,-16.771C17.123,-17.155,17.014,-17.536,16.871,-17.916C14.874,-23.247,8.23,-25.694,3.118,-26.616C-2.664,-27.659,-8.923,-27.267,-14.412,-25.103C-15.443,-24.696,-16.425,-24.228,-17.341,-23.698C-17.341,-23.698,-17.277,20.835,-17.277,20.835C-16.358,20.306,-15.378,19.838,-14.346,19.431C-8.953,17.3,-2.823,16.897,2.866,17.863C7.767,18.695,13.873,20.835,16.471,25.463C16.687,25.844,16.941,26.228,17.087,26.618C17.155,26.801,17.252,26.985,17.341,27.17C17.341,27.17,17.341,-15.59,17.341,-15.59Z; M17.236,11.41C17.233,11.406,17.229,11.401,17.229,11.397C17.218,11.008,17.172,10.618,17.095,10.229C17.018,9.845,16.909,9.464,16.766,9.084C14.769,3.753,8.126,1.306,3.014,0.384C-2.768,-0.659,-9.028,-0.267,-14.517,1.897C-15.548,2.304,-16.53,2.772,-17.446,3.302C-17.446,3.302,-17.277,20.835,-17.277,20.835C-16.358,20.306,-15.378,19.838,-14.346,19.431C-8.953,17.3,-2.823,16.897,2.866,17.863C7.767,18.695,13.873,20.835,16.471,25.463C16.687,25.844,16.941,26.228,17.087,26.618C17.155,26.801,17.252,26.985,17.341,27.17C17.341,27.17,17.236,11.41,17.236,11.41Z; M17.341,-15.59C17.338,-15.594,17.334,-15.599,17.334,-15.603C17.323,-15.992,17.277,-16.382,17.2,-16.771C17.123,-17.155,17.014,-17.536,16.871,-17.916C14.874,-23.247,8.23,-25.694,3.118,-26.616C-2.664,-27.659,-8.923,-27.267,-14.412,-25.103C-15.443,-24.696,-16.425,-24.228,-17.341,-23.698C-17.341,-23.698,-17.277,20.835,-17.277,20.835C-16.358,20.306,-15.378,19.838,-14.346,19.431C-8.953,17.3,-2.823,16.897,2.866,17.863C7.767,18.695,13.873,20.835,16.471,25.463C16.687,25.844,16.941,26.228,17.087,26.618C17.155,26.801,17.252,26.985,17.341,27.17C17.341,27.17,17.341,-15.59,17.341,-15.59Z" keyTimes="0; 0.257143; 0.5; 0.757143; 1" keySplines="0.658 0 0.808 1; 0.218 0 0.347 1; 0.663 0 0.775 1; 0.184 0 0.333 1" fill="freeze" /></path></g><g id="i3" transform="matrix(1,0,0,1,452.304,531.331)"><path d="M8.77,18.852C8.77,18.852,-8.77,8.662,-8.77,8.662C-8.77,8.662,-8.77,-18.852,-8.77,-18.852C-8.77,-18.852,8.77,-8.661,8.77,-8.661C8.77,-8.661,8.77,18.852,8.77,18.852Z" fill="#495057"><animate repeatCount="indefinite" attributeName="d" dur="7s" begin="0s" calcMode="spline" values="M8.77,18.852C8.77,18.852,-8.77,8.662,-8.77,8.662C-8.77,8.662,-8.77,-18.852,-8.77,-18.852C-8.77,-18.852,8.77,-8.661,8.77,-8.661C8.77,-8.661,8.77,18.852,8.77,18.852Z; M8.77,18.852C8.77,18.852,-8.77,8.662,-8.77,8.662C-8.77,8.662,-8.875,8.148,-8.875,8.148C-8.875,8.148,8.665,18.339,8.665,18.339C8.665,18.339,8.77,18.852,8.77,18.852Z; M8.77,18.852C8.77,18.852,-8.77,8.662,-8.77,8.662C-8.77,8.662,-8.77,-18.852,-8.77,-18.852C-8.77,-18.852,8.77,-8.661,8.77,-8.661C8.77,-8.661,8.77,18.852,8.77,18.852Z; M8.77,18.852C8.77,18.852,-8.77,8.662,-8.77,8.662C-8.77,8.662,-8.875,8.148,-8.875,8.148C-8.875,8.148,8.665,18.339,8.665,18.339C8.665,18.339,8.77,18.852,8.77,18.852Z; M8.77,18.852C8.77,18.852,-8.77,8.662,-8.77,8.662C-8.77,8.662,-8.77,-18.852,-8.77,-18.852C-8.77,-18.852,8.77,-8.661,8.77,-8.661C8.77,-8.661,8.77,18.852,8.77,18.852Z" keyTimes="0; 0.257143; 0.5; 0.757143; 1" keySplines="0.658 0 0.808 1; 0.218 0 0.347 1; 0.663 0 0.775 1; 0.184 0 0.333 1" fill="freeze" /></path></g><g id="i4" transform="matrix(1,0,0,1,406.096,514.65)"><path d="M8.771,29.008C8.771,29.008,-8.771,18.817,-8.771,18.817C-8.771,18.817,-8.771,-29.008,-8.771,-29.008C-8.771,-29.008,8.771,-18.818,8.771,-18.818C8.771,-18.818,8.771,29.008,8.771,29.008Z" fill="#495057"><animate repeatCount="indefinite" attributeName="d" dur="7s" begin="0s" calcMode="spline" values="M8.771,29.008C8.771,29.008,-8.771,18.817,-8.771,18.817C-8.771,18.817,-8.771,-29.008,-8.771,-29.008C-8.771,-29.008,8.771,-18.818,8.771,-18.818C8.771,-18.818,8.771,29.008,8.771,29.008Z; M8.771,29.008C8.771,29.008,-8.771,18.817,-8.771,18.817C-8.771,18.817,-8.875,-2.008,-8.875,-2.008C-8.875,-2.008,8.666,8.182,8.666,8.182C8.666,8.182,8.771,29.008,8.771,29.008Z; M8.771,29.008C8.771,29.008,-8.771,18.817,-8.771,18.817C-8.771,18.817,-8.771,-29.008,-8.771,-29.008C-8.771,-29.008,8.771,-18.818,8.771,-18.818C8.771,-18.818,8.771,29.008,8.771,29.008Z; M8.771,29.008C8.771,29.008,-8.771,18.817,-8.771,18.817C-8.771,18.817,-8.875,-2.008,-8.875,-2.008C-8.875,-2.008,8.666,8.182,8.666,8.182C8.666,8.182,8.771,29.008,8.771,29.008Z; M8.771,29.008C8.771,29.008,-8.771,18.817,-8.771,18.817C-8.771,18.817,-8.771,-29.008,-8.771,-29.008C-8.771,-29.008,8.771,-18.818,8.771,-18.818C8.771,-18.818,8.771,29.008,8.771,29.008Z" keyTimes="0; 0.257143; 0.5; 0.757143; 1" keySplines="0.658 0 0.808 1; 0.218 0 0.347 1; 0.663 0 0.775 1; 0.184 0 0.333 1" fill="freeze" /></path></g><g id="i5" transform="matrix(1,0,0,1,435.699,499.87)"><path d="M25.602,-14.257C42.256,-2.522,43.124,12.576,25.395,22.812C25.395,22.812,7.835,12.609,7.835,12.609C15.805,8.007,15.846,0.547,7.929,-4.055C0.01,-8.656,-12.864,-8.654,-20.838,-4.056C-20.838,-4.056,-38.394,-14.257,-38.394,-14.257C-20.666,-24.494,7.835,-26.777,25.602,-14.257Z" stroke-width="0.5" stroke="#383c40" fill="#57b3f9"><animate repeatCount="indefinite" attributeName="d" dur="7s" begin="0s" calcMode="spline" values="M25.602,-14.257C42.256,-2.522,43.124,12.576,25.395,22.812C25.395,22.812,7.835,12.609,7.835,12.609C15.805,8.007,15.846,0.547,7.929,-4.055C0.01,-8.656,-12.864,-8.654,-20.838,-4.056C-20.838,-4.056,-38.394,-14.257,-38.394,-14.257C-20.666,-24.494,7.835,-26.777,25.602,-14.257Z; M25.497,12.743C42.151,24.478,43.019,39.576,25.29,49.812C25.29,49.812,7.73,39.609,7.73,39.609C15.7,35.007,15.741,27.547,7.824,22.945C-0.095,18.344,-12.969,18.346,-20.943,22.944C-20.943,22.944,-38.499,12.743,-38.499,12.743C-20.771,2.506,7.73,0.223,25.497,12.743Z; M25.602,-14.257C42.256,-2.522,43.124,12.576,25.395,22.812C25.395,22.812,7.835,12.609,7.835,12.609C15.805,8.007,15.846,0.547,7.929,-4.055C0.01,-8.656,-12.864,-8.654,-20.838,-4.056C-20.838,-4.056,-38.394,-14.257,-38.394,-14.257C-20.666,-24.494,7.835,-26.777,25.602,-14.257Z; M25.497,12.743C42.151,24.478,43.019,39.576,25.29,49.812C25.29,49.812,7.73,39.609,7.73,39.609C15.7,35.007,15.741,27.547,7.824,22.945C-0.095,18.344,-12.969,18.346,-20.943,22.944C-20.943,22.944,-38.499,12.743,-38.499,12.743C-20.771,2.506,7.73,0.222,25.497,12.743Z; M25.602,-14.257C42.256,-2.522,43.124,12.576,25.395,22.812C25.395,22.812,7.835,12.609,7.835,12.609C15.805,8.007,15.846,0.547,7.929,-4.055C0.01,-8.656,-12.864,-8.654,-20.838,-4.056C-20.838,-4.056,-38.394,-14.257,-38.394,-14.257C-20.666,-24.494,7.835,-26.777,25.602,-14.257Z" keyTimes="0; 0.257143; 0.5; 0.757143; 1" keySplines="0.658 0 0.808 1; 0.218 0 0.347 1; 0.663 0 0.775 1; 0.184 0 0.333 1" fill="freeze" /></path></g></g></g></g><g transform="matrix(0.84,0,0,0.84,461.296,394.328)" id="i0"><g transform="matrix(12.5,0,0,12.5,-575,-550)" id="i1"><g transform="matrix(0.61,0,0,0.61,-213.373,-267.517)" id="i6"><g transform="matrix(1,0,0,1,0,0)" id="i9"><g id="i8" transform="matrix(1,0,0,1,408.62,520.781)"><path d="M-6.246,-22.877C-6.246,-22.877,-6.246,15.619,-6.246,15.619C-6.246,15.619,6.246,22.877,6.246,22.877C6.246,22.877,6.246,-15.619,6.246,-15.619C6.246,-15.619,-6.246,-22.877,-6.246,-22.877Z" fill="#495057"><animate repeatCount="indefinite" attributeName="d" dur="7s" begin="0s" calcMode="spline" values="M-6.246,-22.877C-6.246,-22.877,-6.246,15.619,-6.246,15.619C-6.246,15.619,6.246,22.877,6.246,22.877C6.246,22.877,6.246,-15.619,6.246,-15.619C6.246,-15.619,-6.246,-22.877,-6.246,-22.877Z; M-6.166,-13.877C-6.166,-13.877,-6.246,15.619,-6.246,15.619C-6.246,15.619,6.246,22.877,6.246,22.877C6.246,22.877,6.327,-6.619,6.327,-6.619C6.327,-6.619,-6.166,-13.877,-6.166,-13.877Z; M-6.246,-22.877C-6.246,-22.877,-6.246,15.619,-6.246,15.619C-6.246,15.619,6.246,22.877,6.246,22.877C6.246,22.877,6.246,-15.619,6.246,-15.619C6.246,-15.619,-6.246,-22.877,-6.246,-22.877Z; M-6.166,-13.877C-6.166,-13.877,-6.246,15.619,-6.246,15.619C-6.246,15.619,6.246,22.877,6.246,22.877C6.246,22.877,6.327,-6.619,6.327,-6.619C6.327,-6.619,-6.166,-13.877,-6.166,-13.877Z; M-6.246,-22.877C-6.246,-22.877,-6.246,15.619,-6.246,15.619C-6.246,15.619,6.246,22.877,6.246,22.877C6.246,22.877,6.246,-15.619,6.246,-15.619C6.246,-15.619,-6.246,-22.877,-6.246,-22.877Z" keyTimes="0; 0.257143; 0.5; 0.757143; 1" keySplines="0.658 0 0.808 1; 0.218 0 0.347 1; 0.663 0 0.775 1; 0.184 0 0.333 1" fill="freeze" /></path></g><g id="i3" transform="matrix(1,0,0,1,399.328,510.106)"><path d="M-2.023,-15.217C-2.023,-15.217,15.532,-5.014,15.532,-5.014C9.154,-1.333,7.658,4.029,11.712,8.666C11.712,8.666,-10.515,15.217,-10.515,15.217C-19.536,4.896,-16.206,-7.029,-2.023,-15.217Z" stroke-width="0.5" stroke="#383c40" fill="#ffad60"><animate repeatCount="indefinite" attributeName="d" dur="7s" begin="0s" calcMode="spline" values="M-2.023,-15.217C-2.023,-15.217,15.532,-5.014,15.532,-5.014C9.154,-1.333,7.658,4.029,11.712,8.666C11.712,8.666,-10.515,15.217,-10.515,15.217C-19.536,4.896,-16.206,-7.029,-2.023,-15.217Z; M-1.943,-6.217C-1.943,-6.217,15.612,3.986,15.612,3.986C9.234,7.667,7.739,13.029,11.793,17.666C11.793,17.666,-10.435,24.217,-10.435,24.217C-19.456,13.896,-16.126,1.971,-1.943,-6.217Z; M-2.023,-15.217C-2.023,-15.217,15.532,-5.014,15.532,-5.014C9.154,-1.333,7.658,4.029,11.712,8.666C11.712,8.666,-10.515,15.217,-10.515,15.217C-19.536,4.897,-16.206,-7.029,-2.023,-15.217Z; M-1.943,-6.217C-1.943,-6.217,15.612,3.986,15.612,3.986C9.234,7.667,7.739,13.029,11.793,17.666C11.793,17.666,-10.435,24.217,-10.435,24.217C-19.456,13.897,-16.126,1.971,-1.943,-6.217Z; M-2.023,-15.217C-2.023,-15.217,15.532,-5.014,15.532,-5.014C9.154,-1.333,7.658,4.029,11.712,8.666C11.712,8.666,-10.515,15.217,-10.515,15.217C-19.536,4.897,-16.206,-7.029,-2.023,-15.217Z" keyTimes="0; 0.257143; 0.5; 0.757143; 1" keySplines="0.658 0 0.808 1; 0.218 0 0.347 1; 0.663 0 0.775 1; 0.184 0 0.333 1" fill="freeze" /></path></g><g id="i4" transform="matrix(1,0,0,1,386.25,536.172)"><path d="M-2.405,-21.158C-2.4,-21.107,-2.369,-21.053,-2.363,-21C-2.318,-20.645,-2.253,-20.29,-2.184,-19.936C-2.176,-19.894,-2.163,-19.851,-2.154,-19.807C-2.08,-19.439,-1.986,-19.068,-1.883,-18.699C-1.862,-18.625,-1.84,-18.551,-1.818,-18.476C-1.71,-18.111,-1.589,-17.746,-1.454,-17.379C-1.435,-17.326,-1.411,-17.27,-1.389,-17.216C-1.239,-16.824,-1.075,-16.433,-0.893,-16.042C-0.887,-16.029,-0.883,-16.015,-0.876,-16.003C-0.69,-15.608,-0.486,-15.214,-0.267,-14.823C-0.226,-14.748,-0.187,-14.674,-0.142,-14.599C-0.078,-14.487,-0.011,-14.375,0.056,-14.264C0.133,-14.134,0.211,-14.004,0.292,-13.873C0.364,-13.759,0.439,-13.647,0.513,-13.534C0.596,-13.406,0.68,-13.278,0.769,-13.149C0.845,-13.037,0.926,-12.924,1.005,-12.812C1.095,-12.684,1.188,-12.557,1.282,-12.429C1.366,-12.317,1.45,-12.205,1.537,-12.093C1.621,-11.983,1.709,-11.873,1.795,-11.764C2.041,-11.455,2.296,-11.145,2.563,-10.839C2.563,-10.839,2.631,22.756,2.631,22.756C2.362,22.448,2.109,22.141,1.862,21.832C1.834,21.794,1.798,21.756,1.767,21.718C1.71,21.646,1.659,21.572,1.604,21.5C1.519,21.389,1.432,21.277,1.348,21.165C1.254,21.038,1.164,20.911,1.072,20.783C0.992,20.67,0.914,20.558,0.834,20.445C0.748,20.317,0.663,20.189,0.58,20.06C0.504,19.947,0.43,19.834,0.36,19.721C0.279,19.592,0.202,19.463,0.123,19.332C0.056,19.22,-0.011,19.108,-0.076,18.996C-0.097,18.959,-0.12,18.923,-0.14,18.887C-0.163,18.851,-0.177,18.811,-0.199,18.772C-0.418,18.381,-0.624,17.986,-0.81,17.592C-0.816,17.579,-0.82,17.566,-0.826,17.554C-1.009,17.162,-1.172,16.769,-1.323,16.379C-1.336,16.342,-1.353,16.306,-1.367,16.271C-1.374,16.252,-1.379,16.234,-1.385,16.213C-1.521,15.848,-1.641,15.484,-1.749,15.117C-1.772,15.044,-1.792,14.969,-1.812,14.895C-1.916,14.527,-2.008,14.155,-2.084,13.786C-2.085,13.775,-2.09,13.763,-2.092,13.75C-2.099,13.72,-2.1,13.688,-2.105,13.658C-2.173,13.304,-2.229,12.951,-2.273,12.595C-2.28,12.543,-2.289,12.489,-2.294,12.435C-2.335,12.068,-2.361,11.7,-2.374,11.332C-2.374,11.296,-2.381,11.259,-2.381,11.222C-2.386,11.094,-2.475,10.963,-2.476,10.836C-2.476,10.836,-2.631,-22.721,-2.631,-22.721C-2.631,-22.721,-2.631,-22.756,-2.631,-22.756C-2.631,-22.59,-2.535,-22.427,-2.529,-22.262C-2.516,-21.894,-2.447,-21.526,-2.405,-21.158Z" fill="#495057"><animate repeatCount="indefinite" attributeName="d" dur="7s" begin="0s" calcMode="spline" values="M-2.405,-21.158C-2.4,-21.107,-2.369,-21.053,-2.363,-21C-2.318,-20.645,-2.253,-20.29,-2.184,-19.936C-2.176,-19.894,-2.163,-19.851,-2.154,-19.807C-2.08,-19.439,-1.986,-19.068,-1.883,-18.699C-1.862,-18.625,-1.84,-18.551,-1.818,-18.476C-1.71,-18.111,-1.589,-17.746,-1.454,-17.379C-1.435,-17.326,-1.411,-17.27,-1.389,-17.216C-1.239,-16.824,-1.075,-16.433,-0.893,-16.042C-0.887,-16.029,-0.883,-16.015,-0.876,-16.003C-0.69,-15.608,-0.486,-15.214,-0.267,-14.823C-0.226,-14.748,-0.187,-14.674,-0.142,-14.599C-0.078,-14.487,-0.011,-14.375,0.056,-14.264C0.133,-14.134,0.211,-14.004,0.292,-13.873C0.364,-13.759,0.439,-13.647,0.513,-13.534C0.596,-13.406,0.68,-13.278,0.769,-13.149C0.845,-13.037,0.926,-12.924,1.005,-12.812C1.095,-12.684,1.188,-12.557,1.282,-12.429C1.366,-12.317,1.45,-12.205,1.537,-12.093C1.621,-11.983,1.709,-11.873,1.795,-11.764C2.041,-11.455,2.296,-11.145,2.563,-10.839C2.563,-10.839,2.631,22.756,2.631,22.756C2.362,22.448,2.109,22.141,1.862,21.832C1.834,21.794,1.798,21.756,1.767,21.718C1.71,21.646,1.659,21.572,1.604,21.5C1.519,21.389,1.432,21.277,1.348,21.165C1.254,21.038,1.164,20.911,1.072,20.783C0.992,20.67,0.914,20.558,0.834,20.445C0.748,20.317,0.663,20.189,0.58,20.06C0.504,19.947,0.43,19.834,0.36,19.721C0.279,19.592,0.202,19.463,0.123,19.332C0.056,19.22,-0.011,19.108,-0.076,18.996C-0.097,18.959,-0.12,18.923,-0.14,18.887C-0.163,18.851,-0.177,18.811,-0.199,18.772C-0.418,18.381,-0.624,17.986,-0.81,17.592C-0.816,17.579,-0.82,17.566,-0.826,17.554C-1.009,17.162,-1.172,16.769,-1.323,16.379C-1.336,16.342,-1.353,16.306,-1.367,16.271C-1.374,16.252,-1.379,16.234,-1.385,16.213C-1.521,15.848,-1.641,15.484,-1.749,15.117C-1.772,15.044,-1.792,14.969,-1.812,14.895C-1.916,14.527,-2.008,14.155,-2.084,13.786C-2.085,13.775,-2.09,13.763,-2.092,13.75C-2.099,13.72,-2.1,13.688,-2.105,13.658C-2.173,13.304,-2.229,12.951,-2.273,12.595C-2.28,12.543,-2.289,12.489,-2.294,12.435C-2.335,12.068,-2.361,11.7,-2.374,11.332C-2.374,11.296,-2.381,11.259,-2.381,11.222C-2.386,11.094,-2.475,10.963,-2.476,10.836C-2.476,10.836,-2.631,-22.721,-2.631,-22.721C-2.631,-22.721,-2.631,-22.756,-2.631,-22.756C-2.631,-22.59,-2.535,-22.427,-2.529,-22.262C-2.516,-21.894,-2.447,-21.526,-2.405,-21.158Z; M-2.325,-12.158C-2.32,-12.107,-2.289,-12.053,-2.283,-12C-2.238,-11.645,-2.173,-11.29,-2.104,-10.936C-2.096,-10.894,-2.083,-10.851,-2.074,-10.807C-2,-10.439,-1.906,-10.068,-1.803,-9.699C-1.782,-9.625,-1.76,-9.551,-1.738,-9.476C-1.63,-9.111,-1.509,-8.746,-1.374,-8.379C-1.355,-8.326,-1.331,-8.27,-1.309,-8.216C-1.159,-7.824,-0.995,-7.433,-0.813,-7.042C-0.807,-7.029,-0.803,-7.015,-0.796,-7.003C-0.61,-6.608,-0.406,-6.214,-0.187,-5.823C-0.146,-5.748,-0.107,-5.674,-0.062,-5.599C0.002,-5.487,0.069,-5.375,0.136,-5.264C0.213,-5.134,0.292,-5.004,0.373,-4.873C0.445,-4.759,0.519,-4.647,0.593,-4.534C0.676,-4.406,0.76,-4.278,0.849,-4.149C0.925,-4.037,1.006,-3.924,1.085,-3.812C1.175,-3.684,1.268,-3.557,1.362,-3.429C1.446,-3.317,1.53,-3.205,1.617,-3.093C1.701,-2.983,1.789,-2.873,1.875,-2.764C2.121,-2.455,2.376,-2.145,2.643,-1.839C2.643,-1.839,2.631,22.756,2.631,22.756C2.362,22.448,2.109,22.141,1.862,21.832C1.834,21.794,1.798,21.756,1.767,21.718C1.71,21.646,1.659,21.572,1.604,21.5C1.519,21.389,1.432,21.277,1.348,21.165C1.254,21.038,1.164,20.911,1.072,20.783C0.992,20.67,0.914,20.558,0.834,20.445C0.748,20.317,0.663,20.189,0.58,20.06C0.504,19.947,0.43,19.834,0.36,19.721C0.279,19.592,0.202,19.463,0.123,19.332C0.056,19.22,-0.011,19.108,-0.076,18.996C-0.097,18.959,-0.12,18.923,-0.14,18.887C-0.163,18.851,-0.177,18.811,-0.199,18.772C-0.418,18.381,-0.624,17.986,-0.81,17.592C-0.816,17.579,-0.82,17.566,-0.826,17.554C-1.009,17.162,-1.172,16.769,-1.323,16.379C-1.336,16.342,-1.353,16.306,-1.367,16.271C-1.374,16.252,-1.379,16.234,-1.385,16.213C-1.521,15.848,-1.641,15.484,-1.749,15.117C-1.772,15.044,-1.792,14.969,-1.812,14.895C-1.916,14.527,-2.008,14.155,-2.084,13.786C-2.085,13.775,-2.09,13.763,-2.092,13.75C-2.099,13.72,-2.1,13.688,-2.105,13.658C-2.173,13.304,-2.229,12.951,-2.273,12.595C-2.28,12.543,-2.289,12.489,-2.294,12.435C-2.335,12.068,-2.361,11.7,-2.374,11.332C-2.374,11.296,-2.381,11.259,-2.381,11.222C-2.386,11.094,-2.475,10.963,-2.476,10.836C-2.476,10.836,-2.551,-13.721,-2.551,-13.721C-2.551,-13.721,-2.551,-13.756,-2.551,-13.756C-2.551,-13.59,-2.455,-13.427,-2.449,-13.262C-2.436,-12.894,-2.367,-12.526,-2.325,-12.158Z; M-2.405,-21.159C-2.4,-21.108,-2.369,-21.053,-2.363,-21C-2.318,-20.645,-2.253,-20.29,-2.184,-19.936C-2.176,-19.894,-2.163,-19.851,-2.154,-19.807C-2.08,-19.439,-1.986,-19.068,-1.883,-18.699C-1.862,-18.625,-1.84,-18.551,-1.818,-18.476C-1.71,-18.111,-1.589,-17.746,-1.454,-17.379C-1.435,-17.326,-1.411,-17.27,-1.389,-17.216C-1.239,-16.824,-1.075,-16.433,-0.893,-16.042C-0.887,-16.029,-0.883,-16.015,-0.876,-16.003C-0.69,-15.608,-0.486,-15.214,-0.267,-14.823C-0.226,-14.748,-0.187,-14.674,-0.142,-14.599C-0.078,-14.487,-0.011,-14.375,0.056,-14.264C0.133,-14.134,0.211,-14.004,0.292,-13.873C0.364,-13.759,0.439,-13.647,0.513,-13.534C0.596,-13.406,0.68,-13.278,0.769,-13.149C0.845,-13.037,0.926,-12.924,1.005,-12.812C1.095,-12.684,1.188,-12.557,1.282,-12.429C1.366,-12.317,1.45,-12.205,1.537,-12.093C1.622,-11.983,1.709,-11.873,1.795,-11.764C2.041,-11.454,2.296,-11.145,2.563,-10.839C2.563,-10.839,2.631,22.756,2.631,22.756C2.362,22.448,2.109,22.141,1.862,21.832C1.833,21.794,1.798,21.756,1.767,21.718C1.71,21.646,1.659,21.572,1.604,21.5C1.519,21.389,1.432,21.277,1.348,21.165C1.254,21.038,1.164,20.911,1.072,20.783C0.992,20.67,0.914,20.558,0.834,20.445C0.748,20.317,0.663,20.189,0.58,20.06C0.504,19.947,0.43,19.834,0.36,19.721C0.279,19.592,0.202,19.463,0.123,19.332C0.056,19.22,-0.011,19.108,-0.076,18.996C-0.097,18.959,-0.12,18.923,-0.14,18.887C-0.163,18.851,-0.177,18.811,-0.199,18.772C-0.418,18.381,-0.624,17.986,-0.81,17.592C-0.816,17.579,-0.82,17.566,-0.826,17.554C-1.009,17.162,-1.172,16.769,-1.323,16.379C-1.336,16.342,-1.353,16.306,-1.367,16.271C-1.374,16.252,-1.379,16.234,-1.385,16.213C-1.521,15.848,-1.641,15.484,-1.749,15.117C-1.772,15.044,-1.792,14.969,-1.812,14.895C-1.916,14.527,-2.008,14.155,-2.084,13.786C-2.085,13.775,-2.09,13.763,-2.092,13.75C-2.099,13.72,-2.1,13.688,-2.105,13.658C-2.173,13.304,-2.229,12.951,-2.273,12.595C-2.28,12.543,-2.289,12.489,-2.294,12.435C-2.335,12.068,-2.361,11.7,-2.374,11.332C-2.374,11.296,-2.381,11.259,-2.381,11.222C-2.386,11.094,-2.475,10.963,-2.476,10.836C-2.476,10.836,-2.631,-22.721,-2.631,-22.721C-2.631,-22.721,-2.631,-22.756,-2.631,-22.756C-2.631,-22.59,-2.535,-22.427,-2.529,-22.262C-2.516,-21.894,-2.447,-21.527,-2.405,-21.159Z; M-2.325,-12.159C-2.32,-12.108,-2.289,-12.053,-2.283,-12C-2.238,-11.645,-2.173,-11.29,-2.104,-10.936C-2.096,-10.894,-2.083,-10.851,-2.074,-10.807C-2,-10.439,-1.906,-10.068,-1.803,-9.699C-1.782,-9.625,-1.76,-9.551,-1.738,-9.476C-1.63,-9.111,-1.509,-8.746,-1.374,-8.379C-1.355,-8.326,-1.331,-8.27,-1.309,-8.216C-1.159,-7.824,-0.995,-7.433,-0.813,-7.042C-0.807,-7.029,-0.803,-7.015,-0.796,-7.003C-0.61,-6.608,-0.406,-6.214,-0.187,-5.823C-0.146,-5.748,-0.107,-5.674,-0.062,-5.599C0.002,-5.487,0.069,-5.375,0.136,-5.264C0.213,-5.134,0.292,-5.004,0.373,-4.873C0.445,-4.759,0.519,-4.647,0.593,-4.534C0.676,-4.406,0.76,-4.278,0.849,-4.149C0.925,-4.037,1.006,-3.924,1.085,-3.812C1.175,-3.684,1.268,-3.557,1.362,-3.429C1.446,-3.317,1.53,-3.205,1.617,-3.093C1.701,-2.983,1.789,-2.873,1.875,-2.764C2.121,-2.454,2.376,-2.145,2.643,-1.839C2.643,-1.839,2.631,22.756,2.631,22.756C2.362,22.448,2.109,22.141,1.862,21.832C1.834,21.794,1.798,21.756,1.767,21.718C1.71,21.646,1.659,21.572,1.604,21.5C1.519,21.389,1.433,21.277,1.348,21.165C1.254,21.038,1.164,20.911,1.072,20.783C0.992,20.67,0.914,20.558,0.834,20.445C0.748,20.317,0.663,20.189,0.58,20.06C0.504,19.947,0.43,19.834,0.36,19.721C0.279,19.592,0.202,19.463,0.123,19.332C0.056,19.22,-0.011,19.108,-0.076,18.996C-0.097,18.959,-0.12,18.923,-0.14,18.887C-0.163,18.851,-0.177,18.811,-0.199,18.772C-0.418,18.381,-0.624,17.986,-0.81,17.592C-0.816,17.579,-0.82,17.566,-0.826,17.554C-1.009,17.162,-1.172,16.769,-1.323,16.379C-1.336,16.342,-1.353,16.306,-1.367,16.271C-1.374,16.252,-1.379,16.234,-1.385,16.213C-1.521,15.848,-1.641,15.484,-1.749,15.117C-1.772,15.044,-1.792,14.969,-1.812,14.895C-1.916,14.527,-2.008,14.155,-2.084,13.786C-2.085,13.775,-2.09,13.763,-2.092,13.75C-2.099,13.72,-2.1,13.688,-2.105,13.658C-2.173,13.304,-2.229,12.951,-2.273,12.595C-2.28,12.543,-2.289,12.489,-2.294,12.435C-2.335,12.068,-2.361,11.7,-2.374,11.332C-2.374,11.296,-2.381,11.259,-2.381,11.222C-2.386,11.094,-2.475,10.963,-2.476,10.836C-2.476,10.836,-2.551,-13.721,-2.551,-13.721C-2.551,-13.721,-2.551,-13.756,-2.551,-13.756C-2.551,-13.59,-2.455,-13.427,-2.449,-13.262C-2.436,-12.894,-2.367,-12.527,-2.325,-12.159Z; M-2.405,-21.159C-2.4,-21.108,-2.369,-21.053,-2.363,-21C-2.318,-20.645,-2.253,-20.29,-2.184,-19.936C-2.176,-19.894,-2.163,-19.851,-2.154,-19.807C-2.08,-19.439,-1.986,-19.068,-1.883,-18.699C-1.862,-18.625,-1.84,-18.551,-1.818,-18.476C-1.71,-18.111,-1.589,-17.746,-1.454,-17.379C-1.435,-17.326,-1.411,-17.27,-1.389,-17.216C-1.239,-16.824,-1.075,-16.433,-0.893,-16.042C-0.887,-16.029,-0.883,-16.015,-0.876,-16.003C-0.69,-15.608,-0.486,-15.214,-0.267,-14.823C-0.226,-14.748,-0.187,-14.674,-0.142,-14.599C-0.078,-14.487,-0.011,-14.375,0.056,-14.264C0.133,-14.134,0.211,-14.004,0.292,-13.873C0.364,-13.759,0.439,-13.647,0.513,-13.534C0.596,-13.406,0.68,-13.278,0.769,-13.149C0.845,-13.037,0.926,-12.924,1.005,-12.812C1.095,-12.684,1.188,-12.557,1.282,-12.429C1.366,-12.317,1.45,-12.205,1.537,-12.093C1.622,-11.983,1.709,-11.873,1.795,-11.764C2.041,-11.454,2.296,-11.145,2.563,-10.839C2.563,-10.839,2.631,22.756,2.631,22.756C2.362,22.448,2.109,22.141,1.862,21.832C1.833,21.794,1.798,21.756,1.767,21.718C1.71,21.646,1.659,21.572,1.604,21.5C1.519,21.389,1.432,21.277,1.348,21.165C1.254,21.038,1.164,20.911,1.072,20.783C0.992,20.67,0.914,20.558,0.834,20.445C0.748,20.317,0.663,20.189,0.58,20.06C0.504,19.947,0.43,19.834,0.36,19.721C0.279,19.592,0.202,19.463,0.123,19.332C0.056,19.22,-0.011,19.108,-0.076,18.996C-0.097,18.959,-0.12,18.923,-0.14,18.887C-0.163,18.851,-0.177,18.811,-0.199,18.772C-0.418,18.381,-0.624,17.986,-0.81,17.592C-0.816,17.579,-0.82,17.566,-0.826,17.554C-1.009,17.162,-1.172,16.769,-1.323,16.379C-1.336,16.342,-1.353,16.306,-1.367,16.271C-1.374,16.252,-1.379,16.234,-1.385,16.213C-1.521,15.848,-1.641,15.484,-1.749,15.117C-1.772,15.044,-1.792,14.969,-1.812,14.895C-1.916,14.527,-2.008,14.155,-2.084,13.786C-2.085,13.775,-2.09,13.763,-2.092,13.75C-2.099,13.72,-2.1,13.688,-2.105,13.658C-2.173,13.304,-2.229,12.951,-2.273,12.595C-2.28,12.543,-2.289,12.489,-2.294,12.435C-2.335,12.068,-2.361,11.7,-2.374,11.332C-2.374,11.296,-2.381,11.259,-2.381,11.222C-2.386,11.094,-2.475,10.963,-2.476,10.836C-2.476,10.836,-2.631,-22.721,-2.631,-22.721C-2.631,-22.721,-2.631,-22.756,-2.631,-22.756C-2.631,-22.59,-2.535,-22.427,-2.529,-22.262C-2.516,-21.894,-2.447,-21.527,-2.405,-21.159Z" keyTimes="0; 0.257143; 0.5; 0.757143; 1" keySplines="0.658 0 0.808 1; 0.218 0 0.347 1; 0.663 0 0.775 1; 0.184 0 0.333 1" fill="freeze" /></path></g><g id="i5" transform="matrix(1,0,0,1,400.048,539.628)"><path d="M11.147,21.046C11.147,21.046,-11.081,19.356,-11.081,19.356C-11.081,19.356,-11.147,-14.495,-11.147,-14.495C-11.147,-14.495,11.08,-21.046,11.08,-21.046C11.08,-21.046,11.147,21.046,11.147,21.046Z" fill="#383c40"><animate repeatCount="indefinite" attributeName="d" dur="7s" begin="0s" calcMode="spline" values="M11.147,21.046C11.147,21.046,-11.081,19.356,-11.081,19.356C-11.081,19.356,-11.147,-14.495,-11.147,-14.495C-11.147,-14.495,11.08,-21.046,11.08,-21.046C11.08,-21.046,11.147,21.046,11.147,21.046Z; M11.147,21.046C11.147,21.046,-11.081,19.356,-11.081,19.356C-11.081,19.356,-11.067,-5.495,-11.067,-5.495C-11.067,-5.495,11.16,-12.046,11.16,-12.046C11.16,-12.046,11.147,21.046,11.147,21.046Z; M11.147,21.046C11.147,21.046,-11.081,19.356,-11.081,19.356C-11.081,19.356,-11.147,-14.495,-11.147,-14.495C-11.147,-14.495,11.08,-21.046,11.08,-21.046C11.08,-21.046,11.147,21.046,11.147,21.046Z; M11.147,21.046C11.147,21.046,-11.081,19.356,-11.081,19.356C-11.081,19.356,-11.067,-5.495,-11.067,-5.495C-11.067,-5.495,11.16,-12.046,11.16,-12.046C11.16,-12.046,11.147,21.046,11.147,21.046Z; M11.147,21.046C11.147,21.046,-11.081,19.356,-11.081,19.356C-11.081,19.356,-11.147,-14.495,-11.147,-14.495C-11.147,-14.495,11.08,-21.046,11.08,-21.046C11.08,-21.046,11.147,21.046,11.147,21.046Z" keyTimes="0; 0.257143; 0.5; 0.757143; 1" keySplines="0.658 0 0.808 1; 0.218 0 0.347 1; 0.663 0 0.775 1; 0.184 0 0.333 1" fill="freeze" /></path></g></g></g></g></g><g transform="matrix(0.84,0,0,0.84,461.296,394.328)" id="i0"><g transform="matrix(12.5,0,0,12.5,-575,-550)" id="i1"><g transform="matrix(0.61,0,0,0.61,-213.373,-267.517)" id="i6"><g transform="matrix(1,0,0,1,0,0)" id="i10"><g id="i4" transform="matrix(1,0,0,1,408.411,553.672)"><path d="M-16.054,-16.168C-6.654,-8.215,7.325,-3.512,19.337,-3.387C19.337,-3.387,19.595,-3.376,19.595,-3.376C19.595,-3.376,19.595,19.56,19.595,19.56C19.595,19.56,18.581,19.551,18.07,19.532C5.748,19.115,-8.177,15.98,-17.481,7.359C-18.218,6.678,-18.898,5.98,-19.529,5.253C-19.529,5.253,-19.595,-19.56,-19.595,-19.56C-18.548,-18.36,-17.367,-17.227,-16.054,-16.168Z" fill="#383c40"><animate repeatCount="indefinite" attributeName="d" dur="7s" begin="0s" calcMode="spline" values="M-16.054,-16.168C-6.654,-8.215,7.325,-3.512,19.337,-3.387C19.337,-3.387,19.595,-3.376,19.595,-3.376C19.595,-3.376,19.595,19.56,19.595,19.56C19.595,19.56,18.581,19.551,18.07,19.532C5.748,19.115,-8.177,15.98,-17.481,7.359C-18.218,6.678,-18.898,5.98,-19.529,5.253C-19.529,5.253,-19.595,-19.56,-19.595,-19.56C-18.548,-18.36,-17.367,-17.227,-16.054,-16.168Z; M-15.954,-24.918C-6.554,-16.965,7.425,-12.262,19.437,-12.137C19.437,-12.137,19.695,-12.126,19.695,-12.126C19.695,-12.126,19.595,19.56,19.595,19.56C19.595,19.56,18.581,19.551,18.07,19.532C5.748,19.115,-8.177,15.98,-17.481,7.359C-18.218,6.678,-18.898,5.98,-19.529,5.253C-19.529,5.253,-19.495,-28.31,-19.495,-28.31C-18.448,-27.11,-17.267,-25.977,-15.954,-24.918Z; M-16.054,-16.168C-6.654,-8.215,7.325,-3.512,19.337,-3.387C19.337,-3.387,19.595,-3.376,19.595,-3.376C19.595,-3.376,19.595,19.56,19.595,19.56C19.595,19.56,18.581,19.551,18.07,19.532C5.748,19.115,-8.177,15.98,-17.481,7.359C-18.218,6.678,-18.898,5.98,-19.529,5.253C-19.529,5.253,-19.595,-19.56,-19.595,-19.56C-18.548,-18.36,-17.367,-17.227,-16.054,-16.168Z; M-15.954,-24.918C-6.554,-16.965,7.425,-12.262,19.437,-12.137C19.437,-12.137,19.695,-12.126,19.695,-12.126C19.695,-12.126,19.595,19.56,19.595,19.56C19.595,19.56,18.581,19.551,18.07,19.532C5.748,19.115,-8.177,15.98,-17.481,7.359C-18.218,6.678,-18.898,5.98,-19.529,5.253C-19.529,5.253,-19.495,-28.31,-19.495,-28.31C-18.448,-27.11,-17.267,-25.977,-15.954,-24.918Z; M-16.054,-16.168C-6.654,-8.215,7.325,-3.512,19.337,-3.387C19.337,-3.387,19.595,-3.376,19.595,-3.376C19.595,-3.376,19.595,19.56,19.595,19.56C19.595,19.56,18.581,19.551,18.07,19.532C5.748,19.115,-8.177,15.98,-17.481,7.359C-18.218,6.678,-18.898,5.98,-19.529,5.253C-19.529,5.253,-19.595,-19.56,-19.595,-19.56C-18.548,-18.36,-17.367,-17.227,-16.054,-16.168Z" keyTimes="0; 0.257143; 0.5; 0.757143; 1" keySplines="0.658 0 0.808 1; 0.218 0 0.347 1; 0.663 0 0.775 1; 0.184 0 0.333 1" fill="freeze" /></path></g><g id="i5" transform="matrix(1,0,0,1,408.416,538.932)"><path d="M19.6,-4.951C19.6,-4.951,19.6,11.364,19.6,11.364C19.6,11.364,19.363,11.354,19.335,11.354C7.358,11.354,-6.703,6.448,-16.061,-1.428C-17.373,-2.487,-18.553,-3.619,-19.6,-4.819C-19.6,-4.819,2.63,-11.364,2.63,-11.364C6.02,-7.492,12.611,-5.177,19.6,-4.951Z" stroke-width="0.5" stroke="#383c40" fill="#57b3f9"><animate repeatCount="indefinite" attributeName="d" dur="7s" begin="0s" calcMode="spline" values="M19.6,-4.951C19.6,-4.951,19.6,11.364,19.6,11.364C19.6,11.364,19.363,11.354,19.335,11.354C7.358,11.354,-6.703,6.448,-16.061,-1.428C-17.373,-2.487,-18.553,-3.619,-19.6,-4.819C-19.6,-4.819,2.63,-11.364,2.63,-11.364C6.02,-7.492,12.611,-5.177,19.6,-4.951Z; M19.7,-13.701C19.7,-13.701,19.7,2.614,19.7,2.614C19.7,2.614,19.463,2.604,19.435,2.604C7.458,2.604,-6.602,-2.302,-15.96,-10.178C-17.272,-11.237,-18.453,-12.369,-19.5,-13.569C-19.5,-13.569,2.73,-20.114,2.73,-20.114C6.12,-16.242,12.711,-13.927,19.7,-13.701Z; M19.6,-4.951C19.6,-4.951,19.6,11.364,19.6,11.364C19.6,11.364,19.364,11.354,19.335,11.354C7.358,11.354,-6.703,6.448,-16.061,-1.428C-17.373,-2.487,-18.553,-3.619,-19.6,-4.819C-19.6,-4.819,2.63,-11.364,2.63,-11.364C6.02,-7.492,12.611,-5.177,19.6,-4.951Z; M19.7,-13.701C19.7,-13.701,19.7,2.614,19.7,2.614C19.7,2.614,19.463,2.604,19.435,2.604C7.458,2.604,-6.602,-2.302,-15.96,-10.178C-17.272,-11.237,-18.453,-12.369,-19.5,-13.569C-19.5,-13.569,2.73,-20.114,2.73,-20.114C6.121,-16.242,12.711,-13.927,19.7,-13.701Z; M19.6,-4.951C19.6,-4.951,19.6,11.364,19.6,11.364C19.6,11.364,19.364,11.354,19.335,11.354C7.358,11.354,-6.703,6.448,-16.061,-1.428C-17.373,-2.487,-18.553,-3.619,-19.6,-4.819C-19.6,-4.819,2.63,-11.364,2.63,-11.364C6.02,-7.492,12.611,-5.177,19.6,-4.951Z" keyTimes="0; 0.257143; 0.5; 0.757143; 1" keySplines="0.658 0 0.808 1; 0.218 0 0.347 1; 0.663 0 0.775 1; 0.184 0 0.333 1" fill="freeze" /></path></g></g></g></g></g><g transform="matrix(0.84,0,0,0.84,461.296,394.328)" id="i0"><g transform="matrix(12.5,0,0,12.5,-575,-550)" id="i1"><g transform="matrix(0.61,0,0,0.61,-213.373,-267.517)" id="i6"><g transform="matrix(1,0,0,1,0,0)" id="i11"><g id="i4" transform="matrix(1,0,0,1,444.585,561.451)"><path d="M-14.403,-4.124C-4.452,-3.815,6.399,-6.395,15.173,-11.056C15.615,-11.292,16.06,-11.54,16.504,-11.795C16.504,-11.795,16.579,4.114,16.579,4.114C7.535,9.324,-3.156,11.499,-13.506,11.772C-14.535,11.8,-15.347,11.801,-16.579,11.781C-16.579,11.781,-16.579,-4.124,-16.579,-4.124C-15.347,-4.115,-15.12,-4.105,-14.403,-4.124Z" fill="#495057"><animate repeatCount="indefinite" attributeName="d" dur="7s" begin="0s" calcMode="spline" values="M-14.403,-4.124C-4.452,-3.815,6.399,-6.395,15.173,-11.056C15.615,-11.292,16.06,-11.54,16.504,-11.795C16.504,-11.795,16.579,4.114,16.579,4.114C7.535,9.324,-3.156,11.499,-13.506,11.772C-14.535,11.8,-15.347,11.801,-16.579,11.781C-16.579,11.781,-16.579,-4.124,-16.579,-4.124C-15.347,-4.115,-15.12,-4.105,-14.403,-4.124Z; M-14.449,-31.624C-4.498,-31.315,6.353,-33.895,15.127,-38.556C15.569,-38.792,16.014,-39.04,16.458,-39.295C16.458,-39.295,16.579,4.114,16.579,4.114C7.535,9.324,-3.156,11.499,-13.506,11.772C-14.535,11.8,-15.347,11.801,-16.579,11.781C-16.579,11.781,-16.625,-31.624,-16.625,-31.624C-15.393,-31.615,-15.166,-31.605,-14.449,-31.624Z; M-14.403,-4.124C-4.452,-3.814,6.399,-6.395,15.173,-11.056C15.615,-11.292,16.06,-11.54,16.504,-11.795C16.504,-11.795,16.579,4.114,16.579,4.114C7.535,9.324,-3.156,11.499,-13.506,11.772C-14.535,11.801,-15.347,11.801,-16.579,11.781C-16.579,11.781,-16.579,-4.124,-16.579,-4.124C-15.347,-4.115,-15.12,-4.105,-14.403,-4.124Z; M-14.449,-31.624C-4.498,-31.314,6.353,-33.895,15.127,-38.556C15.569,-38.792,16.014,-39.04,16.458,-39.295C16.458,-39.295,16.579,4.114,16.579,4.114C7.535,9.324,-3.156,11.499,-13.506,11.772C-14.535,11.801,-15.347,11.801,-16.579,11.781C-16.579,11.781,-16.625,-31.624,-16.625,-31.624C-15.393,-31.615,-15.166,-31.605,-14.449,-31.624Z; M-14.403,-4.124C-4.452,-3.814,6.399,-6.395,15.173,-11.056C15.615,-11.292,16.06,-11.54,16.504,-11.795C16.504,-11.795,16.579,4.114,16.579,4.114C7.535,9.324,-3.156,11.499,-13.506,11.772C-14.535,11.801,-15.347,11.801,-16.579,11.781C-16.579,11.781,-16.579,-4.124,-16.579,-4.124C-15.347,-4.115,-15.12,-4.105,-14.403,-4.124Z" keyTimes="0; 0.257143; 0.5; 0.757143; 1" keySplines="0.658 0 0.808 1; 0.218 0 0.347 1; 0.663 0 0.775 1; 0.184 0 0.333 1" fill="freeze" /></path></g><g id="i5" transform="matrix(1,0,0,1,444.552,548.406)"><path d="M-1.02,-8.949C-1.02,-8.949,16.536,1.251,16.536,1.251C16.092,1.505,15.648,1.752,15.204,1.987C6.471,6.649,-4.446,9.267,-14.363,8.918C-15.091,8.939,-15.818,8.938,-16.536,8.928C-16.536,8.928,-16.536,8.918,-16.536,8.918C-16.536,8.918,-16.536,-5.521,-16.536,-5.521C-13.06,-5.407,-9.501,-5.804,-6.177,-6.785C-4.175,-7.372,-2.615,-8.033,-1.02,-8.949Z" stroke-width="0.5" stroke="#495057" fill="#ffad60"><animate repeatCount="indefinite" attributeName="d" dur="7s" begin="0s" calcMode="spline" values="M-1.02,-8.949C-1.02,-8.949,16.536,1.251,16.536,1.251C16.092,1.505,15.648,1.752,15.204,1.987C6.471,6.649,-4.446,9.267,-14.363,8.918C-15.091,8.939,-15.818,8.938,-16.536,8.928C-16.536,8.928,-16.536,8.918,-16.536,8.918C-16.536,8.918,-16.536,-5.521,-16.536,-5.521C-13.06,-5.407,-9.501,-5.804,-6.177,-6.785C-4.175,-7.372,-2.615,-8.033,-1.02,-8.949Z; M-1.066,-36.449C-1.066,-36.449,16.49,-26.249,16.49,-26.249C16.046,-25.995,15.602,-25.748,15.158,-25.513C6.425,-20.851,-4.492,-18.233,-14.409,-18.582C-15.137,-18.561,-15.864,-18.562,-16.582,-18.572C-16.582,-18.572,-16.582,-18.582,-16.582,-18.582C-16.582,-18.582,-16.582,-33.021,-16.582,-33.021C-13.106,-32.907,-9.547,-33.304,-6.223,-34.285C-4.221,-34.872,-2.661,-35.533,-1.066,-36.449Z; M-1.02,-8.949C-1.02,-8.949,16.536,1.251,16.536,1.251C16.092,1.505,15.648,1.752,15.204,1.987C6.471,6.649,-4.446,9.267,-14.363,8.918C-15.091,8.939,-15.818,8.938,-16.536,8.928C-16.536,8.928,-16.536,8.918,-16.536,8.918C-16.536,8.918,-16.536,-5.521,-16.536,-5.521C-13.06,-5.407,-9.501,-5.804,-6.177,-6.785C-4.175,-7.372,-2.615,-8.033,-1.02,-8.949Z; M-1.066,-36.449C-1.066,-36.449,16.49,-26.249,16.49,-26.249C16.046,-25.995,15.602,-25.748,15.158,-25.513C6.425,-20.851,-4.492,-18.233,-14.409,-18.582C-15.137,-18.561,-15.864,-18.562,-16.582,-18.572C-16.582,-18.572,-16.582,-18.582,-16.582,-18.582C-16.582,-18.582,-16.582,-33.021,-16.582,-33.021C-13.106,-32.907,-9.547,-33.304,-6.223,-34.285C-4.221,-34.872,-2.661,-35.533,-1.066,-36.449Z; M-1.02,-8.949C-1.02,-8.949,16.536,1.251,16.536,1.251C16.092,1.505,15.648,1.752,15.204,1.987C6.471,6.649,-4.446,9.267,-14.363,8.918C-15.091,8.939,-15.818,8.938,-16.536,8.928C-16.536,8.928,-16.536,8.918,-16.536,8.918C-16.536,8.918,-16.536,-5.521,-16.536,-5.521C-13.06,-5.407,-9.501,-5.804,-6.177,-6.785C-4.175,-7.372,-2.615,-8.033,-1.02,-8.949Z" keyTimes="0; 0.257143; 0.5; 0.757143; 1" keySplines="0.658 0 0.808 1; 0.218 0 0.347 1; 0.663 0 0.775 1; 0.184 0 0.333 1" fill="freeze" /></path></g></g></g></g></g><g transform="matrix(0.84,0,0,0.84,461.296,394.328)" id="i0"><g transform="matrix(12.5,0,0,12.5,-575,-550)" opacity="0" id="i1" /></g><g transform="matrix(0.84,0,0,0.84,461.296,394.328)" opacity="0" id="i0" /></svg>