<svg fill="none" height="100%" width="100%" viewBox="0 0 1200 1200" xmlns:xlink="http://www.w3.org/1999/xlink" xmlns="http://www.w3.org/2000/svg"><defs><clipPath id="i0"><rect height="1200" width="1200" y="0" x="0" /></clipPath><g id="i1"><g id="i2"><g transform="translate(932.355,800.342)"><g transform="rotate(2)"><animateTransform repeatCount="indefinite" type="rotate" attributeName="transform" dur="5s" begin="0s" calcMode="spline" values="2; -4; 2; -4; 2; 2" keyTimes="0; 0.248333; 0.496667; 0.745; 0.993333; 1" keySplines="0.333 0 0.667 1; 0.333 0 0.667 1; 0.333 0 0.667 1; 0.333 0 0.667 1; 0 0 1 1" fill="freeze" /><g transform="scale(1,1) translate(-1292.355,-740.342)"><g id="i3" transform="matrix(1,0,0,1,1416.252,674.023)"><path stroke-linejoin="round" stroke-linecap="round" stroke-width="2" stroke="#000000" fill="#ff812c" d="M63.382,15.786C63.382,15.786,7.468,-51.277,-63.381,15.299C-33.158,51.277,48.519,33.712,63.382,15.786Z" /></g><g id="i4" transform="matrix(1,0,0,1,1401.176,570.432)"><path stroke-linejoin="round" stroke-linecap="round" stroke-width="2" stroke="#1a1a1a" fill="#ffffff" d="M-31.194,80.794C-31.194,80.794,19.004,81.271,31.885,21.303C44.767,-38.665,0.346,-81.271,0.346,-81.271C0.346,-81.271,-44.767,44.794,-31.194,80.794Z" /></g><g id="i5" transform="matrix(1,0,0,1,1310.627,591.735)"><path stroke-linejoin="round" stroke-linecap="round" stroke-width="2" stroke="#000000" fill="#ff812c" d="M23.263,75.908C23.263,75.908,-54.407,-1.663,8.092,-75.909C54.407,-4.303,52.339,59.586,23.263,75.908Z" /></g><g id="i6" transform="matrix(1,0,0,1,1330.108,606.631)"><path stroke-linejoin="round" stroke-linecap="round" stroke-width="2" stroke="#1a1a1a" d="M-11.389,-90.805C-11.389,-90.805,11.389,52.203,3.958,90.805" /></g><g id="i7" transform="matrix(1,0,0,1,1408.303,687.951)"><path stroke-linejoin="round" stroke-linecap="round" stroke-width="2" stroke="#1a1a1a" d="M71.331,1.858C69.845,1.362,-59.938,-6.408,-71.331,6.408" /></g><g id="i8" transform="matrix(1,0,0,1,1349.694,614.751)"><path stroke-linejoin="round" stroke-linecap="round" stroke-width="2" stroke="#1a1a1a" d="M51.828,-125.591C51.828,-125.591,57.339,-67.607,56.613,-58.708C49.182,32.451,-57.339,125.59,-57.339,125.59" /></g></g></g></g></g><g transform="matrix(1,0,0,1,-360,60)" id="i9"><g id="i10" transform="matrix(1,0,0,1,1156.321,680.358)"><path stroke-linejoin="round" stroke-linecap="round" stroke-width="1" stroke="#1a1a1a" fill="#1c0311" d="M-169.19,-40.835C-169.19,-40.835,116.942,-52.902,198.469,32.229C74.81,32.229,-102.232,52.902,-104.956,52.902C-107.679,52.902,-198.47,-5.201,-198.47,-5.201C-198.47,-5.201,-169.19,-40.835,-169.19,-40.835Z" /></g><g id="i11" transform="matrix(1,0,0,1,809.205,639.006)"><path stroke-linejoin="round" stroke-linecap="round" stroke-width="2" stroke="#1a1a1a" fill="#ffffff" d="M-224.701,81.826C-224.118,70.751,-219.397,1.758,-164.01,-39.382C-106.865,-81.826,-19.24,-77.202,46.005,-23.217C48.528,-26.297,86.131,-70.872,133.638,-64.185C182.114,-57.361,224.702,0.558,213.953,70.964C67.735,74.585,-78.483,78.205,-224.701,81.826Z" /></g><g id="i12" transform="matrix(1,0,0,1,948.384,812.245)"><path stroke-linejoin="round" stroke-linecap="round" stroke-width="2" stroke="#1a1a1a" fill="#ffffff" d="M-16.342,-117.115C-16.342,-117.115,-513.42,-117.115,-507.973,-46.302C-502.526,24.513,9.299,-4.086,9.299,-4.086C9.299,-4.086,53.584,121.2,222.218,103.497C390.853,85.794,330.931,8.171,330.931,8.171C330.931,8.171,388.129,0,450.775,-19.065C513.42,-38.131,497.98,-102.136,312.316,-111.668C126.652,-121.201,-16.342,-117.115,-16.342,-117.115Z" /></g><g id="i13" transform="matrix(1,0,0,1,692.497,708.636)"><path stroke-linejoin="round" stroke-linecap="round" stroke-width="1" stroke="#1a1a1a" fill="#1c0311" d="M-5.457,74.102C-5.457,74.102,7.166,42.555,7.166,42.555C7.166,42.555,1.305,-74.102,1.305,-74.102C1.305,-74.102,-7.165,-32.737,-7.165,-32.737C-7.165,-32.737,-5.457,74.102,-5.457,74.102Z" /></g><g id="i14" transform="matrix(1,0,0,1,615.809,727.739)"><path stroke-linejoin="round" stroke-linecap="round" stroke-width="2" stroke="#1a1a1a" fill="#ffffff" d="M71.23,54.998C71.23,54.998,-71.23,54.998,-71.23,54.998C-71.23,54.998,-71.23,-54.999,-71.23,-54.999C-71.23,-54.999,71.23,-54.999,71.23,-54.999C71.23,-54.999,71.23,54.998,71.23,54.998Z" /></g><g id="i15" transform="matrix(1,0,0,1,615.809,689.42)"><path stroke-linejoin="round" stroke-linecap="round" stroke-width="2" stroke="#1a1a1a" fill="#ffffff" d="M-71.23,-16.68C-71.23,-16.68,-45.082,16.68,-45.082,16.68C-45.082,16.68,53.197,16.68,53.197,16.68C53.197,16.68,71.23,-16.68,71.23,-16.68" /></g><g id="i3" transform="matrix(1,0,0,1,619.19,653.637)"><path stroke-linejoin="round" stroke-linecap="round" stroke-width="1" stroke="#1a1a1a" fill="#1c0311" d="M-74.611,19.103C-74.611,19.103,-46.885,-19.103,-46.885,-19.103C-46.885,-19.103,74.611,-19.103,74.611,-19.103C74.611,-19.103,67.849,19.103,67.849,19.103C67.849,19.103,-74.611,19.103,-74.611,19.103Z" /></g><g id="i4" transform="matrix(1,0,0,1,699.662,665.302)"><path stroke-linejoin="round" stroke-linecap="round" stroke-width="2" stroke="#1a1a1a" fill="#ffffff" d="M-5.861,-30.768C-5.861,-30.768,12.623,0.677,12.623,0.677C12.623,0.677,12.623,30.768,12.623,30.768C12.623,30.768,-12.623,7.439,-12.623,7.439C-12.623,7.439,-5.861,-30.768,-5.861,-30.768Z" /></g><g id="i5" transform="matrix(1,0,0,1,544.749,658.371)"><path stroke-linejoin="round" stroke-linecap="round" stroke-width="2" stroke="#1a1a1a" fill="#ffffff" d="M-3.212,-9.297C-3.212,-9.297,27.557,-23.836,27.557,-23.836C27.557,-23.836,-0.169,14.37,-0.169,14.37C-0.169,14.37,-27.557,23.836,-27.557,23.836C-27.557,23.836,-3.212,-9.297,-3.212,-9.297Z" /></g><g id="i6" transform="matrix(1,0,0,1,1302.856,441.835)"><path stroke-linejoin="round" stroke-linecap="round" stroke-width="1" stroke="#1a1a1a" fill="#1c0311" d="M30.415,0C30.415,-16.797,16.798,-30.414,0,-30.414C-16.798,-30.414,-30.415,-16.797,-30.415,0C-30.415,16.797,-16.798,30.414,0,30.414C16.798,30.414,30.415,16.797,30.415,0Z" /></g><g id="i7" transform="matrix(1,0,0,1,981.685,591.735)"><path stroke-linejoin="round" stroke-linecap="round" stroke-width="1" stroke="#1a1a1a" fill="#1c0311" d="M21.614,0C21.614,-11.937,11.937,-21.612,0,-21.612C-11.937,-21.612,-21.614,-11.937,-21.614,0C-21.614,11.937,-11.937,21.612,0,21.612C11.937,21.612,21.614,11.937,21.614,0Z" /></g><g id="i8" transform="matrix(1,0,0,1,537.3,577.57)"><path stroke-linejoin="round" stroke-linecap="round" stroke-width="2" stroke="#000000" fill="#ff812c" d="M14.166,0C14.166,-7.823,7.824,-14.165,0,-14.165C-7.823,-14.165,-14.166,-7.823,-14.166,0C-14.166,7.823,-7.823,14.165,0,14.165C7.824,14.165,14.166,7.823,14.166,0Z" /></g></g><g transform="matrix(1,0,0,1,-360,60)" id="i16"><g id="i4" transform="matrix(1,0,0,1,760.083,622.804)"><path stroke-linejoin="round" stroke-linecap="round" stroke-width="2" stroke="#1a1a1a" d="M31.24,-104.589C29.429,-94.467,24.359,-64.462,32.53,-42.088C48.891,2.71,17.917,94.696,-63.391,82.009" /></g><g id="i7" transform="matrix(1,0,0,1,818.089,614.407)"><path stroke-linejoin="round" stroke-linecap="round" stroke-width="2" stroke="#1a1a1a" d="M20.201,-94.266C13.556,-82.403,6.116,-53.589,27.476,-33.692C113.902,46.82,-34.589,87.092,-121.902,70.242" /></g></g><g transform="matrix(1,0,0,1,600,600)" id="i17" /></g><g id="i18"><g transform="matrix(1,0,0,1,-360,60)" id="i19"><g id="i20" transform="matrix(1,0,0,1,0,0)"><g id="i21" transform="matrix(1,0,0,1,734.81,370.665)"><path stroke-linejoin="round" stroke-linecap="round" stroke-width="2" stroke="#1a1a1a" fill="#ffffff" d="M198.087,146.202C198.087,146.202,-198.086,146.202,-198.086,146.202C-225.031,146.202,-246.874,124.359,-246.874,97.413C-246.874,97.413,-246.874,-97.413,-246.874,-97.413C-246.874,-124.359,-225.031,-146.202,-198.086,-146.202C-198.086,-146.202,198.087,-146.202,198.087,-146.202C225.032,-146.202,246.875,-124.359,246.875,-97.413C246.875,-97.413,246.875,97.413,246.875,97.413C246.875,124.359,225.032,146.202,198.087,146.202Z" /></g><g id="i6" transform="matrix(1,0,0,1,936.657,430.793)"><path stroke-linejoin="round" stroke-linecap="round" stroke-width="2" stroke="#1a1a1a" fill="#ffffff" d="M28.146,0C28.146,15.543,15.543,28.144,-0.001,28.144C-15.544,28.144,-28.146,15.543,-28.146,0C-28.146,-15.543,-15.544,-28.144,-0.001,-28.144C15.543,-28.144,28.146,-15.543,28.146,0Z" /></g><g id="i8" transform="matrix(1,0,0,1,936.657,430.793)"><path stroke-linejoin="round" stroke-linecap="round" stroke-width="1" stroke="#1a1a1a" fill="#1c0311" d="M-14.981,-0.001C-14.981,-0.001,-14.981,-0.001,-14.981,-0.001C-14.981,-2.633,-12.847,-4.767,-10.214,-4.767C-10.214,-4.767,10.214,-4.767,10.214,-4.767C12.846,-4.767,14.98,-2.633,14.98,-0.001C14.98,2.631,12.846,4.767,10.214,4.767C10.214,4.767,-10.214,4.767,-10.214,4.767C-12.847,4.767,-14.981,2.631,-14.981,-0.001Z" /></g><g id="i5" transform="matrix(1,0,0,1,936.657,340.815)"><path stroke-linejoin="round" stroke-linecap="round" stroke-width="2" stroke="#1a1a1a" fill="#ffffff" d="M28.146,0C28.146,15.543,15.543,28.144,-0.001,28.144C-15.544,28.144,-28.146,15.543,-28.146,0C-28.146,-15.543,-15.544,-28.144,-0.001,-28.144C15.543,-28.144,28.146,-15.543,28.146,0Z" /></g><g id="i7" transform="matrix(1,0,0,1,936.658,340.816)"><path stroke-linejoin="round" stroke-linecap="round" stroke-width="1" stroke="#1a1a1a" fill="#1c0311" d="M10.214,-4.767C10.214,-4.767,4.766,-4.767,4.766,-4.767C4.766,-4.767,4.766,-10.214,4.766,-10.214C4.766,-12.847,2.631,-14.98,-0.001,-14.98C-2.633,-14.98,-4.767,-12.847,-4.767,-10.214C-4.767,-10.214,-4.767,-4.767,-4.767,-4.767C-4.767,-4.767,-10.215,-4.767,-10.215,-4.767C-12.847,-4.767,-14.981,-2.633,-14.981,0C-14.981,2.632,-12.847,4.766,-10.215,4.766C-10.215,4.766,-4.767,4.766,-4.767,4.766C-4.767,4.766,-4.767,10.213,-4.767,10.213C-4.767,12.845,-2.633,14.98,-0.001,14.98C2.631,14.98,4.766,12.845,4.766,10.213C4.766,10.213,4.766,4.766,4.766,4.766C4.766,4.766,10.214,4.766,10.214,4.766C12.847,4.766,14.98,2.632,14.98,0C14.98,-2.633,12.847,-4.767,10.214,-4.767Z" /></g></g><g id="i22" transform="matrix(1,0,0,1,0,0)"><g id="i23" transform="matrix(1,0,0,1,810.381,318.801)"><path d="M78.472,94.385C78.472,94.385,79.395,94.372,79.395,94.372C79.395,94.372,79.395,98.607,79.395,98.607C79.395,108.948,71.111,117.36,60.814,117.551C55.726,117.462,51.128,115.361,47.779,112.011C44.346,108.579,42.225,103.841,42.225,98.607C42.225,98.607,42.225,95.372,42.225,95.372C42.225,95.372,-97.175,95.372,-97.175,95.372C-97.175,95.372,-97.175,94.347,-97.175,94.347C-97.175,94.347,-98.098,94.366,-98.098,94.366C-98.098,94.366,-98.098,-98.594,-98.098,-98.594C-98.098,-109.063,-89.61,-117.551,-79.141,-117.551C-79.141,-117.551,98.098,-117.551,98.098,-117.551C87.629,-117.551,78.472,-109.012,78.472,-98.544C78.472,-98.544,78.472,94.385,78.472,94.385Z" stroke-linejoin="round" stroke-linecap="round" stroke-width="2" stroke="#1a1a1a" fill="#ffffff"><animate repeatCount="indefinite" attributeName="d" dur="5s" begin="0s" calcMode="spline" values="M78.472,94.385C78.472,94.385,79.395,94.372,79.395,94.372C79.395,94.372,79.395,98.607,79.395,98.607C79.395,108.948,71.111,117.36,60.814,117.551C55.726,117.462,51.128,115.361,47.779,112.011C44.346,108.579,42.225,103.841,42.225,98.607C42.225,98.607,42.225,95.372,42.225,95.372C42.225,95.372,-97.175,95.372,-97.175,95.372C-97.175,95.372,-97.175,94.347,-97.175,94.347C-97.175,94.347,-98.098,94.366,-98.098,94.366C-98.098,94.366,-98.098,-98.594,-98.098,-98.594C-98.098,-109.063,-89.61,-117.551,-79.141,-117.551C-79.141,-117.551,98.098,-117.551,98.098,-117.551C87.629,-117.551,78.472,-109.012,78.472,-98.544C78.472,-98.544,78.472,94.385,78.472,94.385Z; M78.388,149.385C78.388,149.385,79.311,149.372,79.311,149.372C79.311,149.372,79.311,153.607,79.311,153.607C79.311,163.948,71.027,172.36,60.73,172.551C55.642,172.462,51.044,170.361,47.695,167.011C44.262,163.579,42.141,158.841,42.141,153.607C42.141,153.607,42.141,150.372,42.141,150.372C42.141,150.372,-97.259,150.372,-97.259,150.372C-97.259,150.372,-97.259,149.347,-97.259,149.347C-97.259,149.347,-98.182,149.366,-98.182,149.366C-98.182,149.366,-98.098,-98.594,-98.098,-98.594C-98.098,-109.063,-89.61,-117.551,-79.141,-117.551C-79.141,-117.551,98.098,-117.551,98.098,-117.551C87.629,-117.551,78.472,-109.012,78.472,-98.544C78.472,-98.544,78.388,149.385,78.388,149.385Z; M78.472,94.385C78.472,94.385,79.395,94.372,79.395,94.372C79.395,94.372,79.395,98.607,79.395,98.607C79.395,108.948,71.111,117.36,60.814,117.551C55.726,117.462,51.128,115.361,47.779,112.011C44.346,108.579,42.225,103.841,42.225,98.607C42.225,98.607,42.225,95.372,42.225,95.372C42.225,95.372,-97.175,95.372,-97.175,95.372C-97.175,95.372,-97.175,94.347,-97.175,94.347C-97.175,94.347,-98.098,94.366,-98.098,94.366C-98.098,94.366,-98.098,-98.594,-98.098,-98.594C-98.098,-109.063,-89.61,-117.551,-79.141,-117.551C-79.141,-117.551,98.098,-117.551,98.098,-117.551C87.629,-117.551,78.472,-109.012,78.472,-98.544C78.472,-98.544,78.472,94.385,78.472,94.385Z; M78.472,94.385C78.472,94.385,79.395,94.372,79.395,94.372C79.395,94.372,79.395,98.607,79.395,98.607C79.395,108.948,71.111,117.36,60.814,117.551C55.726,117.462,51.128,115.361,47.779,112.011C44.346,108.579,42.225,103.841,42.225,98.607C42.225,98.607,42.225,95.372,42.225,95.372C42.225,95.372,-97.175,95.372,-97.175,95.372C-97.175,95.372,-97.175,94.347,-97.175,94.347C-97.175,94.347,-98.098,94.366,-98.098,94.366C-98.098,94.366,-98.098,-98.594,-98.098,-98.594C-98.098,-109.063,-89.61,-117.551,-79.141,-117.551C-79.141,-117.551,98.098,-117.551,98.098,-117.551C87.629,-117.551,78.472,-109.012,78.472,-98.544C78.472,-98.544,78.472,94.385,78.472,94.385Z" keyTimes="0; 0.8; 0.993333; 1" keySplines="0 0 1 1; 0 0 1 1; 0 0 1 1" fill="freeze" /></path></g><g id="i24" transform="matrix(1,0,0,1,908.145,212.858)"><path stroke-linejoin="round" stroke-linecap="round" stroke-width="1" stroke="#1a1a1a" fill="#1c0311" d="M19.292,7.348C19.292,7.348,19.292,10.934,19.292,10.934C19.292,10.934,-18.369,11.59,-18.369,11.59C-18.369,11.59,-19.292,11.608,-19.292,11.608C-19.292,11.608,-19.292,7.4,-19.292,7.4C-19.292,-3.068,-10.135,-11.608,0.333,-11.608C5.568,-11.608,10.306,-9.488,13.738,-6.056C17.17,-2.624,19.292,2.114,19.292,7.348Z" /></g><g><g transform="translate(772.909,424.766)"><animateTransform repeatCount="indefinite" type="translate" attributeName="transform" dur="5s" begin="0s" calcMode="spline" values="772.909 424.766; 772.909 479.766; 772.909 424.766; 772.909 424.766" keyTimes="0; 0.8; 0.993333; 1" keySplines="0 0 1 1; 0 0 1 1; 0 0 1 1" fill="freeze" /><g id="i21" transform="translate(-772.909,-424.766)"><g id="i25" transform="matrix(1,0,0,1,772.909,424.766)"><path stroke-linejoin="round" stroke-linecap="round" stroke-width="2" stroke="#1a1a1a" d="M98.286,11.586C98.165,11.599,98.037,11.599,97.91,11.599C97.91,11.599,-79.329,11.599,-79.329,11.599C-84.564,11.599,-89.301,9.478,-92.734,6.046C-96.166,2.614,-98.286,-2.124,-98.286,-7.358C-98.286,-7.358,-98.286,-10.943,-98.286,-10.943C-98.286,-10.943,-60.626,-11.599,-60.626,-11.599C-60.626,-11.599,-60.626,-10.593,-60.626,-10.593C-60.626,-10.593,79.698,-10.593,79.698,-10.593C79.698,-10.593,79.698,-7.358,79.698,-7.358C79.698,-2.124,81.818,2.614,85.251,6.046C88.6,9.396,93.198,11.497,98.286,11.586Z" /></g><g id="i26" transform="matrix(1,0,0,1,772.909,424.766)"><path stroke-linejoin="round" stroke-linecap="round" stroke-width="2" stroke="#1a1a1a" d="M98.286,11.586C98.165,11.599,98.037,11.599,97.91,11.599C97.91,11.599,-79.329,11.599,-79.329,11.599C-84.564,11.599,-89.301,9.478,-92.734,6.046C-96.166,2.614,-98.286,-2.124,-98.286,-7.358C-98.286,-7.358,-98.286,-10.943,-98.286,-10.943C-98.286,-10.943,-60.626,-11.599,-60.626,-11.599C-60.626,-11.599,-60.626,-10.593,-60.626,-10.593C-60.626,-10.593,79.698,-10.593,79.698,-10.593C79.698,-10.593,79.698,-7.358,79.698,-7.358C79.698,-2.124,81.818,2.614,85.251,6.046C88.6,9.396,93.198,11.497,98.286,11.586Z" /></g></g></g></g></g><g><g transform="translate(798.666,310.686)"><animateTransform repeatCount="indefinite" type="translate" attributeName="transform" dur="5s" begin="0s" calcMode="spline" values="798.666 310.686; 798.666 370.686; 798.666 310.686; 798.666 310.686" keyTimes="0; 0.8; 0.993333; 1" keySplines="0 0 1 1; 0 0 1 1; 0 0 1 1" fill="freeze" /><g id="i27" transform="translate(-798.666,-310.686)"><g id="i13" transform="matrix(1,0,0,1,798.666,249.505)"><path stroke-linejoin="round" stroke-linecap="round" stroke-width="2" stroke="#1a1a1a" fill="#ffffff" d="M63.856,2.408C63.856,2.408,-63.856,2.408,-63.856,2.408C-63.856,2.408,-63.856,-2.408,-63.856,-2.408C-63.856,-2.408,63.856,-2.408,63.856,-2.408C63.856,-2.408,63.856,2.408,63.856,2.408Z" /></g><g id="i14" transform="matrix(1,0,0,1,798.666,280.095)"><path stroke-linejoin="round" stroke-linecap="round" stroke-width="2" stroke="#1a1a1a" fill="#ffffff" d="M63.856,2.408C63.856,2.408,-63.856,2.408,-63.856,2.408C-63.856,2.408,-63.856,-2.408,-63.856,-2.408C-63.856,-2.408,63.856,-2.408,63.856,-2.408C63.856,-2.408,63.856,2.408,63.856,2.408Z" /></g><g id="i15" transform="matrix(1,0,0,1,798.666,310.686)"><path stroke-linejoin="round" stroke-linecap="round" stroke-width="2" stroke="#1a1a1a" fill="#ffffff" d="M63.856,2.408C63.856,2.408,-63.856,2.408,-63.856,2.408C-63.856,2.408,-63.856,-2.408,-63.856,-2.408C-63.856,-2.408,63.856,-2.408,63.856,-2.408C63.856,-2.408,63.856,2.408,63.856,2.408Z" /></g><g id="i3" transform="matrix(1,0,0,1,798.666,341.277)"><path stroke-linejoin="round" stroke-linecap="round" stroke-width="2" stroke="#1a1a1a" fill="#ffffff" d="M63.856,2.408C63.856,2.408,-63.856,2.408,-63.856,2.408C-63.856,2.408,-63.856,-2.408,-63.856,-2.408C-63.856,-2.408,63.856,-2.408,63.856,-2.408C63.856,-2.408,63.856,2.408,63.856,2.408Z" /></g><g id="i4" transform="matrix(1,0,0,1,798.666,371.867)"><path stroke-linejoin="round" stroke-linecap="round" stroke-width="2" stroke="#1a1a1a" fill="#ffffff" d="M63.856,2.408C63.856,2.408,-63.856,2.408,-63.856,2.408C-63.856,2.408,-63.856,-2.408,-63.856,-2.408C-63.856,-2.408,63.856,-2.408,63.856,-2.408C63.856,-2.408,63.856,2.408,63.856,2.408Z" /></g></g></g></g><g id="i28" transform="matrix(1,0,0,1,0,0)"><g id="i29" transform="matrix(1,0,0,1,593.781,321.768)"><path stroke-linejoin="round" stroke-linecap="round" stroke-width="2" stroke="#1a1a1a" fill="#ffffff" d="M63.099,55.607C63.099,55.607,-63.099,55.607,-63.099,55.607C-63.099,55.607,-63.099,-55.607,-63.099,-55.607C-63.099,-55.607,63.099,-55.607,63.099,-55.607C63.099,-55.607,63.099,55.607,63.099,55.607Z" /></g><g opacity="0"><animate repeatCount="indefinite" attributeName="opacity" dur="5s" begin="0s" fill="freeze" values="0; 1; 1; 0; 0" keyTimes="0; 0.133333; 0.86; 0.993333; 1" keySplines="0.652 0 0.416 1; 0.167 0 0.416 1; 0.167 0 0.667 1; 0 0 1 1" calcMode="spline" /><g id="i30" transform="translate(593.781,394.626)"><path stroke-linejoin="round" stroke-linecap="round" stroke-width="1" stroke="#1a1a1a" fill="#1c0311" d="M63.099,4.993C63.099,4.993,-63.099,4.993,-63.099,4.993C-63.099,4.993,-63.099,-4.993,-63.099,-4.993C-63.099,-4.993,63.099,-4.993,63.099,-4.993C63.099,-4.993,63.099,4.993,63.099,4.993Z" /></g></g><g opacity="0"><animate repeatCount="indefinite" attributeName="opacity" dur="5s" begin="0s" fill="freeze" values="0; 0; 1; 1; 0; 0" keyTimes="0; 0.066667; 0.2; 0.793333; 0.926667; 1" keySplines="0 0 1 1; 0.652 0 0.416 1; 0.167 0 0.416 1; 0.167 0 0.833 1; 0 0 1 1" calcMode="spline" /><g id="i10" transform="translate(593.781,424.765)"><path stroke-linejoin="round" stroke-linecap="round" stroke-width="1" stroke="#1a1a1a" fill="#1c0311" d="M63.099,4.993C63.099,4.993,-63.099,4.993,-63.099,4.993C-63.099,4.993,-63.099,-4.993,-63.099,-4.993C-63.099,-4.993,63.099,-4.993,63.099,-4.993C63.099,-4.993,63.099,4.993,63.099,4.993Z" /></g></g><g opacity="0"><animate repeatCount="indefinite" attributeName="opacity" dur="5s" begin="0s" fill="freeze" values="0; 0; 1; 1; 0; 0" keyTimes="0; 0.133333; 0.266666; 0.726667; 0.86; 1" keySplines="0 0 1 1; 0.652 0 0.416 1; 0.167 0 0.416 1; 0.167 0 0.833 1; 0 0 1 1" calcMode="spline" /><g id="i11" transform="translate(593.781,454.905)"><path stroke-linejoin="round" stroke-linecap="round" stroke-width="1" stroke="#1a1a1a" fill="#1c0311" d="M63.099,4.993C63.099,4.993,-63.099,4.993,-63.099,4.993C-63.099,4.993,-63.099,-4.993,-63.099,-4.993C-63.099,-4.993,63.099,-4.993,63.099,-4.993C63.099,-4.993,63.099,4.993,63.099,4.993Z" /></g></g><g opacity="0"><animate repeatCount="indefinite" attributeName="opacity" dur="5s" begin="0s" fill="freeze" values="0; 0; 1; 1; 0; 0" keyTimes="0; 0.2; 0.333333; 0.66; 0.793333; 1" keySplines="0 0 1 1; 0.652 0 0.416 1; 0.167 0 0.416 1; 0.167 0 0.833 1; 0 0 1 1" calcMode="spline" /><g id="i12" transform="translate(593.781,485.046)"><path stroke-linejoin="round" stroke-linecap="round" stroke-width="1" stroke="#1a1a1a" fill="#1c0311" d="M63.099,4.993C63.099,4.993,-63.099,4.993,-63.099,4.993C-63.099,4.993,-63.099,-4.993,-63.099,-4.993C-63.099,-4.993,63.099,-4.993,63.099,-4.993C63.099,-4.993,63.099,4.993,63.099,4.993Z" /></g></g><g id="i31"><path stroke-width="2" stroke="#1a1a1a" d="M656.5,377C656.5,377,530.25,266.25,530.25,266.25" /></g><g id="i32"><path stroke-width="2" stroke="#1a1a1a" d="M656.75,266.5C656.75,266.5,530.75,377.25,530.75,377.25" /></g></g></g><g id="i33"><g transform="translate(793.269,504.82)"><g transform="rotate(-7)"><animateTransform repeatCount="indefinite" type="rotate" attributeName="transform" dur="5s" begin="0s" calcMode="spline" values="-7; 0; 0; -7; 0; -7; -7" keyTimes="0; 0.2; 0.4; 0.6; 0.8; 0.993333; 1" keySplines="0.333 0 0.667 1; 0.333 0 0.667 1; 0.333 0 0.667 1; 0.333 0 0.667 1; 0.333 0 0.667 1; 0 0 1 1" fill="freeze" /><g transform="scale(1,1) translate(-1153.269,-444.82)"><g id="i34"><g transform="translate(1123.343,356.666)"><g transform="rotate(-121)"><animateTransform repeatCount="indefinite" type="rotate" attributeName="transform" dur="5s" begin="0s" calcMode="spline" values="-121; -121; 0; 0; -16; -121; -121" keyTimes="0; 0.2; 0.4; 0.606666; 0.8; 0.993333; 1" keySplines="0.333 0 0.667 1; 0.333 0 0.667 1; 0.333 0 0.667 1; 0.333 0 0.833 1; 0.167 0 0.667 1; 0 0 1 1" fill="freeze" /><g transform="scale(1,1) translate(-1123.343,-356.666)"><g id="i7" transform="matrix(1,0,0,1,1083.723,344.747)"><path d="M28.934,23.88C-1.227,47.081,-26.456,-7.287,-26.456,-7.287C-26.456,-7.287,-33.158,-22.027,-36.442,-25.93C-39.62,-29.704,-31.016,-45.774,-22.597,-46.582C-17.405,-47.081,2.295,-15.488,2.295,-15.488C2.295,-15.488,30.012,18.816,39.62,-8.059" stroke-linejoin="round" stroke-linecap="round" stroke-width="2" stroke="#1a1a1a" fill="#ffffff"><animate repeatCount="indefinite" attributeName="d" dur="5s" begin="0s" calcMode="spline" values="M28.934,23.88C-1.227,47.081,-26.456,-7.287,-26.456,-7.287C-26.456,-7.287,-33.158,-22.027,-36.442,-25.93C-39.62,-29.704,-31.016,-45.774,-22.597,-46.582C-17.405,-47.081,2.295,-15.488,2.295,-15.488C2.295,-15.488,30.012,18.816,39.62,-8.059; M28.934,23.88C-1.227,47.081,-26.456,-7.287,-26.456,-7.287C-26.456,-7.287,-33.158,-22.027,-36.442,-25.93C-39.62,-29.704,-31.016,-45.774,-22.597,-46.582C-17.405,-47.081,2.295,-15.488,2.295,-15.488C2.295,-15.488,30.012,18.816,39.62,-8.059; M28.934,23.88C-1.227,47.081,-32.456,13.713,-32.456,13.713C-32.456,13.713,-83.098,-27.372,-85.317,-31.805C-87.526,-36.217,-79.891,-51.649,-71.472,-52.457C-66.28,-52.956,1.795,-14.488,1.795,-14.488C1.795,-14.488,33.777,3.253,40.62,-9.559; M28.934,23.88C-1.227,47.081,-32.456,13.713,-32.456,13.713C-32.456,13.713,-83.098,-27.372,-85.317,-31.805C-87.525,-36.217,-79.891,-51.649,-71.472,-52.457C-66.28,-52.956,1.795,-14.488,1.795,-14.488C1.795,-14.488,33.777,3.253,40.62,-9.559; M28.934,23.88C-1.227,47.081,-32.456,13.713,-32.456,13.713C-32.456,13.713,-83.098,-27.372,-85.317,-31.805C-87.525,-36.217,-79.891,-51.649,-71.472,-52.457C-66.28,-52.956,1.795,-14.488,1.795,-14.488C1.795,-14.488,33.777,3.253,40.62,-9.559" keyTimes="0; 0.4; 0.606667; 0.8; 1" keySplines="0 0 1 1; 0.333 0 0.667 1; 0.333 0 0.667 1; 0 0 1 1" fill="freeze" /></path></g><g><g transform="translate(1056.48,309.001)"><animateTransform repeatCount="indefinite" type="translate" attributeName="transform" dur="5s" begin="0s" calcMode="spline" values="1056.48 309.001; 1056.48 309.001; 1055.265 308.971; 1006.515 304.096; 1006.515 304.096; 1006.661 306.482; 1006.661 306.482" keyTimes="0; 0.2; 0.4; 0.606666; 0.8; 0.993333; 1" keySplines="0 0 1 1; 0.333 0 0.667 1; 0.333 0 0.667 1; 0 0 1 1; 0.333 0 0.667 1; 0 0 1 1" fill="freeze" /><g transform="rotate(3)"><animateTransform repeatCount="indefinite" type="rotate" attributeName="transform" dur="5s" begin="0s" calcMode="spline" values="3; 3; 0; -9; -9; 3; 3" keyTimes="0; 0.2; 0.4; 0.606666; 0.8; 0.993333; 1" keySplines="0.167 0 0.833 1; 0.167 0 0.667 1; 0.333 0 0.833 1; 0.167 0 0.833 1; 0.167 0 0.833 1; 0 0 1 1" fill="freeze" /><g id="i8" transform="translate(-13.5,-10.5)"><path stroke-linejoin="round" stroke-linecap="round" stroke-width="2" stroke="#1a1a1a" fill="#ffffff" d="M18.404,1.07C18.404,1.07,7.736,-14.703,0.927,-15.271C-5.882,-15.838,-21.581,-9.032,-21.922,4.246C-21.922,5.91,-18.82,2.776,-18.82,2.776C-18.82,2.776,-16.595,-2.824,-12.396,-2.71C-10.921,6.029,-5.315,9.242,-1.002,10.377C3.31,11.511,8.077,15.839,8.077,15.839C8.077,15.839,21.923,8.787,18.404,1.07Z" /></g></g></g></g></g></g></g></g></g></g></g></g><g transform="matrix(1,0,0,1,-360,60)" id="i35"><g id="i4" transform="matrix(1,0,0,1,1139.976,837.742)"><path stroke-linejoin="round" stroke-linecap="round" stroke-width="1" stroke="#1a1a1a" fill="#1c0311" d="M11.822,6.663C11.621,0.736,10.974,-3.935,10.974,-3.935C10.974,-3.935,-10.531,-7.112,-10.531,-7.112C-10.531,-7.112,-11.822,1.497,-11.822,1.497C-5.229,5.799,3.264,7.111,11.822,6.663Z" /></g><g id="i5" transform="matrix(1,0,0,1,1115.362,856.829)"><path stroke-linejoin="round" stroke-linecap="round" stroke-width="2" stroke="#1a1a1a" fill="#ffffff" d="M8.94,-10.595C7.052,-11.35,5.844,-13.002,5.565,-14.883C4.488,-14.547,3.253,-14.161,1.828,-13.716C-10.656,-10.084,-36.532,3.534,-35.624,8.754C-34.716,13.974,19.078,14.883,29.519,11.705C35.284,9.95,36.532,-0.45,36.494,-9.417C27.309,-8.561,18.125,-7.533,8.94,-10.595Z" /></g><g id="i6" transform="matrix(1,0,0,1,1136.391,844.268)"><path stroke-linejoin="round" stroke-linecap="round" stroke-width="2" stroke="#1a1a1a" fill="#ffffff" d="M-8.235,-5.029C-8.235,-5.029,-8.307,-4.559,-8.307,-4.559C-8.307,-4.559,-8.31,-4.558,-15.464,-2.322C-15.184,-0.441,-13.976,1.211,-12.089,1.966C-2.904,5.028,6.28,4,15.464,3.144C15.46,2.117,15.44,1.11,15.407,0.137C6.849,0.585,-1.642,-0.727,-8.235,-5.029Z" /></g><g id="i7" transform="matrix(1,0,0,1,1155.197,629.575)"><path stroke-linejoin="round" stroke-linecap="round" stroke-width="2" stroke="#000000" fill="#ff812c" d="M-54.621,-207.26C-54.621,-207.26,-41.48,187.274,-31.512,205.099C-14.803,211.73,-2.098,207.26,-2.098,207.26C-2.098,207.26,30.313,-10.424,42.467,-80.914C54.621,-151.405,32.609,-211.73,32.609,-211.73" /></g><g id="i8" transform="matrix(1,0,0,1,1161.988,482.066)"><path stroke-linejoin="round" stroke-linecap="round" stroke-width="2" stroke="#1a1a1a" d="M-11.037,-11.063C-11.037,-11.063,-5.759,8.339,11.037,11.063" /></g></g><g transform="matrix(1,0,0,1,-360,60)" id="i36"><g id="i5" transform="matrix(1,0,0,1,1189.382,836.206)"><path stroke-linejoin="round" stroke-linecap="round" stroke-width="1" stroke="#1a1a1a" fill="#1c0311" d="M12.541,3.237C11.192,-3.113,9.974,-7.846,9.974,-7.846C9.974,-7.846,-9.773,-3.534,-9.773,-3.534C-9.773,-3.534,-11.225,2.429,-12.541,7.49C-4.101,7.846,4.577,6.426,12.541,3.237Z" /></g><g id="i6" transform="matrix(1,0,0,1,1187.586,848.141)"><path stroke-linejoin="round" stroke-linecap="round" stroke-width="2" stroke="#1a1a1a" fill="#ffffff" d="M-0.242,7.008C6.013,5.835,11.304,2.737,15.786,-1.39C15.32,-3.938,14.821,-6.423,14.337,-8.698C6.373,-5.509,-2.305,-4.089,-10.745,-4.445C-11.638,-1.013,-12.469,2.003,-12.744,2.462C-12.856,2.649,-13.994,3.596,-15.786,5.078C-12.866,8.698,-4.527,8.079,-0.242,7.008Z" /></g><g id="i7" transform="matrix(1,0,0,1,1171.617,871.941)"><path stroke-linejoin="round" stroke-linecap="round" stroke-width="2" stroke="#1a1a1a" fill="#ffffff" d="M15.727,-16.792C11.442,-15.721,3.103,-15.102,0.183,-18.722C-8.91,-11.2,-34.956,10.194,-30.594,17.02C-25.375,25.19,27.739,5.217,32.504,-0.684C34.956,-3.718,33.625,-14.971,31.755,-25.19C27.273,-21.063,21.982,-17.965,15.727,-16.792Z" /></g><g id="i8" transform="matrix(1,0,0,1,1168.671,629.522)"><path stroke-linejoin="round" stroke-linecap="round" stroke-width="2" stroke="#000000" fill="#ff812c" d="M27.373,-214.549C27.373,-214.549,58.973,-185.381,54.922,-98.686C50.87,-11.99,34.264,199.734,34.264,199.734C34.264,199.734,24.091,214.549,8.439,206.273C2.829,193.506,-24.652,66.089,-43.557,-44.885C-43.557,-44.885,-56.93,-139.797,-58.973,-164.309" /></g></g><g id="i33"><g transform="translate(793.269,504.82)"><g transform="rotate(-7)"><animateTransform repeatCount="indefinite" type="rotate" attributeName="transform" dur="5s" begin="0s" calcMode="spline" values="-7; 0; 0; -7; 0; -7; -7" keyTimes="0; 0.2; 0.4; 0.6; 0.8; 0.993333; 1" keySplines="0.333 0 0.667 1; 0.333 0 0.667 1; 0.333 0 0.667 1; 0.333 0 0.667 1; 0.333 0 0.667 1; 0 0 1 1" fill="freeze" /><g transform="scale(1,1) translate(-1153.269,-444.82)"><g id="i37"><g transform="translate(1158.281,267.734)"><g transform="rotate(0)"><animateTransform repeatCount="indefinite" type="rotate" attributeName="transform" dur="5s" begin="0s" calcMode="spline" values="0; 13; 4; 13; 4; 13; 0; 0" keyTimes="0; 0.2; 0.36; 0.5; 0.64; 0.8; 0.993333; 1" keySplines="0.333 0 0.667 1; 0.333 0 0.833 1; 0.167 0 0.667 1; 0.333 0 0.833 1; 0.167 0 0.667 1; 0.167 0 0.667 1; 0 0 1 1" fill="freeze" /><g transform="scale(1,1) translate(-1158.281,-267.734)"><g id="i7" transform="matrix(1,0,0,1,1155.226,219.908)"><path stroke-linejoin="round" stroke-linecap="round" stroke-width="2" stroke="#1a1a1a" fill="#ffffff" d="M10.568,44.09C10.568,44.09,2.195,17.622,2.195,17.622C2.195,17.622,-18.872,25.995,-25.894,13.841C-32.916,1.688,-40.546,-28.696,-22.113,-42.065C-6.099,-53.68,8.407,-55.704,18.13,-35.448C27.853,-15.192,28.124,-6.685,34.065,6.819C40.007,20.323,40.547,36.529,40.547,36.529C40.547,36.529,17.32,55.703,10.568,44.09Z" /></g><g id="i8" transform="matrix(1,0,0,1,1155.456,196.715)"><path stroke-linejoin="round" stroke-linecap="round" stroke-width="1" stroke="#1a1a1a" fill="#1c0311" d="M-36.462,-2.33C-36.462,-2.33,-35.374,5.367,-23.423,1.924C-11.471,-1.519,-11.066,4.153,-11.066,7.799C-11.066,11.445,-6.761,16.711,-2.432,14.482C1.898,12.254,9.797,14.988,7.771,21.318C5.746,27.649,9.596,34.942,17.698,32.714C23.168,39.803,39.98,39.196,38.766,26.839C49.097,24.206,48.286,10.026,36.942,3.545C45.855,-4.963,44.474,-13.401,30.865,-13.471C39.778,-30.486,14.352,-39.802,5.492,-30.485C0.277,-35.346,-19.014,-35.829,-19.496,-25.662C-27.677,-27.649,-49.096,-22.788,-36.462,-2.33Z" /></g></g></g></g></g></g></g></g></g><g id="i33"><g transform="translate(793.269,504.82)"><g transform="rotate(-7)"><animateTransform repeatCount="indefinite" type="rotate" attributeName="transform" dur="5s" begin="0s" calcMode="spline" values="-7; 0; 0; -7; 0; -7; -7" keyTimes="0; 0.2; 0.4; 0.6; 0.8; 0.993333; 1" keySplines="0.333 0 0.667 1; 0.333 0 0.667 1; 0.333 0 0.667 1; 0.333 0 0.667 1; 0.333 0 0.667 1; 0 0 1 1" fill="freeze" /><g transform="scale(1,1) translate(-1153.269,-444.82)"><g id="i4" transform="matrix(1,0,0,1,1147.094,404.49)"><path stroke-linejoin="round" stroke-linecap="round" stroke-width="2" stroke="#1a1a1a" fill="#ffffff" d="M-46.518,17.825C-31.393,-17.825,46.518,16.154,46.518,16.154" /></g><g id="i5" transform="matrix(1,0,0,1,1154.411,434.605)"><path stroke-linejoin="round" stroke-linecap="round" stroke-width="1" stroke="#1a1a1a" fill="#1c0311" d="M-53.834,-3.212C-53.834,-3.212,-3.629,16.762,28.45,7.986C50.24,1.329,54.622,0.389,54.622,0.389C54.622,0.389,46.3,-15.348,46.3,-15.348C46.3,-15.348,-54.623,-16.762,-54.623,-16.762C-54.623,-16.762,-54.623,-3.273,-54.623,-3.273" /></g><g id="i6" transform="matrix(1,0,0,1,1136.477,299.745)"><path stroke-linejoin="round" stroke-linecap="round" stroke-width="2" stroke="#1a1a1a" fill="#ffffff" d="M27.561,-47.833C27.561,-47.833,-7.044,-26.377,-19.61,-9.524C-35.477,11.755,-41.325,100.086,-41.325,100.086C-41.325,100.086,-17.322,104.832,-15.854,103.086C-14.386,101.341,45.325,-25.563,45.325,-27.984" /></g><g id="i7" transform="matrix(1,0,0,1,1149.989,351.707)"><path d="M-18.927,-50.637C-20.489,-48.707,-78.398,60.632,-43.075,75.824C13.441,100.131,55.326,76.151,55.326,76.151C55.326,76.151,78.398,-90.408,54.698,-95.27C30.998,-100.131,14.049,-99.794,14.049,-99.794" stroke-linejoin="round" stroke-linecap="round" stroke-width="2" stroke="#1a1a1a" fill="#ffffff"><animate repeatCount="indefinite" attributeName="d" dur="5s" begin="0s" calcMode="spline" values="M-18.927,-50.637C-20.489,-48.707,-78.398,60.632,-43.075,75.824C13.441,100.131,55.326,76.151,55.326,76.151C55.326,76.151,78.398,-90.408,54.698,-95.27C30.998,-100.131,14.049,-99.794,14.049,-99.794; M-18.927,-50.637C-47.252,-4.171,-78.398,60.632,-43.075,75.824C13.441,100.131,55.326,76.151,55.326,76.151C55.326,76.151,78.398,-90.408,54.698,-95.27C30.998,-100.131,14.049,-99.794,14.049,-99.794; M-18.927,-50.637C-47.252,-4.171,-78.398,60.632,-43.075,75.824C13.441,100.131,55.326,76.151,55.326,76.151C55.326,76.151,78.398,-90.408,54.698,-95.27C30.998,-100.131,14.049,-99.794,14.049,-99.794; M-18.927,-50.637C-20.489,-48.707,-78.398,60.632,-43.075,75.824C13.441,100.131,55.326,76.151,55.326,76.151C55.326,76.151,78.398,-90.408,54.698,-95.27C30.998,-100.131,14.049,-99.794,14.049,-99.794; M-18.927,-50.637C-47.252,-4.171,-78.398,60.632,-43.075,75.824C13.441,100.131,55.326,76.151,55.326,76.151C55.326,76.151,78.398,-90.408,54.698,-95.27C30.998,-100.131,14.049,-99.794,14.049,-99.794; M-18.927,-50.637C-20.489,-48.707,-78.398,60.632,-43.075,75.824C13.441,100.131,55.326,76.151,55.326,76.151C55.326,76.151,78.398,-90.408,54.698,-95.27C30.998,-100.131,14.049,-99.794,14.049,-99.794; M-18.927,-50.637C-20.489,-48.707,-78.398,60.632,-43.075,75.824C13.441,100.131,55.326,76.151,55.326,76.151C55.326,76.151,78.398,-90.408,54.698,-95.27C30.998,-100.131,14.049,-99.794,14.049,-99.794" keyTimes="0; 0.2; 0.4; 0.6; 0.8; 0.993333; 1" keySplines="0.333 0 0.667 1; 0.333 0 0.667 1; 0.333 0 0.667 1; 0.333 0 0.667 1; 0.333 0 0.667 1; 0 0 1 1" fill="freeze" /></path></g><g id="i8" transform="matrix(1,0,0,1,1153.43,297.71)"><path stroke-linejoin="round" stroke-linecap="round" stroke-width="2" stroke="#1a1a1a" d="M9.155,-15.964C9.155,-15.964,-3.556,0.379,-9.155,15.964" /></g></g></g></g></g><g id="i33"><g transform="translate(793.269,504.82)"><g transform="rotate(-7)"><animateTransform repeatCount="indefinite" type="rotate" attributeName="transform" dur="5s" begin="0s" calcMode="spline" values="-7; 0; 0; -7; 0; -7; -7" keyTimes="0; 0.2; 0.4; 0.6; 0.8; 0.993333; 1" keySplines="0.333 0 0.667 1; 0.333 0 0.667 1; 0.333 0 0.667 1; 0.333 0 0.667 1; 0.333 0 0.667 1; 0 0 1 1" fill="freeze" /><g transform="scale(1,1) translate(-1153.269,-444.82)"><g id="i34"><g transform="translate(1207.05,257.926)"><g transform="rotate(-12)"><animateTransform repeatCount="indefinite" type="rotate" attributeName="transform" dur="5s" begin="0s" calcMode="spline" values="-12; 0; 11; -8; 0; -12; -12" keyTimes="0; 0.2; 0.4; 0.6; 0.8; 0.993333; 1" keySplines="0.333 0 0.667 1; 0.333 0 0.833 1; 0.167 0 0.667 1; 0.333 0 0.667 1; 0.333 0 0.667 1; 0 0 1 1" fill="freeze" /><g transform="scale(1,1) translate(-1207.05,-257.926)"><g><g transform="translate(1073.831,424.658)"><animateTransform repeatCount="indefinite" type="translate" attributeName="transform" dur="5s" begin="0s" calcMode="spline" values="1073.831 424.658; 1075.316 351.277; 1075.316 351.277; 1073.831 424.658; 1073.831 424.658" keyTimes="0; 0.2; 0.8; 0.993333; 1" keySplines="0.333 0 0.667 1; 0 0 1 1; 0.333 0 0.667 1; 0 0 1 1" fill="freeze" /><g transform="rotate(0)"><animateTransform repeatCount="indefinite" type="rotate" attributeName="transform" dur="5s" begin="0s" calcMode="spline" values="0; 0; 0; 0; 0; 0" keyTimes="0; 0.2; 0.4; 0.6; 0.8; 1" keySplines="0 0 1 1; 0.333 0 0.667 1; 0.333 0 0.667 1; 0.333 0 0.667 1; 0 0 1 1" fill="freeze" /><g id="i4" transform="translate(-1074.368,-350.424)"><g id="i6" transform="matrix(1,0,0,1,1089.493,351.369)"><path stroke-linejoin="round" stroke-linecap="round" stroke-width="2" stroke="#1a1a1a" fill="#ffffff" d="M-23.902,-34.435C-23.902,-34.435,-57.124,8.507,-57.124,8.507C-57.124,8.507,13.37,34.435,13.37,34.435C13.37,34.435,57.124,0,57.124,0C57.124,0,-23.902,-34.435,-23.902,-34.435Z" /></g><g><g transform="translate(1035.984,355.101)"><g transform="rotate(76)"><animateTransform repeatCount="indefinite" type="rotate" attributeName="transform" dur="5s" begin="0s" calcMode="spline" values="76; 76; 0; 0; 0; 76; 76" keyTimes="0; 0.2; 0.4; 0.6; 0.8; 0.993333; 1" keySplines="0.333 0 0.667 1; 0.333 0 0.833 1; 0.167 0 0.833 1; 0.167 0 0.833 1; 0.167 0 0.667 1; 0 0 1 1" fill="freeze" /><g id="i7" transform="translate(-2.129,-17.641)"><path stroke-linejoin="round" stroke-linecap="round" stroke-width="1" stroke="#1a1a1a" fill="#1c0311" d="M-31.735,-17.286C-31.735,-17.286,-1.485,22.417,-1.485,22.417C-1.485,22.417,2.292,17.59,2.292,17.59C2.292,17.59,-27.82,-20.256,-27.82,-20.256C-27.82,-20.256,-31.735,-17.286,-31.735,-17.286Z" /></g></g></g></g><g id="i5" transform="matrix(1,0,0,1,1033.856,337.46)"><path stroke-linejoin="round" stroke-linecap="round" stroke-width="1" stroke="#1a1a1a" fill="#1c0311" d="M-1.485,22.417C-1.485,22.417,31.735,-20.526,31.735,-20.526C31.735,-20.526,27.413,-22.417,27.413,-22.417C27.413,-22.417,-5.886,16.682,-5.886,16.682C-5.886,16.682,-1.485,22.417,-1.485,22.417Z" /></g></g></g></g></g><g><g transform="translate(1136.327,424.63)"><animateTransform repeatCount="indefinite" type="translate" attributeName="transform" dur="5s" begin="0s" calcMode="spline" values="1136.327 424.63; 1118.62 376.228; 1118.62 376.228; 1118.62 376.228; 1118.62 376.228; 1136.327 424.63; 1136.327 424.63" keyTimes="0; 0.2; 0.4; 0.6; 0.8; 0.993333; 1" keySplines="0.333 0 0.667 1; 0 0 1 1; 0 0 1 1; 0 0 1 1; 0.333 0 0.667 1; 0 0 1 1" fill="freeze" /><g transform="rotate(-13)"><animateTransform repeatCount="indefinite" type="rotate" attributeName="transform" dur="5s" begin="0s" calcMode="spline" values="-13; 0; 0; 0; 0; -13; -13" keyTimes="0; 0.2; 0.4; 0.6; 0.8; 0.993333; 1" keySplines="0.333 0 0.667 1; 0.333 0 0.667 1; 0.333 0 0.667 1; 0.333 0 0.667 1; 0.333 0 0.667 1; 0 0 1 1" fill="freeze" /><g id="i5" transform="translate(-29.5,-1.5)"><path stroke-linejoin="round" stroke-linecap="round" stroke-width="2" stroke="#1a1a1a" fill="#ffffff" d="M25.043,-9.76C25.043,-9.76,-9.306,-11.576,-15.358,-13.089C-21.411,-14.602,-23.832,-10.365,-20.05,-8.247C-16.267,-6.129,-5.069,-5.069,-5.069,-2.799C-5.069,-0.529,-28.339,-4.401,-28.339,-4.401C-28.339,-4.401,-29.583,3.858,-22.773,7.792C-15.964,11.726,-9.306,14.601,1.74,10.667C12.786,6.733,29.583,8.247,29.583,8.247" /></g></g></g></g><g id="i8" transform="matrix(1,0,0,1,1180.491,334.032)"><path d="M5.559,-19.259C5.559,-19.259,-2.533,12.991,-9.72,23.551C-16.323,33.253,-59.953,77.391,-59.953,77.391C-59.953,77.391,-60.87,98.857,-51.783,99.938C-11.941,104.678,25.518,59.812,38.447,24.575C54.922,-20.327,28.033,-74.855,28.033,-74.855" stroke-linejoin="round" stroke-linecap="round" stroke-width="2" stroke="#1a1a1a" fill="#ffffff"><animate repeatCount="indefinite" attributeName="d" dur="5s" begin="0s" calcMode="spline" values="M5.559,-19.259C5.559,-19.259,-2.533,12.991,-9.72,23.551C-16.323,33.253,-59.953,77.391,-59.953,77.391C-59.953,77.391,-60.87,98.857,-51.783,99.938C-11.941,104.678,25.518,59.812,38.447,24.575C54.922,-20.327,28.033,-74.855,28.033,-74.855; M5.559,-19.259C5.559,-19.259,22.41,20.444,14.539,23.009C3.381,26.647,-66.892,27.87,-66.892,27.87C-66.892,27.87,-78.212,44.494,-70.792,49.85C-39.242,72.621,48.809,74.855,61.738,39.618C78.213,-5.284,28.033,-74.855,28.033,-74.855; M5.559,-19.259C5.559,-19.259,22.41,20.444,14.539,23.009C3.381,26.647,-66.892,27.87,-66.892,27.87C-66.892,27.87,-78.212,44.494,-70.792,49.85C-39.242,72.621,48.809,74.855,61.738,39.618C78.213,-5.284,28.033,-74.855,28.033,-74.855; M5.559,-19.259C5.559,-19.259,22.41,20.444,14.539,23.009C3.381,26.647,-66.892,27.87,-66.892,27.87C-66.892,27.87,-78.212,44.494,-70.792,49.85C-39.242,72.621,48.809,74.855,61.738,39.618C78.213,-5.284,28.033,-74.855,28.033,-74.855; M5.559,-19.259C5.559,-19.259,22.41,20.444,14.539,23.009C3.381,26.647,-66.892,27.87,-66.892,27.87C-66.892,27.87,-78.212,44.494,-70.792,49.85C-39.242,72.621,48.809,74.855,61.738,39.618C78.213,-5.284,28.033,-74.855,28.033,-74.855; M5.559,-19.259C5.559,-19.259,-2.533,12.991,-9.72,23.551C-16.323,33.253,-59.953,77.391,-59.953,77.391C-59.953,77.391,-60.87,98.857,-51.783,99.938C-11.941,104.678,25.518,59.812,38.447,24.575C54.922,-20.327,28.033,-74.855,28.033,-74.855; M5.559,-19.259C5.559,-19.259,-2.533,12.991,-9.72,23.551C-16.323,33.253,-59.953,77.391,-59.953,77.391C-59.953,77.391,-60.87,98.857,-51.783,99.938C-11.941,104.678,25.518,59.812,38.447,24.575C54.922,-20.327,28.033,-74.855,28.033,-74.855" keyTimes="0; 0.2; 0.4; 0.6; 0.8; 0.993333; 1" keySplines="0.333 0 0.667 1; 0.333 0 0.667 1; 0.333 0 0.667 1; 0.333 0 0.667 1; 0.333 0 0.667 1; 0 0 1 1" fill="freeze" /></path></g></g></g></g></g></g></g></g></g><g transform="matrix(1,0,0,1,600,600)" id="i17" /></g></defs><g transform="matrix(0.9,0,0,0.9,60,180)" id="i38"><g clip-path="url(#i0)"><g><g transform="translate(932.355,800.342)"><g transform="rotate(2)"><animateTransform repeatCount="indefinite" type="rotate" attributeName="transform" dur="5s" begin="0s" calcMode="spline" values="2; -4; 2; -4; 2; 2" keyTimes="0; 0.248333; 0.496667; 0.745; 0.993333; 1" keySplines="0.333 0 0.667 1; 0.333 0 0.667 1; 0.333 0 0.667 1; 0.333 0 0.667 1; 0 0 1 1" fill="freeze" /><g transform="scale(1,1) translate(-1292.355,-740.342)"><g transform="matrix(1,0,0,1,1416.252,674.023)"><path stroke-linejoin="round" stroke-linecap="round" stroke-width="2" stroke="#000000" fill="#ff812c" d="M63.382,15.786C63.382,15.786,7.468,-51.277,-63.381,15.299C-33.158,51.277,48.519,33.712,63.382,15.786Z" /></g><g transform="matrix(1,0,0,1,1401.176,570.432)"><path stroke-linejoin="round" stroke-linecap="round" stroke-width="2" stroke="#1a1a1a" fill="#ffffff" d="M-31.194,80.794C-31.194,80.794,19.004,81.271,31.885,21.303C44.767,-38.665,0.346,-81.271,0.346,-81.271C0.346,-81.271,-44.767,44.794,-31.194,80.794Z" /></g><g transform="matrix(1,0,0,1,1310.627,591.735)"><path stroke-linejoin="round" stroke-linecap="round" stroke-width="2" stroke="#000000" fill="#ff812c" d="M23.263,75.908C23.263,75.908,-54.407,-1.663,8.092,-75.909C54.407,-4.303,52.339,59.586,23.263,75.908Z" /></g><g transform="matrix(1,0,0,1,1330.108,606.631)"><path stroke-linejoin="round" stroke-linecap="round" stroke-width="2" stroke="#1a1a1a" d="M-11.389,-90.805C-11.389,-90.805,11.389,52.203,3.958,90.805" /></g><g transform="matrix(1,0,0,1,1408.303,687.951)"><path stroke-linejoin="round" stroke-linecap="round" stroke-width="2" stroke="#1a1a1a" d="M71.331,1.858C69.845,1.362,-59.938,-6.408,-71.331,6.408" /></g><g transform="matrix(1,0,0,1,1349.694,614.751)"><path stroke-linejoin="round" stroke-linecap="round" stroke-width="2" stroke="#1a1a1a" d="M51.828,-125.591C51.828,-125.591,57.339,-67.607,56.613,-58.708C49.182,32.451,-57.339,125.59,-57.339,125.59" /></g></g></g></g></g><g transform="matrix(1,0,0,1,-360,60)"><g transform="matrix(1,0,0,1,1156.321,680.358)"><path stroke-linejoin="round" stroke-linecap="round" stroke-width="1" stroke="#1a1a1a" fill="#1c0311" d="M-169.19,-40.835C-169.19,-40.835,116.942,-52.902,198.469,32.229C74.81,32.229,-102.232,52.902,-104.956,52.902C-107.679,52.902,-198.47,-5.201,-198.47,-5.201C-198.47,-5.201,-169.19,-40.835,-169.19,-40.835Z" /></g><g transform="matrix(1,0,0,1,809.205,639.006)"><path stroke-linejoin="round" stroke-linecap="round" stroke-width="2" stroke="#1a1a1a" fill="#ffffff" d="M-224.701,81.826C-224.118,70.751,-219.397,1.758,-164.01,-39.382C-106.865,-81.826,-19.24,-77.202,46.005,-23.217C48.528,-26.297,86.131,-70.872,133.638,-64.185C182.114,-57.361,224.702,0.558,213.953,70.964C67.735,74.585,-78.483,78.205,-224.701,81.826Z" /></g><g transform="matrix(1,0,0,1,948.384,812.245)"><path stroke-linejoin="round" stroke-linecap="round" stroke-width="2" stroke="#1a1a1a" fill="#ffffff" d="M-16.342,-117.115C-16.342,-117.115,-513.42,-117.115,-507.973,-46.302C-502.526,24.513,9.299,-4.086,9.299,-4.086C9.299,-4.086,53.584,121.2,222.218,103.497C390.853,85.794,330.931,8.171,330.931,8.171C330.931,8.171,388.129,0,450.775,-19.065C513.42,-38.131,497.98,-102.136,312.316,-111.668C126.652,-121.201,-16.342,-117.115,-16.342,-117.115Z" /></g><g transform="matrix(1,0,0,1,692.497,708.636)"><path stroke-linejoin="round" stroke-linecap="round" stroke-width="1" stroke="#1a1a1a" fill="#1c0311" d="M-5.457,74.102C-5.457,74.102,7.166,42.555,7.166,42.555C7.166,42.555,1.305,-74.102,1.305,-74.102C1.305,-74.102,-7.165,-32.737,-7.165,-32.737C-7.165,-32.737,-5.457,74.102,-5.457,74.102Z" /></g><g transform="matrix(1,0,0,1,615.809,727.739)"><path stroke-linejoin="round" stroke-linecap="round" stroke-width="2" stroke="#1a1a1a" fill="#ffffff" d="M71.23,54.998C71.23,54.998,-71.23,54.998,-71.23,54.998C-71.23,54.998,-71.23,-54.999,-71.23,-54.999C-71.23,-54.999,71.23,-54.999,71.23,-54.999C71.23,-54.999,71.23,54.998,71.23,54.998Z" /></g><g transform="matrix(1,0,0,1,615.809,689.42)"><path stroke-linejoin="round" stroke-linecap="round" stroke-width="2" stroke="#1a1a1a" fill="#ffffff" d="M-71.23,-16.68C-71.23,-16.68,-45.082,16.68,-45.082,16.68C-45.082,16.68,53.197,16.68,53.197,16.68C53.197,16.68,71.23,-16.68,71.23,-16.68" /></g><g transform="matrix(1,0,0,1,619.19,653.637)"><path stroke-linejoin="round" stroke-linecap="round" stroke-width="1" stroke="#1a1a1a" fill="#1c0311" d="M-74.611,19.103C-74.611,19.103,-46.885,-19.103,-46.885,-19.103C-46.885,-19.103,74.611,-19.103,74.611,-19.103C74.611,-19.103,67.849,19.103,67.849,19.103C67.849,19.103,-74.611,19.103,-74.611,19.103Z" /></g><g transform="matrix(1,0,0,1,699.662,665.302)"><path stroke-linejoin="round" stroke-linecap="round" stroke-width="2" stroke="#1a1a1a" fill="#ffffff" d="M-5.861,-30.768C-5.861,-30.768,12.623,0.677,12.623,0.677C12.623,0.677,12.623,30.768,12.623,30.768C12.623,30.768,-12.623,7.439,-12.623,7.439C-12.623,7.439,-5.861,-30.768,-5.861,-30.768Z" /></g><g transform="matrix(1,0,0,1,544.749,658.371)"><path stroke-linejoin="round" stroke-linecap="round" stroke-width="2" stroke="#1a1a1a" fill="#ffffff" d="M-3.212,-9.297C-3.212,-9.297,27.557,-23.836,27.557,-23.836C27.557,-23.836,-0.169,14.37,-0.169,14.37C-0.169,14.37,-27.557,23.836,-27.557,23.836C-27.557,23.836,-3.212,-9.297,-3.212,-9.297Z" /></g><g transform="matrix(1,0,0,1,1302.856,441.835)"><path stroke-linejoin="round" stroke-linecap="round" stroke-width="1" stroke="#1a1a1a" fill="#1c0311" d="M30.415,0C30.415,-16.797,16.798,-30.414,0,-30.414C-16.798,-30.414,-30.415,-16.797,-30.415,0C-30.415,16.797,-16.798,30.414,0,30.414C16.798,30.414,30.415,16.797,30.415,0Z" /></g><g transform="matrix(1,0,0,1,981.685,591.735)"><path stroke-linejoin="round" stroke-linecap="round" stroke-width="1" stroke="#1a1a1a" fill="#1c0311" d="M21.614,0C21.614,-11.937,11.937,-21.612,0,-21.612C-11.937,-21.612,-21.614,-11.937,-21.614,0C-21.614,11.937,-11.937,21.612,0,21.612C11.937,21.612,21.614,11.937,21.614,0Z" /></g><g transform="matrix(1,0,0,1,537.3,577.57)"><path stroke-linejoin="round" stroke-linecap="round" stroke-width="2" stroke="#000000" fill="#ff812c" d="M14.166,0C14.166,-7.823,7.824,-14.165,0,-14.165C-7.823,-14.165,-14.166,-7.823,-14.166,0C-14.166,7.823,-7.823,14.165,0,14.165C7.824,14.165,14.166,7.823,14.166,0Z" /></g></g><g transform="matrix(1,0,0,1,-360,60)"><g transform="matrix(1,0,0,1,760.083,622.804)"><path stroke-linejoin="round" stroke-linecap="round" stroke-width="2" stroke="#1a1a1a" d="M31.24,-104.589C29.429,-94.467,24.359,-64.462,32.53,-42.088C48.891,2.71,17.917,94.696,-63.391,82.009" /></g><g transform="matrix(1,0,0,1,818.089,614.407)"><path stroke-linejoin="round" stroke-linecap="round" stroke-width="2" stroke="#1a1a1a" d="M20.201,-94.266C13.556,-82.403,6.116,-53.589,27.476,-33.692C113.902,46.82,-34.589,87.092,-121.902,70.242" /></g></g><g transform="matrix(1,0,0,1,600,600)" /></g></g><g transform="matrix(0.9,0,0,0.9,60,180)" id="i39"><g clip-path="url(#i0)"><g transform="matrix(1,0,0,1,-360,60)"><g transform="matrix(1,0,0,1,0,0)"><g transform="matrix(1,0,0,1,734.81,370.665)"><path stroke-linejoin="round" stroke-linecap="round" stroke-width="2" stroke="#1a1a1a" fill="#ffffff" d="M198.087,146.202C198.087,146.202,-198.086,146.202,-198.086,146.202C-225.031,146.202,-246.874,124.359,-246.874,97.413C-246.874,97.413,-246.874,-97.413,-246.874,-97.413C-246.874,-124.359,-225.031,-146.202,-198.086,-146.202C-198.086,-146.202,198.087,-146.202,198.087,-146.202C225.032,-146.202,246.875,-124.359,246.875,-97.413C246.875,-97.413,246.875,97.413,246.875,97.413C246.875,124.359,225.032,146.202,198.087,146.202Z" /></g><g transform="matrix(1,0,0,1,936.657,430.793)"><path stroke-linejoin="round" stroke-linecap="round" stroke-width="2" stroke="#1a1a1a" fill="#ffffff" d="M28.146,0C28.146,15.543,15.543,28.144,-0.001,28.144C-15.544,28.144,-28.146,15.543,-28.146,0C-28.146,-15.543,-15.544,-28.144,-0.001,-28.144C15.543,-28.144,28.146,-15.543,28.146,0Z" /></g><g transform="matrix(1,0,0,1,936.657,430.793)"><path stroke-linejoin="round" stroke-linecap="round" stroke-width="1" stroke="#1a1a1a" fill="#1c0311" d="M-14.981,-0.001C-14.981,-0.001,-14.981,-0.001,-14.981,-0.001C-14.981,-2.633,-12.847,-4.767,-10.214,-4.767C-10.214,-4.767,10.214,-4.767,10.214,-4.767C12.846,-4.767,14.98,-2.633,14.98,-0.001C14.98,2.631,12.846,4.767,10.214,4.767C10.214,4.767,-10.214,4.767,-10.214,4.767C-12.847,4.767,-14.981,2.631,-14.981,-0.001Z" /></g><g transform="matrix(1,0,0,1,936.657,340.815)"><path stroke-linejoin="round" stroke-linecap="round" stroke-width="2" stroke="#1a1a1a" fill="#ffffff" d="M28.146,0C28.146,15.543,15.543,28.144,-0.001,28.144C-15.544,28.144,-28.146,15.543,-28.146,0C-28.146,-15.543,-15.544,-28.144,-0.001,-28.144C15.543,-28.144,28.146,-15.543,28.146,0Z" /></g><g transform="matrix(1,0,0,1,936.658,340.816)"><path stroke-linejoin="round" stroke-linecap="round" stroke-width="1" stroke="#1a1a1a" fill="#1c0311" d="M10.214,-4.767C10.214,-4.767,4.766,-4.767,4.766,-4.767C4.766,-4.767,4.766,-10.214,4.766,-10.214C4.766,-12.847,2.631,-14.98,-0.001,-14.98C-2.633,-14.98,-4.767,-12.847,-4.767,-10.214C-4.767,-10.214,-4.767,-4.767,-4.767,-4.767C-4.767,-4.767,-10.215,-4.767,-10.215,-4.767C-12.847,-4.767,-14.981,-2.633,-14.981,0C-14.981,2.632,-12.847,4.766,-10.215,4.766C-10.215,4.766,-4.767,4.766,-4.767,4.766C-4.767,4.766,-4.767,10.213,-4.767,10.213C-4.767,12.845,-2.633,14.98,-0.001,14.98C2.631,14.98,4.766,12.845,4.766,10.213C4.766,10.213,4.766,4.766,4.766,4.766C4.766,4.766,10.214,4.766,10.214,4.766C12.847,4.766,14.98,2.632,14.98,0C14.98,-2.633,12.847,-4.767,10.214,-4.767Z" /></g></g><g transform="matrix(1,0,0,1,0,0)"><g transform="matrix(1,0,0,1,810.381,318.801)"><path d="M78.472,94.385C78.472,94.385,79.395,94.372,79.395,94.372C79.395,94.372,79.395,98.607,79.395,98.607C79.395,108.948,71.111,117.36,60.814,117.551C55.726,117.462,51.128,115.361,47.779,112.011C44.346,108.579,42.225,103.841,42.225,98.607C42.225,98.607,42.225,95.372,42.225,95.372C42.225,95.372,-97.175,95.372,-97.175,95.372C-97.175,95.372,-97.175,94.347,-97.175,94.347C-97.175,94.347,-98.098,94.366,-98.098,94.366C-98.098,94.366,-98.098,-98.594,-98.098,-98.594C-98.098,-109.063,-89.61,-117.551,-79.141,-117.551C-79.141,-117.551,98.098,-117.551,98.098,-117.551C87.629,-117.551,78.472,-109.012,78.472,-98.544C78.472,-98.544,78.472,94.385,78.472,94.385Z" stroke-linejoin="round" stroke-linecap="round" stroke-width="2" stroke="#1a1a1a" fill="#ffffff"><animate repeatCount="indefinite" attributeName="d" dur="5s" begin="0s" calcMode="spline" values="M78.472,94.385C78.472,94.385,79.395,94.372,79.395,94.372C79.395,94.372,79.395,98.607,79.395,98.607C79.395,108.948,71.111,117.36,60.814,117.551C55.726,117.462,51.128,115.361,47.779,112.011C44.346,108.579,42.225,103.841,42.225,98.607C42.225,98.607,42.225,95.372,42.225,95.372C42.225,95.372,-97.175,95.372,-97.175,95.372C-97.175,95.372,-97.175,94.347,-97.175,94.347C-97.175,94.347,-98.098,94.366,-98.098,94.366C-98.098,94.366,-98.098,-98.594,-98.098,-98.594C-98.098,-109.063,-89.61,-117.551,-79.141,-117.551C-79.141,-117.551,98.098,-117.551,98.098,-117.551C87.629,-117.551,78.472,-109.012,78.472,-98.544C78.472,-98.544,78.472,94.385,78.472,94.385Z; M78.388,149.385C78.388,149.385,79.311,149.372,79.311,149.372C79.311,149.372,79.311,153.607,79.311,153.607C79.311,163.948,71.027,172.36,60.73,172.551C55.642,172.462,51.044,170.361,47.695,167.011C44.262,163.579,42.141,158.841,42.141,153.607C42.141,153.607,42.141,150.372,42.141,150.372C42.141,150.372,-97.259,150.372,-97.259,150.372C-97.259,150.372,-97.259,149.347,-97.259,149.347C-97.259,149.347,-98.182,149.366,-98.182,149.366C-98.182,149.366,-98.098,-98.594,-98.098,-98.594C-98.098,-109.063,-89.61,-117.551,-79.141,-117.551C-79.141,-117.551,98.098,-117.551,98.098,-117.551C87.629,-117.551,78.472,-109.012,78.472,-98.544C78.472,-98.544,78.388,149.385,78.388,149.385Z; M78.472,94.385C78.472,94.385,79.395,94.372,79.395,94.372C79.395,94.372,79.395,98.607,79.395,98.607C79.395,108.948,71.111,117.36,60.814,117.551C55.726,117.462,51.128,115.361,47.779,112.011C44.346,108.579,42.225,103.841,42.225,98.607C42.225,98.607,42.225,95.372,42.225,95.372C42.225,95.372,-97.175,95.372,-97.175,95.372C-97.175,95.372,-97.175,94.347,-97.175,94.347C-97.175,94.347,-98.098,94.366,-98.098,94.366C-98.098,94.366,-98.098,-98.594,-98.098,-98.594C-98.098,-109.063,-89.61,-117.551,-79.141,-117.551C-79.141,-117.551,98.098,-117.551,98.098,-117.551C87.629,-117.551,78.472,-109.012,78.472,-98.544C78.472,-98.544,78.472,94.385,78.472,94.385Z; M78.472,94.385C78.472,94.385,79.395,94.372,79.395,94.372C79.395,94.372,79.395,98.607,79.395,98.607C79.395,108.948,71.111,117.36,60.814,117.551C55.726,117.462,51.128,115.361,47.779,112.011C44.346,108.579,42.225,103.841,42.225,98.607C42.225,98.607,42.225,95.372,42.225,95.372C42.225,95.372,-97.175,95.372,-97.175,95.372C-97.175,95.372,-97.175,94.347,-97.175,94.347C-97.175,94.347,-98.098,94.366,-98.098,94.366C-98.098,94.366,-98.098,-98.594,-98.098,-98.594C-98.098,-109.063,-89.61,-117.551,-79.141,-117.551C-79.141,-117.551,98.098,-117.551,98.098,-117.551C87.629,-117.551,78.472,-109.012,78.472,-98.544C78.472,-98.544,78.472,94.385,78.472,94.385Z" keyTimes="0; 0.8; 0.993333; 1" keySplines="0 0 1 1; 0 0 1 1; 0 0 1 1" fill="freeze" /></path></g><g transform="matrix(1,0,0,1,908.145,212.858)"><path stroke-linejoin="round" stroke-linecap="round" stroke-width="1" stroke="#1a1a1a" fill="#1c0311" d="M19.292,7.348C19.292,7.348,19.292,10.934,19.292,10.934C19.292,10.934,-18.369,11.59,-18.369,11.59C-18.369,11.59,-19.292,11.608,-19.292,11.608C-19.292,11.608,-19.292,7.4,-19.292,7.4C-19.292,-3.068,-10.135,-11.608,0.333,-11.608C5.568,-11.608,10.306,-9.488,13.738,-6.056C17.17,-2.624,19.292,2.114,19.292,7.348Z" /></g><g><g transform="translate(772.909,424.766)"><animateTransform repeatCount="indefinite" type="translate" attributeName="transform" dur="5s" begin="0s" calcMode="spline" values="772.909 424.766; 772.909 479.766; 772.909 424.766; 772.909 424.766" keyTimes="0; 0.8; 0.993333; 1" keySplines="0 0 1 1; 0 0 1 1; 0 0 1 1" fill="freeze" /><g transform="translate(-772.909,-424.766)"><g transform="matrix(1,0,0,1,772.909,424.766)"><path stroke-linejoin="round" stroke-linecap="round" stroke-width="2" stroke="#1a1a1a" d="M98.286,11.586C98.165,11.599,98.037,11.599,97.91,11.599C97.91,11.599,-79.329,11.599,-79.329,11.599C-84.564,11.599,-89.301,9.478,-92.734,6.046C-96.166,2.614,-98.286,-2.124,-98.286,-7.358C-98.286,-7.358,-98.286,-10.943,-98.286,-10.943C-98.286,-10.943,-60.626,-11.599,-60.626,-11.599C-60.626,-11.599,-60.626,-10.593,-60.626,-10.593C-60.626,-10.593,79.698,-10.593,79.698,-10.593C79.698,-10.593,79.698,-7.358,79.698,-7.358C79.698,-2.124,81.818,2.614,85.251,6.046C88.6,9.396,93.198,11.497,98.286,11.586Z" /></g><g transform="matrix(1,0,0,1,772.909,424.766)"><path stroke-linejoin="round" stroke-linecap="round" stroke-width="2" stroke="#1a1a1a" d="M98.286,11.586C98.165,11.599,98.037,11.599,97.91,11.599C97.91,11.599,-79.329,11.599,-79.329,11.599C-84.564,11.599,-89.301,9.478,-92.734,6.046C-96.166,2.614,-98.286,-2.124,-98.286,-7.358C-98.286,-7.358,-98.286,-10.943,-98.286,-10.943C-98.286,-10.943,-60.626,-11.599,-60.626,-11.599C-60.626,-11.599,-60.626,-10.593,-60.626,-10.593C-60.626,-10.593,79.698,-10.593,79.698,-10.593C79.698,-10.593,79.698,-7.358,79.698,-7.358C79.698,-2.124,81.818,2.614,85.251,6.046C88.6,9.396,93.198,11.497,98.286,11.586Z" /></g></g></g></g></g><g><g transform="translate(798.666,310.686)"><animateTransform repeatCount="indefinite" type="translate" attributeName="transform" dur="5s" begin="0s" calcMode="spline" values="798.666 310.686; 798.666 370.686; 798.666 310.686; 798.666 310.686" keyTimes="0; 0.8; 0.993333; 1" keySplines="0 0 1 1; 0 0 1 1; 0 0 1 1" fill="freeze" /><g transform="translate(-798.666,-310.686)"><g transform="matrix(1,0,0,1,798.666,249.505)"><path stroke-linejoin="round" stroke-linecap="round" stroke-width="2" stroke="#1a1a1a" fill="#ffffff" d="M63.856,2.408C63.856,2.408,-63.856,2.408,-63.856,2.408C-63.856,2.408,-63.856,-2.408,-63.856,-2.408C-63.856,-2.408,63.856,-2.408,63.856,-2.408C63.856,-2.408,63.856,2.408,63.856,2.408Z" /></g><g transform="matrix(1,0,0,1,798.666,280.095)"><path stroke-linejoin="round" stroke-linecap="round" stroke-width="2" stroke="#1a1a1a" fill="#ffffff" d="M63.856,2.408C63.856,2.408,-63.856,2.408,-63.856,2.408C-63.856,2.408,-63.856,-2.408,-63.856,-2.408C-63.856,-2.408,63.856,-2.408,63.856,-2.408C63.856,-2.408,63.856,2.408,63.856,2.408Z" /></g><g transform="matrix(1,0,0,1,798.666,310.686)"><path stroke-linejoin="round" stroke-linecap="round" stroke-width="2" stroke="#1a1a1a" fill="#ffffff" d="M63.856,2.408C63.856,2.408,-63.856,2.408,-63.856,2.408C-63.856,2.408,-63.856,-2.408,-63.856,-2.408C-63.856,-2.408,63.856,-2.408,63.856,-2.408C63.856,-2.408,63.856,2.408,63.856,2.408Z" /></g><g transform="matrix(1,0,0,1,798.666,341.277)"><path stroke-linejoin="round" stroke-linecap="round" stroke-width="2" stroke="#1a1a1a" fill="#ffffff" d="M63.856,2.408C63.856,2.408,-63.856,2.408,-63.856,2.408C-63.856,2.408,-63.856,-2.408,-63.856,-2.408C-63.856,-2.408,63.856,-2.408,63.856,-2.408C63.856,-2.408,63.856,2.408,63.856,2.408Z" /></g><g transform="matrix(1,0,0,1,798.666,371.867)"><path stroke-linejoin="round" stroke-linecap="round" stroke-width="2" stroke="#1a1a1a" fill="#ffffff" d="M63.856,2.408C63.856,2.408,-63.856,2.408,-63.856,2.408C-63.856,2.408,-63.856,-2.408,-63.856,-2.408C-63.856,-2.408,63.856,-2.408,63.856,-2.408C63.856,-2.408,63.856,2.408,63.856,2.408Z" /></g></g></g></g><g transform="matrix(1,0,0,1,0,0)"><g transform="matrix(1,0,0,1,593.781,321.768)"><path stroke-linejoin="round" stroke-linecap="round" stroke-width="2" stroke="#1a1a1a" fill="#ffffff" d="M63.099,55.607C63.099,55.607,-63.099,55.607,-63.099,55.607C-63.099,55.607,-63.099,-55.607,-63.099,-55.607C-63.099,-55.607,63.099,-55.607,63.099,-55.607C63.099,-55.607,63.099,55.607,63.099,55.607Z" /></g><g opacity="0"><animate repeatCount="indefinite" attributeName="opacity" dur="5s" begin="0s" fill="freeze" values="0; 1; 1; 0; 0" keyTimes="0; 0.133333; 0.86; 0.993333; 1" keySplines="0.652 0 0.416 1; 0.167 0 0.416 1; 0.167 0 0.667 1; 0 0 1 1" calcMode="spline" /><g transform="translate(593.781,394.626)"><path stroke-linejoin="round" stroke-linecap="round" stroke-width="1" stroke="#1a1a1a" fill="#1c0311" d="M63.099,4.993C63.099,4.993,-63.099,4.993,-63.099,4.993C-63.099,4.993,-63.099,-4.993,-63.099,-4.993C-63.099,-4.993,63.099,-4.993,63.099,-4.993C63.099,-4.993,63.099,4.993,63.099,4.993Z" /></g></g><g opacity="0"><animate repeatCount="indefinite" attributeName="opacity" dur="5s" begin="0s" fill="freeze" values="0; 0; 1; 1; 0; 0" keyTimes="0; 0.066667; 0.2; 0.793333; 0.926667; 1" keySplines="0 0 1 1; 0.652 0 0.416 1; 0.167 0 0.416 1; 0.167 0 0.833 1; 0 0 1 1" calcMode="spline" /><g transform="translate(593.781,424.765)"><path stroke-linejoin="round" stroke-linecap="round" stroke-width="1" stroke="#1a1a1a" fill="#1c0311" d="M63.099,4.993C63.099,4.993,-63.099,4.993,-63.099,4.993C-63.099,4.993,-63.099,-4.993,-63.099,-4.993C-63.099,-4.993,63.099,-4.993,63.099,-4.993C63.099,-4.993,63.099,4.993,63.099,4.993Z" /></g></g><g opacity="0"><animate repeatCount="indefinite" attributeName="opacity" dur="5s" begin="0s" fill="freeze" values="0; 0; 1; 1; 0; 0" keyTimes="0; 0.133333; 0.266666; 0.726667; 0.86; 1" keySplines="0 0 1 1; 0.652 0 0.416 1; 0.167 0 0.416 1; 0.167 0 0.833 1; 0 0 1 1" calcMode="spline" /><g transform="translate(593.781,454.905)"><path stroke-linejoin="round" stroke-linecap="round" stroke-width="1" stroke="#1a1a1a" fill="#1c0311" d="M63.099,4.993C63.099,4.993,-63.099,4.993,-63.099,4.993C-63.099,4.993,-63.099,-4.993,-63.099,-4.993C-63.099,-4.993,63.099,-4.993,63.099,-4.993C63.099,-4.993,63.099,4.993,63.099,4.993Z" /></g></g><g opacity="0"><animate repeatCount="indefinite" attributeName="opacity" dur="5s" begin="0s" fill="freeze" values="0; 0; 1; 1; 0; 0" keyTimes="0; 0.2; 0.333333; 0.66; 0.793333; 1" keySplines="0 0 1 1; 0.652 0 0.416 1; 0.167 0 0.416 1; 0.167 0 0.833 1; 0 0 1 1" calcMode="spline" /><g transform="translate(593.781,485.046)"><path stroke-linejoin="round" stroke-linecap="round" stroke-width="1" stroke="#1a1a1a" fill="#1c0311" d="M63.099,4.993C63.099,4.993,-63.099,4.993,-63.099,4.993C-63.099,4.993,-63.099,-4.993,-63.099,-4.993C-63.099,-4.993,63.099,-4.993,63.099,-4.993C63.099,-4.993,63.099,4.993,63.099,4.993Z" /></g></g><g><path stroke-width="2" stroke="#1a1a1a" d="M656.5,377C656.5,377,530.25,266.25,530.25,266.25" /></g><g><path stroke-width="2" stroke="#1a1a1a" d="M656.75,266.5C656.75,266.5,530.75,377.25,530.75,377.25" /></g></g></g><g><g transform="translate(793.269,504.82)"><g transform="rotate(-7)"><animateTransform repeatCount="indefinite" type="rotate" attributeName="transform" dur="5s" begin="0s" calcMode="spline" values="-7; 0; 0; -7; 0; -7; -7" keyTimes="0; 0.2; 0.4; 0.6; 0.8; 0.993333; 1" keySplines="0.333 0 0.667 1; 0.333 0 0.667 1; 0.333 0 0.667 1; 0.333 0 0.667 1; 0.333 0 0.667 1; 0 0 1 1" fill="freeze" /><g transform="scale(1,1) translate(-1153.269,-444.82)"><g><g transform="translate(1123.343,356.666)"><g transform="rotate(-121)"><animateTransform repeatCount="indefinite" type="rotate" attributeName="transform" dur="5s" begin="0s" calcMode="spline" values="-121; -121; 0; 0; -16; -121; -121" keyTimes="0; 0.2; 0.4; 0.606666; 0.8; 0.993333; 1" keySplines="0.333 0 0.667 1; 0.333 0 0.667 1; 0.333 0 0.667 1; 0.333 0 0.833 1; 0.167 0 0.667 1; 0 0 1 1" fill="freeze" /><g transform="scale(1,1) translate(-1123.343,-356.666)"><g transform="matrix(1,0,0,1,1083.723,344.747)"><path d="M28.934,23.88C-1.227,47.081,-26.456,-7.287,-26.456,-7.287C-26.456,-7.287,-33.158,-22.027,-36.442,-25.93C-39.62,-29.704,-31.016,-45.774,-22.597,-46.582C-17.405,-47.081,2.295,-15.488,2.295,-15.488C2.295,-15.488,30.012,18.816,39.62,-8.059" stroke-linejoin="round" stroke-linecap="round" stroke-width="2" stroke="#1a1a1a" fill="#ffffff"><animate repeatCount="indefinite" attributeName="d" dur="5s" begin="0s" calcMode="spline" values="M28.934,23.88C-1.227,47.081,-26.456,-7.287,-26.456,-7.287C-26.456,-7.287,-33.158,-22.027,-36.442,-25.93C-39.62,-29.704,-31.016,-45.774,-22.597,-46.582C-17.405,-47.081,2.295,-15.488,2.295,-15.488C2.295,-15.488,30.012,18.816,39.62,-8.059; M28.934,23.88C-1.227,47.081,-26.456,-7.287,-26.456,-7.287C-26.456,-7.287,-33.158,-22.027,-36.442,-25.93C-39.62,-29.704,-31.016,-45.774,-22.597,-46.582C-17.405,-47.081,2.295,-15.488,2.295,-15.488C2.295,-15.488,30.012,18.816,39.62,-8.059; M28.934,23.88C-1.227,47.081,-32.456,13.713,-32.456,13.713C-32.456,13.713,-83.098,-27.372,-85.317,-31.805C-87.526,-36.217,-79.891,-51.649,-71.472,-52.457C-66.28,-52.956,1.795,-14.488,1.795,-14.488C1.795,-14.488,33.777,3.253,40.62,-9.559; M28.934,23.88C-1.227,47.081,-32.456,13.713,-32.456,13.713C-32.456,13.713,-83.098,-27.372,-85.317,-31.805C-87.525,-36.217,-79.891,-51.649,-71.472,-52.457C-66.28,-52.956,1.795,-14.488,1.795,-14.488C1.795,-14.488,33.777,3.253,40.62,-9.559; M28.934,23.88C-1.227,47.081,-32.456,13.713,-32.456,13.713C-32.456,13.713,-83.098,-27.372,-85.317,-31.805C-87.525,-36.217,-79.891,-51.649,-71.472,-52.457C-66.28,-52.956,1.795,-14.488,1.795,-14.488C1.795,-14.488,33.777,3.253,40.62,-9.559" keyTimes="0; 0.4; 0.606667; 0.8; 1" keySplines="0 0 1 1; 0.333 0 0.667 1; 0.333 0 0.667 1; 0 0 1 1" fill="freeze" /></path></g><g><g transform="translate(1056.48,309.001)"><animateTransform repeatCount="indefinite" type="translate" attributeName="transform" dur="5s" begin="0s" calcMode="spline" values="1056.48 309.001; 1056.48 309.001; 1055.265 308.971; 1006.515 304.096; 1006.515 304.096; 1006.661 306.482; 1006.661 306.482" keyTimes="0; 0.2; 0.4; 0.606666; 0.8; 0.993333; 1" keySplines="0 0 1 1; 0.333 0 0.667 1; 0.333 0 0.667 1; 0 0 1 1; 0.333 0 0.667 1; 0 0 1 1" fill="freeze" /><g transform="rotate(3)"><animateTransform repeatCount="indefinite" type="rotate" attributeName="transform" dur="5s" begin="0s" calcMode="spline" values="3; 3; 0; -9; -9; 3; 3" keyTimes="0; 0.2; 0.4; 0.606666; 0.8; 0.993333; 1" keySplines="0.167 0 0.833 1; 0.167 0 0.667 1; 0.333 0 0.833 1; 0.167 0 0.833 1; 0.167 0 0.833 1; 0 0 1 1" fill="freeze" /><g transform="translate(-13.5,-10.5)"><path stroke-linejoin="round" stroke-linecap="round" stroke-width="2" stroke="#1a1a1a" fill="#ffffff" d="M18.404,1.07C18.404,1.07,7.736,-14.703,0.927,-15.271C-5.882,-15.838,-21.581,-9.032,-21.922,4.246C-21.922,5.91,-18.82,2.776,-18.82,2.776C-18.82,2.776,-16.595,-2.824,-12.396,-2.71C-10.921,6.029,-5.315,9.242,-1.002,10.377C3.31,11.511,8.077,15.839,8.077,15.839C8.077,15.839,21.923,8.787,18.404,1.07Z" /></g></g></g></g></g></g></g></g></g></g></g></g><g transform="matrix(1,0,0,1,-360,60)"><g transform="matrix(1,0,0,1,1139.976,837.742)"><path stroke-linejoin="round" stroke-linecap="round" stroke-width="1" stroke="#1a1a1a" fill="#1c0311" d="M11.822,6.663C11.621,0.736,10.974,-3.935,10.974,-3.935C10.974,-3.935,-10.531,-7.112,-10.531,-7.112C-10.531,-7.112,-11.822,1.497,-11.822,1.497C-5.229,5.799,3.264,7.111,11.822,6.663Z" /></g><g transform="matrix(1,0,0,1,1115.362,856.829)"><path stroke-linejoin="round" stroke-linecap="round" stroke-width="2" stroke="#1a1a1a" fill="#ffffff" d="M8.94,-10.595C7.052,-11.35,5.844,-13.002,5.565,-14.883C4.488,-14.547,3.253,-14.161,1.828,-13.716C-10.656,-10.084,-36.532,3.534,-35.624,8.754C-34.716,13.974,19.078,14.883,29.519,11.705C35.284,9.95,36.532,-0.45,36.494,-9.417C27.309,-8.561,18.125,-7.533,8.94,-10.595Z" /></g><g transform="matrix(1,0,0,1,1136.391,844.268)"><path stroke-linejoin="round" stroke-linecap="round" stroke-width="2" stroke="#1a1a1a" fill="#ffffff" d="M-8.235,-5.029C-8.235,-5.029,-8.307,-4.559,-8.307,-4.559C-8.307,-4.559,-8.31,-4.558,-15.464,-2.322C-15.184,-0.441,-13.976,1.211,-12.089,1.966C-2.904,5.028,6.28,4,15.464,3.144C15.46,2.117,15.44,1.11,15.407,0.137C6.849,0.585,-1.642,-0.727,-8.235,-5.029Z" /></g><g transform="matrix(1,0,0,1,1155.197,629.575)"><path stroke-linejoin="round" stroke-linecap="round" stroke-width="2" stroke="#000000" fill="#ff812c" d="M-54.621,-207.26C-54.621,-207.26,-41.48,187.274,-31.512,205.099C-14.803,211.73,-2.098,207.26,-2.098,207.26C-2.098,207.26,30.313,-10.424,42.467,-80.914C54.621,-151.405,32.609,-211.73,32.609,-211.73" /></g><g transform="matrix(1,0,0,1,1161.988,482.066)"><path stroke-linejoin="round" stroke-linecap="round" stroke-width="2" stroke="#1a1a1a" d="M-11.037,-11.063C-11.037,-11.063,-5.759,8.339,11.037,11.063" /></g></g><g transform="matrix(1,0,0,1,-360,60)"><g transform="matrix(1,0,0,1,1189.382,836.206)"><path stroke-linejoin="round" stroke-linecap="round" stroke-width="1" stroke="#1a1a1a" fill="#1c0311" d="M12.541,3.237C11.192,-3.113,9.974,-7.846,9.974,-7.846C9.974,-7.846,-9.773,-3.534,-9.773,-3.534C-9.773,-3.534,-11.225,2.429,-12.541,7.49C-4.101,7.846,4.577,6.426,12.541,3.237Z" /></g><g transform="matrix(1,0,0,1,1187.586,848.141)"><path stroke-linejoin="round" stroke-linecap="round" stroke-width="2" stroke="#1a1a1a" fill="#ffffff" d="M-0.242,7.008C6.013,5.835,11.304,2.737,15.786,-1.39C15.32,-3.938,14.821,-6.423,14.337,-8.698C6.373,-5.509,-2.305,-4.089,-10.745,-4.445C-11.638,-1.013,-12.469,2.003,-12.744,2.462C-12.856,2.649,-13.994,3.596,-15.786,5.078C-12.866,8.698,-4.527,8.079,-0.242,7.008Z" /></g><g transform="matrix(1,0,0,1,1171.617,871.941)"><path stroke-linejoin="round" stroke-linecap="round" stroke-width="2" stroke="#1a1a1a" fill="#ffffff" d="M15.727,-16.792C11.442,-15.721,3.103,-15.102,0.183,-18.722C-8.91,-11.2,-34.956,10.194,-30.594,17.02C-25.375,25.19,27.739,5.217,32.504,-0.684C34.956,-3.718,33.625,-14.971,31.755,-25.19C27.273,-21.063,21.982,-17.965,15.727,-16.792Z" /></g><g transform="matrix(1,0,0,1,1168.671,629.522)"><path stroke-linejoin="round" stroke-linecap="round" stroke-width="2" stroke="#000000" fill="#ff812c" d="M27.373,-214.549C27.373,-214.549,58.973,-185.381,54.922,-98.686C50.87,-11.99,34.264,199.734,34.264,199.734C34.264,199.734,24.091,214.549,8.439,206.273C2.829,193.506,-24.652,66.089,-43.557,-44.885C-43.557,-44.885,-56.93,-139.797,-58.973,-164.309" /></g></g><g><g transform="translate(793.269,504.82)"><g transform="rotate(-7)"><animateTransform repeatCount="indefinite" type="rotate" attributeName="transform" dur="5s" begin="0s" calcMode="spline" values="-7; 0; 0; -7; 0; -7; -7" keyTimes="0; 0.2; 0.4; 0.6; 0.8; 0.993333; 1" keySplines="0.333 0 0.667 1; 0.333 0 0.667 1; 0.333 0 0.667 1; 0.333 0 0.667 1; 0.333 0 0.667 1; 0 0 1 1" fill="freeze" /><g transform="scale(1,1) translate(-1153.269,-444.82)"><g><g transform="translate(1158.281,267.734)"><g transform="rotate(0)"><animateTransform repeatCount="indefinite" type="rotate" attributeName="transform" dur="5s" begin="0s" calcMode="spline" values="0; 13; 4; 13; 4; 13; 0; 0" keyTimes="0; 0.2; 0.36; 0.5; 0.64; 0.8; 0.993333; 1" keySplines="0.333 0 0.667 1; 0.333 0 0.833 1; 0.167 0 0.667 1; 0.333 0 0.833 1; 0.167 0 0.667 1; 0.167 0 0.667 1; 0 0 1 1" fill="freeze" /><g transform="scale(1,1) translate(-1158.281,-267.734)"><g transform="matrix(1,0,0,1,1155.226,219.908)"><path stroke-linejoin="round" stroke-linecap="round" stroke-width="2" stroke="#1a1a1a" fill="#ffffff" d="M10.568,44.09C10.568,44.09,2.195,17.622,2.195,17.622C2.195,17.622,-18.872,25.995,-25.894,13.841C-32.916,1.688,-40.546,-28.696,-22.113,-42.065C-6.099,-53.68,8.407,-55.704,18.13,-35.448C27.853,-15.192,28.124,-6.685,34.065,6.819C40.007,20.323,40.547,36.529,40.547,36.529C40.547,36.529,17.32,55.703,10.568,44.09Z" /></g><g transform="matrix(1,0,0,1,1155.456,196.715)"><path stroke-linejoin="round" stroke-linecap="round" stroke-width="1" stroke="#1a1a1a" fill="#1c0311" d="M-36.462,-2.33C-36.462,-2.33,-35.374,5.367,-23.423,1.924C-11.471,-1.519,-11.066,4.153,-11.066,7.799C-11.066,11.445,-6.761,16.711,-2.432,14.482C1.898,12.254,9.797,14.988,7.771,21.318C5.746,27.649,9.596,34.942,17.698,32.714C23.168,39.803,39.98,39.196,38.766,26.839C49.097,24.206,48.286,10.026,36.942,3.545C45.855,-4.963,44.474,-13.401,30.865,-13.471C39.778,-30.486,14.352,-39.802,5.492,-30.485C0.277,-35.346,-19.014,-35.829,-19.496,-25.662C-27.677,-27.649,-49.096,-22.788,-36.462,-2.33Z" /></g></g></g></g></g></g></g></g></g><g><g transform="translate(793.269,504.82)"><g transform="rotate(-7)"><animateTransform repeatCount="indefinite" type="rotate" attributeName="transform" dur="5s" begin="0s" calcMode="spline" values="-7; 0; 0; -7; 0; -7; -7" keyTimes="0; 0.2; 0.4; 0.6; 0.8; 0.993333; 1" keySplines="0.333 0 0.667 1; 0.333 0 0.667 1; 0.333 0 0.667 1; 0.333 0 0.667 1; 0.333 0 0.667 1; 0 0 1 1" fill="freeze" /><g transform="scale(1,1) translate(-1153.269,-444.82)"><g transform="matrix(1,0,0,1,1147.094,404.49)"><path stroke-linejoin="round" stroke-linecap="round" stroke-width="2" stroke="#1a1a1a" fill="#ffffff" d="M-46.518,17.825C-31.393,-17.825,46.518,16.154,46.518,16.154" /></g><g transform="matrix(1,0,0,1,1154.411,434.605)"><path stroke-linejoin="round" stroke-linecap="round" stroke-width="1" stroke="#1a1a1a" fill="#1c0311" d="M-53.834,-3.212C-53.834,-3.212,-3.629,16.762,28.45,7.986C50.24,1.329,54.622,0.389,54.622,0.389C54.622,0.389,46.3,-15.348,46.3,-15.348C46.3,-15.348,-54.623,-16.762,-54.623,-16.762C-54.623,-16.762,-54.623,-3.273,-54.623,-3.273" /></g><g transform="matrix(1,0,0,1,1136.477,299.745)"><path stroke-linejoin="round" stroke-linecap="round" stroke-width="2" stroke="#1a1a1a" fill="#ffffff" d="M27.561,-47.833C27.561,-47.833,-7.044,-26.377,-19.61,-9.524C-35.477,11.755,-41.325,100.086,-41.325,100.086C-41.325,100.086,-17.322,104.832,-15.854,103.086C-14.386,101.341,45.325,-25.563,45.325,-27.984" /></g><g transform="matrix(1,0,0,1,1149.989,351.707)"><path d="M-18.927,-50.637C-20.489,-48.707,-78.398,60.632,-43.075,75.824C13.441,100.131,55.326,76.151,55.326,76.151C55.326,76.151,78.398,-90.408,54.698,-95.27C30.998,-100.131,14.049,-99.794,14.049,-99.794" stroke-linejoin="round" stroke-linecap="round" stroke-width="2" stroke="#1a1a1a" fill="#ffffff"><animate repeatCount="indefinite" attributeName="d" dur="5s" begin="0s" calcMode="spline" values="M-18.927,-50.637C-20.489,-48.707,-78.398,60.632,-43.075,75.824C13.441,100.131,55.326,76.151,55.326,76.151C55.326,76.151,78.398,-90.408,54.698,-95.27C30.998,-100.131,14.049,-99.794,14.049,-99.794; M-18.927,-50.637C-47.252,-4.171,-78.398,60.632,-43.075,75.824C13.441,100.131,55.326,76.151,55.326,76.151C55.326,76.151,78.398,-90.408,54.698,-95.27C30.998,-100.131,14.049,-99.794,14.049,-99.794; M-18.927,-50.637C-47.252,-4.171,-78.398,60.632,-43.075,75.824C13.441,100.131,55.326,76.151,55.326,76.151C55.326,76.151,78.398,-90.408,54.698,-95.27C30.998,-100.131,14.049,-99.794,14.049,-99.794; M-18.927,-50.637C-20.489,-48.707,-78.398,60.632,-43.075,75.824C13.441,100.131,55.326,76.151,55.326,76.151C55.326,76.151,78.398,-90.408,54.698,-95.27C30.998,-100.131,14.049,-99.794,14.049,-99.794; M-18.927,-50.637C-47.252,-4.171,-78.398,60.632,-43.075,75.824C13.441,100.131,55.326,76.151,55.326,76.151C55.326,76.151,78.398,-90.408,54.698,-95.27C30.998,-100.131,14.049,-99.794,14.049,-99.794; M-18.927,-50.637C-20.489,-48.707,-78.398,60.632,-43.075,75.824C13.441,100.131,55.326,76.151,55.326,76.151C55.326,76.151,78.398,-90.408,54.698,-95.27C30.998,-100.131,14.049,-99.794,14.049,-99.794; M-18.927,-50.637C-20.489,-48.707,-78.398,60.632,-43.075,75.824C13.441,100.131,55.326,76.151,55.326,76.151C55.326,76.151,78.398,-90.408,54.698,-95.27C30.998,-100.131,14.049,-99.794,14.049,-99.794" keyTimes="0; 0.2; 0.4; 0.6; 0.8; 0.993333; 1" keySplines="0.333 0 0.667 1; 0.333 0 0.667 1; 0.333 0 0.667 1; 0.333 0 0.667 1; 0.333 0 0.667 1; 0 0 1 1" fill="freeze" /></path></g><g transform="matrix(1,0,0,1,1153.43,297.71)"><path stroke-linejoin="round" stroke-linecap="round" stroke-width="2" stroke="#1a1a1a" d="M9.155,-15.964C9.155,-15.964,-3.556,0.379,-9.155,15.964" /></g></g></g></g></g><g><g transform="translate(793.269,504.82)"><g transform="rotate(-7)"><animateTransform repeatCount="indefinite" type="rotate" attributeName="transform" dur="5s" begin="0s" calcMode="spline" values="-7; 0; 0; -7; 0; -7; -7" keyTimes="0; 0.2; 0.4; 0.6; 0.8; 0.993333; 1" keySplines="0.333 0 0.667 1; 0.333 0 0.667 1; 0.333 0 0.667 1; 0.333 0 0.667 1; 0.333 0 0.667 1; 0 0 1 1" fill="freeze" /><g transform="scale(1,1) translate(-1153.269,-444.82)"><g><g transform="translate(1207.05,257.926)"><g transform="rotate(-12)"><animateTransform repeatCount="indefinite" type="rotate" attributeName="transform" dur="5s" begin="0s" calcMode="spline" values="-12; 0; 11; -8; 0; -12; -12" keyTimes="0; 0.2; 0.4; 0.6; 0.8; 0.993333; 1" keySplines="0.333 0 0.667 1; 0.333 0 0.833 1; 0.167 0 0.667 1; 0.333 0 0.667 1; 0.333 0 0.667 1; 0 0 1 1" fill="freeze" /><g transform="scale(1,1) translate(-1207.05,-257.926)"><g><g transform="translate(1073.831,424.658)"><animateTransform repeatCount="indefinite" type="translate" attributeName="transform" dur="5s" begin="0s" calcMode="spline" values="1073.831 424.658; 1075.316 351.277; 1075.316 351.277; 1073.831 424.658; 1073.831 424.658" keyTimes="0; 0.2; 0.8; 0.993333; 1" keySplines="0.333 0 0.667 1; 0 0 1 1; 0.333 0 0.667 1; 0 0 1 1" fill="freeze" /><g transform="rotate(0)"><animateTransform repeatCount="indefinite" type="rotate" attributeName="transform" dur="5s" begin="0s" calcMode="spline" values="0; 0; 0; 0; 0; 0" keyTimes="0; 0.2; 0.4; 0.6; 0.8; 1" keySplines="0 0 1 1; 0.333 0 0.667 1; 0.333 0 0.667 1; 0.333 0 0.667 1; 0 0 1 1" fill="freeze" /><g transform="translate(-1074.368,-350.424)"><g transform="matrix(1,0,0,1,1089.493,351.369)"><path stroke-linejoin="round" stroke-linecap="round" stroke-width="2" stroke="#1a1a1a" fill="#ffffff" d="M-23.902,-34.435C-23.902,-34.435,-57.124,8.507,-57.124,8.507C-57.124,8.507,13.37,34.435,13.37,34.435C13.37,34.435,57.124,0,57.124,0C57.124,0,-23.902,-34.435,-23.902,-34.435Z" /></g><g><g transform="translate(1035.984,355.101)"><g transform="rotate(76)"><animateTransform repeatCount="indefinite" type="rotate" attributeName="transform" dur="5s" begin="0s" calcMode="spline" values="76; 76; 0; 0; 0; 76; 76" keyTimes="0; 0.2; 0.4; 0.6; 0.8; 0.993333; 1" keySplines="0.333 0 0.667 1; 0.333 0 0.833 1; 0.167 0 0.833 1; 0.167 0 0.833 1; 0.167 0 0.667 1; 0 0 1 1" fill="freeze" /><g transform="translate(-2.129,-17.641)"><path stroke-linejoin="round" stroke-linecap="round" stroke-width="1" stroke="#1a1a1a" fill="#1c0311" d="M-31.735,-17.286C-31.735,-17.286,-1.485,22.417,-1.485,22.417C-1.485,22.417,2.292,17.59,2.292,17.59C2.292,17.59,-27.82,-20.256,-27.82,-20.256C-27.82,-20.256,-31.735,-17.286,-31.735,-17.286Z" /></g></g></g></g><g transform="matrix(1,0,0,1,1033.856,337.46)"><path stroke-linejoin="round" stroke-linecap="round" stroke-width="1" stroke="#1a1a1a" fill="#1c0311" d="M-1.485,22.417C-1.485,22.417,31.735,-20.526,31.735,-20.526C31.735,-20.526,27.413,-22.417,27.413,-22.417C27.413,-22.417,-5.886,16.682,-5.886,16.682C-5.886,16.682,-1.485,22.417,-1.485,22.417Z" /></g></g></g></g></g><g><g transform="translate(1136.327,424.63)"><animateTransform repeatCount="indefinite" type="translate" attributeName="transform" dur="5s" begin="0s" calcMode="spline" values="1136.327 424.63; 1118.62 376.228; 1118.62 376.228; 1118.62 376.228; 1118.62 376.228; 1136.327 424.63; 1136.327 424.63" keyTimes="0; 0.2; 0.4; 0.6; 0.8; 0.993333; 1" keySplines="0.333 0 0.667 1; 0 0 1 1; 0 0 1 1; 0 0 1 1; 0.333 0 0.667 1; 0 0 1 1" fill="freeze" /><g transform="rotate(-13)"><animateTransform repeatCount="indefinite" type="rotate" attributeName="transform" dur="5s" begin="0s" calcMode="spline" values="-13; 0; 0; 0; 0; -13; -13" keyTimes="0; 0.2; 0.4; 0.6; 0.8; 0.993333; 1" keySplines="0.333 0 0.667 1; 0.333 0 0.667 1; 0.333 0 0.667 1; 0.333 0 0.667 1; 0.333 0 0.667 1; 0 0 1 1" fill="freeze" /><g transform="translate(-29.5,-1.5)"><path stroke-linejoin="round" stroke-linecap="round" stroke-width="2" stroke="#1a1a1a" fill="#ffffff" d="M25.043,-9.76C25.043,-9.76,-9.306,-11.576,-15.358,-13.089C-21.411,-14.602,-23.832,-10.365,-20.05,-8.247C-16.267,-6.129,-5.069,-5.069,-5.069,-2.799C-5.069,-0.529,-28.339,-4.401,-28.339,-4.401C-28.339,-4.401,-29.583,3.858,-22.773,7.792C-15.964,11.726,-9.306,14.601,1.74,10.667C12.786,6.733,29.583,8.247,29.583,8.247" /></g></g></g></g><g transform="matrix(1,0,0,1,1180.491,334.032)"><path d="M5.559,-19.259C5.559,-19.259,-2.533,12.991,-9.72,23.551C-16.323,33.253,-59.953,77.391,-59.953,77.391C-59.953,77.391,-60.87,98.857,-51.783,99.938C-11.941,104.678,25.518,59.812,38.447,24.575C54.922,-20.327,28.033,-74.855,28.033,-74.855" stroke-linejoin="round" stroke-linecap="round" stroke-width="2" stroke="#1a1a1a" fill="#ffffff"><animate repeatCount="indefinite" attributeName="d" dur="5s" begin="0s" calcMode="spline" values="M5.559,-19.259C5.559,-19.259,-2.533,12.991,-9.72,23.551C-16.323,33.253,-59.953,77.391,-59.953,77.391C-59.953,77.391,-60.87,98.857,-51.783,99.938C-11.941,104.678,25.518,59.812,38.447,24.575C54.922,-20.327,28.033,-74.855,28.033,-74.855; M5.559,-19.259C5.559,-19.259,22.41,20.444,14.539,23.009C3.381,26.647,-66.892,27.87,-66.892,27.87C-66.892,27.87,-78.212,44.494,-70.792,49.85C-39.242,72.621,48.809,74.855,61.738,39.618C78.213,-5.284,28.033,-74.855,28.033,-74.855; M5.559,-19.259C5.559,-19.259,22.41,20.444,14.539,23.009C3.381,26.647,-66.892,27.87,-66.892,27.87C-66.892,27.87,-78.212,44.494,-70.792,49.85C-39.242,72.621,48.809,74.855,61.738,39.618C78.213,-5.284,28.033,-74.855,28.033,-74.855; M5.559,-19.259C5.559,-19.259,22.41,20.444,14.539,23.009C3.381,26.647,-66.892,27.87,-66.892,27.87C-66.892,27.87,-78.212,44.494,-70.792,49.85C-39.242,72.621,48.809,74.855,61.738,39.618C78.213,-5.284,28.033,-74.855,28.033,-74.855; M5.559,-19.259C5.559,-19.259,22.41,20.444,14.539,23.009C3.381,26.647,-66.892,27.87,-66.892,27.87C-66.892,27.87,-78.212,44.494,-70.792,49.85C-39.242,72.621,48.809,74.855,61.738,39.618C78.213,-5.284,28.033,-74.855,28.033,-74.855; M5.559,-19.259C5.559,-19.259,-2.533,12.991,-9.72,23.551C-16.323,33.253,-59.953,77.391,-59.953,77.391C-59.953,77.391,-60.87,98.857,-51.783,99.938C-11.941,104.678,25.518,59.812,38.447,24.575C54.922,-20.327,28.033,-74.855,28.033,-74.855; M5.559,-19.259C5.559,-19.259,-2.533,12.991,-9.72,23.551C-16.323,33.253,-59.953,77.391,-59.953,77.391C-59.953,77.391,-60.87,98.857,-51.783,99.938C-11.941,104.678,25.518,59.812,38.447,24.575C54.922,-20.327,28.033,-74.855,28.033,-74.855" keyTimes="0; 0.2; 0.4; 0.6; 0.8; 0.993333; 1" keySplines="0.333 0 0.667 1; 0.333 0 0.667 1; 0.333 0 0.667 1; 0.333 0 0.667 1; 0.333 0 0.667 1; 0 0 1 1" fill="freeze" /></path></g></g></g></g></g></g></g></g></g><g transform="matrix(1,0,0,1,600,600)" /></g></g></svg>