<svg fill="none" height="100%" width="100%" viewBox="0 0 1000 1000" xmlns:xlink="http://www.w3.org/1999/xlink" xmlns="http://www.w3.org/2000/svg"><defs><linearGradient id="i0" gradientUnits="userSpaceOnUse" spreadMethod="pad" x2="276" y2="-48" x1="-294" y1="54"><stop offset="0%" stop-color="#8bf2f6" /><stop offset="50%" stop-color="#74e2ec" /><stop offset="100%" stop-color="#5dd1e2" /></linearGradient><linearGradient id="i1" gradientUnits="userSpaceOnUse" spreadMethod="pad" x2="276" y2="-48" x1="-294" y1="54"><stop offset="0%" stop-color="#538efb" /><stop offset="49.9%" stop-color="#97a0f9" /><stop offset="99.8%" stop-color="#dcb3f8" /></linearGradient><mask mask-type="luminance" style="mask-type: luminance" maskContentUnits="userSpaceOnUse" id="i2"><path stroke-dasharray="0 100" pathLength="100" fill="none" d="M-42,326.5C-42,326.5,-243,171,-243,171C-243,171,45,-30,45,-30C45,-30,-176,-157,-176,-157" stroke-linejoin="round" stroke-linecap="round" stroke-width="2" stroke="white"><animate repeatCount="indefinite" fill="freeze" begin="0s" dur="8s" calcMode="spline" keySplines="0 0 1 1; 0.333 0 0.667 1; 0.333 0 0.667 1; 0.333 0 0.667 1; 0.333 0 0.667 1; 0.333 0 0.667 1; 0 0 1 1" keyTimes="0; 0.005; 0.075; 0.15; 0.225; 0.295; 0.555; 1" values="0 100; 0 100; 4.453 95.547; 17.197 82.803; 35.207 64.793; 54.085 45.915; 100 0; 100 0" attributeName="stroke-dasharray" /><animate repeatCount="indefinite" fill="freeze" begin="0s" dur="8s" calcMode="spline" keySplines="0 0 1 1; 0.333 0 0.667 1; 0.333 0 0.667 1; 0.333 0 0.667 1; 0.333 0 0.667 1; 0.333 0 0.667 1; 0 0 1 1" keyTimes="0; 0.005; 0.075; 0.15; 0.225; 0.295; 0.555; 1" values="0; 0; 0; 0; 0; 0; 0; 0" attributeName="stroke-dashoffset" /></path></mask><mask mask-type="luminance" style="mask-type: luminance" maskContentUnits="userSpaceOnUse" id="i3"><path stroke-dasharray="0 100" pathLength="100" fill="none" d="M56.735,309.879C56.735,309.879,219,-214,219,-214C219,-214,280,118,280,118" stroke-linejoin="round" stroke-linecap="round" stroke-width="2" stroke="white"><animate repeatCount="indefinite" fill="freeze" begin="0s" dur="8s" calcMode="spline" keySplines="0 0 1 1; 0.333 0 0.667 1; 0.333 0 0.667 1; 0.333 0 0.667 1; 0.333 0 0.667 1; 0.333 0 0.667 1; 0 0 1 1" keyTimes="0; 0.005; 0.075; 0.15; 0.225; 0.295; 0.555; 1" values="0 100; 0 100; 4.453 95.547; 17.197 82.803; 35.207 64.793; 54.085 45.915; 100 0; 100 0" attributeName="stroke-dasharray" /><animate repeatCount="indefinite" fill="freeze" begin="0s" dur="8s" calcMode="spline" keySplines="0 0 1 1; 0.333 0 0.667 1; 0.333 0 0.667 1; 0.333 0 0.667 1; 0.333 0 0.667 1; 0.333 0 0.667 1; 0 0 1 1" keyTimes="0; 0.005; 0.075; 0.15; 0.225; 0.295; 0.555; 1" values="0; 0; 0; 0; 0; 0; 0; 0" attributeName="stroke-dashoffset" /></path></mask><mask mask-type="luminance" style="mask-type: luminance" maskContentUnits="userSpaceOnUse" id="i4"><path stroke-dasharray="0 100" pathLength="100" fill="none" d="M25,265.5C25,265.5,62.5,-27.5,62.5,-27.5C62.5,-27.5,211,-216,211,-216C211,-216,-176,-157,-176,-157" stroke-linejoin="round" stroke-linecap="round" stroke-width="2" stroke="white"><animate repeatCount="indefinite" fill="freeze" begin="0s" dur="8s" calcMode="spline" keySplines="0 0 1 1; 0.333 0 0.667 1; 0.333 0 0.667 1; 0.333 0 0.667 1; 0.333 0 0.667 1; 0.333 0 0.667 1; 0 0 1 1" keyTimes="0; 0.005; 0.075; 0.15; 0.225; 0.295; 0.555; 1" values="0 100; 0 100; 4.453 95.547; 17.197 82.803; 35.207 64.793; 54.085 45.915; 100 0; 100 0" attributeName="stroke-dasharray" /><animate repeatCount="indefinite" fill="freeze" begin="0s" dur="8s" calcMode="spline" keySplines="0 0 1 1; 0.333 0 0.667 1; 0.333 0 0.667 1; 0.333 0 0.667 1; 0.333 0 0.667 1; 0.333 0 0.667 1; 0 0 1 1" keyTimes="0; 0.005; 0.075; 0.15; 0.225; 0.295; 0.555; 1" values="0; 0; 0; 0; 0; 0; 0; 0" attributeName="stroke-dashoffset" /></path></mask><mask mask-type="luminance" style="mask-type: luminance" maskContentUnits="userSpaceOnUse" id="i5"><path stroke-dasharray="0 100" pathLength="100" fill="none" d="M67,331C67,331,272,108,272,108C272,108,-268,163,-268,163C-268,163,-176,-157,-176,-157" stroke-linejoin="round" stroke-linecap="round" stroke-width="2" stroke="white"><animate repeatCount="indefinite" fill="freeze" begin="0s" dur="8s" calcMode="spline" keySplines="0 0 1 1; 0.333 0 0.667 1; 0.333 0 0.667 1; 0.333 0 0.667 1; 0.333 0 0.667 1; 0.333 0 0.667 1; 0 0 1 1" keyTimes="0; 0.005; 0.075; 0.15; 0.225; 0.295; 0.555; 1" values="0 100; 0 100; 4.453 95.547; 17.197 82.803; 35.207 64.793; 54.085 45.915; 100 0; 100 0" attributeName="stroke-dasharray" /><animate repeatCount="indefinite" fill="freeze" begin="0s" dur="8s" calcMode="spline" keySplines="0 0 1 1; 0.333 0 0.667 1; 0.333 0 0.667 1; 0.333 0 0.667 1; 0.333 0 0.667 1; 0.333 0 0.667 1; 0 0 1 1" keyTimes="0; 0.005; 0.075; 0.15; 0.225; 0.295; 0.555; 1" values="0; 0; 0; 0; 0; 0; 0; 0" attributeName="stroke-dashoffset" /></path></mask><mask mask-type="luminance" style="mask-type: luminance" maskContentUnits="userSpaceOnUse" id="i6"><path stroke-dasharray="0 100" pathLength="100" fill="none" d="M-35,295.5C-35,295.5,-176,-157,-176,-157" stroke-linejoin="round" stroke-linecap="round" stroke-width="2" stroke="white"><animate repeatCount="indefinite" fill="freeze" begin="0s" dur="8s" calcMode="spline" keySplines="0 0 1 1; 0.333 0 0.667 1; 0.333 0 0.667 1; 0.333 0 0.667 1; 0.333 0 0.667 1; 0.333 0 0.667 1; 0 0 1 1" keyTimes="0; 0.005; 0.075; 0.15; 0.225; 0.295; 0.555; 1" values="0 100; 0 100; 4.453 95.547; 17.197 82.803; 35.207 64.793; 54.085 45.915; 100 0; 100 0" attributeName="stroke-dasharray" /><animate repeatCount="indefinite" fill="freeze" begin="0s" dur="8s" calcMode="spline" keySplines="0 0 1 1; 0.333 0 0.667 1; 0.333 0 0.667 1; 0.333 0 0.667 1; 0.333 0 0.667 1; 0.333 0 0.667 1; 0 0 1 1" keyTimes="0; 0.005; 0.075; 0.15; 0.225; 0.295; 0.555; 1" values="0; 0; 0; 0; 0; 0; 0; 0" attributeName="stroke-dashoffset" /></path></mask><clipPath id="i7"><path d="M659.264,1624.83C659.264,1798.85,518.191,1939.92,344.169,1939.92C170.148,1939.92,29.075,1798.85,29.075,1624.83C29.075,1450.81,170.148,1309.73,344.169,1309.73C518.191,1309.73,659.264,1450.81,659.264,1624.83Z" /></clipPath><clipPath id="i8"><path d="M2570.87,649.265C2570.87,843.13,2413.71,1000.29,2219.85,1000.29C2025.98,1000.29,1868.82,843.13,1868.82,649.265C1868.82,455.398,2025.98,298.239,2219.85,298.239C2413.71,298.239,2570.87,455.398,2570.87,649.265Z" /></clipPath><clipPath id="i9"><path d="M1154.83,681.077C1154.83,890.945,984.696,1061.08,774.828,1061.08C564.96,1061.08,394.828,890.945,394.828,681.077C394.828,471.209,564.96,301.077,774.828,301.077C984.696,301.077,1154.83,471.209,1154.83,681.077Z" /></clipPath><clipPath id="i10"><path d="M1719.116,1229.11C1719.116,1418.368,1565.689,1571.795,1376.432,1571.795C1187.175,1571.795,1033.751,1418.368,1033.751,1229.11C1033.751,1039.852,1187.174,886.429,1376.432,886.429C1565.69,886.429,1719.116,1039.852,1719.116,1229.11Z" /></clipPath><clipPath id="i11"><path d="M3131.61,1273.52C3131.61,1412.28,3019.13,1524.76,2880.37,1524.76C2741.62,1524.76,2629.13,1412.28,2629.13,1273.52C2629.13,1134.77,2741.62,1022.28,2880.37,1022.28C3019.13,1022.28,3131.61,1134.77,3131.61,1273.52Z" /></clipPath></defs><g transform="matrix(0.91,0,0,0.919,480,540)" id="i12"><g id="i13" transform="matrix(-1.114,-0.117,0.117,-1.114,2,-75)"><path d="M-58,-395C176,-461,428,-287,382,-4C347.177,210.236,174.136,403,-28,403C-230.136,403,-328.373,212.319,-382,2C-446,-249,-252.546,-340.128,-58,-395Z" fill="url(#i0)"><animate repeatCount="indefinite" attributeName="d" dur="8s" begin="0s" calcMode="spline" values="M-58,-395C176,-461,428,-287,382,-4C347.177,210.236,174.136,403,-28,403C-230.136,403,-328.373,212.319,-382,2C-446,-249,-252.546,-340.128,-58,-395Z; M-86,-411C162,-423,462,-257,416,26C381.177,240.236,170.441,330.527,-28,369C-224,407,-414.055,240.957,-384,26C-338,-303,-287.9,-401.231,-86,-411Z; M-86,-411C168,-505,374,-243,416,26C466.213,347.602,124.441,270.527,-74,309C-270,347,-430,185.048,-430,-32C-430,-297,-275.571,-340.844,-86,-411Z; M-47.72,-384.84C216,-409,397.32,-259.6,380.66,62.7C364,385,138,371,-56.54,346.94C-255.026,322.392,-303.04,271.68,-379.52,15.34C-456,-241,-311.44,-360.68,-47.72,-384.84Z; M-58,-395C176,-461,428,-287,382,-4C347.177,210.236,174.136,403,-28,403C-230.136,403,-328.373,212.319,-382,2C-446,-249,-252.546,-340.128,-58,-395Z; M-58,-395C176,-461,428,-287,382,-4C347.177,210.236,174.136,403,-28,403C-230.136,403,-328.373,212.319,-382,2C-446,-249,-252.546,-340.128,-58,-395Z" keyTimes="0; 0.25; 0.495; 0.75; 0.995; 1" keySplines="0 0 1 1; 0 0 1 1; 0 0 1 1; 0 0 1 1; 0 0 1 1" fill="freeze" /></path></g><g id="i14" transform="matrix(1,0,0,1,2,-19)"><path d="M-58,-395C176,-461,428,-287,382,-4C347.177,210.236,174.136,403,-28,403C-230.136,403,-328.373,212.319,-382,2C-446,-249,-252.546,-340.128,-58,-395Z" fill="url(#i1)"><animate repeatCount="indefinite" attributeName="d" dur="8s" begin="0s" calcMode="spline" values="M-58,-395C176,-461,428,-287,382,-4C347.177,210.236,174.136,403,-28,403C-230.136,403,-328.373,212.319,-382,2C-446,-249,-252.546,-340.128,-58,-395Z; M-86,-411C162,-423,462,-257,416,26C381.177,240.236,170.441,330.527,-28,369C-224,407,-414.055,240.957,-384,26C-338,-303,-287.9,-401.231,-86,-411Z; M-86,-411C168,-505,374,-243,416,26C466.213,347.602,124.441,270.527,-74,309C-270,347,-430,185.048,-430,-32C-430,-297,-275.571,-340.844,-86,-411Z; M-47.72,-384.84C216,-409,397.32,-259.6,380.66,62.7C364,385,138,371,-56.54,346.94C-255.026,322.392,-303.04,271.68,-379.52,15.34C-456,-241,-311.44,-360.68,-47.72,-384.84Z; M-58,-395C176,-461,428,-287,382,-4C347.177,210.236,174.136,403,-28,403C-230.136,403,-328.373,212.319,-382,2C-446,-249,-252.546,-340.128,-58,-395Z; M-58,-395C176,-461,428,-287,382,-4C347.177,210.236,174.136,403,-28,403C-230.136,403,-328.373,212.319,-382,2C-446,-249,-252.546,-340.128,-58,-395Z" keyTimes="0; 0.25; 0.495; 0.75; 0.995; 1" keySplines="0 0 1 1; 0 0 1 1; 0 0 1 1; 0 0 1 1; 0 0 1 1" fill="freeze" /></path></g></g><g id="i15"><animate repeatCount="indefinite" attributeName="opacity" dur="8s" begin="0s" fill="freeze" values="1; 1; 0; 0" keyTimes="0; 0.945; 0.98; 1" keySplines="0 0 1 1; 0.333 0 0.667 1; 0 0 1 1" calcMode="spline" /><g transform="translate(500,500) scale(1,1) translate(0,0)"><g id="i16"><path mask="url(#i2)" d="M-42,326.5C-42,326.5,-243,171,-243,171C-243,171,45,-30,45,-30C45,-30,-176,-157,-176,-157" stroke-dasharray="2 10" stroke-linejoin="round" stroke-linecap="round" stroke-width="2" stroke="#0a96be" /><path mask="url(#i3)" d="M56.735,309.879C56.735,309.879,219,-214,219,-214C219,-214,280,118,280,118" stroke-dasharray="2 10" stroke-linejoin="round" stroke-linecap="round" stroke-width="2" stroke="#0a96be" /><path mask="url(#i4)" d="M25,265.5C25,265.5,62.5,-27.5,62.5,-27.5C62.5,-27.5,211,-216,211,-216C211,-216,-176,-157,-176,-157" stroke-dasharray="2 10" stroke-linejoin="round" stroke-linecap="round" stroke-width="2" stroke="#0a96be" /><path mask="url(#i5)" d="M67,331C67,331,272,108,272,108C272,108,-268,163,-268,163C-268,163,-176,-157,-176,-157" stroke-dasharray="2 10" stroke-linejoin="round" stroke-linecap="round" stroke-width="2" stroke="#0a96be" /><path mask="url(#i6)" d="M-35,295.5C-35,295.5,-176,-157,-176,-157" stroke-dasharray="2 10" stroke-linejoin="round" stroke-linecap="round" stroke-width="2" stroke="#0a96be" /></g></g></g><g transform="matrix(0.28,0,0,0.28,60.54,219.94)" id="i17"><g id="i18" transform="matrix(1,0,0,1,1529.274,2610.72)"><path fill="#b2cef0" fill-opacity="0.5" d="M452.18,68.28C311.92,68.28,190.15,58.31,73.38,48.35C-43.4,38.38,-155.169,28.41,-275.519,28.41C-322.409,28.41,-370.619,29.93,-420.919,33.54C-482.159,37.95,-545.74,39.86,-606.62,39.86C-905.592,39.86,-1138.791,-6.19,-702.16,-28.87C-191.16,-55.4,455.18,-68.28,765.75,-68.28C774.6,-68.28,783.19,-68.27,791.49,-68.25C1138.79,-67.38,1080.291,34.42,637.271,62.42C571.741,66.56,510.37,68.28,452.18,68.28Z" /></g><g><g id="i19" transform="translate(-489.286,124)"><animateTransform repeatCount="indefinite" type="translate" attributeName="transform" dur="8s" begin="0s" calcMode="spline" values="-489.286 124; -489.286 165; -489.286 124; -489.286 124" keyTimes="0; 0.125; 0.25; 1" keySplines="0.333 0 0.667 1; 0.333 0 0.667 1; 0 0 1 1" fill="freeze" /><g id="i20" transform="matrix(1,0,0,1,2087.14,2210.99)"><path fill="#111134" d="M-32.97,53.8C-32.97,53.8,-375.61,-184.19,-520.55,-46.96C-636.28,62.61,-430.85,191.34,-168.05,156.72C16.93,132.36,37.9,167.75,70.3,166.98C311.41,148.51,636.28,76.37,478.18,-36.96C262.81,-191.34,117.12,-27.67,42.08,13.07C-32.97,53.8,-32.97,53.8,-32.97,53.8Z" /></g><g id="i21" transform="matrix(1,0,0,1,2062.47,1988.205)"><path stroke-linejoin="round" stroke-linecap="round" stroke-width="102" stroke="#506fd1" d="M200.638,-129.063C200.638,-129.063,306.616,67.366,306.77,87.135M-234.042,-123.705C-234.042,-123.705,-344.756,72.723,-344.917,92.492" /></g><g id="i22" transform="matrix(1,0,0,1,2062.47,1988.205)"><path fill="#5c7be0" d="M-51.18,-283.025C-64.77,-280.885,-275.98,-188.745,-278.57,-150.155C-281.16,-111.565,-220.71,201.545,-103.78,242.285C13.14,283.025,143.94,242.285,143.94,242.285C143.94,242.285,281.16,-96.485,240.42,-160.805C199.68,-225.135,15.29,-283.025,15.29,-283.025C15.29,-283.025,-51.18,-283.025,-51.18,-283.025Z" /></g><g><g transform="translate(1716.934,2081.062)"><g transform="rotate(-19)"><animateTransform repeatCount="indefinite" type="rotate" attributeName="transform" dur="8s" begin="0s" calcMode="spline" values="-19; -19; -2; -7.667; 1.667; -19; -19" keyTimes="0; 0.03; 0.055; 0.07; 0.08; 0.1; 1" keySplines="0 0 1 1; 0 0 1 1; 0 0 1 1; 0 0 1 1; 0 0 1 1; 0 0 1 1" fill="freeze" /><g id="i23" transform="translate(345.536,-92.857)"><path stroke-linejoin="round" stroke-linecap="round" stroke-width="102" stroke="#4462c2" d="M-344.917,92.492C-345.188,125.773,-189.399,154.866,-98.327,170.938" /></g></g></g></g><g><g transform="translate(2368.497,2075.259)"><g transform="rotate(17)"><animateTransform repeatCount="indefinite" type="rotate" attributeName="transform" dur="8s" begin="0s" calcMode="spline" values="17; -1; 17; 17; -5; 17; 17; 17" keyTimes="0; 0.015; 0.03; 0.05; 0.07; 0.08; 0.1; 1" keySplines="0 0 1 1; 0 0 1 1; 0 0 1 1; 0 0 1 1; 0 0 1 1; 0 0 1 1; 0 0 1 1" fill="freeze" /><g id="i24" transform="translate(-306.027,-87.054)"><path stroke-linejoin="round" stroke-linecap="round" stroke-width="102" stroke="#4462c2" d="M306.77,87.135C307.03,120.416,157.906,149.509,70.731,165.581" /></g></g></g></g><g id="i25" transform="matrix(1,0,0,1,2048.45,1662.8)"><path fill="#f68737" d="M0,164.6C-27.91,164.6,-50.75,141.76,-50.75,113.85C-50.75,113.85,-50.75,-56.96,-50.75,-56.96C-50.75,-84.87,-27.91,-107.71,0,-107.71C27.91,-107.71,50.75,-84.87,50.75,-56.96C50.75,-56.96,50.75,113.85,50.75,113.85C50.75,141.76,27.91,164.6,0,164.6ZM0,-107.71C-27.91,-107.71,-50.75,-84.87,-50.75,-56.96C-50.75,-56.96,-50.75,82.71,-50.75,82.71C-20.83,107.71,8.14,94.61,50.75,61.6C50.75,61.6,50.75,-56.96,50.75,-56.96C50.75,-84.87,27.91,-107.71,0,-107.71Z" /></g><g><g transform="translate(2050.735,1733.971)"><g transform="rotate(0)"><animateTransform repeatCount="indefinite" type="rotate" attributeName="transform" dur="8s" begin="0s" calcMode="spline" values="0; -4.928; -4.928; 5.005; 5.005; 0; 0; 0" keyTimes="0; 0.045; 0.075; 0.13; 0.16; 0.2; 0.25; 1" keySplines="0.333 0 0.28 1; 0.333 0 0.28 1; 0.333 0 0.28 1; 0.333 0 0.28 1; 0.333 0 0.28 1; 0.333 0 0.28 1; 0 0 1 1" fill="freeze" /><g id="i26" transform="translate(0,-122.321)"><path fill="#f68737" d="M109.095,1.09C100.755,18.12,87.215,27.56,78.845,22.18C70.485,16.8,70.455,-1.36,78.795,-18.38C87.135,-35.41,100.675,-44.85,109.045,-39.47C117.415,-34.09,117.435,-15.93,109.095,1.09ZM-87.245,-17.12C-77.605,-1.62,-75.755,17.09,-83.115,24.69C-90.475,32.3,-104.255,25.9,-113.905,10.41C-123.545,-5.08,-125.395,-23.8,-118.035,-31.4C-110.675,-39,-96.895,-32.61,-87.245,-17.12ZM87.275,0C87.275,62.07,48.195,112.38,-0.005,112.38C-48.205,112.38,-87.275,62.07,-87.275,0C-87.275,-62.07,-48.205,-112.38,-0.005,-112.38C48.195,-112.38,87.275,-62.07,87.275,0ZM-27.855,-158.41C-48.701,-152.089,-74.392,-126.511,-76.13,-96.955C-79.117,-46.135,-29.467,5.179,9.37,-8.309C-24.539,-42.24,41.696,4.843,63.524,-11.575C46.294,-24.049,43.765,-43.578,75.725,-31.411C97.853,-22.987,100.788,-87.502,99.452,-100.483C94.852,-145.173,30.635,-176.16,-27.855,-158.41ZM-48.235,-40.11C-48.235,-40.11,-0.255,-36.83,20.125,-39.02C40.495,-41.21,36.555,-70.35,53.635,-67.06C70.725,-63.77,67.445,-21.71,74.015,-4.62C77.084,3.364,65.309,104.133,38.987,80.327C30.819,72.94,20.328,70.038,-0.195,70.01C-2.687,70.007,3.194,114.585,2.264,117.68C-0.106,125.58,78.184,104.172,80.85,71.789C85.575,14.403,95.705,-32.88,97.675,-65.75C99.645,-98.61,85.185,-120.3,58.895,-134.75C32.605,-149.21,-20.625,-154.47,-31.805,-153.81C-42.975,-153.16,-49.795,-139.69,-79.075,-132.13C-108.365,-124.56,-115.265,-88.09,-108.695,-67.06C-104.1,-52.352,-98.378,-22.778,-95.616,1.493C-94.429,11.925,-87.132,55.497,-85.749,63.598C-81.149,90.548,-67.779,117.402,2.434,119.5C12.962,119.815,4.733,73.37,-1.142,72.317C-11.369,70.484,-20.242,70.144,-29.58,77.95C-62.038,105.082,-73.2,22.917,-77.155,13.25C-85.695,-7.65,-64.005,-55.23,-48.235,-40.11Z" /></g></g></g></g><g id="i27" transform="matrix(1,0,0,1,2261.08,2368.785)"><path fill="#0e0e24" d="M-112.57,4.455C-112.57,4.455,-65.4,-31.085,-3.22,-24.655C58.96,-18.225,112.57,-4.665,58.96,12.135C5.36,28.945,-50.39,31.085,-76.12,28.945C-101.85,26.805,-112.57,4.455,-112.57,4.455ZM-161.88,-5.455C-163.95,-5.815,-384.87,-61.105,-434.18,-20.365C-483.5,20.365,-269.09,21.065,-230.49,12.135C-191.9,3.215,-161.88,-5.455,-161.88,-5.455Z" /></g><g><g transform="translate(2050.029,2250.388)"><g transform="rotate(0)"><animateTransform repeatCount="indefinite" type="rotate" attributeName="transform" dur="8s" begin="0s" calcMode="spline" values="0; 3; 3; 0; -3; -3; 0; 0" keyTimes="0; 0.015; 0.04; 0.055; 0.07; 0.085; 0.1; 1" keySplines="0 0 1 1; 0 0 1 1; 0 0 1 1; 0 0 1 1; 0 0 1 1; 0 0 1 1; 0 0 1 1" fill="freeze" /><g transform="scale(1,1)"><animateTransform repeatCount="indefinite" type="scale" attributeName="transform" dur="8s" begin="0s" calcMode="spline" values="1 1; 1 0.95; 1 1; 1 0.95; 1 1; 1 1; 1 1" keyTimes="0; 0.025; 0.045; 0.065; 0.085; 0.1; 1" keySplines="0 0 1 1; 0 0 1 1; 0 0 1 1; 0 0 1 1; 0 0 1 1; 0 0 1 1" fill="freeze" /><g id="i28" transform="translate(3.571,-132.143)"><path fill="#a1a1a1" d="M172.63,147.195C172.63,147.195,-172.63,147.195,-172.63,147.195C-186.54,147.195,-198.42,137.145,-200.72,123.425C-200.72,123.425,-242.35,-125.035,-242.35,-125.035C-245.26,-142.405,-231.87,-158.215,-214.26,-158.215C-214.26,-158.215,214.26,-158.215,214.26,-158.215C231.87,-158.215,245.26,-142.405,242.35,-125.035C242.35,-125.035,200.72,123.425,200.72,123.425C198.42,137.145,186.54,147.195,172.63,147.195ZM172.63,147.195C172.63,147.195,-172.63,147.195,-172.63,147.195C-186.54,147.195,-198.42,137.515,-200.72,124.285C-200.72,124.285,-242.35,-115.215,-242.35,-115.215C-245.26,-131.955,-231.87,-147.195,-214.26,-147.195C-214.26,-147.195,214.26,-147.195,214.26,-147.195C231.87,-147.195,245.26,-131.955,242.35,-115.215C242.35,-115.215,200.72,124.285,200.72,124.285C198.42,137.515,186.54,147.195,172.63,147.195ZM4.055,-14.791C22.597,-29.977,30.884,-12.443,31.05,-1.862C31.216,8.719,19.199,17.487,4.209,17.722C-10.781,17.957,-23.067,9.57,-23.233,-1.011C-23.399,-11.592,-14.903,-28.191,4.055,-14.791Z" /></g></g></g></g></g></g></g></g><g visibility="hidden" id="i29"><animate repeatCount="indefinite" begin="0s" calcMode="discrete" dur="8s" values="hidden; visible; visible" keyTimes="0; 0.045; 1" attributeName="visibility" /><g transform="translate(232.767,660.751)"><g transform="scale(0,0)"><animateTransform repeatCount="indefinite" type="scale" attributeName="transform" dur="8s" begin="0s" calcMode="spline" values="0 0; 0 0; 0.33 0.33; 0.248 0.248; 0.28 0.28; 0.28 0.28; 0 0; 0 0" keyTimes="0; 0.045; 0.065; 0.095; 0.15; 0.965; 0.995; 1" keySplines="0 0 1 1; 0.333 0 0.667 1; 0.333 0 0.667 1; 0.333 0 0.39 1; 0.333 0 0.833 1; 0.167 0 0.833 1; 0 0 1 1" fill="freeze" /><g transform="translate(-343.67,-1624.325)"><g clip-path="url(#i7)" id="i30"><g id="i31" transform="matrix(1,0,0,1,343.67,1624.325)"><path fill="#f8fdff" d="M315.094,0.005C315.094,174.025,174.021,315.095,-0.001,315.095C-174.022,315.095,-315.094,174.025,-315.094,0.005C-315.094,-174.015,-174.022,-315.095,-0.001,-315.095C174.021,-315.095,315.094,-174.015,315.094,0.005Z" /></g><g id="i32" transform="matrix(1,0,0,1,533.946,1575.04)"><path fill="#f68737" d="M-79.83,62.5C-79.83,62.5,-63.598,35.06,-55.825,27.75C-48.053,20.43,-21.807,6.25,-17.826,6.16C-11.017,6.02,-41.194,26.38,-41.194,26.38C-41.194,26.38,-37.079,52.9,-40.737,62.5C-44.394,72.1,-82.802,84.9,-82.802,84.9C-82.802,84.9,-79.83,62.5,-79.83,62.5ZM-37.13,23.91C-37.13,23.91,-27.254,33.1,-14.909,27.16C-2.563,21.22,42.509,-10.64,41.138,-18.41C39.766,-26.18,18.703,-28.04,18.703,-28.04C18.703,-28.04,-46.547,23.54,-37.13,23.91ZM-25.253,22.71C-33.705,21.36,-5.893,-0.76,3.199,-9.91C12.293,-19.05,18.159,-23.32,18.159,-23.32C18.159,-23.32,33.705,-21.43,33.705,-18.41C33.705,-15.39,-10.878,20.21,-10.878,20.21C-10.878,20.21,-21.44,23.32,-25.253,22.71Z" /></g><g id="i33" transform="matrix(1,0,0,1,451.144,1670.675)"><path fill="#785df0" d="M-27.205,-4.345C-27.205,-4.345,-0.686,-44.125,5.258,-41.375C11.203,-38.635,27.205,-4.345,27.205,-4.345C27.205,-4.345,-19.432,44.125,-19.432,34.975C-19.432,25.835,-27.205,-4.345,-27.205,-4.345Z" /></g><g id="i34" transform="matrix(1,0,0,1,396.363,1491.595)"><path fill="#f68737" d="M-45.76,-38.295C-45.76,-38.295,-73.194,58.635,-91.483,98.865C-108.508,136.324,-2.519,107.253,-13.11,92.025C-22.849,78.022,-27.471,69.304,-27.471,62.295C-27.471,47.655,-9.769,-14.525,-9.769,-14.525C-9.769,-14.525,-45.76,-38.295,-45.76,-38.295ZM-27.388,63.925C-27.441,63.365,-27.471,62.825,-27.471,62.295C-27.471,47.655,-9.769,-14.525,-9.769,-14.525C-9.769,-14.525,-45.76,-38.295,-45.76,-38.295C-45.76,-38.295,-52.13,-15.795,-60.775,12.025C-49.597,45.415,-39.136,56.805,-27.388,63.925ZM44.81,9.005C38.161,39.125,17.352,60.555,-6.702,54.665C-24.342,50.345,-51.458,25.675,-42.764,-10.325C-35.52,-40.315,-11.122,-60.555,13.061,-55.215C37.244,-49.885,51.458,-21.125,44.81,9.005Z" /></g><g id="i35" transform="matrix(1,0,0,1,349.8,1616.48)"><g id="i36"><path fill="#927afc" d="M-47.969,-77.23C-47.512,-84.75,50.183,-46.13,50.793,-38.82C51.403,-31.5,57.166,-4.21,65.258,10.49C67.274,14.152,142.021,58.735,145.851,296.276C126.372,310.793,-81.567,414.208,-73.756,335.275C-65.122,248.02,-67.326,81.467,-65.452,67.33C-60.153,27.35,-49.188,-57.11,-47.969,-77.23Z" /></g></g><g id="i37" transform="matrix(1,0,0,1,489.461,1668.525)"><path fill="#f68737" d="M22.661,-13.491C27.226,-25.345,31.86,-34.46,38.758,-39.365C63.646,-57.065,84.091,-96.635,75.076,-98.195C66.061,-99.755,29.577,-66.325,29.577,-66.325C29.577,-66.325,39.073,-79.325,36.805,-80.405C34.537,-81.495,16.157,-68.145,13.306,-52.385C12.212,-46.34,6.343,-31.955,-2.149,-15.209C-15.795,11.703,15.517,5.058,22.661,-13.491Z" /></g><g id="i38" transform="matrix(1,0,0,1,392.266,1746.32)"><g id="i36" fill="#785df0"><path d="M-71.28,-129.83C-115.532,-118.82,-95.288,14.81,-57.983,94.06C-20.679,173.32,49.43,104.85,75.644,85.43C85.598,78.06,92.154,70.59,96.465,64.16C88.051,16.87,73.622,-33.87,55.814,-69.57C14.05,-20.55,-5.809,-146.13,-71.28,-129.83Z" /></g></g><g id="i39" transform="matrix(1,0,0,1,412.988,1719.2)"><g id="i36"><path fill="#937bfc" d="M-78.705,-112.31C-134.351,-106.73,-103.882,32.18,-63.192,88.26C-22.503,144.35,35.414,90.09,53.703,57.78C71.992,25.47,109.027,-29.47,109.027,-65.21C109.027,-71.92,95.311,-73.29,78.851,-72.07C63.35,-70.92,-6.672,25.47,-6.672,25.47C-6.672,25.47,-30.051,-117.18,-78.705,-112.31Z" /></g></g><g id="i40" transform="matrix(1,0,0,1,391.555,1443.65)"><path fill="#080c3e" d="M27.452,-36.59C85.535,-32.61,78.12,57.4,78.12,57.4C78.12,57.4,30.219,58.79,15.934,54.64C1.649,50.5,-12.896,39.31,-12.896,39.31C-12.896,39.31,-21.684,73.41,-45.691,75.31C-69.697,77.21,-69.697,77.21,-69.697,77.21C-69.697,77.21,-85.535,12.49,-73.013,-16.7C-47.049,-77.21,4.802,-46.92,27.452,-36.59Z" /></g><g id="i41" transform="matrix(1,0,0,1,367.592,1489.585)"><path fill="#f68737" d="M-11.945,4.645C-8.506,13.485,-0.37,18.585,6.227,16.015C12.824,13.455,15.384,4.205,11.946,-4.645C8.507,-13.495,0.372,-18.585,-6.226,-16.025C-12.823,-13.455,-15.384,-4.205,-11.945,4.645Z" /></g><g id="i42" transform="matrix(1,0,0,1,216.364,1635.12)"><path fill="#080c3e" d="M-41.334,129.12C-56.967,129.12,-81.547,122.74,-82.656,122.45C-83.882,122.13,-84.658,120.92,-84.44,119.67C-84.222,118.43,-83.079,117.56,-81.823,117.67C-81.491,117.7,-48.457,120.52,-35.548,110.35C-19.242,97.5,-28.351,76.49,-43.443,41.68C-49.817,26.98,-57.041,10.32,-63.677,-8.95C-76.255,-45.47,-62.744,-70.57,-49.194,-85.2C-20.751,-115.9,34.668,-129.12,82.576,-116.61C83.878,-116.27,84.658,-114.94,84.318,-113.64C83.978,-112.34,82.649,-111.56,81.345,-111.9C80.227,-112.19,79.102,-112.47,77.976,-112.73C17.026,-111.71,-22.299,-97.56,-38.906,-70.69C-53.434,-47.18,-50.441,-13.68,-30.01,28.87C-10.072,70.4,-4.722,99.61,-14.107,115.69C-18.766,123.67,-27.102,128.28,-38.212,129.02C-39.202,129.09,-40.246,129.12,-41.334,129.12ZM-59.259,122.42C-51.909,123.65,-44.171,124.54,-38.535,124.16C-28.979,123.52,-22.176,119.85,-18.315,113.23C-12.457,103.2,-10.494,80.78,-34.404,30.98C-55.6,-13.17,-58.509,-48.23,-43.05,-73.25C-28.042,-97.54,3.932,-111.97,52.157,-116.29C14.191,-118.05,-23.943,-105.29,-45.619,-81.89C-63.753,-62.31,-68.404,-37.64,-59.069,-10.53C-52.496,8.55,-45.31,25.12,-38.971,39.75C-23.499,75.43,-13.278,99,-32.531,114.17C-39.061,119.32,-49.576,121.54,-59.259,122.42ZM110.595,-151.25C110.595,-151.25,110.595,-126.04,110.595,-126.04C110.595,-125.58,110.417,-125.15,110.101,-124.83C110.101,-124.83,89.516,-103.74,89.516,-103.74C89.147,-103.36,88.968,-102.83,89.036,-102.31C89.534,-98.48,91.363,-81.07,88.922,-46.62C86.387,-10.85,24.408,5.44,55.69,69.12C86.971,132.79,50.315,202.19,-26.467,203.33C-95.239,204.35,-87.168,133.36,-84.736,118.54C-84.531,117.29,-83.11,116.68,-82.059,117.39C-73.424,123.16,-38.803,144.73,-12.563,121.83C15.96,96.93,-5.041,70.09,-34.052,2.83C-79.963,-103.62,57.986,-114.87,77.322,-116.98C91.031,-118.48,102.027,-139.7,107.265,-151.93C108.009,-153.67,110.595,-153.14,110.595,-151.25Z" /></g></g></g></g></g></g><g visibility="hidden" id="i43"><animate repeatCount="indefinite" begin="0s" calcMode="discrete" dur="8s" values="hidden; visible; visible" keyTimes="0; 0.51; 1" attributeName="visibility" /><g transform="translate(302.316,606.396)"><g transform="scale(0,0)"><animateTransform repeatCount="indefinite" type="scale" attributeName="transform" dur="8s" begin="0s" calcMode="spline" values="0 0; 0 0; 0.411 0.411; 0.308 0.308; 0.348 0.348; 0.348 0.348; 0 0; 0 0" keyTimes="0; 0.51; 0.53; 0.56; 0.615; 0.965; 0.995; 1" keySplines="0 0 1 1; 0.333 0 0.667 1; 0.333 0 0.667 1; 0.333 0 0.39 1; 0.167 0 0.833 1; 0.167 0 0.833 1; 0 0 1 1" fill="freeze" /><g transform="translate(-658.764,-1708.085)"><g id="i44" transform="matrix(1,0,0,1,658.764,1708.085)"><path d="" /></g><g id="i45" transform="matrix(1,0,0,1,661.042,1704.985)"><path fill="#364a97" d="M72.268,3.105C72.268,44.275,38.892,77.645,-2.278,77.645C-43.449,77.645,-76.823,44.275,-76.823,3.105C-76.823,-38.065,-43.449,-71.445,-2.278,-71.445C38.892,-71.445,72.268,-38.065,72.268,3.105ZM-3.945,-46.005C5.722,-47.335,14.055,-23.335,13.388,-15.665C12.722,-8.005,31.388,-16.665,40.388,-10.005C49.389,-3.335,46.722,31.335,40.388,33.665C34.055,35.995,8.511,36.335,0.284,31.995C-7.944,27.665,-13.5,28.475,-13.5,28.475C-13.5,28.475,-17.737,-7.785,-17.737,-7.785C-17.737,-7.785,-12.612,-9.335,-6.945,-14.335C-1.278,-19.335,-3.945,-46.005,-3.945,-46.005ZM-46.945,38.995C-44.612,40.995,-22.278,46.835,-20.945,33.495C-19.612,20.165,-24.528,-7.665,-24.528,-7.665C-24.528,-7.665,-40.601,-8.595,-46.945,-5.345C-49.39,-4.095,-49.278,36.995,-46.945,38.995Z" /></g></g></g></g></g><g visibility="hidden" id="i46"><animate repeatCount="indefinite" begin="0s" calcMode="discrete" dur="8s" values="hidden; visible; visible" keyTimes="0; 0.125; 1" attributeName="visibility" /><g transform="translate(775.957,609.594)"><g transform="scale(0,0)"><animateTransform repeatCount="indefinite" type="scale" attributeName="transform" dur="8s" begin="0s" calcMode="spline" values="0 0; 0 0; 0.33 0.33; 0.248 0.248; 0.28 0.28; 0.28 0.28; 0 0; 0 0" keyTimes="0; 0.125; 0.145; 0.175; 0.23; 0.965; 0.995; 1" keySplines="0 0 1 1; 0.333 0 0.667 1; 0.333 0 0.667 1; 0.333 0 0.39 1; 0.333 0 0.833 1; 0.167 0 0.833 1; 0 0 1 1" fill="freeze" /><g transform="translate(-2219.345,-648.765)"><g clip-path="url(#i8)" id="i47"><g id="i48"><path d="M2570.37,648.765C2570.37,842.63,2413.21,999.79,2219.35,999.79C2025.48,999.79,1868.32,842.63,1868.32,648.765C1868.32,454.898,2025.48,297.739,2219.35,297.739C2413.21,297.739,2570.37,454.898,2570.37,648.765Z" /></g><g id="i49" transform="matrix(1,0,0,1,2219.345,648.765)"><path fill="#f8fdff" d="M351.025,0C351.025,193.865,193.865,351.026,0.005,351.026C-193.865,351.026,-351.025,193.865,-351.025,0C-351.025,-193.867,-193.865,-351.026,0.005,-351.026C193.865,-351.026,351.025,-193.867,351.025,0Z" /></g><g id="i50" transform="matrix(1,0,0,1,2115.11,633.537)"><path fill="#1b2580" d="M46.21,29.755C46.21,29.755,33.92,41.2,18.56,33.802C3.19,26.404,-52.9,-13.238,-51.2,-22.912C-49.49,-32.586,-23.28,-34.901,-23.28,-34.901C-23.28,-34.901,57.93,29.299,46.21,29.755ZM31.43,28.262C41.95,26.581,7.34,-0.949,-3.98,-12.329C-15.3,-23.71,-22.6,-29.021,-22.6,-29.021C-22.6,-29.021,-41.95,-26.666,-41.95,-22.912C-41.95,-19.158,13.54,25.15,13.54,25.15C13.54,25.15,26.68,29.021,31.43,28.262Z" /></g><g id="i51" transform="matrix(1,0,0,1,2173.49,690.113)"><path fill="#f68737" d="M40.97,21.206C40.97,21.206,20.77,-12.936,11.1,-22.041C1.42,-31.146,-31.24,-48.795,-36.19,-48.903C-44.67,-49.088,-12.467,-25.534,-12.467,-25.534C-12.467,-25.534,-21.399,-18.571,-22.718,-19.685C-45.062,-38.56,-9.688,15.931,-7.68,21.206C-3.13,33.156,44.67,49.089,44.67,49.089C44.67,49.089,40.97,21.206,40.97,21.206Z" /></g><g id="i52" transform="matrix(1,0,0,1,2218.16,752.562)"><path fill="#959b30" d="M33.86,-5.406C33.86,-5.406,0.86,-54.913,-6.54,-51.499C-13.94,-48.085,-33.86,-5.406,-33.86,-5.406C-33.86,-5.406,24.19,54.912,24.19,43.532C24.19,32.15,33.86,-5.406,33.86,-5.406Z" /></g><g id="i53" transform="matrix(1,0,0,1,2301.18,740.906)"><path fill="#f68737" d="M42.11,-258.885C42.11,-258.885,76.25,-138.247,99.01,-88.171C121.78,-38.096,-18.309,-69.154,-5.179,-87.326C11.501,-110.412,19.35,-123.505,19.35,-133.694C19.35,-151.903,-2.68,-229.293,-2.68,-229.293C-2.68,-229.293,42.11,-258.885,42.11,-258.885ZM19.24,-131.664C19.24,-131.664,19.24,-131.664,19.24,-131.664C19.24,-131.664,19.24,-131.664,19.24,-131.664C19.24,-131.664,19.24,-131.664,19.24,-131.664C19.31,-132.354,19.35,-133.031,19.35,-133.694C19.35,-151.903,-2.68,-229.293,-2.68,-229.293C-2.68,-229.293,42.11,-258.885,42.11,-258.885C42.11,-258.885,50.04,-230.877,60.8,-196.253C46.89,-154.695,33.86,-140.527,19.24,-131.664Z" /></g><g id="i54" transform="matrix(1,0,0,1,2342.67,699.156)"><path fill="#b9c741" d="M61.32,-110.154C60.75,-119.522,-60.84,-71.46,-61.6,-62.355C-62.35,-53.251,-69.53,-19.287,-79.6,-0.989C-81.72,2.863,-173.17,114.451,-180.357,304.786C-146.475,320.663,-3.527,299.273,85.903,243.091C89.33,187.666,85.464,87.762,83.08,69.756C76.48,19.993,62.83,-85.117,61.32,-110.154Z" /></g><g id="i55" transform="matrix(1,0,0,1,2330.24,545.631)"><path d="" /></g><g id="i56" transform="matrix(1,0,0,1,2170.475,749.881)"><path fill="#f68737" d="M47.215,-208.796C56.675,-165.898,86.305,-135.39,120.555,-143.781C145.665,-149.933,184.275,-185.061,171.895,-236.309C161.585,-279.01,126.845,-307.823,92.415,-300.225C57.985,-292.628,37.745,-251.693,47.215,-208.796ZM-25.335,-9.074C-32.028,-27.58,-38.208,-41.858,-48.235,-48.987C-79.205,-71.01,-104.655,-120.264,-93.435,-122.206C-82.215,-124.147,-36.805,-82.542,-36.805,-82.542C-36.805,-82.542,-48.625,-98.716,-45.805,-100.066C-42.985,-101.416,-20.105,-84.811,-16.555,-65.197C-15.068,-56.956,-6.449,-36.265,5.781,-12.899C22.662,19.353,-17.33,13.06,-25.335,-9.074Z" /></g><g id="i57" transform="matrix(1,0,0,1,2281.41,829.856)"><path fill="#959b30" d="M98.74,-144.737C153.81,-131.028,128.62,35.281,82.19,133.914C35.76,232.544,-51.49,147.336,-84.11,123.175C-96.5,114,-104.66,104.703,-110.03,96.695C-99.56,37.837,-81.6,-25.3,-59.43,-69.733C-7.46,-8.725,17.26,-165.022,98.74,-144.737ZM82.19,-156.676C151.45,-149.734,113.52,23.141,62.88,92.944C12.24,162.746,-59.83,95.22,-82.6,55.007C-105.36,14.795,-151.45,-53.58,-151.45,-98.065C-151.45,-106.411,-134.38,-108.118,-113.89,-106.6C-94.6,-105.172,-7.46,14.795,-7.46,14.795C-7.46,14.795,21.64,-162.746,82.19,-156.676Z" /></g><g id="i58" transform="matrix(1,0,0,1,2303.625,537.046)"><path fill="#080c3e" d="M-107.085,-85.412C-149.435,-67.586,-124.065,-11.193,-101.735,-9.079C-79.415,-6.967,-53.595,-48.133,-40.335,-49.528C-27.085,-50.924,-43.015,-26.503,-31.215,-20.921C-19.405,-15.339,-8.395,-6.067,-4.955,8.586C-1.525,23.238,7.915,55.132,-7.495,56.527C-22.895,57.923,-39.645,41.177,-50.105,40.479C-60.575,39.782,-69.665,42.808,-69.665,42.808C-69.665,42.808,-43.085,79.552,-23.565,81.645C-4.055,83.739,17.235,55.211,32.405,31.099C47.575,6.988,41.135,-9.079,41.135,-9.079C41.135,-9.079,56.645,8.384,66.415,6.988C76.185,5.593,51.765,-8.362,51.065,-49.528C50.365,-90.694,32.225,-112.324,9.895,-112.324C-12.425,-112.324,-9.635,-123.687,-43.735,-122.79C-74.465,-121.982,-97.155,-89.596,-107.085,-85.412ZM-7.279,-12.459C-7.918,-5.594,-5.867,0.674,-2.254,4.445C-2.173,4.53,-2.091,4.613,-2.008,4.695C-1.696,5.005,-1.373,5.297,-1.04,5.569C-1.039,5.57,-1.039,5.57,-1.038,5.571C-1.036,5.572,-1.035,5.574,-1.033,5.575C-1.009,5.595,-0.984,5.615,-0.959,5.635C0.408,6.734,1.947,7.507,3.61,7.879C4.036,7.974,4.469,8.043,4.911,8.084C5.066,8.098,5.221,8.11,5.376,8.117C12.912,8.477,19.701,0.552,20.671,-9.863C21.661,-20.492,16.201,-29.689,8.481,-30.406C0.761,-31.123,-6.289,-23.088,-7.279,-12.459Z" /></g></g></g></g></g></g><g visibility="hidden" id="i59"><animate repeatCount="indefinite" begin="0s" calcMode="discrete" dur="8s" values="hidden; visible; visible" keyTimes="0; 0.205; 1" attributeName="visibility" /><g transform="translate(298.352,342.502)"><g transform="scale(0,0)"><animateTransform repeatCount="indefinite" type="scale" attributeName="transform" dur="8s" begin="0s" calcMode="spline" values="0 0; 0 0; 0.33 0.33; 0.248 0.248; 0.28 0.28; 0.28 0.28; 0 0; 0 0" keyTimes="0; 0.205; 0.225; 0.255; 0.31; 0.965; 0.995; 1" keySplines="0 0 1 1; 0.333 0 0.667 1; 0.333 0 0.667 1; 0.333 0 0.39 1; 0.333 0 0.833 1; 0.167 0 0.833 1; 0 0 1 1" fill="freeze" /><g transform="translate(-774.33,-680.579)"><g clip-path="url(#i9)" id="i60"><g id="i61"><path d="M1154.33,680.577C1154.33,890.445,984.196,1060.58,774.328,1060.58C564.46,1060.58,394.328,890.445,394.328,680.577C394.328,470.709,564.46,300.577,774.328,300.577C984.196,300.577,1154.33,470.709,1154.33,680.577Z" /></g><g id="i62" transform="matrix(1,0,0,1,774.33,680.579)"><path fill="#f8fdff" d="M380,-0.002C380,209.866,209.866,380.001,-0.002,380.001C-209.87,380.001,-380.002,209.866,-380.002,-0.002C-380.002,-209.87,-209.87,-380.001,-0.002,-380.001C209.866,-380.001,380,-209.87,380,-0.002Z" /></g><g id="i63" transform="matrix(1,0,0,1,709.03,701.615)"><path fill="#dd251f" d="M-110.31,-80.988C-60.042,-44.683,47.941,-28.857,82.384,-26.995C116.826,-25.133,63.265,69.817,63.265,69.817C63.265,69.817,-29.323,80.988,-73.075,69.817C-116.826,58.647,-110.31,-80.988,-110.31,-80.988Z" /></g><g id="i64" transform="matrix(1,0,0,1,789.057,560.873)"><path fill="#433453" d="M-12.526,-97.297C18.626,-126.875,75.892,-89.168,81.293,-64.099C95.183,0.388,101.33,67.069,84.428,93.267C67.526,119.464,-71.684,126.875,-81.157,126.647C-93.899,126.34,-101.329,83.15,-76.399,54.84C-51.469,26.53,-40.369,-24.499,-35.801,-50.645C-30.308,-82.086,-17.514,-92.561,-12.526,-97.297Z" /></g><g id="i65" transform="matrix(1,0,0,1,878.489,561.108)"><path fill="#433453" d="M8.67,77.106C8.67,77.106,8.462,77.091,8.462,77.091C7.642,76.977,7.068,76.221,7.183,75.4C14.487,22.7,4.719,-37.594,-17.124,-74.633C-17.545,-75.346,-17.307,-76.266,-16.594,-76.687C-15.881,-77.106,-14.961,-76.87,-14.54,-76.156C7.621,-38.578,17.545,22.492,10.153,75.811C10.05,76.562,9.407,77.106,8.67,77.106Z" /></g><g id="i66" transform="matrix(1,0,0,1,876.081,538.876)"><path fill="#433453" d="M20.077,64.838C20.077,64.838,19.982,64.834,19.982,64.834C19.156,64.783,18.527,64.071,18.579,63.244C21.561,15.519,-2.206,-44.291,-23.873,-61.991C-24.515,-62.515,-24.609,-63.461,-24.086,-64.102C-23.561,-64.744,-22.617,-64.838,-21.975,-64.315C0.232,-46.172,24.609,14.856,21.573,63.432C21.523,64.227,20.863,64.838,20.077,64.838Z" /></g><g id="i67" transform="matrix(1,0,0,1,689.134,835.905)"><path fill="#84bfc5" d="M23.059,-183.835C12.449,-108.691,2.21,32.804,-28.51,67.247C-59.229,101.69,-76.328,183.835,-76.328,183.835C-76.328,183.835,22.949,129.616,63.581,-3.679C76.328,-45.494,45.223,-143.134,37.68,-152.443C30.136,-161.751,23.059,-183.835,23.059,-183.835Z" /></g><g id="i68" transform="matrix(1,0,0,1,894.295,904.083)"><path fill="#f68737" d="M33.029,-45.614C26.894,-38.164,10.455,-2.066,2.119,-2.066C-26.273,-2.066,-28.366,9.067,-43.769,17.222C-63.55,27.694,-59.363,43.752,-57.966,44.682C-56.57,45.614,-14.478,38.24,-0.346,29.034C11.387,21.39,19.721,17.222,25.443,8.843C31.167,0.465,63.55,-23.739,63.55,-23.739C63.55,-23.739,33.029,-45.614,33.029,-45.614Z" /></g><g id="i69" transform="matrix(1,0,0,1,937.097,764.284)"><path fill="#9ad9e1" d="M-38.497,-128.737C-9.773,-111.386,-4.498,-95.25,23.739,-46.224C51.975,2.803,56.94,20.49,68.113,38.177C79.283,55.864,83.003,76.343,59.422,98.685C36.897,120.025,26.38,128.737,14.017,125.4C5.689,123.152,-0.891,98.892,-12.469,103.288C-24.047,107.683,-3.568,73.551,6.983,63.932C12.729,58.693,15.05,59.093,13.188,56.703C11.327,54.313,-24.047,27.937,-53.525,-10.229C-83.003,-48.395,-38.497,-128.737,-38.497,-128.737Z" /></g><g id="i70" transform="matrix(1,0,0,1,975.296,827.638)"><path fill="#84bfc5" d="M13.467,-8.731C-0.511,-15.007,-17.976,-14.111,-30.803,-11.68C-27.505,-8.908,-25.425,-7.182,-25.01,-6.65C-23.149,-4.26,-25.47,-4.66,-31.216,0.579C-33.253,2.435,-35.659,5.206,-38.134,8.436C-28.359,3.255,-17.65,-1.4,-8.875,-2.68C13.467,-5.938,14.862,0.113,26.494,7.56C38.134,15.007,36.274,1.508,13.467,-8.731Z" /></g><g id="i71" transform="matrix(1,0,0,1,890.789,710.995)"><path fill="#84bfc5" d="M36.694,-49.474C29.001,-59.985,20.807,-67.596,7.811,-75.447C7.811,-75.447,-36.694,4.894,-7.216,43.061C2.142,55.177,12.091,66.098,21.376,75.447C21.979,49.732,24.683,-7.748,36.694,-49.474Z" /></g><g id="i72" transform="matrix(1,0,0,1,811.596,753.049)"><path fill="#9ad9e1" d="M-22.302,-144.057C-60.779,-135.369,-91.83,-124.02,-99.773,-101.702C-103.628,-90.87,-81.311,87.887,-58.969,107.746C-15.85,146.075,55.22,110.229,55.22,110.229C55.22,110.229,87.491,29.862,100.294,-105.047C103.627,-117.218,26.672,-141.111,14.26,-143.593C1.849,-146.075,-22.302,-144.057,-22.302,-144.057Z" /></g><g id="i73" transform="matrix(1,0,0,1,806.774,575.945)"><path fill="#f68737" d="M-0.001,67.955C-13.056,67.955,-23.738,57.273,-23.738,44.217C-23.738,44.217,-23.738,-44.218,-23.738,-44.218C-23.738,-57.273,-13.056,-67.955,-0.001,-67.955C13.055,-67.955,23.738,-57.273,23.738,-44.218C23.738,-44.218,23.738,44.217,23.738,44.217C23.738,57.273,13.055,67.955,-0.001,67.955Z" /></g><g id="i74" transform="matrix(1,0,0,1,806.774,561.774)"><path fill="#e96b1c" d="M-0.001,-53.784C-13.056,-53.784,-23.738,-43.102,-23.738,-30.047C-23.738,-30.047,-23.738,9.989,-23.738,9.989C-8.36,32.048,9.626,45.679,23.738,53.784C23.738,53.784,23.738,-30.047,23.738,-30.047C23.738,-43.102,13.055,-53.784,-0.001,-53.784Z" /></g><g id="i75" transform="matrix(1,0,0,1,825.557,529.643)"><path fill="#f68737" d="M41.656,-9.771C49.076,21.862,36.442,51.88,13.436,57.277C-9.57,62.673,-34.236,41.405,-41.656,9.772C-49.076,-21.86,-36.441,-51.879,-13.435,-57.275C9.571,-62.672,34.236,-41.403,41.656,-9.771Z" /></g><g id="i76" transform="matrix(1,0,0,1,805.659,922.555)"><path fill="#f68737" d="M-20.906,45.456C-20.906,45.456,-58.672,64.57,-58.672,64.57C-58.672,64.57,-20.906,45.456,-20.906,45.456Z" /></g><g id="i77" transform="matrix(1,0,0,1,773.41,1028.671)"><path fill="#e96b1c" d="M33.363,-31.91C33.363,-31.91,-16.382,-20.396,-16.382,-20.396C-16.382,-20.396,30.106,95.259,33.363,-31.91Z" /></g><g id="i78" transform="matrix(1,0,0,1,815.099,922.7)"><path fill="#9ad9e1" d="M-90.382,-137.88C-78.076,-65.565,-85.464,-55.791,-102.714,4.248C-119.964,64.287,-120.193,223.46,-120.193,223.46C-120.193,223.46,-73.418,243.01,17.104,234.63C107.625,226.25,120.193,216.48,120.193,216.48C120.193,216.48,109.901,61.494,96.895,15.418C83.89,-30.659,63.551,-62.17,62.551,-91.793C61.55,-121.416,-90.382,-137.88,-90.382,-137.88Z" /></g><g id="i79" transform="matrix(1,0,0,1,602.159,492.316)"><path fill="#433453" d="M-41.09,68.786C-55.794,48.133,-70.562,-8.071,-57.435,-13.814C-44.307,-19.558,-47.589,-28.582,-34.461,-45.402C-21.333,-62.222,31.588,-68.787,47.178,-40.48C62.767,-12.174,69.45,-9.3,70.006,5.878C70.562,21.057,33.229,58.799,33.229,58.799C33.229,58.799,-41.09,68.786,-41.09,68.786Z" /></g><g id="i80" transform="matrix(1,0,0,1,878.138,920.262)"><path fill="#f68737" d="M29.688,-29.435C25.403,-23.01,21.304,-18.244,18.276,-18.244C-10.116,-18.244,-12.209,-7.111,-27.612,1.044C-47.393,11.516,-43.206,27.573,-41.809,28.503C-40.413,29.435,1.678,22.062,15.81,12.856C27.543,5.212,35.878,1.043,41.6,-7.336C42.694,-8.936,44.765,-11.117,47.393,-13.594C41.023,-18.313,35.102,-23.631,29.688,-29.435Z" /></g><g id="i81" transform="matrix(1,0,0,1,591.273,742.574)"><path fill="#f68737" d="M-20.48,-254.133C-20.48,-254.133,-29.789,-139.531,-50.268,-127.015C-70.748,-114.499,-109.845,-67.955,-104.259,32.581C-98.674,133.117,-91.227,176.482,-83.78,215.307C-76.333,254.132,63.3,230.474,78.195,215.307C93.089,200.141,109.845,61.442,78.195,-8.841C46.544,-79.125,11.171,-118.846,7.447,-136.221C3.723,-153.597,27.927,-223.412,27.927,-223.412C27.927,-223.412,-20.48,-254.133,-20.48,-254.133Z" /></g><g id="i82" transform="matrix(1,0,0,1,591.858,545.518)"><path fill="#e96b1c" d="M6.481,57.076C6.015,35.163,27.342,-26.356,27.342,-26.356C27.342,-26.356,-21.065,-57.076,-21.065,-57.076C-21.065,-57.076,-23.094,-32.094,-27.342,-4.185C-21.065,34.616,-8.498,49.51,6.481,57.076Z" /></g><g id="i83" transform="matrix(1,0,0,1,615.286,524.886)"><path fill="#f68737" d="M43.887,-4.252C48.551,29.413,36.956,55.768,12.718,59.126C-11.52,62.484,-39.223,41.572,-43.887,7.908C-48.551,-25.756,-32.683,-55.767,-8.445,-59.126C15.793,-62.484,39.224,-37.916,43.887,-4.252Z" /></g><g id="i84" transform="matrix(1,0,0,1,929.981,679.685)"><path fill="#f68737" d="M-5.058,-30.199C9.196,-21.34,20.058,0.83,13.82,18.827C7.582,36.824,-1.063,13.731,-10.561,0.519C-20.058,-12.692,-15.719,-36.824,-5.058,-30.199Z" /></g><g id="i85" transform="matrix(1,0,0,1,634.707,969.539)"><path fill="#364a97" d="M36.692,-79.164C26.919,38.391,-84.409,151.271,-84.409,151.271C-84.409,151.271,-70.19,-91.041,-70.19,-91.041C-70.19,-91.041,36.692,-79.164,36.692,-79.164Z" /></g><g id="i86" transform="matrix(1,0,0,1,611.552,969.539)"><path fill="#233384" d="M59.847,-79.164C59.847,-79.164,-47.035,-91.041,-47.035,-91.041C-47.035,-91.041,-61.253,151.271,-61.253,151.271C-61.253,151.271,23.566,199.341,61.254,69.461C58.008,12.422,56.684,-41.111,59.847,-79.164Z" /></g><g id="i87" transform="matrix(1,0,0,1,538.056,982.119)"><path fill="#364a97" d="M129.155,-52.379C78.889,117.961,-69.561,182.681,-62.134,94.231C-53.757,-5.551,-39.669,-78.462,-39.669,-78.462C-39.669,-78.462,129.155,-52.379,129.155,-52.379Z" /></g><g id="i88" transform="matrix(1,0,0,1,586.308,800.33)"><path fill="#fa4d4d" d="M83.16,-66.597C66.161,-104.345,48.095,-133.265,34.429,-154.654C28.4,-155.499,20.76,-156.259,12.086,-156.43C-2.32,-156.715,-27.405,-175.199,-42.363,-187.341C-43.316,-186.258,-44.296,-185.387,-45.303,-184.771C-65.783,-172.255,-104.88,-125.71,-99.294,-25.174C-93.709,75.362,-114.809,109.69,-107.362,148.515C-99.915,187.34,68.265,172.718,83.16,157.551C98.054,142.385,114.81,3.686,83.16,-66.597Z" /></g><g id="i89" transform="matrix(1,0,0,1,576.833,626.76)"><path fill="#fa4d4d" d="M-38.311,-35.301C-38.311,-35.301,-53.429,4.573,-53.429,4.573C-53.429,4.573,42.367,43.514,42.367,43.514C42.367,43.514,53.429,34.018,53.429,34.018C53.429,34.018,38.643,12.485,42.367,-0.547C46.09,-13.579,50.434,-17.306,42.367,-20.407C34.299,-23.509,5.608,-28.474,-12.317,-35.301C-30.243,-42.127,-35.196,-43.514,-38.311,-35.301Z" /></g><g id="i90" transform="matrix(1,0,0,1,588.631,760.944)"><path fill="#dd251f" d="M98.825,91.766C96.921,61.839,90.875,-4.924,80.838,-27.212C77.139,-35.426,73.389,-43.196,69.646,-50.586C69.646,-50.586,57.564,-55.831,57.564,-55.831C57.564,-55.831,-9.46,-109.34,-53.211,-99.358C-96.963,-89.376,-98.825,73.609,-73.691,91.475C-48.557,109.34,-38.332,61.576,54.617,76.402C69.754,78.816,86.43,92.946,98.825,91.766Z" /></g><g id="i91" transform="matrix(1,0,0,1,945.6,762.961)"><path fill="#364a97" d="M-101.479,137.829C-99.429,139.338,-96.518,138.896,-95.009,136.847C-95.009,136.847,102.46,-131.36,102.46,-131.36C103.97,-133.409,103.53,-136.32,101.48,-137.829C99.43,-139.338,96.52,-138.896,95.01,-136.846C95.01,-136.846,-102.461,131.36,-102.461,131.36C-103.97,133.409,-103.528,136.321,-101.479,137.829Z" /></g><g id="i92" transform="matrix(1,0,0,1,1042.94,625.577)"><path fill="#233384" d="M16.46,9.971C16.46,9.971,-16.46,9.971,-16.46,9.971C-21.94,9.971,-26.43,5.483,-26.43,0C-26.43,-5.483,-21.94,-9.971,-16.46,-9.971C-16.46,-9.971,16.46,-9.971,16.46,-9.971C21.95,-9.971,26.43,-5.483,26.43,0C26.43,5.483,21.95,9.971,16.46,9.971Z" /></g><g id="i93" transform="matrix(1,0,0,1,1050.685,583.297)"><path fill="#433453" d="M-1.005,-46.157C-1.005,-46.157,30.705,-40.807,30.705,-40.807C36.695,-39.796,40.115,-33.393,37.615,-27.854C37.615,-27.854,6.885,40.342,6.885,40.342C4.905,44.726,-0.095,46.872,-4.635,45.285C-4.635,45.285,-32.555,35.524,-32.555,35.524C-37.605,33.757,-40.115,28.091,-38.035,23.161C-38.035,23.161,-11.095,-40.62,-11.095,-40.62C-9.415,-44.579,-5.245,-46.872,-1.005,-46.157Z" /></g><g id="i94" transform="matrix(1,0,0,1,1048.585,583.268)"><path fill="#364a97" d="M-0.835,-40.665C-0.835,-40.665,25.405,-35.952,25.405,-35.952C30.365,-35.062,33.185,-29.419,31.125,-24.539C31.125,-24.539,5.695,35.541,5.695,35.541C4.055,39.403,-0.075,41.294,-3.835,39.896C-3.835,39.896,-26.935,31.296,-26.935,31.296C-31.115,29.74,-33.185,24.749,-31.465,20.405C-31.465,20.405,-9.175,-35.788,-9.175,-35.788C-7.795,-39.276,-4.345,-41.294,-0.835,-40.665Z" /></g><g id="i95" transform="matrix(1,0,0,1,1010.005,525.688)"><path fill="#ffcc16" d="M17.555,10.77C17.325,10.77,17.085,10.715,16.865,10.599C16.865,10.599,-18.256,-7.728,-18.256,-7.728C-18.99,-8.11,-19.275,-9.017,-18.892,-9.751C-18.508,-10.486,-17.602,-10.77,-16.867,-10.387C-16.867,-10.387,18.255,7.94,18.255,7.94C18.985,8.323,19.275,9.229,18.885,9.963C18.625,10.476,18.095,10.77,17.555,10.77Z" /></g><g id="i96" transform="matrix(1,0,0,1,1021.69,510.616)"><path fill="#ffcc16" d="M12.38,18.46C11.92,18.46,11.47,18.249,11.17,17.849C11.17,17.849,-13.59,-15.875,-13.59,-15.875C-14.08,-16.542,-13.94,-17.48,-13.27,-17.971C-12.6,-18.46,-11.67,-18.318,-11.17,-17.649C-11.17,-17.649,13.59,16.073,13.59,16.073C14.08,16.741,13.94,17.68,13.27,18.17C13,18.366,12.69,18.46,12.38,18.46Z" /></g><g id="i97" transform="matrix(1,0,0,1,1003.579,565.239)"><path fill="#ffcc16" d="M-21.471,8.446C-22.106,8.446,-22.696,8.04,-22.899,7.402C-23.151,6.613,-22.716,5.769,-21.927,5.517C-21.927,5.517,21.011,-8.19,21.011,-8.19C21.801,-8.446,22.641,-8.006,22.901,-7.218C23.151,-6.429,22.711,-5.584,21.921,-5.332C21.921,-5.332,-21.015,8.375,-21.015,8.375C-21.166,8.423,-21.32,8.446,-21.471,8.446Z" /></g><g id="i98" transform="matrix(1,0,0,1,1000.757,543.487)"><path fill="#ffcc16" d="M26.493,5.77C26.493,5.77,26.283,5.754,26.283,5.754C-6.42,1.078,-24.313,-1.754,-26.902,-2.665C-27.683,-2.939,-28.093,-3.796,-27.819,-4.578C-27.543,-5.359,-26.69,-5.77,-25.906,-5.495C-24.553,-5.018,-15.919,-3.31,26.703,2.784C27.523,2.901,28.093,3.661,27.983,4.482C27.873,5.229,27.233,5.77,26.493,5.77Z" /></g><g id="i99" transform="matrix(1,0,0,1,1047.97,584.601)"><path fill="#445ca8" d="M-30.85,19.072C-32.57,23.416,-30.5,28.407,-26.32,29.963C-26.32,29.963,-23.52,31.005,-23.52,31.005C-23.52,31.005,16.21,10.804,16.21,10.804C16.21,10.804,31.74,-25.872,31.74,-25.872C32.45,-27.569,32.57,-29.356,32.22,-31.005C32.22,-31.005,-28.65,13.522,-28.65,13.522C-28.65,13.522,-30.85,19.072,-30.85,19.072Z" /></g><g id="i100" transform="matrix(1,0,0,1,1043.235,613.817)"><path fill="#445ca8" d="M-17.705,2.192C-17.705,2.192,1.515,9.348,1.515,9.348C5.275,10.746,9.405,8.854,11.045,4.992C11.045,4.992,17.705,-10.745,17.705,-10.745C6.295,-6.81,-8.825,-1.162,-17.705,2.192Z" /></g><g id="i101" transform="matrix(1,0,0,1,915.001,772.405)"><path fill="#f68737" d="M-60.565,3.991C-60.565,3.991,-7.505,1.567,-7.505,1.567C-7.505,1.567,19.634,-32.165,30.601,-25.294C41.569,-18.424,60.565,-30.663,60.45,-18.424C60.335,-6.184,44.934,25.637,26.525,28.901C8.116,32.165,-33.995,28.901,-33.995,28.901C-33.995,28.901,-60.565,3.991,-60.565,3.991Z" /></g><g id="i102" transform="matrix(1,0,0,1,698.773,747.911)"><path fill="#fa4d4d" d="M-147.931,-95.841C-116.849,-93.66,-11.083,-0.745,37.012,33.957C103.09,23.205,182.234,24.021,182.234,24.021C182.234,24.021,198.682,55.026,197.641,57.474C196.601,59.921,90.428,96.778,27.702,94.192C-35.025,91.606,-63.942,71.92,-111.809,66.208C-142.979,62.489,-158.134,75.424,-175.369,57.474C-192.604,39.523,-198.682,-52.601,-189.264,-71.177C-179.845,-89.752,-161.267,-96.777,-147.931,-95.841Z" /></g><g id="i103" transform="matrix(1,0,0,1,608.107,505.854)"><path fill="#433453" d="M-47.038,55.249C-30.596,47.125,-38.766,31.332,-37.331,20.862C-35.897,10.391,-40.469,2.004,-36.542,2.71C-32.614,3.416,-33.496,42.904,-28.543,42.646C-23.589,42.39,-25.43,12.851,-20.202,12.031C-14.974,11.211,-12.923,3.859,-17.025,-9.08C-21.128,-22.019,-17.845,-33.506,-6.769,-23.25C4.307,-12.994,28.922,10.801,43.281,7.519C57.639,4.238,56.819,-10.531,55.588,-12.172C54.357,-13.813,17.435,-55.249,17.435,-55.249C17.435,-55.249,-55.588,-13.404,-55.588,-13.404C-55.588,-13.404,-57.639,24.75,-57.639,24.75C-57.639,24.75,-47.038,55.249,-47.038,55.249Z" /></g><g id="i104" transform="matrix(1,0,0,1,565.176,525.42)"><path fill="#f68737" d="M9.002,-9.114C9.986,0.806,10.317,15.849,11.181,18.009C4.675,20.662,-3.652,15.331,-7.417,6.1C-11.182,-3.131,-10.833,-15.242,-4.246,-17.688C-0.144,-19.211,7.856,-20.663,9.002,-9.114Z" /></g><g id="i48" transform="matrix(1,0,0,1,789.293,565.085)"><path fill="#433453" d="M73.915,-71.057C63.559,-37.546,5.845,-37.081,3.052,-27.772C0.26,-18.463,-0.426,17.7,-8.873,40.727C-22.371,77.522,-28.427,89.675,-47.216,95.261C-66.005,100.846,-73.915,69.716,-73.915,69.716C-73.915,69.716,-40.235,25.288,-38.373,24.358C-36.511,23.427,-18.785,-90.141,-18.785,-90.141C-18.785,-90.141,26.324,-98.417,28.651,-99.632C30.978,-100.847,63.559,-86.418,63.559,-86.418C63.559,-86.418,73.915,-71.057,73.915,-71.057Z" /></g></g></g></g></g></g><g visibility="hidden" id="i105"><animate repeatCount="indefinite" begin="0s" calcMode="discrete" dur="8s" values="hidden; visible; visible" keyTimes="0; 0.56; 1" attributeName="visibility" /><g transform="translate(369.528,263.899)"><g transform="scale(0,0)"><animateTransform repeatCount="indefinite" type="scale" attributeName="transform" dur="8s" begin="0s" calcMode="spline" values="0 0; 0 0; 0.411 0.411; 0.308 0.308; 0.348 0.348; 0.348 0.348; 0 0; 0 0" keyTimes="0; 0.56; 0.58; 0.61; 0.665; 0.965; 0.995; 1" keySplines="0 0 1 1; 0.333 0 0.667 1; 0.333 0 0.667 1; 0.333 0 0.39 1; 0.167 0 0.833 1; 0.167 0 0.833 1; 0 0 1 1" fill="freeze" /><g transform="translate(-3073.61,-930.094)"><g id="i36" transform="matrix(1,0,0,1,3073.885,929.813)"><path fill="#a2d8db" d="M110.398,-1.488C110.398,51.163,67.732,93.851,15.058,93.851C-37.569,93.851,-80.281,51.163,-80.281,-1.488C-80.281,-54.144,-37.569,-96.827,15.058,-96.827C67.732,-96.827,110.398,-54.144,110.398,-1.488ZM57.225,-44.719C57.225,-33.674,48.275,-24.719,37.225,-24.719C26.185,-24.719,17.225,-33.674,17.225,-44.719C17.225,-55.765,26.185,-64.719,37.225,-64.719C48.275,-64.719,57.225,-55.765,57.225,-44.719ZM57.225,45.281C57.225,56.326,48.275,65.282,37.225,65.282C26.185,65.282,17.225,56.326,17.225,45.281C17.225,34.235,26.185,25.281,37.225,25.281C48.275,25.281,57.225,34.235,57.225,45.281ZM-17.775,1.808C-17.775,12.854,-26.725,21.809,-37.775,21.809C-48.815,21.809,-57.775,12.854,-57.775,1.808C-57.775,-9.237,-48.815,-18.192,-37.775,-18.192C-26.725,-18.192,-17.775,-9.237,-17.775,1.808ZM37.225,49.282C36.545,49.282,35.855,49.109,35.225,48.743C35.225,48.743,-39.775,5.271,-39.775,5.271C-40.995,4.566,-41.755,3.275,-41.775,1.869C-41.795,0.465,-41.075,-0.848,-39.885,-1.59C-39.885,-1.59,35.115,-48.117,35.115,-48.117C36.995,-49.282,39.465,-48.706,40.625,-46.828C41.795,-44.951,41.215,-42.485,39.335,-41.32C39.335,-41.32,-29.995,1.693,-29.995,1.693C-29.995,1.693,39.235,41.821,39.235,41.821C41.145,42.929,41.795,45.376,40.685,47.287C39.945,48.568,38.605,49.282,37.225,49.282Z" /></g></g></g></g></g><g visibility="hidden" id="i106"><animate repeatCount="indefinite" begin="0s" calcMode="discrete" dur="8s" values="hidden; visible; visible" keyTimes="0; 0.29; 1" attributeName="visibility" /><g transform="translate(542.212,482.168)"><g transform="scale(0,0)"><animateTransform repeatCount="indefinite" type="scale" attributeName="transform" dur="8s" begin="0s" calcMode="spline" values="0 0; 0 0; -0.33 0.33; -0.247 0.248; -0.28 0.28; -0.28 0.28; 0 0; 0 0" keyTimes="0; 0.29; 0.31; 0.34; 0.395; 0.965; 0.995; 1" keySplines="0 0 1 1; 0.333 0 0.667 1; 0.333 0 0.667 1; 0.333 0 0.39 1; 0.333 0 0.833 1; 0.167 0 0.833 1; 0 0 1 1" fill="freeze" /><g transform="translate(-1380.97,-1243.673)"><g clip-path="url(#i10)" id="i107"><g id="i62" transform="matrix(1,0,0,1,774.33,680.579)"><path fill="#f8fdff" d="M944.286,548.031C944.286,737.289,790.86,890.716,601.603,890.716C412.346,890.716,258.921,737.289,258.921,548.031C258.921,358.773,412.345,205.35,601.603,205.35C790.861,205.35,944.286,358.773,944.286,548.031Z" /></g><g id="i108" transform="matrix(1,0,0,1,1203.22,1174.99)"><path fill="#1a1944" d="M126.02,-189.225C126.02,-189.225,49.27,127.66,49.27,127.66C49.27,127.66,264.84,107.14,282.31,62.31C297.31,23.84,283.82,-87.63,283.33,-113.99C283.25,-118.38,281.25,-122.32,278.65,-125.86C261.13,-149.71,258.17,-154.81,236.97,-177.826C210.37,-206.703,174.66,-232.54,126.02,-189.225ZM264.07,88.05C264.07,88.05,264.2,88.05,264.2,88.05C271.93,87.65,278.44,84.09,283.57,77.45C295.33,62.21,299.89,30.55,297.12,-16.65C294.42,-62.56,285.77,-106.63,283.18,-119.05C282.9,-120.37,281.61,-121.22,280.3,-120.94C278.98,-120.66,278.14,-119.37,278.41,-118.06C290.24,-61.25,303.83,43.22,279.71,74.47C275.44,80.01,270.28,82.86,263.95,83.18C262.61,83.25,261.57,84.39,261.64,85.74C261.71,87.04,262.78,88.05,264.07,88.05ZM144.26,-202.143C50.79,-150.47,107.79,24.31,-10.76,86.63C-43.61,103.89,-144.51,191.49,-78.4,307C-35.15,382.56,94.11,366.28,136.66,299.4C179.22,232.53,144.26,-202.143,144.26,-202.143ZM-104.48,195.45C-103.28,195.45,-102.23,194.56,-102.07,193.34C-101.99,192.76,-93.71,135.02,-36.81,98.81C-9.72,81.58,12.73,65.78,34.56,32.89C58.06,-2.51,78.69,-55.5,99.5,-133.89C99.85,-135.19,99.07,-136.52,97.77,-136.87C96.48,-137.21,95.14,-136.44,94.79,-135.14C51.76,26.95,15.38,59.83,-39.43,94.7C-70.14,114.25,-86.84,139.8,-95.44,157.8C-104.78,177.33,-106.82,192.08,-106.9,192.69C-107.08,194.03,-106.14,195.25,-104.81,195.43C-104.7,195.45,-104.59,195.45,-104.48,195.45ZM-102.44,150.19C-101.63,150.19,-100.84,149.79,-100.38,149.05C-87.19,128.17,-70.4,111.05,-50.48,98.17C-14.47,74.88,10.75,54.24,33.11,17.62C53.91,-16.45,72.92,-64.52,104.74,-146.55C105.22,-147.8,104.6,-149.21,103.35,-149.7C102.1,-150.19,100.68,-149.57,100.19,-148.31C36.59,15.67,23.85,44.3,-53.12,94.08C-73.64,107.35,-90.93,124.97,-104.5,146.45C-105.22,147.59,-104.88,149.09,-103.74,149.81C-103.34,150.07,-102.89,150.19,-102.44,150.19Z" /></g><g id="i109" transform="matrix(1,0,0,1,1480.515,1362.235)"><path fill="#f68737" d="M-159.615,-188.725C-159.615,-188.725,-134.535,-137.435,-134.535,-137.435C-134.535,-137.435,-226.855,-66.765,-237.115,-13.195C-247.375,40.385,-239.395,145.245,-239.395,145.245C-239.395,145.245,-111.735,202.235,-125.415,206.795C-139.095,211.355,-289.555,206.795,-298.665,195.395C-307.785,183.995,-312.345,112.195,-308.925,22.145C-305.505,-67.905,-284.995,-168.205,-261.055,-175.045C-237.115,-181.885,-168.725,-159.085,-159.615,-188.725ZM-136.265,-280.315C-136.265,-280.315,-90.465,-256.795,-97.895,-239.475C-105.315,-222.145,-111.505,-173.865,-110.265,-154.065C-109.035,-134.265,-130.075,-119.405,-144.925,-124.365C-159.775,-129.315,-163.495,-152.825,-163.495,-152.825C-163.495,-152.825,-168.445,-213.475,-136.265,-280.315ZM-127.695,-179.605C-103.755,-143.125,-41.065,-147.685,-19.415,-118.055C2.245,-88.415,45.156,68.772,45.156,68.772C45.156,68.772,95.715,-90.695,95.715,-90.695C95.715,-90.695,134.535,-97.215,121.925,-70.185C99.505,-22.095,91.145,133.055,66.825,155.095C39.785,179.605,12.875,159.655,-2.315,116.755C-17.005,75.245,-53.605,-14.325,-79.825,-48.525C-106.035,-82.715,-134.535,-137.435,-134.535,-137.435C-134.535,-137.435,-127.695,-179.605,-127.695,-179.605Z" /></g><g id="i110" transform="matrix(1,0,0,1,1341.99,1371.84)"><path fill="#7993c4" d="M-92.89,-184.65C-45.02,-128.8,48.44,-131.08,68.96,-137.92C89.48,-144.76,89.48,-144.76,89.48,-144.76C89.48,-144.76,105.44,-150.46,119.11,-134.5C132.79,-118.54,165.85,-18.24,171.54,4.56C177.24,27.36,184.128,58.274,184.128,58.274C184.128,58.274,161.91,94.32,161.91,123.96C161.91,153.59,172.29,153.85,172.29,153.85C172.29,153.85,141.91,147.04,135.07,128.8C128.23,110.56,66.68,-54.71,66.68,-54.71C66.68,-54.71,-103.15,-51.29,-103.15,-51.29C-103.15,-51.29,-100.87,135.64,-100.87,135.64C-100.87,135.64,-115.69,121.96,-136.21,135.64C-156.72,149.32,-163.56,181.23,-160.14,185.79C-156.72,190.35,-166.98,190.35,-166.98,186.93C-166.98,183.51,-186.36,100.31,-172.68,-36.47C-159,-173.25,-132.79,-188.07,-117.97,-189.21C-103.15,-190.35,-92.89,-184.65,-92.89,-184.65Z" /></g><g id="i111" transform="matrix(1,0,0,1,1226.195,1370.87)"><path fill="#667eb7" d="M287.705,70.09C277.835,73.13,261.115,108.08,261.115,108.08C261.115,108.08,223.115,25.25,211.715,-89.5C211.715,-89.5,198.155,-11.65,198.155,-11.65C216.875,38.62,246.265,117.5,250.865,129.77C257.125,146.45,282.345,153.41,285.805,154.19C284.865,153.87,282.775,152.6,281.045,147.6C280.045,146.69,274.335,144.02,273.275,143.04C264.155,134.68,267.955,114.92,274.035,92.89C280.105,70.85,297.585,67.05,287.705,70.09ZM20.815,-50.49C20.815,-50.49,1.975,-136.61,1.975,-136.61C-18.535,-107.73,-20.815,-8.94,-12.455,58.69C-5.605,114.16,4.655,128.55,11.695,134.33C13.775,135.56,14.925,136.61,14.925,136.61C14.925,136.61,12.645,-50.32,12.645,-50.32C12.645,-50.32,20.815,-50.49,20.815,-50.49Z" /></g><g id="i112" transform="matrix(1,0,0,1,1343.43,1448.49)"><path fill="#7993c4" d="M-150.97,-214.99C-116.02,-120.76,-133.49,-101.76,-87.5,8.84C-61.8,70.61,-12.27,117.12,-12.27,117.12C-12.27,117.12,27.63,127.38,77.78,123.96C127.93,120.54,164.65,117.09,164.65,117.09C164.65,117.09,111.97,85.21,109.69,63.55C107.41,41.89,97.52,-44.01,110.44,-104.8C120.53,-152.28,78.92,-199.75,78.92,-199.75C78.92,-199.75,9.39,-203.17,9.39,-203.17C9.39,-203.17,-150.97,-214.99,-150.97,-214.99Z" /></g><g id="i113" transform="matrix(1,0,0,1,1341.99,1371.84)"><path fill="#7089bf" d="M82.1,155.44C79.52,155.44,74.3,154.83,65.53,153.47C21.45,146.63,-25.66,94.95,-46.18,61.52C-66.7,28.08,-86.62,10.96,-87.98,6.04C-89.62,0.1,-88.49,-2.14,-84.95,-2.14C-75.36,-2.14,-48.01,14.32,-9.71,18.2C5.53,19.75,21.29,20.14,35.26,20.14C42.39,20.14,49.06,20.04,54.96,19.94C60.85,19.83,65.98,19.73,70.03,19.73C81.31,19.73,84.28,20.52,72.36,24.28C43.49,33.4,-35.54,19.72,-21.11,48.6C-4.11,82.58,15.95,115.47,45.01,135.23C60.22,145.58,92.5,155.44,82.1,155.44Z" /></g><g id="i114" transform="matrix(1,0,0,1,1362.325,1149.96)"><path fill="#e96b1c" d="M7.795,49.53C8.255,26.78,13.805,-12.04,20.295,-27.2C25.615,-39.61,3.625,-55.2,-9.285,-63.05C-9.285,-63.05,-20.195,-63.51,-20.195,-63.51C-21.855,-59.89,-23.415,-56.29,-24.875,-52.72C-36.395,22.94,-1.915,54.2,14.545,60.49C21.645,63.2,29.595,63.51,36.395,62.89C26.245,59.28,16.345,55.17,7.795,49.53Z" /></g><g id="i115" transform="matrix(1,0,0,1,1339.555,1210.215)"><path fill="#f5d03b" d="M9.685,23.035C5.715,23.035,1.605,22.555,-2.475,21.565C-12.015,19.235,-34.755,10.405,-40.045,-21.325C-40.175,-22.075,-39.665,-22.785,-38.905,-22.915C-38.155,-23.035,-37.445,-22.535,-37.315,-21.775C-32.305,8.325,-10.825,16.685,-1.825,18.875C12.155,22.285,26.975,19.145,32.655,11.565C37.215,5.495,34.465,-7.445,34.445,-7.575C34.275,-8.325,34.755,-9.055,35.495,-9.225C36.245,-9.385,36.975,-8.915,37.145,-8.165C37.265,-7.585,40.175,6.155,34.865,13.225C30.175,19.475,20.505,23.035,9.685,23.035Z" /></g><g id="i26" transform="matrix(1,0,0,1,1402.75,1102.96)"><path fill="#f68737" d="M53.75,8.69C46.02,49.52,28.16,82.46,-2.06,76.25C-32.28,70.04,-64.05,26.92,-55.68,-13.79C-47.32,-54.49,-16.05,-82.46,14.17,-76.25C44.39,-70.04,64.05,-45.71,53.75,8.69Z" /></g><g id="i116" transform="matrix(1,0,0,1,1573.94,1289.48)"><path fill="#f68737" d="M-7.6,17.22C-3.04,2.03,-10.13,-17.22,-10.13,-17.22C-10.13,-17.22,10.13,-14.69,10.13,-14.69C10.13,-14.69,-7.6,17.22,-7.6,17.22Z" /></g><g id="i117" transform="matrix(1,0,0,1,1556.61,1194.55)"><path fill="#4c64ac" d="M32,86.23C32,86.23,-24.55,86.23,-24.55,86.23C-27.98,86.23,-30.45,82.92,-29.46,79.64C-29.46,79.64,6.23,-40.05,6.23,-40.05C6.88,-42.22,8.88,-43.71,11.15,-43.71C11.15,-43.71,67.69,-43.71,67.69,-43.71C71.12,-43.71,73.59,-40.4,72.61,-37.11C72.61,-37.11,36.91,82.57,36.91,82.57C36.26,84.74,34.26,86.23,32,86.23ZM39.09,86.23C39.09,86.23,-17.46,86.23,-17.46,86.23C-20.89,86.23,-23.35,82.92,-22.37,79.64C-22.37,79.64,13.32,-40.05,13.32,-40.05C13.97,-42.22,15.97,-43.71,18.24,-43.71C18.24,-43.71,74.78,-43.71,74.78,-43.71C78.22,-43.71,80.68,-40.4,79.7,-37.11C79.7,-37.11,44,82.57,44,82.57C43.36,84.74,41.36,86.23,39.09,86.23ZM-1.85,-0.52C-7.88,21.2,-11.94,39.04,-10.91,39.32C-9.89,39.61,-4.17,22.23,1.85,0.51C7.88,-21.21,11.94,-39.05,10.92,-39.33C9.89,-39.61,4.18,-22.24,-1.85,-0.52Z" /></g><g id="i118" transform="matrix(1,0,0,1,1593.855,1248.91)"><path fill="#f68737" d="M-0.665,67.42C1.005,47.68,18.105,29.18,24.605,23.28C26.585,21.49,27.705,18.94,27.675,16.27C27.585,6.44,27.145,-16.79,25.105,-19.5C22.515,-22.96,16.045,-67.42,13.025,-65.7C10.005,-63.97,13.885,-25.12,13.885,-25.12C13.885,-25.12,6.545,-28.57,2.665,-30.3C-1.225,-32.02,-17.195,-14.32,-17.195,-14.32C-17.195,-14.32,-24.685,4.6,-4.215,-3.5C20.105,-13.13,1.865,13.72,-14.345,30.94C-27.705,45.14,-16.335,48.28,-16.335,48.28C-16.335,48.28,-5.545,47.84,-5.545,47.84C-5.545,47.84,-0.665,67.42,-0.665,67.42Z" /></g><g id="i119" transform="matrix(1,0,0,1,1577.86,1319.15)"><path fill="#f5d03b" d="M9.19,12.83C7.39,12.83,5.36,12.55,3.31,11.91C-1.98,10.26,-11.21,4.95,-13.65,-12.12C-13.76,-12.88,-13.23,-13.58,-12.48,-13.69C-11.73,-13.8,-11.02,-13.27,-10.91,-12.51C-8.87,1.77,-2,7.09,3.4,9.03C7.91,10.65,11.75,9.99,12.77,9.47C12.85,9.02,13.16,8.62,13.61,8.44C14.32,8.16,15.13,8.5,15.41,9.21C15.68,9.89,15.52,10.64,14.98,11.22C14.08,12.2,11.9,12.83,9.19,12.83ZM7.05,7.94C5.38,7.94,3.63,7.82,1.97,7.57C-7.85,6.15,-14.44,1.16,-16.1,-6.12C-16.27,-6.87,-15.8,-7.61,-15.06,-7.78C-14.32,-7.94,-13.57,-7.48,-13.4,-6.74C-11.89,-0.1,-5.95,2.82,-1.23,4.1C5.82,6.01,12.66,4.98,13.53,4.04C13.91,3.38,14.73,3.17,15.39,3.55C16.06,3.92,16.27,4.79,15.9,5.46C14.94,7.17,11.21,7.94,7.05,7.94Z" /></g><g id="i120" transform="matrix(1,0,0,1,1374.08,1082.14)"><path stroke-width="7" stroke="#ffffff" d="M47.507,48.748C46.969,48.748,46.431,48.704,45.884,48.62C37.596,47.347,32.58,36.684,34.469,24.344C36.357,12.006,44.348,3.328,52.626,4.598C60.923,5.871,65.942,16.535,64.05,28.873C62.281,40.408,55.197,48.748,47.507,48.748ZM81.685,50.98C81.412,50.98,81.139,50.963,80.857,50.92C75.329,50.074,72.422,41.11,74.115,30.071C75.807,19.04,81.26,11.352,86.787,12.196C92.324,13.042,95.216,22.005,93.528,33.045C92.768,38.018,91.15,42.585,88.974,45.896C86.795,49.211,84.24,50.98,81.685,50.98ZM-36.57,-12.85C-36.57,-12.85,37.9,8.43,37.9,8.43C39.2,8.8,-37.86,-13.21,-36.57,-12.85Z" /></g><g id="i121" transform="matrix(1,0,0,1,1339.405,1101.27)"><path fill="#1a1944" d="M125.105,-52.43C9.845,15.45,3.515,-30.14,3.515,-30.14C3.515,-30.14,10.355,-94.99,10.355,-94.99C10.355,-94.99,78.745,-91.19,78.745,-91.19C78.745,-91.19,125.105,-52.43,125.105,-52.43ZM12.435,-15.07C15.115,-3.6,11.455,7.07,4.255,8.75C-2.945,10.43,-10.955,2.49,-13.635,-8.98C-16.315,-20.46,-12.655,-31.13,-5.455,-32.81C1.745,-34.49,9.755,-26.55,12.435,-15.07ZM4.535,0C4.535,2.51,2.505,4.54,-0.005,4.54C-2.505,4.54,-4.535,2.51,-4.535,0C-4.535,-2.51,-2.505,-4.54,-0.005,-4.54C2.505,-4.54,4.535,-2.51,4.535,0Z" /></g></g></g></g></g></g><g visibility="hidden" id="i122"><animate repeatCount="indefinite" begin="0s" calcMode="discrete" dur="8s" values="hidden; visible; visible" keyTimes="0; 0.35; 1" attributeName="visibility" /><g transform="translate(698.904,293.386)"><g transform="scale(0,0)"><animateTransform repeatCount="indefinite" type="scale" attributeName="transform" dur="8s" begin="0s" calcMode="spline" values="0 0; 0 0; 0.33 0.33; 0.248 0.248; 0.28 0.28; 0.28 0.28; 0 0; 0 0" keyTimes="0; 0.35; 0.37; 0.4; 0.455; 0.965; 0.995; 1" keySplines="0 0 1 1; 0.333 0 0.667 1; 0.333 0 0.667 1; 0.333 0 0.39 1; 0.333 0 0.833 1; 0.167 0 0.833 1; 0 0 1 1" fill="freeze" /><g transform="translate(-2879.87,-1273.02)"><g clip-path="url(#i11)" id="i123"><g id="i124" transform="matrix(1,0,0,1,2879.87,1273.02)"><path fill="#f8fdff" d="M251.24,0C251.24,138.76,138.76,251.24,0,251.24C-138.75,251.24,-251.24,138.76,-251.24,0C-251.24,-138.75,-138.75,-251.24,0,-251.24C138.76,-251.24,251.24,-138.75,251.24,0Z" /></g><g id="i125" transform="matrix(1,0,0,1,2968.475,1203.305)"><path fill="#1a1944" d="M-128.165,-49.995C-147.315,-11.705,-131.465,32.385,-93.805,47.965C-55.905,63.645,-14.455,54.735,4.695,16.455C23.835,-21.835,9.615,-67.745,-27.065,-86.095C-63.755,-104.445,-109.025,-88.275,-128.165,-49.995ZM-24.975,53.025C-26.885,53.025,-27.985,52.735,-28.125,52.695C-29.415,52.325,-30.165,50.975,-29.805,49.685C-29.435,48.395,-28.085,47.645,-26.795,48.005C-26.735,48.025,-17.925,50.095,-4.735,38.385C10.165,25.165,20.585,-4.865,5.155,-49.495C4.715,-50.765,5.385,-52.145,6.655,-52.585C7.925,-53.025,9.315,-52.355,9.755,-51.085C30.165,7.935,6.305,35.105,-1.495,42.025C-12.185,51.505,-20.655,53.025,-24.975,53.025Z" /></g><g id="i126" transform="matrix(1,0,0,1,3022.97,1422.2)"><path fill="#b1c9e1" d="M-138,-119.9C-159.79,-115.01,-187.31,-54.46,-200.78,-15.67C-213.156,19.964,-233.36,63.403,-248.26,82.268C-249.722,84.119,-129.131,124.004,-130.29,103.896C-134.295,34.406,-138,-119.9,-138,-119.9ZM-210.07,96.8C-205.53,78.39,-203.79,13.39,-186.55,-51.76C-172.31,-84.07,-153.68,-116.38,-138,-119.9C-138,-119.9,-137.45,-96.96,-136.54,-64.79C-141.031,-11.696,-147.846,59.977,-152.095,103.911C-153.542,118.876,-215.33,118.15,-210.07,96.8ZM-57.89,-133.32C-57.89,-133.32,11.43,-94.58,27.59,-86.35C39.45,-80.303,27.822,-21.691,5.654,52.136C-2.384,78.905,-87.398,117.3,-178.335,103.92C-176.503,84.357,-175.828,59.761,-180.31,29.42C-192.16,-50.8,-144.17,-120.05,-138,-119.9C-131.84,-119.74,-91.6,-133.32,-91.6,-133.32C-91.6,-133.32,-57.89,-133.32,-57.89,-133.32ZM-68.941,96.015C-52.091,79.406,-61.309,48.363,-60.69,33.53C-59.97,16.29,-30.52,-40.08,24.78,-82.82C24.78,-82.82,29.85,-80.54,29.85,-80.54C31.839,-60.71,19.453,1.503,5.071,59.5C-9.043,116.416,-71.676,98.711,-68.941,96.015ZM33.03,-81.81C42.226,-52.412,52.479,-21.924,62.353,6.824C72.232,35.588,53.985,30.67,41.706,40.885C21.686,57.54,-1.718,76.673,-4.573,66.968C-8.579,53.355,-12.993,33.896,-15.5,8.72C-20.89,-45.41,26.7,-102.06,33.03,-81.81Z" /></g><g id="i25" transform="matrix(1,0,0,1,2922.375,1247.76)"><path fill="#f68737" d="M17.325,-51.65C17.325,-51.65,44.215,46.65,44.215,46.65C44.215,46.65,-1.235,117.59,-13.725,111.29C-26.225,104.99,-6.745,53.62,-6.745,46.65C-6.745,39.67,-26.225,-32.35,-26.225,-32.35C-26.225,-32.35,17.325,-51.65,17.325,-51.65ZM-7.675,51.65C-7.095,49.33,-6.745,47.58,-6.745,46.65C-6.745,39.67,-26.225,-32.35,-26.225,-32.35C-26.225,-32.35,17.325,-51.65,17.325,-51.65C17.325,-51.65,26.225,-19.12,26.225,-19.12C18.445,14.48,4.415,36.86,-7.675,51.65Z" /></g><g id="i26" transform="matrix(1,0,0,1,2938.015,1215.26)"><path fill="#f68737" d="M-98.965,-20.78C-104.095,7.73,-81.518,50.044,-56.208,59.674C-30.898,69.294,-19.605,46.42,-7.305,14.08C4.995,-18.26,-5.555,-52.28,-30.865,-61.91C-56.185,-71.53,-92.845,-54.83,-98.965,-20.78ZM-13.305,-4.74C-16.855,5.23,-13.775,15.43,-6.425,18.04C0.925,20.66,9.755,14.7,13.305,4.74C16.855,-5.23,13.775,-15.42,6.425,-18.04C-0.925,-20.66,-9.755,-14.7,-13.305,-4.74Z" /></g><g id="i127" transform="matrix(1,0,0,1,2965.365,1130.395)"><path fill="#1a1944" d="M-126.615,28.285C-117.995,95.165,-36.735,86.555,-36.735,86.555C-36.735,86.555,-19.975,64.515,-12.425,76.075C-4.885,87.625,-22.895,8.265,-69.525,5.755C-84.845,4.935,-126.615,28.285,-126.615,28.285ZM-44.015,0.005C-44.015,22.805,-24.315,41.295,-0.005,41.295C24.305,41.295,44.015,22.805,44.015,0.005C44.015,-22.805,24.305,-41.295,-0.005,-41.295C-24.315,-41.295,-44.015,-22.805,-44.015,0.005Z" /></g></g></g></g></g></g><g visibility="hidden" id="i128"><animate repeatCount="indefinite" begin="0s" calcMode="discrete" dur="8s" values="hidden; visible; visible" keyTimes="0; 0.605; 1" attributeName="visibility" /><g transform="translate(641.237,266.574)"><g transform="scale(0,0)"><animateTransform repeatCount="indefinite" type="scale" attributeName="transform" dur="8s" begin="0s" calcMode="spline" values="0 0; 0 0; 0.411 0.411; 0.308 0.308; 0.348 0.348; 0.348 0.348; 0 0; 0 0" keyTimes="0; 0.605; 0.625; 0.655; 0.71; 0.965; 0.995; 1" keySplines="0 0 1 1; 0.333 0 0.667 1; 0.333 0 0.667 1; 0.333 0 0.39 1; 0.167 0 0.833 1; 0.167 0 0.833 1; 0 0 1 1" fill="freeze" /><g transform="translate(-270.448,-940.796)"><g id="i129" transform="matrix(1,0,0,1,269.064,936.797)"><path fill="#b9c741" d="M75.93,4C75.93,45.171,42.555,78.542,1.384,78.542C-39.787,78.542,-73.161,45.171,-73.161,4C-73.161,-37.171,-39.787,-70.546,1.384,-70.546C42.555,-70.546,75.93,-37.171,75.93,4ZM-34.178,43.505C-45.184,-22.363,5.234,-23.989,5.234,-23.989C5.234,-23.989,5.234,-43.505,5.234,-43.505C5.234,-43.505,45.183,-3.554,45.183,-3.554C45.183,-3.554,6.693,34.937,6.693,34.937C6.693,34.937,6.693,12.604,6.693,12.604C6.693,12.604,-12.656,13.418,-19.974,23.989C-27.293,34.56,-34.178,43.505,-34.178,43.505Z" /></g></g></g></g></g><g visibility="hidden" id="i130"><animate repeatCount="indefinite" begin="0s" calcMode="discrete" dur="8s" values="hidden; visible; hidden; hidden" keyTimes="0; 0.07; 0.355; 1" attributeName="visibility" /><animate repeatCount="indefinite" attributeName="opacity" dur="8s" begin="0s" fill="freeze" values="1; 1; 1; 0; 0" keyTimes="0; 0.075; 0.235; 0.34; 1" keySplines="0 0 1 1; 0.167 0 0.833 1; 0.333 0 0.667 1; 0 0 1 1" calcMode="spline" /><g transform="translate(409.528,795.269)"><animateTransform repeatCount="indefinite" type="translate" attributeName="transform" dur="8s" begin="0s" calcMode="spline" values="409.528 795.269; 409.528 795.269; 409.528 715.269; 409.528 715.269" keyTimes="0; 0.07; 0.345; 1" keySplines="0 0 1 1; 0 0 1 1; 0 0 1 1" fill="freeze" /><g transform="scale(0,0)"><animateTransform repeatCount="indefinite" type="scale" attributeName="transform" dur="8s" begin="0s" calcMode="spline" values="0 0; 0 0; 0.33 0.33; 0.248 0.248; 0.28 0.28; 0.28 0.28" keyTimes="0; 0.075; 0.095; 0.125; 0.18; 1" keySplines="0 0 1 1; 0.333 0 0.667 1; 0.333 0 0.667 1; 0.333 0 0.39 1; 0 0 1 1" fill="freeze" /><g transform="translate(-1905.315,-1213.675)"><g id="i131" transform="matrix(1,0,0,1,1934.31,1276.915)"><path fill="#a9c2dd" d="M94.84,-29.715C102.79,-29.715,109.38,-36.215,109.48,-44.165C109.48,-44.165,110.79,-147.765,110.79,-147.765C110.89,-155.715,104.47,-162.215,96.52,-162.215C96.52,-162.215,-152.83,-162.215,-152.83,-162.215C-160.78,-162.215,-167.37,-155.715,-167.47,-147.765C-167.47,-147.765,-168.78,-44.165,-168.78,-44.165C-168.88,-36.215,-162.46,-29.715,-154.51,-29.715C-154.51,-29.715,94.84,-29.715,94.84,-29.715ZM-23.67,-35.735C-23.56,18.875,1.93,35.735,1.93,35.735C1.93,35.735,-8.92,4.415,0.11,-10.845C9.13,-26.095,23.67,-32.525,23.67,-32.525C23.67,-32.525,-23.67,-35.735,-23.67,-35.735Z" /></g><g id="i132" transform="matrix(1,0,0,1,1905.315,1180.95)"><path fill="#ffffff" d="M111.575,55.41C111.575,55.41,-112.975,55.41,-112.975,55.41C-119.865,55.41,-125.425,49.78,-125.335,42.89C-125.335,42.89,-124.255,-42.89,-124.255,-42.89C-124.165,-49.78,-118.455,-55.41,-111.575,-55.41C-111.575,-55.41,112.975,-55.41,112.975,-55.41C119.865,-55.41,125.425,-49.78,125.335,-42.89C125.335,-42.89,124.255,42.89,124.255,42.89C124.165,49.78,118.455,55.41,111.575,55.41Z" /></g><g id="i61" transform="matrix(1,0,0,1,1980.645,1177.335)"><path fill="#a9c2dd" d="M-50.375,-14.055C-50.375,-14.055,-172.515,-14.055,-172.515,-14.055C-174.705,-14.055,-176.465,-15.845,-176.445,-18.025C-176.445,-18.025,-176.435,-18.905,-176.435,-18.905C-176.405,-21.095,-174.595,-22.885,-172.405,-22.885C-172.405,-22.885,-50.265,-22.885,-50.265,-22.885C-48.075,-22.885,-46.305,-21.095,-46.335,-18.905C-46.335,-18.905,-46.345,-18.025,-46.345,-18.025C-46.375,-15.845,-48.185,-14.055,-50.375,-14.055ZM-50.605,4.415C-50.605,4.415,-172.755,4.415,-172.755,4.415C-174.935,4.415,-176.705,2.625,-176.675,0.445C-176.675,0.445,-176.665,-0.435,-176.665,-0.435C-176.635,-2.625,-174.825,-4.415,-172.635,-4.415C-172.635,-4.415,-50.495,-4.415,-50.495,-4.415C-48.305,-4.415,-46.545,-2.625,-46.565,-0.435C-46.565,-0.435,-46.585,0.445,-46.585,0.445C-46.605,2.625,-48.425,4.415,-50.605,4.415ZM-50.875,25.295C-50.875,25.295,-173.015,25.295,-173.015,25.295C-175.205,25.295,-176.965,23.505,-176.945,21.325C-176.945,21.325,-176.925,20.435,-176.925,20.435C-176.905,18.255,-175.085,16.465,-172.905,16.465C-172.905,16.465,-50.755,16.465,-50.755,16.465C-48.575,16.465,-46.805,18.255,-46.835,20.435C-46.835,20.435,-46.845,21.325,-46.845,21.325C-46.875,23.505,-48.685,25.295,-50.875,25.295ZM8.425,32.525C8.425,32.525,-9.245,32.525,-9.245,32.525C-17.195,32.525,-23.615,26.025,-23.515,18.075C-23.515,18.075,-23.055,-18.065,-23.055,-18.065C-22.955,-26.015,-16.365,-32.525,-8.425,-32.525C-8.425,-32.525,9.245,-32.525,9.245,-32.525C17.195,-32.525,23.615,-26.015,23.515,-18.065C23.515,-18.065,23.065,18.075,23.065,18.075C22.965,26.025,16.375,32.525,8.425,32.525Z" /></g></g></g></g></g><g visibility="hidden" id="i133"><animate repeatCount="indefinite" begin="0s" calcMode="discrete" dur="8s" values="hidden; visible; hidden; hidden" keyTimes="0; 0.195; 0.48; 1" attributeName="visibility" /><animate repeatCount="indefinite" attributeName="opacity" dur="8s" begin="0s" fill="freeze" values="1; 1; 1; 0; 0" keyTimes="0; 0.2; 0.36; 0.465; 1" keySplines="0 0 1 1; 0.167 0 0.833 1; 0.333 0 0.667 1; 0 0 1 1" calcMode="spline" /><g transform="translate(579.528,805.269)"><animateTransform repeatCount="indefinite" type="translate" attributeName="transform" dur="8s" begin="0s" calcMode="spline" values="579.528 805.269; 579.528 805.269; 579.528 725.269; 579.528 725.269" keyTimes="0; 0.195; 0.47; 1" keySplines="0 0 1 1; 0 0 1 1; 0 0 1 1" fill="freeze" /><g transform="scale(0,0)"><animateTransform repeatCount="indefinite" type="scale" attributeName="transform" dur="8s" begin="0s" calcMode="spline" values="0 0; 0 0; 0.411 0.411; 0.308 0.308; 0.348 0.348; 0.348 0.348" keyTimes="0; 0.195; 0.215; 0.245; 0.3; 1" keySplines="0 0 1 1; 0.333 0 0.667 1; 0.333 0 0.667 1; 0.333 0 0.39 1; 0 0 1 1" fill="freeze" /><g transform="translate(-658.764,-1708.085)"><g id="i44" transform="matrix(1,0,0,1,658.764,1708.085)"><path d="" /></g><g id="i45" transform="matrix(1,0,0,1,661.042,1704.985)"><path fill="#364a97" d="M72.268,3.105C72.268,44.275,38.892,77.645,-2.278,77.645C-43.449,77.645,-76.823,44.275,-76.823,3.105C-76.823,-38.065,-43.449,-71.445,-2.278,-71.445C38.892,-71.445,72.268,-38.065,72.268,3.105ZM-3.945,-46.005C5.722,-47.335,14.055,-23.335,13.388,-15.665C12.722,-8.005,31.388,-16.665,40.388,-10.005C49.389,-3.335,46.722,31.335,40.388,33.665C34.055,35.995,8.511,36.335,0.284,31.995C-7.944,27.665,-13.5,28.475,-13.5,28.475C-13.5,28.475,-17.737,-7.785,-17.737,-7.785C-17.737,-7.785,-12.612,-9.335,-6.945,-14.335C-1.278,-19.335,-3.945,-46.005,-3.945,-46.005ZM-46.945,38.995C-44.612,40.995,-22.278,46.835,-20.945,33.495C-19.612,20.165,-24.528,-7.665,-24.528,-7.665C-24.528,-7.665,-40.601,-8.595,-46.945,-5.345C-49.39,-4.095,-49.278,36.995,-46.945,38.995Z" /></g></g></g></g></g><g visibility="hidden" id="i134"><animate repeatCount="indefinite" begin="0s" calcMode="discrete" dur="8s" values="hidden; visible; hidden; hidden" keyTimes="0; 0.365; 0.65; 1" attributeName="visibility" /><animate repeatCount="indefinite" attributeName="opacity" dur="8s" begin="0s" fill="freeze" values="1; 1; 1; 0; 0" keyTimes="0; 0.37; 0.53; 0.635; 1" keySplines="0 0 1 1; 0.167 0 0.833 1; 0.333 0 0.667 1; 0 0 1 1" calcMode="spline" /><g transform="translate(429.528,805.269)"><animateTransform repeatCount="indefinite" type="translate" attributeName="transform" dur="8s" begin="0s" calcMode="spline" values="429.528 805.269; 429.528 805.269; 429.528 725.269; 429.528 725.269" keyTimes="0; 0.365; 0.64; 1" keySplines="0 0 1 1; 0 0 1 1; 0 0 1 1" fill="freeze" /><g transform="scale(0,0)"><animateTransform repeatCount="indefinite" type="scale" attributeName="transform" dur="8s" begin="0s" calcMode="spline" values="0 0; 0 0; 0.278 0.278; 0.208 0.208; 0.236 0.236; 0.236 0.236" keyTimes="0; 0.365; 0.385; 0.415; 0.47; 1" keySplines="0 0 1 1; 0.333 0 0.667 1; 0.333 0 0.667 1; 0.333 0 0.39 1; 0 0 1 1" fill="freeze" /><g transform="translate(-3073.61,-930.094)"><g id="i36" transform="matrix(1,0,0,1,3074.385,927.813)"><path fill="#a2d8db" d="M109.898,0.512C109.898,53.163,67.232,95.851,14.558,95.851C-38.069,95.851,-80.781,53.163,-80.781,0.512C-80.781,-52.144,-38.069,-94.827,14.558,-94.827C67.232,-94.827,109.898,-52.144,109.898,0.512ZM57.225,-44.719C57.225,-33.674,48.275,-24.719,37.225,-24.719C26.185,-24.719,17.225,-33.674,17.225,-44.719C17.225,-55.765,26.185,-64.719,37.225,-64.719C48.275,-64.719,57.225,-55.765,57.225,-44.719ZM57.225,45.281C57.225,56.326,48.275,65.282,37.225,65.282C26.185,65.282,17.225,56.326,17.225,45.281C17.225,34.235,26.185,25.281,37.225,25.281C48.275,25.281,57.225,34.235,57.225,45.281ZM-17.775,1.808C-17.775,12.854,-26.725,21.809,-37.775,21.809C-48.815,21.809,-57.775,12.854,-57.775,1.808C-57.775,-9.237,-48.815,-18.192,-37.775,-18.192C-26.725,-18.192,-17.775,-9.237,-17.775,1.808ZM37.225,49.282C36.545,49.282,35.855,49.109,35.225,48.743C35.225,48.743,-39.775,5.271,-39.775,5.271C-40.995,4.566,-41.755,3.275,-41.775,1.869C-41.795,0.465,-41.075,-0.848,-39.885,-1.59C-39.885,-1.59,35.115,-48.117,35.115,-48.117C36.995,-49.282,39.465,-48.706,40.625,-46.828C41.795,-44.951,41.215,-42.485,39.335,-41.32C39.335,-41.32,-29.995,1.693,-29.995,1.693C-29.995,1.693,39.235,41.821,39.235,41.821C41.145,42.929,41.795,45.376,40.685,47.287C39.945,48.568,38.605,49.282,37.225,49.282Z" /></g></g></g></g></g><g visibility="hidden" id="i135"><animate repeatCount="indefinite" begin="0s" calcMode="discrete" dur="8s" values="hidden; visible; hidden; hidden" keyTimes="0; 0.455; 0.735; 1" attributeName="visibility" /><animate repeatCount="indefinite" attributeName="opacity" dur="8s" begin="0s" fill="freeze" values="1; 1; 1; 0; 0" keyTimes="0; 0.46; 0.62; 0.725; 1" keySplines="0 0 1 1; 0.167 0 0.833 1; 0.333 0 0.667 1; 0 0 1 1" calcMode="spline" /><g transform="translate(569.528,815.269)"><animateTransform repeatCount="indefinite" type="translate" attributeName="transform" dur="8s" begin="0s" calcMode="spline" values="569.528 815.269; 569.528 815.269; 569.528 735.269; 569.528 735.269" keyTimes="0; 0.455; 0.73; 1" keySplines="0 0 1 1; 0 0 1 1; 0 0 1 1" fill="freeze" /><g transform="scale(0,0)"><animateTransform repeatCount="indefinite" type="scale" attributeName="transform" dur="8s" begin="0s" calcMode="spline" values="0 0; 0 0; 0.411 0.411; 0.308 0.308; 0.348 0.348; 0.348 0.348" keyTimes="0; 0.455; 0.475; 0.505; 0.56; 1" keySplines="0 0 1 1; 0.333 0 0.667 1; 0.333 0 0.667 1; 0.333 0 0.39 1; 0 0 1 1" fill="freeze" /><g transform="translate(-270.448,-940.796)"><g id="i129" transform="matrix(1,0,0,1,269.064,936.797)"><path fill="#b9c741" d="M75.93,4C75.93,45.171,42.555,78.542,1.384,78.542C-39.787,78.542,-73.161,45.171,-73.161,4C-73.161,-37.171,-39.787,-70.546,1.384,-70.546C42.555,-70.546,75.93,-37.171,75.93,4ZM-34.178,43.505C-45.184,-22.363,5.234,-23.989,5.234,-23.989C5.234,-23.989,5.234,-43.505,5.234,-43.505C5.234,-43.505,45.183,-3.554,45.183,-3.554C45.183,-3.554,6.693,34.937,6.693,34.937C6.693,34.937,6.693,12.604,6.693,12.604C6.693,12.604,-12.656,13.418,-19.974,23.989C-27.293,34.56,-34.178,43.505,-34.178,43.505Z" /></g></g></g></g></g><g visibility="hidden" id="i136"><animate repeatCount="indefinite" begin="0s" calcMode="discrete" dur="8s" values="hidden; visible; hidden; hidden" keyTimes="0; 0.64; 0.935; 1" attributeName="visibility" /><animate repeatCount="indefinite" attributeName="opacity" dur="8s" begin="0s" fill="freeze" values="1; 1; 1; 0; 0" keyTimes="0; 0.645; 0.805; 0.91; 1" keySplines="0 0 1 1; 0.167 0 0.833 1; 0.333 0 0.667 1; 0 0 1 1" calcMode="spline" /><g transform="translate(409.528,815.269)"><animateTransform repeatCount="indefinite" type="translate" attributeName="transform" dur="8s" begin="0s" calcMode="spline" values="409.528 815.269; 409.528 815.269; 409.528 735.269; 409.528 735.269" keyTimes="0; 0.64; 0.915; 1" keySplines="0 0 1 1; 0 0 1 1; 0 0 1 1" fill="freeze" /><g transform="scale(0,0)"><animateTransform repeatCount="indefinite" type="scale" attributeName="transform" dur="8s" begin="0s" calcMode="spline" values="0 0; 0 0; 0.411 0.411; 0.308 0.308; 0.348 0.348; 0.348 0.348" keyTimes="0; 0.64; 0.66; 0.69; 0.745; 1" keySplines="0 0 1 1; 0.333 0 0.667 1; 0.333 0 0.667 1; 0.333 0 0.39 1; 0 0 1 1" fill="freeze" /><g transform="translate(-2337.63,-1524.265)"><g id="i137" transform="matrix(1,0,0,1,2337.53,1519.18)"><path fill="#fa4d4d" d="M74.65,5.08C74.65,46.25,41.27,79.63,0.1,79.63C-41.07,79.63,-74.45,46.25,-74.45,5.08C-74.45,-36.09,-41.07,-69.46,0.1,-69.46C41.27,-69.46,74.65,-36.09,74.65,5.08ZM-0.63,-21.12C-0.63,-21.12,-26.66,-44.08,-45.08,-22.02C-70.38,8.26,-0.63,46.77,-0.63,46.77C-0.63,46.77,70.38,7.02,45.54,-23.6C26.76,-46.77,-0.63,-21.12,-0.63,-21.12Z" /></g></g></g></g></g><g visibility="hidden" id="i138"><animate repeatCount="indefinite" begin="0s" calcMode="discrete" dur="8s" values="hidden; visible; visible" keyTimes="0; 0.395; 1" attributeName="visibility" /><g transform="translate(451.528,421.269)"><g transform="scale(0,0)"><animateTransform repeatCount="indefinite" type="scale" attributeName="transform" dur="8s" begin="0s" calcMode="spline" values="0 0; 0 0; 0.33 0.33; 0.248 0.248; 0.28 0.28; 0.28 0.28; 0 0; 0 0" keyTimes="0; 0.4; 0.42; 0.45; 0.505; 0.965; 0.995; 1" keySplines="0 0 1 1; 0.333 0 0.667 1; 0.333 0 0.667 1; 0.333 0 0.39 1; 0.167 0 0.833 1; 0.167 0 0.833 1; 0 0 1 1" fill="freeze" /><g transform="translate(-1905.315,-1213.675)"><g id="i131" transform="matrix(1,0,0,1,1934.31,1276.915)"><path fill="#a9c2dd" d="M94.84,-29.715C102.79,-29.715,109.38,-36.215,109.48,-44.165C109.48,-44.165,110.79,-147.765,110.79,-147.765C110.89,-155.715,104.47,-162.215,96.52,-162.215C96.52,-162.215,-152.83,-162.215,-152.83,-162.215C-160.78,-162.215,-167.37,-155.715,-167.47,-147.765C-167.47,-147.765,-168.78,-44.165,-168.78,-44.165C-168.88,-36.215,-162.46,-29.715,-154.51,-29.715C-154.51,-29.715,94.84,-29.715,94.84,-29.715ZM-23.67,-35.735C-23.56,18.875,1.93,35.735,1.93,35.735C1.93,35.735,-8.92,4.415,0.11,-10.845C9.13,-26.095,23.67,-32.525,23.67,-32.525C23.67,-32.525,-23.67,-35.735,-23.67,-35.735Z" /></g><g id="i132" transform="matrix(1,0,0,1,1905.315,1180.95)"><path fill="#ffffff" d="M111.575,55.41C111.575,55.41,-112.975,55.41,-112.975,55.41C-119.865,55.41,-125.425,49.78,-125.335,42.89C-125.335,42.89,-124.255,-42.89,-124.255,-42.89C-124.165,-49.78,-118.455,-55.41,-111.575,-55.41C-111.575,-55.41,112.975,-55.41,112.975,-55.41C119.865,-55.41,125.425,-49.78,125.335,-42.89C125.335,-42.89,124.255,42.89,124.255,42.89C124.165,49.78,118.455,55.41,111.575,55.41Z" /></g><g id="i61" transform="matrix(1,0,0,1,1980.645,1177.335)"><path fill="#a9c2dd" d="M-50.375,-14.055C-50.375,-14.055,-172.515,-14.055,-172.515,-14.055C-174.705,-14.055,-176.465,-15.845,-176.445,-18.025C-176.445,-18.025,-176.435,-18.905,-176.435,-18.905C-176.405,-21.095,-174.595,-22.885,-172.405,-22.885C-172.405,-22.885,-50.265,-22.885,-50.265,-22.885C-48.075,-22.885,-46.305,-21.095,-46.335,-18.905C-46.335,-18.905,-46.345,-18.025,-46.345,-18.025C-46.375,-15.845,-48.185,-14.055,-50.375,-14.055ZM-50.605,4.415C-50.605,4.415,-172.755,4.415,-172.755,4.415C-174.935,4.415,-176.705,2.625,-176.675,0.445C-176.675,0.445,-176.665,-0.435,-176.665,-0.435C-176.635,-2.625,-174.825,-4.415,-172.635,-4.415C-172.635,-4.415,-50.495,-4.415,-50.495,-4.415C-48.305,-4.415,-46.545,-2.625,-46.565,-0.435C-46.565,-0.435,-46.585,0.445,-46.585,0.445C-46.605,2.625,-48.425,4.415,-50.605,4.415ZM-50.875,25.295C-50.875,25.295,-173.015,25.295,-173.015,25.295C-175.205,25.295,-176.965,23.505,-176.945,21.325C-176.945,21.325,-176.925,20.435,-176.925,20.435C-176.905,18.255,-175.085,16.465,-172.905,16.465C-172.905,16.465,-50.755,16.465,-50.755,16.465C-48.575,16.465,-46.805,18.255,-46.835,20.435C-46.835,20.435,-46.845,21.325,-46.845,21.325C-46.875,23.505,-48.685,25.295,-50.875,25.295ZM8.425,32.525C8.425,32.525,-9.245,32.525,-9.245,32.525C-17.195,32.525,-23.615,26.025,-23.515,18.075C-23.515,18.075,-23.055,-18.065,-23.055,-18.065C-22.955,-26.015,-16.365,-32.525,-8.425,-32.525C-8.425,-32.525,9.245,-32.525,9.245,-32.525C17.195,-32.525,23.615,-26.015,23.515,-18.065C23.515,-18.065,23.065,18.075,23.065,18.075C22.965,26.025,16.375,32.525,8.425,32.525Z" /></g></g></g></g></g><g visibility="hidden" id="i139"><animate repeatCount="indefinite" begin="0s" calcMode="discrete" dur="8s" values="hidden; visible; visible" keyTimes="0; 0.455; 1" attributeName="visibility" /><g transform="translate(692.033,577.441)"><g transform="scale(0,0)"><animateTransform repeatCount="indefinite" type="scale" attributeName="transform" dur="8s" begin="0s" calcMode="spline" values="0 0; 0 0; 0.411 0.411; 0.308 0.308; 0.348 0.348; 0.348 0.348; 0 0; 0 0" keyTimes="0; 0.455; 0.475; 0.505; 0.56; 0.965; 0.995; 1" keySplines="0 0 1 1; 0.333 0 0.667 1; 0.333 0 0.667 1; 0.333 0 0.39 1; 0.167 0 0.833 1; 0.167 0 0.833 1; 0 0 1 1" fill="freeze" /><g transform="translate(-2337.63,-1524.265)"><g id="i137" transform="matrix(1,0,0,1,2337.53,1519.18)"><path fill="#fa4d4d" d="M74.65,5.08C74.65,46.25,41.27,79.63,0.1,79.63C-41.07,79.63,-74.45,46.25,-74.45,5.08C-74.45,-36.09,-41.07,-69.46,0.1,-69.46C41.27,-69.46,74.65,-36.09,74.65,5.08ZM-0.63,-21.12C-0.63,-21.12,-26.66,-44.08,-45.08,-22.02C-70.38,8.26,-0.63,46.77,-0.63,46.77C-0.63,46.77,70.38,7.02,45.54,-23.6C26.76,-46.77,-0.63,-21.12,-0.63,-21.12Z" /></g></g></g></g></g></svg>