<svg fill="none" height="100%" width="100%" viewBox="0 0 500 500" xmlns:xlink="http://www.w3.org/1999/xlink" xmlns="http://www.w3.org/2000/svg"><g transform="matrix(1,0,0,1,250,250)" id="i0"><g id="i1" transform="matrix(1,0,0,1,-1,-20.5)"><rect height="173" width="318" y="-86.5" x="-159" stroke-width="0" stroke="#21243d" fill="#dbdbdb" /></g></g><g transform="matrix(1,0,0,1,83.91,84.089)" id="i2"><g id="i3" transform="matrix(1,0,0,1,167.047,287.515)"><path fill="#757575" d="M-43.087,-12.448C-43.087,-12.448,45.003,-12.448,45.003,-12.448C45.003,-12.448,43.088,12.448,43.088,12.448C43.088,12.448,-45.002,12.448,-45.002,12.448C-43.087,12.448,-43.087,-12.448,-43.087,-12.448Z" /></g><g id="i4" transform="matrix(1,0,0,1,166.089,313.367)"><path fill="#a8a8a8" d="M-74.686,-5.745C-74.686,-5.745,-68.941,-9.575,-68.941,-11.49C-68.941,-13.405,68.94,-11.49,68.94,-11.49C68.94,-11.49,76.6,-3.83,76.6,-3.83C76.6,-3.83,76.6,13.405,76.6,13.405C76.6,13.405,-76.601,13.405,-76.601,13.405C-76.601,13.405,-74.686,-5.745,-74.686,-5.745Z" /></g><g id="i5" transform="matrix(1,0,0,1,166.089,34.732)"><path fill="#a8a8a8" d="M158.947,27.768C158.947,27.768,-158.947,27.768,-158.947,27.768C-158.947,27.768,-158.947,-27.768,-158.947,-27.768C-158.947,-27.768,158.947,-27.768,158.947,-27.768C158.947,-27.768,158.947,27.768,158.947,27.768Z" /></g><g id="i6" transform="matrix(1,0,0,1,35.868,32.658)"><path fill="#dbdbdb" d="M0.001,-5.745C-7.393,-5.745,-7.405,5.745,0.001,5.745C7.394,5.745,7.406,-5.745,0.001,-5.745Z" /></g><g id="i7" transform="matrix(1,0,0,1,72.094,32.817)"><path fill="#dbdbdb" d="M0.001,-5.745C-7.393,-5.745,-7.405,5.745,0.001,5.745C7.395,5.745,7.406,-5.745,0.001,-5.745Z" /></g><g id="i8" transform="matrix(1,0,0,1,108.001,33.136)"><path fill="#dbdbdb" d="M0,-5.745C-7.394,-5.745,-7.405,5.745,0,5.745C7.394,5.745,7.405,-5.745,0,-5.745Z" /></g><g id="i9" transform="matrix(1,0,0,1,166.089,252.086)"><path fill="#a8a8a8" d="M158.947,19.15C158.947,19.15,-158.947,19.15,-158.947,19.15C-158.947,19.15,-158.947,-19.15,-158.947,-19.15C-158.947,-19.15,158.947,-19.15,158.947,-19.15C158.947,-19.15,158.947,19.15,158.947,19.15Z" /></g><g id="i10" transform="matrix(1,0,0,1,166.09,165.911)"><path fill="#21243d" fill-rule="evenodd" d="M148.937,111.384C158.399,109.187,165.471,100.697,165.471,90.58C165.471,90.58,165.838,-144.299,165.838,-144.299C165.84,-156.078,156.258,-165.661,144.479,-165.661C144.479,-165.661,-144.475,-165.661,-144.475,-165.661C-156.255,-165.661,-165.84,-156.078,-165.84,-144.296C-165.84,-144.296,-165.84,90.58,-165.84,90.58C-165.84,102.36,-156.255,111.943,-144.475,111.943C-144.475,111.943,-96.694,111.943,-96.694,111.943C-96.694,111.943,-68.756,111.943,-68.756,111.943C-68.756,111.943,-50.02,111.943,-50.02,111.943C-50.02,111.943,-50.02,129.353,-50.02,129.353C-50.02,129.353,-64.677,129.353,-64.677,129.353C-74.456,129.353,-82.41,137.309,-82.41,147.085C-82.41,147.085,-82.41,157.571,-82.41,157.571C-82.41,162.032,-78.78,165.661,-74.319,165.661C-74.319,165.661,73.95,165.661,73.95,165.661C78.41,165.661,82.04,162.032,82.04,157.571C82.04,157.571,82.04,147.085,82.04,147.085C82.04,137.309,74.086,129.353,64.308,129.353C64.308,129.353,49.652,129.353,49.652,129.353C49.652,129.353,49.652,111.723,49.652,111.723M155.887,102.277C155.887,102.277,7.324,102.236,7.324,102.236C7.324,102.236,-68.756,102.236,-68.756,102.236C-68.756,102.236,-96.694,102.236,-96.694,102.236C-96.694,102.236,-144.475,102.236,-144.475,102.236C-150.903,102.236,-156.131,97.008,-156.131,90.58C-156.131,90.58,-156.131,72.166,-156.131,72.166C-156.131,72.166,155.906,72.166,155.906,72.166C155.906,72.166,155.906,80.531,155.906,80.531M39.945,111.723C39.945,111.723,39.945,129.353,39.945,129.353C39.945,129.353,-40.313,129.353,-40.313,129.353C-40.313,129.353,-40.313,111.943,-40.313,111.943C-40.313,111.943,7.324,111.943,7.324,111.943M64.312,139.062C68.735,139.062,72.333,142.661,72.333,147.085C72.333,147.085,72.333,155.954,72.333,155.954C72.333,155.954,-72.702,155.954,-72.702,155.954C-72.702,155.954,-72.702,147.085,-72.702,147.085C-72.702,142.661,-69.1,139.062,-64.677,139.062C-64.677,139.062,64.312,139.062,64.312,139.062ZM7.484,62.459C7.484,62.459,-156.131,62.459,-156.131,62.459C-156.131,62.459,-156.131,-99.63,-156.131,-99.63C-156.131,-99.63,155.765,-99.63,155.765,-99.63C155.765,-99.63,155.765,62.459,155.765,62.459C155.765,62.459,148.781,62.459,148.781,62.459C148.781,62.459,7.484,62.459,7.484,62.459ZM155.765,-109.339C155.765,-109.339,-155.774,-109.339,-155.774,-109.339C-155.774,-109.339,-155.774,-144.299,-155.774,-144.299C-155.774,-150.724,-150.546,-155.951,-144.118,-155.951C-144.118,-155.951,144.109,-155.951,144.109,-155.951C150.535,-155.951,155.765,-150.724,155.765,-144.296C155.765,-144.296,155.765,-109.339,155.765,-109.339Z" /></g><g id="i11" transform="matrix(1,0,0,1,36.051,33.127)"><path fill="#21243d" fill-rule="evenodd" d="M-0.001,-14.245C-7.855,-14.245,-14.245,-7.857,-14.245,-0.001C-14.245,7.853,-7.855,14.245,-0.001,14.245C7.853,14.245,14.245,7.853,14.245,-0.001C14.245,-7.857,7.853,-14.245,-0.001,-14.245ZM-0.001,4.536C-2.501,4.536,-4.538,2.501,-4.538,-0.001C-4.538,-2.502,-2.501,-4.538,-0.001,-4.538C2.502,-4.538,4.536,-2.502,4.536,-0.001C4.536,2.501,2.502,4.536,-0.001,4.536Z" /></g><g id="i12" transform="matrix(1,0,0,1,72.318,33.127)"><path fill="#21243d" fill-rule="evenodd" d="M0.001,-14.245C-7.853,-14.245,-14.245,-7.857,-14.245,-0.001C-14.245,7.853,-7.853,14.245,0.001,14.245C7.856,14.245,14.245,7.853,14.245,-0.001C14.245,-7.857,7.854,-14.245,0.001,-14.245ZM0.001,4.536C-2.501,4.536,-4.536,2.501,-4.536,-0.001C-4.536,-2.502,-2.501,-4.538,0.001,-4.538C2.502,-4.538,4.538,-2.502,4.538,-0.001C4.538,2.501,2.502,4.536,0.001,4.536Z" /></g><g id="i13" transform="matrix(1,0,0,1,108.588,33.127)"><path fill="#21243d" fill-rule="evenodd" d="M-0.001,-14.245C-7.855,-14.245,-14.245,-7.857,-14.245,-0.001C-14.245,7.853,-7.855,14.245,-0.001,14.245C7.854,14.245,14.245,7.853,14.245,-0.001C14.245,-7.857,7.854,-14.245,-0.001,-14.245ZM-0.001,4.536C-2.501,4.536,-4.538,2.501,-4.538,-0.001C-4.538,-2.502,-2.501,-4.538,-0.001,-4.538C2.502,-4.538,4.536,-2.502,4.536,-0.001C4.536,2.501,2.502,4.536,-0.001,4.536Z" /></g></g><g visibility="hidden" id="i14"><animate repeatCount="indefinite" begin="0s" calcMode="discrete" dur="4s" values="hidden; visible; visible" keyTimes="0; 0.175; 1" attributeName="visibility" /><g transform="translate(654.983,197.691)"><animateTransform repeatCount="indefinite" type="translate" attributeName="transform" dur="4s" begin="0s" calcMode="spline" values="654.983 197.691; 654.983 197.691; 378.983 242.691; 378.983 242.691" keyTimes="0; 0.175; 0.425; 1" keySplines="0 0 1 1; 0.39 0 0.18 1; 0 0 1 1" fill="freeze" /><g transform="scale(2,2)"><animateTransform repeatCount="indefinite" type="scale" attributeName="transform" dur="4s" begin="0s" calcMode="spline" values="2 2; 2 2; 1 1; 1 1" keyTimes="0; 0.175; 0.425; 1" keySplines="0 0 1 1; 0.39 0 0.18 1; 0 0 1 1" fill="freeze" /><g transform="translate(-71.583,-20.528)"><g id="i9" transform="matrix(1,0,0,1,71.583,20.528)"><path fill="#21243d" d="M60.444,20.278C60.444,20.278,-60.445,20.278,-60.445,20.278C-66.458,20.278,-71.333,15.403,-71.333,9.389C-71.333,9.389,-71.333,-9.388,-71.333,-9.388C-71.333,-15.402,-66.458,-20.278,-60.445,-20.278C-60.445,-20.278,60.444,-20.278,60.444,-20.278C66.458,-20.278,71.333,-15.402,71.333,-9.388C71.333,-9.388,71.333,9.389,71.333,9.389C71.333,15.403,66.458,20.278,60.444,20.278Z" /></g><g id="i10" transform="matrix(1,0,0,1,71.584,20.529)"><path fill="#007580" d="M60.741,10.898C60.741,10.898,-60.741,10.898,-60.741,10.898C-60.741,10.898,-60.741,-10.898,-60.741,-10.898C-60.741,-10.898,60.741,-10.898,60.741,-10.898C60.741,-10.898,60.741,10.898,60.741,10.898Z" /></g><g id="i11" transform="matrix(1,0,0,1,34.827,20.529)"><path fill="#21243d" d="M11.68,-4.855C11.68,-4.855,-11.679,-4.855,-11.679,-4.855C-14.359,-4.855,-16.533,-2.682,-16.533,-0.001C-16.533,2.68,-14.359,4.855,-11.679,4.855C-11.679,4.855,11.68,4.855,11.68,4.855C14.363,4.855,16.533,2.68,16.533,-0.001C16.533,-2.682,14.363,-4.855,11.68,-4.855Z" /></g><g id="i12" transform="matrix(1,0,0,1,103.529,20.529)"><path fill="#21243d" d="M-16.488,4.854C-16.488,4.854,16.487,4.854,16.487,4.854C19.168,4.854,21.342,2.68,21.342,-0.001C21.342,-2.682,19.168,-4.854,16.487,-4.854C16.487,-4.854,-16.488,-4.854,-16.488,-4.854C-19.171,-4.854,-21.342,-2.682,-21.342,-0.001C-21.342,2.68,-19.168,4.854,-16.488,4.854Z" /></g><g id="i13" transform="matrix(1,0,0,1,66.772,20.529)"><path fill="#21243d" d="M3.779,-4.855C3.779,-4.855,-3.777,-4.855,-3.777,-4.855C-6.459,-4.855,-8.633,-2.682,-8.633,-0.001C-8.633,2.68,-6.459,4.855,-3.777,4.855C-3.777,4.855,3.779,4.855,3.779,4.855C6.462,4.855,8.633,2.68,8.633,-0.001C8.633,-2.682,6.462,-4.855,3.779,-4.855Z" /></g></g></g></g></g><g visibility="hidden" id="i15"><animate repeatCount="indefinite" begin="0s" calcMode="discrete" dur="4s" values="hidden; visible; visible" keyTimes="0; 0.442; 1" attributeName="visibility" /><g transform="translate(378.983,242.691)"><animateTransform repeatCount="indefinite" type="translate" attributeName="transform" dur="4s" begin="0s" calcMode="spline" values="378.983 242.691; 378.983 242.691; 378.983 301.691; 378.983 301.691" keyTimes="0; 0.45; 0.508333; 1" keySplines="0 0 1 1; 0.39 0 0.18 1; 0 0 1 1" fill="freeze" /><g transform="scale(1,1) translate(-71.583,-20.528)"><g id="i9" transform="matrix(1,0,0,1,71.583,20.528)"><path fill="#21243d" d="M60.444,20.278C60.444,20.278,-60.445,20.278,-60.445,20.278C-66.458,20.278,-71.333,15.403,-71.333,9.389C-71.333,9.389,-71.333,-9.388,-71.333,-9.388C-71.333,-15.402,-66.458,-20.278,-60.445,-20.278C-60.445,-20.278,60.444,-20.278,60.444,-20.278C66.458,-20.278,71.333,-15.402,71.333,-9.388C71.333,-9.388,71.333,9.389,71.333,9.389C71.333,15.403,66.458,20.278,60.444,20.278Z" /></g><g id="i10" transform="matrix(1,0,0,1,71.584,20.529)"><path fill="#007580" d="M60.741,10.898C60.741,10.898,-60.741,10.898,-60.741,10.898C-60.741,10.898,-60.741,-10.898,-60.741,-10.898C-60.741,-10.898,60.741,-10.898,60.741,-10.898C60.741,-10.898,60.741,10.898,60.741,10.898Z" /></g><g id="i11" transform="matrix(1,0,0,1,34.827,20.529)"><path fill="#21243d" d="M11.68,-4.855C11.68,-4.855,-11.679,-4.855,-11.679,-4.855C-14.359,-4.855,-16.533,-2.682,-16.533,-0.001C-16.533,2.68,-14.359,4.855,-11.679,4.855C-11.679,4.855,11.68,4.855,11.68,4.855C14.363,4.855,16.533,2.68,16.533,-0.001C16.533,-2.682,14.363,-4.855,11.68,-4.855Z" /></g><g id="i12" transform="matrix(1,0,0,1,103.529,20.529)"><path fill="#21243d" d="M-16.488,4.854C-16.488,4.854,16.487,4.854,16.487,4.854C19.168,4.854,21.342,2.68,21.342,-0.001C21.342,-2.682,19.168,-4.854,16.487,-4.854C16.487,-4.854,-16.488,-4.854,-16.488,-4.854C-19.171,-4.854,-21.342,-2.682,-21.342,-0.001C-21.342,2.68,-19.168,4.854,-16.488,4.854Z" /></g><g id="i13" transform="matrix(1,0,0,1,66.772,20.529)"><path fill="#21243d" d="M3.779,-4.855C3.779,-4.855,-3.777,-4.855,-3.777,-4.855C-6.459,-4.855,-8.633,-2.682,-8.633,-0.001C-8.633,2.68,-6.459,4.855,-3.777,4.855C-3.777,4.855,3.779,4.855,3.779,4.855C6.462,4.855,8.633,2.68,8.633,-0.001C8.633,-2.682,6.462,-4.855,3.779,-4.855Z" /></g></g></g></g><g visibility="hidden" id="i16"><animate repeatCount="indefinite" begin="0s" calcMode="discrete" dur="4s" values="hidden; visible; visible" keyTimes="0; 0.508; 1" attributeName="visibility" /><g transform="translate(378.983,301.691)"><animateTransform repeatCount="indefinite" type="translate" attributeName="transform" dur="4s" begin="0s" calcMode="spline" values="378.983 301.691; 378.983 301.691; 378.983 355.691; 378.983 355.691" keyTimes="0; 0.516667; 0.575; 1" keySplines="0 0 1 1; 0.39 0 0.18 1; 0 0 1 1" fill="freeze" /><g transform="scale(1,1) translate(-71.583,-20.528)"><g id="i9" transform="matrix(1,0,0,1,71.583,20.528)"><path fill="#21243d" d="M60.444,20.278C60.444,20.278,-60.445,20.278,-60.445,20.278C-66.458,20.278,-71.333,15.403,-71.333,9.389C-71.333,9.389,-71.333,-9.388,-71.333,-9.388C-71.333,-15.402,-66.458,-20.278,-60.445,-20.278C-60.445,-20.278,60.444,-20.278,60.444,-20.278C66.458,-20.278,71.333,-15.402,71.333,-9.388C71.333,-9.388,71.333,9.389,71.333,9.389C71.333,15.403,66.458,20.278,60.444,20.278Z" /></g><g id="i10" transform="matrix(1,0,0,1,71.584,20.529)"><path fill="#007580" d="M60.741,10.898C60.741,10.898,-60.741,10.898,-60.741,10.898C-60.741,10.898,-60.741,-10.898,-60.741,-10.898C-60.741,-10.898,60.741,-10.898,60.741,-10.898C60.741,-10.898,60.741,10.898,60.741,10.898Z" /></g><g id="i11" transform="matrix(1,0,0,1,34.827,20.529)"><path fill="#21243d" d="M11.68,-4.855C11.68,-4.855,-11.679,-4.855,-11.679,-4.855C-14.359,-4.855,-16.533,-2.682,-16.533,-0.001C-16.533,2.68,-14.359,4.855,-11.679,4.855C-11.679,4.855,11.68,4.855,11.68,4.855C14.363,4.855,16.533,2.68,16.533,-0.001C16.533,-2.682,14.363,-4.855,11.68,-4.855Z" /></g><g id="i12" transform="matrix(1,0,0,1,103.529,20.529)"><path fill="#21243d" d="M-16.488,4.854C-16.488,4.854,16.487,4.854,16.487,4.854C19.168,4.854,21.342,2.68,21.342,-0.001C21.342,-2.682,19.168,-4.854,16.487,-4.854C16.487,-4.854,-16.488,-4.854,-16.488,-4.854C-19.171,-4.854,-21.342,-2.682,-21.342,-0.001C-21.342,2.68,-19.168,4.854,-16.488,4.854Z" /></g><g id="i13" transform="matrix(1,0,0,1,66.772,20.529)"><path fill="#21243d" d="M3.779,-4.855C3.779,-4.855,-3.777,-4.855,-3.777,-4.855C-6.459,-4.855,-8.633,-2.682,-8.633,-0.001C-8.633,2.68,-6.459,4.855,-3.777,4.855C-3.777,4.855,3.779,4.855,3.779,4.855C6.462,4.855,8.633,2.68,8.633,-0.001C8.633,-2.682,6.462,-4.855,3.779,-4.855Z" /></g></g></g></g><g visibility="hidden" id="i17"><animate repeatCount="indefinite" begin="0s" calcMode="discrete" dur="4s" values="hidden; visible; visible" keyTimes="0; 0.117; 1" attributeName="visibility" /><g transform="translate(-90.782,86.213)"><animateTransform repeatCount="indefinite" type="translate" attributeName="transform" dur="4s" begin="0s" calcMode="spline" values="-90.782 86.213; -90.782 86.213; 144.218 186.213; 144.218 186.213" keyTimes="0; 0.116667; 0.366667; 1" keySplines="0 0 1 1; 0.39 0 0.18 1; 0 0 1 1" fill="freeze" /><g transform="scale(2,2)"><animateTransform repeatCount="indefinite" type="scale" attributeName="transform" dur="4s" begin="0s" calcMode="spline" values="2 2; 2 2; 1 1; 1 1" keyTimes="0; 0.116667; 0.366667; 1" keySplines="0 0 1 1; 0.39 0 0.18 1; 0 0 1 1" fill="freeze" /><g transform="translate(-38.753,-20.646)"><g id="i11" transform="matrix(1,0,0,1,12.951,20.733)"><path fill="#21243d" d="M3.94,18.887C4.886,19.833,6.128,20.31,7.371,20.31C8.614,20.31,9.856,19.836,10.805,18.887C12.701,16.991,12.701,13.917,10.805,12.022C10.805,12.022,-0.982,0.235,-0.982,0.235C-0.982,0.235,10.805,-11.55,10.805,-11.55C12.701,-13.448,12.701,-16.52,10.805,-18.416C8.91,-20.31,5.836,-20.31,3.94,-18.416C3.94,-18.416,-11.279,-3.197,-11.279,-3.197C-12.19,-2.286,-12.701,-1.05,-12.701,0.235C-12.701,1.523,-12.19,2.758,-11.279,3.668C-11.279,3.668,3.94,18.887,3.94,18.887Z" /></g><g id="i12" transform="matrix(1,0,0,1,64.317,20.731)"><path fill="#21243d" d="M0.745,0.236C0.745,0.236,-11.042,12.023,-11.042,12.023C-12.938,13.919,-12.939,16.993,-11.04,18.888C-10.094,19.835,-8.851,20.311,-7.609,20.311C-6.365,20.311,-5.124,19.835,-4.178,18.888C-4.178,18.888,11.044,3.668,11.044,3.668C12.939,1.772,12.939,-1.301,11.044,-3.195C11.044,-3.195,-4.178,-18.415,-4.178,-18.415C-6.073,-20.311,-9.146,-20.311,-11.04,-18.415C-12.939,-16.518,-12.939,-13.447,-11.04,-11.551C-11.04,-11.551,0.745,0.236,0.745,0.236Z" /></g><g id="i13" transform="matrix(1,0,0,1,39.034,20.646)"><path fill="#21243d" d="M-7.754,20.059C-7.172,20.287,-6.57,20.396,-5.981,20.396C-4.042,20.396,-2.212,19.227,-1.461,17.317C-1.461,17.317,10.496,-13.123,10.496,-13.123C11.477,-15.618,10.248,-18.434,7.753,-19.417C5.261,-20.396,2.441,-19.17,1.462,-16.674C1.462,-16.674,-10.497,13.766,-10.497,13.766C-11.477,16.261,-10.249,19.08,-7.754,20.059Z" /></g></g></g></g></g><g visibility="hidden" id="i18"><animate repeatCount="indefinite" begin="0s" calcMode="discrete" dur="4s" values="hidden; visible; visible" keyTimes="0; 0.058; 1" attributeName="visibility" /><g transform="translate(648.06,108.252)"><animateTransform repeatCount="indefinite" type="translate" attributeName="transform" dur="4s" begin="0s" calcMode="spline" values="648.06 108.252; 648.06 108.252; 265.06 196.252; 265.06 196.252" keyTimes="0; 0.058333; 0.308333; 1" keySplines="0 0 1 1; 0.39 0 0.18 1; 0 0 1 1" fill="freeze" /><g transform="scale(2,2)"><animateTransform repeatCount="indefinite" type="scale" attributeName="transform" dur="4s" begin="0s" calcMode="spline" values="2 2; 2 2; 1 1; 1 1" keyTimes="0; 0.058333; 0.308333; 1" keySplines="0 0 1 1; 0.39 0 0.18 1; 0 0 1 1" fill="freeze" /><g transform="translate(-74.001,-15.784)"><g id="i9" transform="matrix(1,0,0,1,13.485,5.105)"><path fill="#21243d" d="M-8.38,4.855C-8.38,4.855,8.38,4.855,8.38,4.855C11.062,4.855,13.236,2.681,13.236,-0.001C13.236,-2.681,11.062,-4.855,8.38,-4.855C8.38,-4.855,-8.38,-4.855,-8.38,-4.855C-11.063,-4.855,-13.236,-2.681,-13.236,-0.001C-13.236,2.681,-11.063,4.855,-8.38,4.855Z" /></g><g id="i10" transform="matrix(1,0,0,1,91.766,5.105)"><path fill="#21243d" d="M-51.129,4.855C-51.129,4.855,51.132,4.855,51.132,4.855C53.813,4.855,55.985,2.681,55.985,-0.001C55.985,-2.681,53.813,-4.855,51.132,-4.855C51.132,-4.855,-51.129,-4.855,-51.129,-4.855C-53.812,-4.855,-55.985,-2.681,-55.985,-0.001C-55.985,2.681,-53.812,4.855,-51.129,4.855Z" /></g><g id="i11" transform="matrix(1,0,0,1,106.653,26.463)"><path fill="#21243d" d="M20.712,-4.855C20.712,-4.855,-20.713,-4.855,-20.713,-4.855C-23.392,-4.855,-25.566,-2.68,-25.566,0.001C-25.566,2.681,-23.392,4.855,-20.713,4.855C-20.713,4.855,20.712,4.855,20.712,4.855C23.393,4.855,25.566,2.681,25.566,0.001C25.566,-2.68,23.393,-4.855,20.712,-4.855Z" /></g><g id="i12" transform="matrix(1,0,0,1,63.288,26.463)"><path fill="#21243d" d="M7.12,-4.855C7.12,-4.855,-7.12,-4.855,-7.12,-4.855C-9.802,-4.855,-11.973,-2.68,-11.973,0.001C-11.973,2.681,-9.802,4.855,-7.12,4.855C-7.12,4.855,7.12,4.855,7.12,4.855C9.803,4.855,11.973,2.681,11.973,0.001C11.973,-2.68,9.803,-4.855,7.12,-4.855Z" /></g><g id="i13" transform="matrix(1,0,0,1,22.546,26.463)"><path fill="#21243d" d="M-17.441,4.854C-17.441,4.854,17.443,4.854,17.443,4.854C20.122,4.854,22.296,2.681,22.296,0.001C22.296,-2.68,20.122,-4.854,17.443,-4.854C17.443,-4.854,-17.441,-4.854,-17.441,-4.854C-20.124,-4.854,-22.296,-2.68,-22.296,0.001C-22.296,2.681,-20.124,4.854,-17.441,4.854Z" /></g></g></g></g></g><g id="i19"><g transform="translate(-157.698,206.62)"><animateTransform repeatCount="indefinite" type="translate" attributeName="transform" dur="4s" begin="0s" calcMode="spline" values="-157.698 206.62; 179.302 250.62; 179.302 250.62" keyTimes="0; 0.25; 1" keySplines="0.39 0 0.18 1; 0 0 1 1" fill="freeze" /><g transform="scale(2,2)"><animateTransform repeatCount="indefinite" type="scale" attributeName="transform" dur="4s" begin="0s" calcMode="spline" values="2 2; 1 1; 1 1" keyTimes="0; 0.25; 1" keySplines="0.39 0 0.18 1; 0 0 1 1" fill="freeze" /><g transform="translate(-71.089,-25.492)"><g id="i5" transform="matrix(1,0,0,1,21.455,5.105)"><path fill="#21243d" d="M-16.351,4.855C-16.351,4.855,16.351,4.855,16.351,4.855C19.031,4.855,21.205,2.681,21.205,-0.001C21.205,-2.681,19.031,-4.855,16.351,-4.855C16.351,-4.855,-16.351,-4.855,-16.351,-4.855C-19.034,-4.855,-21.205,-2.681,-21.205,-0.001C-21.205,2.681,-19.034,4.855,-16.351,4.855Z" /></g><g id="i6" transform="matrix(1,0,0,1,84.379,5.105)"><path fill="#21243d" d="M28.746,-4.855C28.746,-4.855,-28.747,-4.855,-28.747,-4.855C-31.428,-4.855,-33.602,-2.681,-33.602,-0.001C-33.602,2.681,-31.428,4.855,-28.747,4.855C-28.747,4.855,28.746,4.855,28.746,4.855C31.429,4.855,33.602,2.681,33.602,-0.001C33.602,-2.681,31.429,-4.855,28.746,-4.855Z" /></g><g id="i7" transform="matrix(1,0,0,1,12.069,25.58)"><path fill="#21243d" d="M-6.965,4.855C-6.965,4.855,6.966,4.855,6.966,4.855C9.645,4.855,11.819,2.681,11.819,-0.001C11.819,-2.681,9.645,-4.855,6.966,-4.855C6.966,-4.855,-6.965,-4.855,-6.965,-4.855C-9.648,-4.855,-11.819,-2.681,-11.819,-0.001C-11.819,2.681,-9.648,4.855,-6.965,4.855Z" /></g><g id="i8" transform="matrix(1,0,0,1,99.608,25.58)"><path fill="#21243d" d="M-4.242,-4.855C-6.925,-4.855,-9.096,-2.681,-9.096,-0.001C-9.096,2.681,-6.925,4.855,-4.242,4.855C-4.242,4.855,4.239,4.855,4.239,4.855C6.922,4.855,9.096,2.681,9.096,-0.001C9.096,-2.681,6.922,-4.855,4.239,-4.855C4.239,-4.855,-4.242,-4.855,-4.242,-4.855Z" /></g><g id="i9" transform="matrix(1,0,0,1,56.901,25.579)"><path fill="#21243d" d="M25.688,-0.001C25.688,-2.681,23.513,-4.855,20.833,-4.855C20.833,-4.855,-20.834,-4.855,-20.834,-4.855C-23.516,-4.855,-25.688,-2.681,-25.688,-0.001C-25.688,2.682,-23.516,4.855,-20.834,4.855C-20.834,4.855,20.833,4.855,20.833,4.855C23.513,4.855,25.688,2.682,25.688,-0.001Z" /></g><g id="i10" transform="matrix(1,0,0,1,127.187,25.579)"><path fill="#21243d" d="M-12.799,-0.001C-12.799,2.682,-10.626,4.855,-7.946,4.855C-7.946,4.855,7.943,4.855,7.943,4.855C10.625,4.855,12.799,2.682,12.799,-0.001C12.799,-2.681,10.625,-4.855,7.943,-4.855C7.943,-4.855,-7.946,-4.855,-7.946,-4.855C-10.626,-4.855,-12.799,-2.681,-12.799,-0.001Z" /></g><g id="i11" transform="matrix(1,0,0,1,61.444,45.881)"><path fill="#21243d" d="M16.351,-4.854C16.351,-4.854,-16.348,-4.854,-16.348,-4.854C-19.031,-4.854,-21.205,-2.679,-21.205,0.001C-21.205,2.68,-19.031,4.854,-16.348,4.854C-16.348,4.854,16.351,4.854,16.351,4.854C19.032,4.854,21.205,2.68,21.205,0.001C21.205,-2.679,19.032,-4.854,16.351,-4.854Z" /></g><g id="i12" transform="matrix(1,0,0,1,17.665,45.881)"><path fill="#21243d" d="M12.562,-4.854C12.562,-4.854,-12.561,-4.854,-12.561,-4.854C-15.244,-4.854,-17.415,-2.679,-17.415,0.001C-17.415,2.68,-15.244,4.854,-12.561,4.854C-12.561,4.854,12.562,4.854,12.562,4.854C15.245,4.854,17.415,2.68,17.415,0.001C17.415,-2.679,15.245,-4.854,12.562,-4.854Z" /></g><g id="i13" transform="matrix(1,0,0,1,115.715,45.881)"><path fill="#21243d" d="M21.359,-4.854C21.359,-4.854,-21.359,-4.854,-21.359,-4.854C-24.041,-4.854,-26.212,-2.679,-26.212,0.001C-26.212,2.68,-24.041,4.854,-21.359,4.854C-21.359,4.854,21.359,4.854,21.359,4.854C24.039,4.854,26.212,2.68,26.212,0.001C26.212,-2.679,24.039,-4.854,21.359,-4.854Z" /></g></g></g></g></g></svg>