<svg fill="none" height="100%" width="100%" viewBox="0 0 1000 1000" xmlns:xlink="http://www.w3.org/1999/xlink" xmlns="http://www.w3.org/2000/svg"><g id="i0"><g transform="translate(501.316,253.494)"><animateTransform repeatCount="indefinite" type="translate" attributeName="transform" dur="3.5s" begin="0s" calcMode="spline" values="501.316 253.494; 501.316 253.494; 689.316 339.494; 689.316 339.494" keyTimes="0; 0.190476; 0.390476; 1" keySplines="0 0 1 1; 0.82 0 0.833 0.833; 0 0 1 1" fill="freeze" /><g transform="rotate(0)"><animateTransform repeatCount="indefinite" type="rotate" attributeName="transform" dur="3.5s" begin="0s" calcMode="spline" values="0; 0; 6; 0; 0" keyTimes="0; 0.247619; 0.295238; 0.390476; 1" keySplines="0 0 1 1; 0 0 1 1; 0 0 1 1; 0 0 1 1" fill="freeze" /><g transform="scale(0,0)"><animateTransform repeatCount="indefinite" type="scale" attributeName="transform" dur="3.5s" begin="0s" calcMode="spline" values="0 0; 1 1; 1 1" keyTimes="0; 0.095238; 1" keySplines="0.12 0 0.833 0.833; 0 0 1 1" fill="freeze" /><g transform="translate(-189.316,160.61)"><g id="i1"><path fill="#ffffff" d="M-13.537,266.695C-13.537,266.695,387.868,326.625,387.868,326.625C396.678,327.94,404.598,321.116,404.598,312.208C404.598,312.208,404.598,-146.03,404.598,-146.03C404.598,-154.938,396.678,-161.762,387.868,-160.447C387.868,-160.447,-13.537,-100.517,-13.537,-100.517C-20.677,-99.451,-25.962,-93.32,-25.962,-86.1C-25.962,-86.1,-25.962,252.278,-25.962,252.278C-25.962,259.498,-20.677,265.629,-13.537,266.695Z" /></g><g id="i2"><path fill="#000000" d="M-25.962,-71.129C-25.962,-89.818,-26.751,-98.338,-3.923,-101.612C-3.923,-101.612,387.868,-160.448,387.868,-160.448C396.678,-161.758,404.598,-154.939,404.598,-146.029C404.598,-146.029,404.598,-89.438,404.598,-89.438C404.598,-89.438,-25.962,-36.065,-25.962,-36.065C-25.962,-36.065,-25.962,-71.129,-25.962,-71.129Z" /></g><g id="i3"><path fill="#ffffff" d="M340.874,-121.074C340.874,-110.028,347.44,-101.074,355.54,-101.074C363.64,-101.074,370.207,-110.028,370.207,-121.074C370.207,-132.12,363.64,-141.074,355.54,-141.074C347.44,-141.074,340.874,-132.12,340.874,-121.074Z" /></g><g id="i4"><path fill="#ffffff" d="M277.73,-113.668C277.73,-102.622,284.297,-93.668,292.397,-93.668C300.497,-93.668,307.064,-102.622,307.064,-113.668C307.064,-124.714,300.497,-133.668,292.397,-133.668C284.297,-133.668,277.73,-124.714,277.73,-113.668Z" /></g><g id="i5"><path stroke-linejoin="round" stroke-linecap="round" stroke-width="8" stroke="#000000" d="M-13.537,266.695C-13.537,266.695,387.868,326.625,387.868,326.625C396.678,327.94,404.598,321.116,404.598,312.208C404.598,312.208,404.598,-146.03,404.598,-146.03C404.598,-154.938,396.678,-161.762,387.868,-160.447C387.868,-160.447,-13.537,-100.517,-13.537,-100.517C-20.677,-99.451,-25.962,-93.32,-25.962,-86.1C-25.962,-86.1,-25.962,252.278,-25.962,252.278C-25.962,259.498,-20.677,265.629,-13.537,266.695Z" /></g><g id="i6" transform="matrix(1,0,0,1,0,0)"><g stroke-dasharray="0 100" pathLength="100" id="i7"><path stroke-miterlimit="10" stroke-width="8" stroke="#ff9f1c" d="M294.087,130.456C294.087,130.456,336.208,130.942,336.208,130.942C342.672,131.017,347.874,136.278,347.874,142.743C347.874,142.743,347.874,256.07,347.874,256.07C347.874,263.083,341.794,268.549,334.82,267.805C334.82,267.805,292.698,263.31,292.698,263.31C286.699,262.67,282.149,257.608,282.149,251.575C282.149,251.575,282.149,142.257,282.149,142.257C282.149,135.686,287.516,130.38,294.087,130.456Z" /><animate repeatCount="indefinite" fill="freeze" begin="0s" dur="3.5s" calcMode="spline" keySplines="0 0 1 1; 0.167 0.167 0.6 1; 0 0 1 1" keyTimes="0; 0.095238; 0.295238; 1" values="0 100; 0 100; 100 0; 100 0" attributeName="stroke-dasharray" /><animate repeatCount="indefinite" fill="freeze" begin="0s" dur="3.5s" calcMode="spline" keySplines="0 0 1 1; 0.167 0.167 0.6 1; 0 0 1 1" keyTimes="0; 0.095238; 0.295238; 1" values="0; 0; 0; 0" attributeName="stroke-dashoffset" /></g><g id="i8"><path stroke-linejoin="round" stroke-linecap="round" stroke-width="8" stroke="#ff9f1c" d="M18.54,139.261"><set fill="freeze" dur="0.033s" begin="0.3333333333333333s" to="M18.54,139.261" attributeName="d" /><set fill="freeze" dur="0.033s" begin="0.36666666666666664s" to="M18.54,139.261C18.54,139.261,22.915,139.472,30.414,139.833" attributeName="d" /><set fill="freeze" dur="0.033s" begin="0.4s" to="M18.54,139.261C18.54,139.261,28.504,139.741,44.134,140.495" attributeName="d" /><set fill="freeze" dur="0.033s" begin="0.43333333333333335s" to="M18.54,139.261C18.54,139.261,34.912,140.05,58.607,141.193" attributeName="d" /><set fill="freeze" dur="0.033s" begin="0.4666666666666667s" to="M18.54,139.261C18.54,139.261,41.968,140.391,73.331,141.903" attributeName="d" /><set fill="freeze" dur="0.033s" begin="0.5s" to="M18.54,139.261C18.54,139.261,49.574,140.757,88.025,142.611" attributeName="d" /><set fill="freeze" dur="0.033s" begin="0.5333333333333333s" to="M18.54,139.261C18.54,139.261,57.677,141.148,102.504,143.309" attributeName="d" /><set fill="freeze" dur="0.033s" begin="0.5666666666666667s" to="M18.54,139.261C18.54,139.261,66.241,141.561,116.637,143.991" attributeName="d" /><set fill="freeze" dur="0.033s" begin="0.6s" to="M18.54,139.261C18.54,139.261,75.244,141.995,130.32,144.65" attributeName="d" /><set fill="freeze" dur="0.033s" begin="0.6333333333333333s" to="M18.54,139.261C18.54,139.261,84.673,142.45,143.468,145.284" attributeName="d" /><set fill="freeze" dur="0.033s" begin="0.6666666666666666s" to="M18.54,139.261C18.54,139.261,94.521,142.924,156.005,145.889" attributeName="d" /><set fill="freeze" dur="0.033s" begin="0.7s" to="M18.54,139.261C18.541,139.261,104.788,143.419,167.861,146.46" attributeName="d" /><set fill="freeze" dur="0.033s" begin="0.7333333333333333s" to="M18.54,139.261C18.541,139.261,115.476,143.935,178.967,146.996" attributeName="d" /><set fill="freeze" dur="0.033s" begin="0.7666666666666667s" to="M18.54,139.261C18.541,139.261,126.592,144.471,189.258,147.492" attributeName="d" /><set fill="freeze" dur="0.033s" begin="0.8s" to="M18.54,139.261C18.541,139.261,138.146,145.028,198.663,147.946" attributeName="d" /><set fill="freeze" dur="0.033s" begin="0.8333333333333334s" to="M18.54,139.261C18.541,139.261,150.152,145.607,207.11,148.353" attributeName="d" /><set fill="freeze" dur="0.033s" begin="0.8666666666666667s" to="M18.54,139.261C18.541,139.261,162.627,146.208,214.524,148.71" attributeName="d" /><set fill="freeze" dur="0.033s" begin="0.9s" to="M18.54,139.261C18.541,139.261,175.588,146.833,220.82,149.014" attributeName="d" /><set fill="freeze" dur="0.033s" begin="0.9333333333333333s" to="M18.54,139.261C18.541,139.261,189.063,147.483,225.909,149.259" attributeName="d" /><set fill="freeze" dur="0.033s" begin="0.9666666666666667s" to="M18.54,139.261C18.541,139.261,203.08,148.158,229.692,149.442" attributeName="d" /><set fill="freeze" dur="0.033s" begin="1s" to="M18.54,139.261C18.541,139.261,217.67,148.862,232.055,149.556" attributeName="d" /><set fill="freeze" dur="0.033s" begin="1.0333333333333334s" to="M18.54,139.261C18.54,139.261,232.874,149.595,232.874,149.595" attributeName="d" /></path></g><g id="i9"><path stroke-linejoin="round" stroke-linecap="round" stroke-width="8" stroke="#ff9f1c" d="M18.54,188.831"><set fill="freeze" dur="0.033s" begin="0.3333333333333333s" to="M18.54,188.831" attributeName="d" /><set fill="freeze" dur="0.033s" begin="0.36666666666666664s" to="M18.54,188.831C18.54,188.831,22.915,189.266,30.414,190.013" attributeName="d" /><set fill="freeze" dur="0.033s" begin="0.4s" to="M18.54,188.831C18.54,188.831,28.504,189.823,44.134,191.378" attributeName="d" /><set fill="freeze" dur="0.033s" begin="0.43333333333333335s" to="M18.54,188.831C18.54,188.831,34.912,190.461,58.607,192.819" attributeName="d" /><set fill="freeze" dur="0.033s" begin="0.4666666666666667s" to="M18.54,188.831C18.54,188.831,41.968,191.163,73.331,194.284" attributeName="d" /><set fill="freeze" dur="0.033s" begin="0.5s" to="M18.54,188.831C18.54,188.831,49.574,191.92,88.025,195.747" attributeName="d" /><set fill="freeze" dur="0.033s" begin="0.5333333333333333s" to="M18.54,188.831C18.54,188.831,57.677,192.726,102.504,197.188" attributeName="d" /><set fill="freeze" dur="0.033s" begin="0.5666666666666667s" to="M18.54,188.831C18.54,188.831,66.241,193.579,116.637,198.595" attributeName="d" /><set fill="freeze" dur="0.033s" begin="0.6s" to="M18.54,188.831C18.54,188.831,75.244,194.475,130.32,199.957" attributeName="d" /><set fill="freeze" dur="0.033s" begin="0.6333333333333333s" to="M18.54,188.831C18.54,188.831,84.673,195.413,143.468,201.265" attributeName="d" /><set fill="freeze" dur="0.033s" begin="0.6666666666666666s" to="M18.54,188.831C18.54,188.831,94.521,196.393,156.005,202.513" attributeName="d" /><set fill="freeze" dur="0.033s" begin="0.7s" to="M18.54,188.831C18.541,188.831,104.788,197.415,167.861,203.693" attributeName="d" /><set fill="freeze" dur="0.033s" begin="0.7333333333333333s" to="M18.54,188.831C18.541,188.831,115.476,198.479,178.967,204.799" attributeName="d" /><set fill="freeze" dur="0.033s" begin="0.7666666666666667s" to="M18.54,188.831C18.541,188.831,126.592,199.586,189.258,205.823" attributeName="d" /><set fill="freeze" dur="0.033s" begin="0.8s" to="M18.54,188.831C18.541,188.831,138.146,200.736,198.663,206.759" attributeName="d" /><set fill="freeze" dur="0.033s" begin="0.8333333333333334s" to="M18.54,188.831C18.541,188.831,150.152,201.931,207.11,207.6" attributeName="d" /><set fill="freeze" dur="0.033s" begin="0.8666666666666667s" to="M18.54,188.831C18.541,188.831,162.627,203.172,214.524,208.338" attributeName="d" /><set fill="freeze" dur="0.033s" begin="0.9s" to="M18.54,188.831C18.541,188.831,175.588,204.462,220.82,208.964" attributeName="d" /><set fill="freeze" dur="0.033s" begin="0.9333333333333333s" to="M18.54,188.831C18.541,188.831,189.063,205.803,225.909,209.471" attributeName="d" /><set fill="freeze" dur="0.033s" begin="0.9666666666666667s" to="M18.54,188.831C18.541,188.831,203.08,207.199,229.692,209.847" attributeName="d" /><set fill="freeze" dur="0.033s" begin="1s" to="M18.54,188.831C18.541,188.831,217.67,208.651,232.055,210.083" attributeName="d" /><set fill="freeze" dur="0.033s" begin="1.0333333333333334s" to="M18.54,188.831C18.54,188.831,232.874,210.164,232.874,210.164" attributeName="d" /></path></g><g stroke-dasharray="0 100" pathLength="100" id="i10" transform="matrix(1,0,0,1,0,0)"><g id="i10"><path stroke-miterlimit="10" stroke-width="8" stroke="#ff6961" d="M20.788,-11.814C20.788,-11.814,335.238,-44.815,335.238,-44.815C341.993,-45.524,347.874,-40.227,347.874,-33.435C347.874,-33.435,347.874,80.44,347.874,80.44C347.874,86.797,342.691,91.936,336.334,91.882C336.334,91.882,21.884,89.186,21.884,89.186C15.603,89.132,10.54,84.026,10.54,77.745C10.54,77.745,10.54,-0.435,10.54,-0.435C10.54,-6.292,14.963,-11.203,20.788,-11.814Z" /></g><g id="i11"><path stroke-miterlimit="10" stroke-width="8" stroke="#ff6961" d="M15.248,86.982C15.248,86.982,343.247,-42.624,343.247,-42.624" /></g><g id="i12"><path stroke-miterlimit="10" stroke-width="8" stroke="#ff6961" d="M14.55,-9.12C14.55,-9.12,344.649,88.389,344.649,88.389" /></g><animate repeatCount="indefinite" fill="freeze" begin="0s" dur="3.5s" calcMode="spline" keySplines="0 0 1 1; 0.167 0.167 0.6 1; 0 0 1 1" keyTimes="0; 0.095238; 0.295238; 1" values="0 100; 0 100; 100 0; 100 0" attributeName="stroke-dasharray" /><animate repeatCount="indefinite" fill="freeze" begin="0s" dur="3.5s" calcMode="spline" keySplines="0 0 1 1; 0.167 0.167 0.6 1; 0 0 1 1" keyTimes="0; 0.095238; 0.295238; 1" values="0; 0; 0; 0" attributeName="stroke-dashoffset" /></g></g></g></g></g></g></g><g opacity="0" visibility="hidden" id="i13"><animate repeatCount="indefinite" begin="0s" calcMode="discrete" dur="3.5s" values="hidden; visible; visible" keyTimes="0; 0.2; 1" attributeName="visibility" /><animate repeatCount="indefinite" attributeName="opacity" dur="3.5s" begin="0s" fill="freeze" values="0; 0; 1; 1" keyTimes="0; 0.390476; 0.449051; 1" keySplines="0 0 1 1; 0.69 0 0.31 1; 0 0 1 1" calcMode="spline" /><g transform="translate(718.556,579.243)"><animateTransform repeatCount="indefinite" type="translate" attributeName="transform" dur="3.5s" begin="0s" calcMode="spline" values="718.556 579.243; 718.556 579.243; 534.556 497.243; 534.556 497.243" keyTimes="0; 0.390476; 0.553172; 1" keySplines="0 0 1 1; 0.82 0 0.833 0.833; 0 0 1 1" fill="freeze" /><g transform="rotate(0)"><animateTransform repeatCount="indefinite" type="rotate" attributeName="transform" dur="3.5s" begin="0s" calcMode="spline" values="0; 0; -3; 0; 0" keyTimes="0; 0.419048; 0.466667; 0.552381; 1" keySplines="0 0 1 1; 0 0 1 1; 0 0 1 1; 0 0 1 1" fill="freeze" /><g transform="scale(1,1) translate(-4.856,0.941)"><g id="i7"><path fill="#000000" d="M-197.999,182.665C-197.999,182.665,203.406,242.596,203.406,242.596C212.216,243.911,220.136,237.086,220.136,228.178C220.136,228.178,220.136,-230.06,220.136,-230.06C220.136,-238.968,212.216,-245.792,203.406,-244.477C203.406,-244.477,-197.999,-184.547,-197.999,-184.547C-205.139,-183.481,-210.424,-177.349,-210.424,-170.129C-210.424,-170.129,-210.424,168.248,-210.424,168.248C-210.424,175.468,-205.139,181.599,-197.999,182.665Z" /></g><g id="i5"><path fill="#ffffff" d="M-210.424,-185.87C-210.424,-185.87,203.406,-244.478,203.406,-244.478C212.216,-245.788,220.136,-238.968,220.136,-230.058C220.136,-230.058,220.136,-173.468,220.136,-173.468C220.136,-173.468,-210.424,-118.189,-210.424,-118.189C-210.424,-118.189,-210.424,-185.87,-210.424,-185.87Z" /></g><g id="i11"><path fill="#ff9f1c" d="M154.132,-204.07C154.132,-193.024,160.698,-184.07,168.798,-184.07C176.898,-184.07,183.465,-193.024,183.465,-204.07C183.465,-215.116,176.898,-224.07,168.798,-224.07C160.698,-224.07,154.132,-215.116,154.132,-204.07Z" /></g><g id="i12"><path fill="#ff9f1c" d="M90.988,-195.664C90.988,-184.618,97.555,-175.664,105.655,-175.664C113.755,-175.664,120.321,-184.618,120.321,-195.664C120.321,-206.71,113.755,-215.664,105.655,-215.664C97.555,-215.664,90.988,-206.71,90.988,-195.664Z" /></g><g id="i8"><path stroke-linejoin="round" stroke-linecap="round" stroke-width="8" stroke="#000000" d="M-197.999,182.665C-197.999,182.665,203.406,242.596,203.406,242.596C212.216,243.911,220.136,237.086,220.136,228.178C220.136,228.178,220.136,-230.06,220.136,-230.06C220.136,-238.968,212.216,-245.792,203.406,-244.477C203.406,-244.477,-197.999,-184.547,-197.999,-184.547C-205.139,-183.481,-210.424,-177.349,-210.424,-170.129C-210.424,-170.129,-210.424,168.248,-210.424,168.248C-210.424,175.468,-205.139,181.599,-197.999,182.665Z" /></g><g id="i10" transform="matrix(1,0,0,1,0,0)"><g id="i7" transform="matrix(0.465,0,0,1.029,41.785,1.517)"><g><g transform="translate(234.876,121.421)"><g transform="scale(0,0)"><animateTransform repeatCount="indefinite" type="scale" attributeName="transform" dur="3.5s" begin="0s" calcMode="spline" values="0 0; 0 0; 1 1; 1 1" keyTimes="0; 0.580952; 0.647619; 1" keySplines="0 0 1 1; 0.87 0 0.16 1; 0 0 1 1" fill="freeze" /><g id="i8" transform="translate(-234.876,-121.421)"><path stroke-linejoin="round" stroke-linecap="round" stroke-width="11" stroke="#00bc6c" d="M222.305,121.475C222.305,121.475,329.372,124.664,329.372,124.664" /></g></g></g></g><g><g transform="translate(35.298,114.657)"><g transform="scale(0,0)"><animateTransform repeatCount="indefinite" type="scale" attributeName="transform" dur="3.5s" begin="0s" calcMode="spline" values="0 0; 0 0; 1 1; 1 1" keyTimes="0; 0.561905; 0.628571; 1" keySplines="0 0 1 1; 0.87 0 0.16 1; 0 0 1 1" fill="freeze" /><g id="i9" transform="translate(-35.298,-114.657)"><path stroke-linejoin="round" stroke-linecap="round" stroke-width="11" stroke="#00bc6c" d="M21.076,113.944C21.076,113.944,128.142,117.133,128.142,117.133" /></g></g></g></g></g><g><g transform="translate(41.785,1.516)"><g id="i5" transform="scale(0,0)"><animateTransform repeatCount="indefinite" type="scale" attributeName="transform" dur="3.5s" begin="0s" calcMode="spline" values="0 0; 0 0; 1 1; 1 1" keyTimes="0; 0.542857; 0.609524; 1" keySplines="0 0 1 1; 0.87 0 0.16 1; 0 0 1 1" fill="freeze" /><path stroke-linejoin="round" stroke-linecap="round" stroke-width="11" stroke="#73ba9b" d="M39.856,48.602C39.856,48.602,131.858,48.39,131.858,48.39" /></g></g></g><g><g transform="translate(-83.307,62.488)"><g transform="scale(0,0)"><animateTransform repeatCount="indefinite" type="scale" attributeName="transform" dur="3.5s" begin="0s" calcMode="spline" values="0 0; 0 0; 1 1; 1 1" keyTimes="0; 0.514286; 0.580952; 1" keySplines="0 0 1 1; 0.87 0 0.16 1; 0 0 1 1" fill="freeze" /><g id="i14" transform="translate(83.307,-62.488)"><g id="i9"><path fill="#00bc6c" d="M-104.246,87.28C-105.389,87.156,-106.486,86.601,-107.271,85.641C-108.86,83.7,-108.574,80.838,-106.632,79.249C-106.632,79.249,-85.899,62.284,-85.899,62.284C-85.899,62.284,-105.164,43.67,-105.164,43.67C-106.968,41.926,-107.017,39.051,-105.274,37.247C-103.531,35.444,-100.655,35.394,-98.851,37.136C-98.851,37.136,-75.914,59.299,-75.914,59.299C-74.982,60.201,-74.479,61.457,-74.532,62.753C-74.585,64.049,-75.19,65.259,-76.194,66.081C-76.194,66.081,-100.879,86.28,-100.879,86.28C-101.86,87.083,-103.077,87.407,-104.246,87.28Z" /></g></g></g></g></g><g><g transform="translate(-130.715,61.74)"><g transform="scale(0,0)"><animateTransform repeatCount="indefinite" type="scale" attributeName="transform" dur="3.5s" begin="0s" calcMode="spline" values="0 0; 0 0; 1 1; 1 1" keyTimes="0; 0.485714; 0.552381; 1" keySplines="0 0 1 1; 0.87 0 0.16 1; 0 0 1 1" fill="freeze" /><g id="i1" transform="translate(130.715,-61.74)"><g id="i9"><path fill="#00bc6c" d="M-121.364,99.082C-123.134,98.89,-124.7,97.66,-125.233,95.845C-125.233,95.845,-144.579,29.989,-144.579,29.989C-145.286,27.582,-143.909,25.058,-141.502,24.351C-139.095,23.643,-136.57,25.02,-135.863,27.428C-135.863,27.428,-116.517,93.284,-116.517,93.284C-115.81,95.691,-117.188,98.215,-119.595,98.922C-120.187,99.096,-120.787,99.145,-121.364,99.082Z" /></g></g></g></g></g><g><g transform="translate(-175.908,55.393)"><g transform="scale(0,0)"><animateTransform repeatCount="indefinite" type="scale" attributeName="transform" dur="3.5s" begin="0s" calcMode="spline" values="0 0; 0 0; 1 1; 1 1" keyTimes="0; 0.476191; 0.542857; 1" keySplines="0 0 1 1; 0.87 0 0.16 1; 0 0 1 1" fill="freeze" /><g id="i6" transform="translate(175.908,-55.393)"><g id="i9"><path fill="#00bc6c" d="M-161.448,84.499C-162.416,84.394,-163.357,83.979,-164.111,83.251C-164.111,83.251,-187.049,61.088,-187.049,61.088C-187.982,60.186,-188.484,58.93,-188.431,57.634C-188.378,56.338,-187.773,55.126,-186.769,54.305C-186.769,54.305,-162.084,34.107,-162.084,34.107C-160.143,32.519,-157.281,32.804,-155.692,34.747C-154.103,36.688,-154.389,39.55,-156.331,41.139C-156.331,41.139,-177.064,58.103,-177.064,58.103C-177.064,58.103,-157.799,76.717,-157.799,76.717C-155.995,78.461,-155.946,81.337,-157.689,83.141C-158.704,84.191,-160.101,84.645,-161.448,84.499Z" /></g></g></g></g></g><g><g transform="translate(174.688,-51.761)"><g transform="scale(0,0)"><animateTransform repeatCount="indefinite" type="scale" attributeName="transform" dur="3.5s" begin="0s" calcMode="spline" values="0 0; 0 0; 1 1; 1 1" keyTimes="0; 0.504762; 0.571429; 1" keySplines="0 0 1 1; 0.87 0 0.16 1; 0 0 1 1" fill="freeze" /><g id="i2" transform="translate(-174.688,51.761)"><g id="i9"><path fill="#00bc6c" d="M148.503,-14.065C146.858,-14.065,145.212,-14.685,143.946,-15.93C141.386,-18.447,141.352,-22.562,143.869,-25.123C143.869,-25.123,170.746,-52.458,170.746,-52.458C170.746,-52.458,140.464,-75.966,140.464,-75.966C137.628,-78.168,137.114,-82.251,139.316,-85.087C141.517,-87.921,145.601,-88.435,148.436,-86.236C148.436,-86.236,184.49,-58.247,184.49,-58.247C185.956,-57.108,186.866,-55.398,186.99,-53.546C187.114,-51.694,186.44,-49.878,185.139,-48.554C185.139,-48.554,153.138,-16.007,153.138,-16.007C151.866,-14.713,150.185,-14.065,148.503,-14.065Z" /></g></g></g></g></g><g><g transform="translate(106.83,-45.728)"><g transform="scale(0,0)"><animateTransform repeatCount="indefinite" type="scale" attributeName="transform" dur="3.5s" begin="0s" calcMode="spline" values="0 0; 0 0; 1 1; 1 1" keyTimes="0; 0.476191; 0.542857; 1" keySplines="0 0 1 1; 0.87 0 0.16 1; 0 0 1 1" fill="freeze" /><g id="i3" transform="translate(-106.83,45.728)"><g id="i9"><path fill="#00bc6c" d="M125.971,5.368C123.423,5.368,121.005,3.86,119.966,1.36C119.966,1.36,82.276,-89.345,82.276,-89.345C80.899,-92.66,82.47,-96.464,85.785,-97.841C89.1,-99.22,92.904,-97.649,94.281,-94.333C94.281,-94.333,131.971,-3.628,131.971,-3.628C133.348,-0.313,131.778,3.491,128.463,4.868C127.648,5.207,126.802,5.368,125.971,5.368Z" /></g></g></g></g></g><g><g transform="translate(42.507,-46.656)"><g transform="scale(0,0)"><animateTransform repeatCount="indefinite" type="scale" attributeName="transform" dur="3.5s" begin="0s" calcMode="spline" values="0 0; 0 0; 1 1; 1 1" keyTimes="0; 0.447619; 0.514286; 1" keySplines="0 0 1 1; 0.87 0 0.16 1; 0 0 1 1" fill="freeze" /><g id="i4" transform="translate(-42.507,46.656)"><g id="i9"><path fill="#00bc6c" d="M66.692,-9.19C65.299,-9.19,63.896,-9.635,62.711,-10.555C62.711,-10.555,26.657,-38.545,26.657,-38.545C25.191,-39.684,24.281,-41.394,24.157,-43.246C24.033,-45.099,24.707,-46.915,26.008,-48.238C26.008,-48.238,58.009,-80.784,58.009,-80.784C60.525,-83.343,64.641,-83.38,67.201,-80.861C69.761,-78.344,69.795,-74.229,67.278,-71.668C67.278,-71.668,40.401,-44.333,40.401,-44.333C40.401,-44.333,70.682,-20.825,70.682,-20.825C73.518,-18.623,74.033,-14.54,71.831,-11.704C70.55,-10.054,68.631,-9.19,66.692,-9.19Z" /></g></g></g></g></g><g><g transform="translate(-136.813,-11.281)"><g transform="scale(0,0)"><animateTransform repeatCount="indefinite" type="scale" attributeName="transform" dur="3.5s" begin="0s" calcMode="spline" values="0 0; 0 0; 1 1; 1 1" keyTimes="0; 0.419048; 0.485714; 1" keySplines="0 0 1 1; 0.87 0 0.16 1; 0 0 1 1" fill="freeze" /><g id="i8" transform="translate(136.813,11.281)"><path stroke-linejoin="round" stroke-linecap="round" stroke-width="11" stroke="#73ba9b" d="M-181.144,-8.398C-181.144,-8.398,-89.142,-8.61,-89.142,-8.61" /></g></g></g></g><g><g transform="translate(-110.585,-71.482)"><g transform="scale(0,0)"><animateTransform repeatCount="indefinite" type="scale" attributeName="transform" dur="3.5s" begin="0s" calcMode="spline" values="0 0; 0 0; 1 1; 1 1" keyTimes="0; 0.390476; 0.457143; 1" keySplines="0 0 1 1; 0.87 0 0.16 1; 0 0 1 1" fill="freeze" /><g id="i12" transform="translate(110.585,71.482)"><path stroke-linejoin="round" stroke-linecap="round" stroke-width="11" stroke="#73ba9b" d="M-181.144,-64C-181.144,-64,-36.477,-75.333,-36.477,-75.333" /></g></g></g></g></g></g></g></g></g><g opacity="0" visibility="hidden" id="i15"><animate repeatCount="indefinite" begin="0s" calcMode="discrete" dur="3.5s" values="hidden; visible; visible" keyTimes="0; 0.2; 1" attributeName="visibility" /><animate repeatCount="indefinite" attributeName="opacity" dur="3.5s" begin="0s" fill="freeze" values="0; 0; 1; 1" keyTimes="0; 0.631267; 0.696354; 1" keySplines="0 0 1 1; 0.69 0 0.31 1; 0 0 1 1" calcMode="spline" /><g transform="translate(504.856,255.36)"><animateTransform repeatCount="indefinite" type="translate" attributeName="transform" dur="3.5s" begin="0s" calcMode="spline" values="504.856 255.36; 504.856 255.36; 310.682 173.212; 310.682 173.212" keyTimes="0; 0.631267; 0.838095; 1" keySplines="0 0 1 1; 0.82 0 0.833 0.833; 0 0 1 1" fill="freeze" /><g transform="rotate(0)"><animateTransform repeatCount="indefinite" type="rotate" attributeName="transform" dur="3.5s" begin="0s" calcMode="spline" values="0; 0; -3; 0; 0" keyTimes="0; 0.678095; 0.725714; 0.81143; 1" keySplines="0 0 1 1; 0 0 1 1; 0 0 1 1; 0 0 1 1" fill="freeze" /><g transform="scale(1,1) translate(189.318,326.788)"><g id="i6"><path fill="#d5f2e3" d="M-392.173,100.517C-392.173,100.517,9.232,160.447,9.232,160.447C18.042,161.762,25.962,154.938,25.962,146.03C25.962,146.03,25.962,-312.208,25.962,-312.208C25.962,-321.116,18.042,-327.94,9.232,-326.625C9.232,-326.625,-392.173,-266.695,-392.173,-266.695C-399.313,-265.629,-404.598,-259.498,-404.598,-252.278C-404.598,-252.278,-404.598,86.1,-404.598,86.1C-404.598,93.32,-399.313,99.451,-392.173,100.517Z" /></g><g id="i1"><path fill="#000000" d="M-404.598,-252.275C-404.598,-252.275,-404.598,-204.615,-404.598,-204.615C-404.598,-204.615,25.962,-255.615,25.962,-255.615C25.962,-255.615,25.962,-312.205,25.962,-312.205C25.962,-321.115,18.042,-327.935,9.232,-326.625C9.232,-326.625,-392.178,-266.695,-392.178,-266.695C-399.318,-265.625,-404.598,-259.495,-404.598,-252.275Z" /></g><g id="i2"><path fill="#ffffff" d="M-42.265,-285.775C-42.265,-274.729,-35.698,-265.775,-27.598,-265.775C-19.498,-265.775,-12.931,-274.729,-12.931,-285.775C-12.931,-296.821,-19.498,-305.775,-27.598,-305.775C-35.698,-305.775,-42.265,-296.821,-42.265,-285.775Z" /></g><g id="i3"><path fill="#ffffff" d="M-105.408,-277.369C-105.408,-266.323,-98.841,-257.369,-90.741,-257.369C-82.641,-257.369,-76.075,-266.323,-76.075,-277.369C-76.075,-288.415,-82.641,-297.369,-90.741,-297.369C-98.841,-297.369,-105.408,-288.415,-105.408,-277.369Z" /></g><g><g transform="translate(-58.211,27.797)"><g transform="scale(0,0)"><animateTransform repeatCount="indefinite" type="scale" attributeName="transform" dur="3.5s" begin="0s" calcMode="spline" values="0 0; 0 0; 1 1; 1 1" keyTimes="0; 0.714286; 0.840002; 1" keySplines="0 0 1 1; 0.62 0 0.833 0.833; 0 0 1 1" fill="freeze" /><g id="i4" transform="translate(58.211,-27.797)"><path fill="#003e1f" d="M-80.206,102.715C-80.206,102.715,-34.188,107.626,-34.188,107.626C-25.221,108.583,-17.402,101.554,-17.402,92.536C-17.402,92.536,-17.402,-35.13,-17.402,-35.13C-17.402,-43.805,-24.661,-50.714,-33.325,-50.287C-33.325,-50.287,-79.343,-48.017,-79.343,-48.017C-87.424,-47.618,-93.771,-40.95,-93.771,-32.86C-93.771,-32.86,-93.771,87.625,-93.771,87.625C-93.771,95.383,-87.92,101.892,-80.206,102.715Z" /></g></g></g></g><g id="i16" transform="matrix(1,0,0,1,0,0)"><g id="i10"><path fill="#003e1f" fill-opacity="0" d="M-398.045,-70.451C-398.045,-70.451,24.143,-91.97,24.143,-91.97C24.143,-91.97,23.767,-255.355,23.767,-255.355C23.767,-255.355,-398.477,-205.087,-398.477,-205.087C-398.477,-205.087,-398.045,-70.451,-398.045,-70.451Z"><animate repeatCount="indefinite" attributeName="fill-opacity" dur="3.5s" begin="0s" fill="freeze" values="0; 0; 1; 1" keyTimes="0; 0.741905; 0.793973; 1" keySplines="0 0 1 1; 0.19 0 0.81 1; 0 0 1 1" calcMode="spline" /></path></g><g id="i7" opacity="0"><animate repeatCount="indefinite" attributeName="opacity" dur="3.5s" begin="0s" fill="freeze" values="0; 0; 1; 1" keyTimes="0; 0.741905; 0.767941; 1" keySplines="0 0 1 1; 0.58 0 0.42 1; 0 0 1 1" calcMode="spline" /><path d="M-404.598,-204.615C-404.598,-204.615,-404.598,-70.451,-404.598,-70.451C-404.598,-70.451,-398.769,-70.281,-398.769,-70.281C-405.063,-139.083,-396.563,-121.583,-399.951,-204.997C-399.951,-204.997,-404.598,-204.615,-404.598,-204.615Z" fill="#ff9f1c"><animate repeatCount="indefinite" attributeName="d" dur="3.5s" begin="0s" calcMode="spline" values="M-404.598,-204.615C-404.598,-204.615,-404.598,-70.451,-404.598,-70.451C-404.598,-70.451,-398.769,-70.281,-398.769,-70.281C-405.063,-139.083,-396.563,-121.583,-399.951,-204.997C-399.951,-204.997,-404.598,-204.615,-404.598,-204.615Z; M-404.598,-204.615C-404.598,-204.615,-404.598,-70.451,-404.598,-70.451C-404.598,-70.451,-398.769,-70.281,-398.769,-70.281C-405.063,-139.083,-396.563,-121.583,-399.951,-204.997C-399.951,-204.997,-404.598,-204.615,-404.598,-204.615Z; M-404.598,-204.615C-404.598,-204.615,-404.598,-70.451,-404.598,-70.451C-404.598,-70.451,-174.769,-81.281,-174.769,-81.281C-198.669,-138.811,-250.101,-190.927,-316.951,-214.997C-316.951,-214.997,-404.598,-204.615,-404.598,-204.615Z; M-404.598,-204.615C-404.598,-204.615,-404.598,-70.451,-404.598,-70.451C-404.598,-70.451,-174.769,-81.281,-174.769,-81.281C-198.669,-138.811,-250.101,-190.927,-316.951,-214.997C-316.951,-214.997,-404.598,-204.615,-404.598,-204.615Z" keyTimes="0; 0.741905; 0.840002; 1" keySplines="0 0 1 1; 0 0 1 1; 0 0 1 1" fill="freeze" /></path></g></g><g id="i14" transform="matrix(1,0,0,1,0,0)"><g id="i5"><path stroke-linejoin="round" stroke-linecap="round" stroke-width="8" stroke="#000000" fill="#ffffff" d="M-120.572,-167.916"><set fill="freeze" dur="0.033s" begin="2.5966666666666667s" to="M-120.572,-167.916" attributeName="d" /><set fill="freeze" dur="0.033s" begin="2.6300000000000003s" to="M-288.356,-151.3C-290.863,-151.052,-292.239,-150.916,-292.239,-150.916M-120.572,-167.916" attributeName="d" /><set fill="freeze" dur="0.033s" begin="2.6633333333333336s" to="M-270.924,-153.027C-283.911,-151.741,-292.239,-150.916,-292.239,-150.916M-120.572,-167.916" attributeName="d" /><set fill="freeze" dur="0.033s" begin="2.6966666666666668s" to="M-227.242,-157.353C-262.193,-153.891,-292.239,-150.916,-292.239,-150.916M-120.572,-167.916" attributeName="d" /><set fill="freeze" dur="0.033s" begin="2.73s" to="M-182.654,-161.768C-231.807,-156.901,-292.239,-150.916,-292.239,-150.916M-120.572,-167.916" attributeName="d" /><set fill="freeze" dur="0.033s" begin="2.7633333333333336s" to="M-156.466,-164.362C-206.791,-159.378,-292.239,-150.916,-292.239,-150.916M-120.572,-167.916" attributeName="d" /><set fill="freeze" dur="0.033s" begin="2.796666666666667s" to="M-140.791,-165.914C-186.181,-161.419,-292.238,-150.916,-292.239,-150.916M-120.572,-167.916" attributeName="d" /><set fill="freeze" dur="0.033s" begin="2.83s" to="M-131.07,-166.876C-168.363,-163.183,-292.238,-150.916,-292.239,-150.916M-120.572,-167.916" attributeName="d" /><set fill="freeze" dur="0.033s" begin="2.8633333333333337s" to="M-125.158,-167.462C-152.445,-164.76,-292.238,-150.916,-292.239,-150.916M-120.572,-167.916" attributeName="d" /><set fill="freeze" dur="0.033s" begin="2.896666666666667s" to="M-121.909,-167.784C-137.911,-166.199,-292.238,-150.916,-292.239,-150.916M-120.572,-167.916" attributeName="d" /><set fill="freeze" dur="0.033s" begin="2.93s" to="M-120.638,-167.909C-124.442,-167.533,-292.238,-150.916,-292.239,-150.916M-120.572,-167.916" attributeName="d" /></path></g><g id="i11"><path stroke-linejoin="round" stroke-linecap="round" stroke-width="8" stroke="#000000" fill="#ffffff" d="M-145.572,-12.434"><set fill="freeze" dur="0.033s" begin="2.5966666666666667s" to="M-145.572,-12.434" attributeName="d" /><set fill="freeze" dur="0.033s" begin="2.6300000000000003s" to="M-343.981,-10.479C-346.944,-10.45,-348.572,-10.434,-348.572,-10.434M-145.572,-12.434" attributeName="d" /><set fill="freeze" dur="0.033s" begin="2.6633333333333336s" to="M-323.366,-10.682C-338.724,-10.531,-348.572,-10.434,-348.572,-10.434M-145.572,-12.434" attributeName="d" /><set fill="freeze" dur="0.033s" begin="2.6966666666666668s" to="M-271.712,-11.191C-313.042,-10.784,-348.572,-10.434,-348.572,-10.434M-145.572,-12.434" attributeName="d" /><set fill="freeze" dur="0.033s" begin="2.73s" to="M-218.986,-11.711C-277.11,-11.138,-348.572,-10.434,-348.572,-10.434M-145.572,-12.434" attributeName="d" /><set fill="freeze" dur="0.033s" begin="2.7633333333333336s" to="M-188.017,-12.016C-247.528,-11.43,-348.571,-10.434,-348.572,-10.434M-145.572,-12.434" attributeName="d" /><set fill="freeze" dur="0.033s" begin="2.796666666666667s" to="M-169.481,-12.198C-223.156,-11.67,-348.571,-10.434,-348.572,-10.434M-145.572,-12.434" attributeName="d" /><set fill="freeze" dur="0.033s" begin="2.83s" to="M-157.986,-12.312C-202.086,-11.877,-348.571,-10.434,-348.572,-10.434M-145.572,-12.434" attributeName="d" /><set fill="freeze" dur="0.033s" begin="2.8633333333333337s" to="M-150.995,-12.381C-183.263,-12.063,-348.571,-10.434,-348.572,-10.434M-145.572,-12.434" attributeName="d" /><set fill="freeze" dur="0.033s" begin="2.896666666666667s" to="M-147.153,-12.418C-166.076,-12.232,-348.571,-10.434,-348.572,-10.434M-145.572,-12.434" attributeName="d" /><set fill="freeze" dur="0.033s" begin="2.93s" to="M-145.65,-12.433C-150.148,-12.389,-348.571,-10.434,-348.572,-10.434M-145.572,-12.434" attributeName="d" /></path></g><g id="i12"><path stroke-linejoin="round" stroke-linecap="round" stroke-width="8" stroke="#000000" fill="#ffffff" d="M-143.572,60.704"><set fill="freeze" dur="0.033s" begin="2.5966666666666667s" to="M-143.572,60.704" attributeName="d" /><set fill="freeze" dur="0.033s" begin="2.6300000000000003s" to="M-343.936,47.021C-346.928,46.816,-348.572,46.704,-348.572,46.704M-143.572,60.704" attributeName="d" /><set fill="freeze" dur="0.033s" begin="2.6633333333333336s" to="M-323.118,48.442C-338.627,47.383,-348.572,46.704,-348.572,46.704M-143.572,60.704" attributeName="d" /><set fill="freeze" dur="0.033s" begin="2.6966666666666668s" to="M-270.954,52.005C-312.692,49.154,-348.572,46.704,-348.572,46.704M-143.572,60.704" attributeName="d" /><set fill="freeze" dur="0.033s" begin="2.73s" to="M-217.709,55.641C-276.406,51.632,-348.572,46.704,-348.572,46.704M-143.572,60.704" attributeName="d" /><set fill="freeze" dur="0.033s" begin="2.7633333333333336s" to="M-186.435,57.777C-246.533,53.673,-348.571,46.704,-348.572,46.704M-143.572,60.704" attributeName="d" /><set fill="freeze" dur="0.033s" begin="2.796666666666667s" to="M-167.717,59.055C-221.921,55.353,-348.571,46.704,-348.572,46.704M-143.572,60.704" attributeName="d" /><set fill="freeze" dur="0.033s" begin="2.83s" to="M-156.108,59.848C-200.643,56.806,-348.571,46.704,-348.572,46.704M-143.572,60.704" attributeName="d" /><set fill="freeze" dur="0.033s" begin="2.8633333333333337s" to="M-149.049,60.33C-181.634,58.105,-348.571,46.704,-348.572,46.704M-143.572,60.704" attributeName="d" /><set fill="freeze" dur="0.033s" begin="2.896666666666667s" to="M-145.168,60.595C-164.278,59.29,-348.571,46.704,-348.572,46.704M-143.572,60.704" attributeName="d" /><set fill="freeze" dur="0.033s" begin="2.93s" to="M-143.65,60.699C-148.193,60.388,-348.571,46.704,-348.572,46.704M-143.572,60.704" attributeName="d" /></path></g></g><g id="i8"><path stroke-linejoin="round" stroke-linecap="round" stroke-width="8" stroke="#000000" d="M-392.173,100.517C-392.173,100.517,9.232,160.447,9.232,160.447C18.042,161.762,25.962,154.938,25.962,146.03C25.962,146.03,25.962,-312.208,25.962,-312.208C25.962,-321.116,18.042,-327.94,9.232,-326.625C9.232,-326.625,-392.173,-266.695,-392.173,-266.695C-399.313,-265.629,-404.598,-259.498,-404.598,-252.278C-404.598,-252.278,-404.598,86.1,-404.598,86.1C-404.598,93.32,-399.313,99.451,-392.173,100.517Z" /></g><g><g id="i9" transform="translate(0,-163)"><animateTransform repeatCount="indefinite" type="translate" attributeName="transform" dur="3.5s" begin="0s" calcMode="spline" values="0 -163; 0 -163; 0 0; 0 0" keyTimes="0; 0.689848; 0.780953; 1" keySplines="0 0 1 1; 0 0 1 1; 0 0 1 1" fill="freeze" /><path stroke-linejoin="round" stroke-linecap="round" stroke-width="8" stroke="#000000" d="M20.79,-90.575C20.79,-90.575,-404.598,-70.451,-404.598,-70.451" /></g></g></g></g></g></g></svg>